<svg xmlns="http://www.w3.org/2000/svg" xmlns:xlink="http://www.w3.org/1999/xlink" width="500" zoomAndPan="magnify" viewBox="0 0 375 374.999991" height="500" preserveAspectRatio="xMidYMid meet" version="1.0"><defs><clipPath id="4217327f1e"><path d="M 74 237 L 197 237 L 197 366.742188 L 74 366.742188 Z M 74 237 " clip-rule="nonzero"/></clipPath><clipPath id="311a5f78f9"><path d="M 296 43 L 319.691406 43 L 319.691406 55 L 296 55 Z M 296 43 " clip-rule="nonzero"/></clipPath></defs><path fill="#fffc00" d="M 154.839844 17.21875 C 150.726562 18.441406 143.972656 22.707031 138.8125 28.132812 C 133.652344 33.554688 130.042969 40.089844 128.085938 47.761719 C 126.125 55.4375 125.777344 64.214844 126.566406 70.945312 C 127.355469 77.675781 128.527344 81.414062 130.1875 84.96875 C 131.847656 88.519531 133.988281 91.882812 136.605469 95.042969 C 139.222656 98.203125 142.308594 101.167969 145.515625 103.605469 C 148.722656 106.046875 151.871094 107.804688 155.273438 109.152344 C 158.671875 110.5 162.316406 111.441406 166.191406 111.984375 C 170.066406 112.527344 174.175781 112.671875 178.730469 112.375 C 183.285156 112.074219 188.082031 111.027344 192.722656 109.132812 C 197.367188 107.234375 201.847656 104.511719 206.167969 100.972656 C 210.488281 97.4375 214.644531 93.089844 218.019531 88.507812 C 221.394531 83.929688 223.523438 79.703125 224.910156 75.40625 C 226.292969 71.113281 226.90625 66.761719 226.75 62.375 C 226.59375 57.984375 225.671875 53.582031 224.101562 48.972656 C 222.53125 44.367188 220.25 39.65625 217.207031 35.304688 C 214.160156 30.953125 210.359375 26.976562 205.820312 23.363281 C 201.28125 19.753906 196.007812 16.511719 190.625 14.027344 C 185.246094 11.539062 180.28125 10.15625 175.316406 9.613281 C 170.351562 9.070312 165.382812 9.308594 160.40625 10.40625 C 155.433594 11.5 150.515625 13.550781 147.109375 15.722656 C 143.703125 17.894531 145.75 21.605469 148.066406 20.328125 C 148.066406 20.328125 152.839844 18.28125 157.210938 16.550781 C 161.585938 14.816406 165.976562 13.824219 170.429688 13.671875 C 174.882812 13.519531 179.386719 14.234375 183.9375 15.75 C 188.484375 17.261719 193.980469 20.105469 198.753906 23.273438 C 203.523438 26.445312 207.554688 29.925781 210.847656 33.71875 C 214.140625 37.507812 216.707031 41.613281 218.582031 46.078125 C 220.457031 50.542969 221.789062 54.621094 222.394531 58.574219 C 223.003906 62.527344 222.914062 66.433594 222.136719 70.320312 C 221.363281 74.207031 219.878906 78.085938 217.699219 81.941406 C 215.523438 85.796875 211.667969 90.4375 207.683594 94.308594 C 203.703125 98.175781 199.625 101.226562 195.449219 103.480469 C 191.277344 105.734375 187.003906 107.1875 182.597656 107.882812 C 178.191406 108.574219 174.1875 108.6875 170.425781 108.429688 C 166.667969 108.171875 163.164062 107.546875 159.917969 106.558594 C 156.671875 105.566406 153.667969 104.222656 150.914062 102.519531 C 148.15625 100.820312 144.996094 98.167969 142.277344 95.351562 C 139.558594 92.539062 137.308594 89.566406 135.503906 86.441406 C 133.703125 83.316406 132.351562 80.03125 131.453125 76.632812 C 130.550781 73.234375 129.886719 64.136719 130.726562 56.28125 C 131.5625 48.425781 133.867188 41.785156 137.640625 36.316406 C 141.410156 30.847656 146.746094 26.621094 149.730469 24.710938 C 156.496094 21.253906 151.0625 18.769531 154.839844 17.21875 Z M 154.839844 17.21875 " fill-opacity="1" fill-rule="nonzero"/><path fill="#fffc00" d="M 167.378906 108.722656 C 167.398438 109.875 167.917969 112.292969 168.457031 115.160156 C 168.992188 118.027344 169.453125 121.367188 169.765625 125.179688 C 170.078125 128.996094 170.222656 133.277344 170.121094 136.515625 C 170.023438 139.757812 169.859375 141.648438 169.699219 143.351562 C 169.535156 145.054688 169.375 146.570312 169.214844 147.898438 C 169.050781 149.226562 168.882812 150.359375 167.925781 155.636719 C 166.964844 160.914062 165.425781 169.351562 164.234375 176.101562 C 163.042969 182.847656 162.183594 187.902344 161.667969 191.289062 C 161.152344 194.675781 160.964844 196.480469 160.792969 199.003906 C 160.621094 201.527344 160.300781 205.863281 160.105469 209.785156 C 159.914062 213.707031 159.859375 217.222656 159.929688 220.332031 C 160 223.441406 160.207031 226.152344 160.578125 229.011719 C 160.945312 231.871094 161.53125 235.039062 162.308594 237.941406 C 163.089844 240.839844 164.078125 243.472656 165.28125 245.835938 C 166.484375 248.199219 167.90625 250.289062 169.609375 252.214844 C 171.3125 254.140625 173.234375 255.855469 175.253906 257.136719 C 177.273438 258.417969 179.390625 259.246094 181.578125 259.585938 C 183.769531 259.929688 185.992188 259.78125 188.546875 259.144531 C 191.105469 258.503906 194.035156 257.234375 196.820312 255.335938 C 199.605469 253.441406 202.246094 250.941406 204.75 247.855469 C 207.253906 244.769531 209.628906 241.09375 211.6875 237.109375 C 213.742188 233.125 215.332031 229.121094 216.613281 224.914062 C 217.894531 220.707031 218.863281 216.296875 219.519531 211.6875 C 220.175781 207.074219 220.519531 202.265625 220.546875 197.699219 C 220.574219 193.132812 220.289062 188.820312 219.699219 184.304688 C 219.105469 179.792969 218.226562 175.070312 217.050781 170.140625 C 215.871094 165.210938 214.402344 160.074219 209.332031 147.390625 C 204.261719 134.707031 196.132812 114.617188 193.542969 109.652344 C 190.953125 104.6875 187.144531 106.535156 188.761719 109.867188 C 188.761719 109.867188 191.664062 116.578125 200.269531 136.394531 C 208.875 156.210938 210.476562 161.261719 211.832031 166.210938 C 213.1875 171.160156 214.242188 175.890625 215.011719 180.394531 C 215.78125 184.902344 216.257812 189.183594 216.453125 193.242188 C 216.644531 197.296875 216.519531 202.066406 216.085938 206.625 C 215.65625 211.1875 214.929688 215.539062 213.914062 219.679688 C 212.898438 223.820312 211.589844 227.753906 209.988281 231.46875 C 208.390625 235.183594 206.214844 239.035156 203.957031 242.289062 C 201.699219 245.546875 199.382812 248.195312 197.011719 250.230469 C 194.636719 252.265625 192.222656 253.707031 189.714844 254.59375 C 187.203125 255.480469 185.449219 255.851562 183.816406 255.839844 C 182.179688 255.824219 180.582031 255.441406 178.972656 254.679688 C 177.363281 253.917969 175.734375 252.75 174.089844 251.136719 C 172.441406 249.523438 171.097656 247.898438 169.929688 246.007812 C 168.761719 244.121094 167.757812 241.941406 166.925781 239.46875 C 166.089844 236.992188 165.433594 234.222656 164.953125 231.136719 C 164.476562 228.050781 164.195312 225.761719 164.042969 223.066406 C 163.890625 220.375 163.867188 217.242188 163.976562 213.683594 C 164.085938 210.121094 164.320312 206.132812 164.691406 201.691406 C 165.0625 197.25 165.007812 196.695312 165.285156 194.578125 C 165.5625 192.457031 166.195312 188.570312 167.171875 182.976562 C 168.148438 177.378906 169.46875 170.085938 171.136719 161.09375 C 172.804688 152.097656 172.988281 150.996094 173.164062 149.738281 C 173.339844 148.480469 173.519531 147.046875 173.691406 145.433594 C 173.867188 143.816406 174.035156 142.023438 174.207031 140 C 174.378906 137.976562 174.4375 133.277344 174.433594 129.03125 C 174.433594 124.78125 174.289062 120.953125 173.964844 117.539062 C 173.640625 114.125 173.0625 111.128906 172.476562 109.789062 C 171.507812 107.324219 167.761719 109.855469 167.378906 108.722656 Z M 167.378906 108.722656 " fill-opacity="1" fill-rule="nonzero"/><path fill="#fffc00" d="M 178.820312 249.34375 C 177.320312 253.246094 175.480469 261.878906 173.621094 271.304688 C 171.761719 280.726562 169.894531 290.953125 168.125 302.007812 C 166.355469 313.0625 164.683594 324.949219 163.84375 331.328125 C 163 337.707031 162.886719 338.089844 162.769531 338.375 C 162.652344 338.65625 162.539062 338.839844 162.453125 338.941406 C 162.367188 339.039062 162.304688 339.085938 161.933594 339.34375 C 161.5625 339.601562 161.425781 339.648438 160.921875 339.65625 C 160.417969 339.664062 159.554688 339.511719 158.398438 339.148438 C 157.242188 338.78125 155.820312 338.199219 150.53125 335.292969 C 145.242188 332.390625 137.070312 327.828125 130.285156 324.117188 C 123.496094 320.410156 118.09375 317.546875 114.0625 315.519531 C 110.03125 313.496094 107.332031 312.304688 104.578125 311.277344 C 101.820312 310.253906 98.265625 308.945312 95.082031 307.855469 C 91.898438 306.761719 89.082031 305.902344 86.625 305.257812 C 84.171875 304.621094 82.070312 304.203125 80.09375 304.160156 C 78.113281 304.121094 76.269531 304.921875 74.707031 306.417969 C 73.148438 307.914062 71.773438 310.011719 70.5 312.714844 C 69.226562 315.414062 68.023438 318.742188 67.296875 322.667969 C 66.570312 326.597656 66.566406 329.980469 66.882812 332.910156 C 67.199219 335.839844 67.863281 338.328125 68.925781 340.375 C 69.988281 342.425781 71.492188 343.988281 73.707031 344.722656 C 75.921875 345.453125 77.933594 345.070312 79.671875 343.953125 C 81.40625 342.835938 82.804688 341.121094 83.921875 338.894531 C 85.039062 336.667969 85.9375 333.929688 86.503906 331.15625 C 87.070312 328.378906 87.164062 325.859375 86.9375 323.117188 C 86.710938 320.371094 86.171875 317.402344 85.289062 314.210938 C 84.410156 311.015625 83.082031 307.640625 81.769531 305.117188 C 80.457031 302.59375 76.550781 304.234375 77.277344 305.964844 C 77.277344 305.964844 78.28125 309.554688 79.386719 312.660156 C 80.492188 315.765625 81.359375 318.582031 81.910156 321.140625 C 82.464844 323.695312 82.699219 325.988281 82.628906 327.996094 C 82.558594 330 81.902344 332.789062 81.085938 334.996094 C 80.269531 337.203125 79.363281 338.777344 78.441406 339.734375 C 77.519531 340.695312 76.621094 341.136719 75.738281 341.238281 C 74.855469 341.335938 74.121094 340.800781 73.277344 339.722656 C 72.4375 338.640625 71.761719 337.015625 71.300781 334.816406 C 70.84375 332.613281 70.648438 329.847656 70.722656 326.636719 C 70.800781 323.425781 71.863281 320.027344 73 317.128906 C 74.136719 314.226562 75.269531 312.03125 76.351562 310.566406 C 77.433594 309.101562 78.371094 308.355469 79.136719 308.144531 C 79.898438 307.929688 81.390625 308.152344 83.441406 308.605469 C 85.496094 309.0625 87.953125 309.746094 90.8125 310.65625 C 93.667969 311.5625 96.914062 312.695312 100.5625 314.066406 C 104.210938 315.4375 105.835938 316 108.828125 317.398438 C 111.824219 318.800781 116.253906 321.0625 122.085938 324.191406 C 127.917969 327.320312 135.136719 331.3125 143.769531 336.15625 C 152.398438 341 154.210938 341.847656 155.75 342.445312 C 157.289062 343.039062 158.664062 343.417969 159.925781 343.558594 C 161.1875 343.699219 162.378906 343.539062 163.277344 343.074219 C 164.175781 342.605469 164.425781 342.484375 164.929688 342.058594 C 165.433594 341.628906 165.835938 341.117188 166.148438 340.542969 C 166.460938 339.972656 166.691406 339.351562 166.871094 338.625 C 167.054688 337.902344 168.683594 325.492188 170.410156 313.9375 C 172.136719 302.386719 173.964844 291.671875 175.894531 281.800781 C 177.824219 271.929688 180.066406 262.949219 181.011719 258.703125 C 183.03125 250.480469 177.75 253.328125 178.820312 249.34375 Z M 178.820312 249.34375 " fill-opacity="1" fill-rule="nonzero"/><g clip-path="url(#4217327f1e)"><path fill="#fffc00" d="M 191.585938 237.65625 C 191.207031 239.121094 191.066406 242.367188 190.960938 246.097656 C 190.855469 249.828125 190.636719 254.042969 190.257812 258.734375 C 189.875 263.421875 189.253906 268.574219 187.679688 277.691406 C 186.101562 286.808594 183.886719 298.859375 182.054688 309.648438 C 180.222656 320.4375 178.777344 329.96875 177.710938 338.246094 C 176.644531 346.523438 175.964844 353.550781 175.691406 356.898438 C 175.417969 360.246094 175.257812 360.875 175.078125 361.347656 C 174.902344 361.824219 174.726562 362.136719 174.59375 362.304688 C 174.460938 362.46875 174.382812 362.527344 174.113281 362.324219 C 173.84375 362.117188 171.824219 361.101562 168.980469 358.988281 C 166.136719 356.875 162.5625 353.679688 158.296875 349.414062 C 154.035156 345.152344 149.085938 339.835938 145.574219 335.96875 C 142.058594 332.105469 139.601562 329.34375 135.800781 324.863281 C 132.003906 320.386719 126.867188 314.214844 120.40625 306.351562 C 113.945312 298.484375 106.160156 288.925781 101.5 283.238281 C 96.839844 277.550781 96.207031 276.761719 95.359375 275.539062 C 94.511719 274.316406 93.484375 272.675781 92.273438 270.636719 C 91.0625 268.597656 89.675781 266.164062 86.941406 264.613281 C 84.210938 263.066406 82.585938 264.132812 81.222656 265.753906 C 79.859375 267.371094 78.6875 269.496094 77.644531 272.132812 C 76.601562 274.769531 75.664062 277.933594 75.050781 281.070312 C 74.4375 284.210938 74.3125 286.734375 74.480469 289.125 C 74.648438 291.511719 75.113281 293.761719 75.894531 295.855469 C 76.675781 297.945312 77.761719 299.875 79.140625 301.503906 C 80.519531 303.132812 81.996094 304.132812 83.742188 304.351562 C 85.484375 304.570312 87.078125 303.734375 88.125 302.285156 C 89.171875 300.839844 89.894531 298.933594 90.503906 296.328125 C 91.109375 293.726562 91.59375 290.578125 91.910156 287.179688 C 92.230469 283.785156 92.355469 280.125 92.265625 276.203125 C 92.179688 272.28125 91.757812 268.105469 91.097656 264.917969 C 90.441406 261.726562 86.238281 262.265625 86.511719 264.402344 C 86.511719 264.402344 86.566406 268.699219 86.941406 272.621094 C 87.316406 276.546875 87.5625 280.195312 87.578125 283.578125 C 87.589844 286.964844 87.375 290.082031 86.898438 292.917969 C 86.421875 295.757812 85.917969 297.671875 85.386719 298.855469 C 84.855469 300.042969 84.46875 300.480469 84.367188 300.527344 C 84.261719 300.570312 83.894531 300.4375 83.078125 299.746094 C 82.261719 299.050781 81.253906 297.644531 80.457031 296.054688 C 79.664062 294.464844 79.109375 292.714844 78.796875 290.796875 C 78.484375 288.878906 78.421875 286.78125 78.613281 284.542969 C 78.800781 282.300781 79.613281 279 80.503906 276.226562 C 81.394531 273.453125 82.34375 271.285156 83.308594 269.734375 C 84.269531 268.1875 85.183594 267.253906 85.152344 266.632812 C 85.121094 266.007812 86.144531 268.148438 87.5 270.492188 C 88.851562 272.839844 90.046875 274.800781 91.078125 276.386719 C 92.113281 277.972656 93 279.195312 93.683594 279.988281 C 94.371094 280.78125 103.050781 291.453125 110.410156 300.449219 C 117.765625 309.445312 123.796875 316.757812 128.507812 322.378906 C 133.222656 328.003906 136.613281 331.949219 138.675781 334.199219 C 140.738281 336.453125 146.152344 342.507812 150.929688 347.546875 C 155.707031 352.589844 159.839844 356.59375 163.351562 359.574219 C 166.859375 362.554688 169.785156 364.523438 172.269531 365.472656 C 174.753906 366.421875 176.410156 365.976562 177.023438 365.449219 C 177.640625 364.925781 178.113281 364.28125 178.472656 363.550781 C 178.828125 362.816406 179.101562 362.003906 179.316406 361.015625 C 179.535156 360.023438 179.960938 353.890625 180.769531 346.535156 C 181.582031 339.183594 182.785156 330.554688 184.371094 320.65625 C 185.957031 310.757812 187.933594 299.589844 190.300781 287.136719 C 192.671875 274.679688 193.417969 269.101562 194.050781 264.066406 C 194.679688 259.03125 195.257812 254.460938 195.6875 250.339844 C 196.117188 246.21875 196.359375 242.539062 196.160156 240.832031 C 195.949219 237.617188 191.601562 239.160156 191.585938 237.65625 Z M 191.585938 237.65625 " fill-opacity="1" fill-rule="nonzero"/></g><path fill="#fffc00" d="M 197.519531 124.789062 C 198.113281 124.644531 199.183594 124.058594 200.265625 123.328125 C 201.347656 122.597656 202.464844 121.753906 203.621094 120.800781 C 204.777344 119.851562 205.984375 118.808594 210.527344 114.617188 C 215.070312 110.421875 222.339844 103.945312 228.660156 98.472656 C 234.976562 92.996094 240.300781 88.472656 244.617188 84.898438 C 248.933594 81.320312 252.234375 78.6875 255.0625 76.535156 C 257.890625 74.382812 261.332031 71.902344 265.40625 69.105469 C 269.484375 66.304688 274.203125 63.203125 279.632812 59.90625 C 285.0625 56.605469 291.128906 53.011719 295.792969 49.808594 C 300.453125 46.609375 298.21875 43.011719 295.019531 45 C 295.019531 45 288.335938 48.539062 282.652344 52.375 C 276.96875 56.210938 271.894531 59.699219 267.382812 62.777344 C 262.871094 65.855469 258.976562 68.609375 255.710938 71.050781 C 252.445312 73.492188 249.777344 75.546875 246.097656 78.535156 C 242.417969 81.519531 237.730469 85.421875 232.039062 90.25 C 226.34375 95.078125 219.632812 100.824219 211.804688 107.367188 C 203.972656 113.90625 202.730469 114.871094 201.535156 115.792969 C 200.335938 116.71875 199.21875 117.570312 198.191406 118.375 C 197.164062 119.175781 196.242188 119.945312 195.886719 120.40625 C 195.074219 121.179688 197.976562 124.480469 197.519531 124.789062 Z M 197.519531 124.789062 " fill-opacity="1" fill-rule="nonzero"/><path fill="#fffc00" d="M 66.160156 35.289062 C 66.601562 35.886719 67.761719 36.839844 69.078125 37.84375 C 70.398438 38.851562 71.851562 39.945312 73.425781 41.160156 C 74.996094 42.371094 76.679688 43.710938 80.984375 47.488281 C 85.285156 51.265625 92.269531 57.695312 99.515625 64.339844 C 106.761719 70.984375 114.28125 77.832031 122.070312 84.882812 C 129.863281 91.929688 137.929688 99.183594 143.667969 104.261719 C 149.40625 109.335938 152.3125 111.867188 154.824219 114.070312 C 157.335938 116.277344 159.464844 118.144531 161.222656 119.660156 C 162.984375 121.175781 164.382812 122.335938 165.332031 123.074219 C 166.28125 123.808594 167 124.3125 167.699219 124.765625 C 168.398438 125.21875 169.082031 125.609375 169.757812 125.929688 C 170.433594 126.246094 171.101562 126.484375 171.53125 126.695312 C 171.957031 126.90625 174.058594 123.226562 173.789062 123.074219 C 173.789062 123.074219 173.300781 122.726562 172.835938 122.292969 C 172.367188 121.863281 171.847656 121.429688 171.273438 120.976562 C 170.703125 120.523438 170.078125 120.054688 169.417969 119.554688 C 168.761719 119.054688 167.625 118.203125 166.078125 117.027344 C 164.527344 115.851562 162.566406 114.359375 160.203125 112.53125 C 157.84375 110.703125 155.101562 108.527344 152.007812 106 C 148.914062 103.472656 140.628906 96.160156 132.640625 89.007812 C 124.652344 81.855469 116.960938 74.882812 109.566406 68.089844 C 102.171875 61.296875 95.070312 54.679688 88.332031 48.164062 C 81.59375 41.648438 79.851562 40.039062 78.242188 38.59375 C 76.632812 37.148438 75.09375 35.851562 73.621094 34.710938 C 72.148438 33.570312 70.714844 32.617188 69.921875 32.316406 C 68.519531 31.621094 66.773438 35.683594 66.160156 35.289062 Z M 66.160156 35.289062 " fill-opacity="1" fill-rule="nonzero"/><path fill="#fffc00" d="M 298.050781 26.148438 C 297.734375 26.515625 297.277344 27.441406 296.878906 28.582031 C 296.480469 29.722656 296.132812 31.074219 295.820312 32.640625 C 295.507812 34.207031 295.214844 35.984375 295.019531 37.359375 C 294.824219 38.730469 294.738281 39.476562 294.667969 40.160156 C 294.597656 40.839844 294.539062 41.457031 294.496094 42.011719 C 294.457031 42.570312 294.433594 43.066406 294.417969 43.46875 C 294.40625 43.871094 294.417969 44.234375 294.460938 44.59375 C 294.5 44.953125 294.574219 45.304688 294.675781 45.652344 C 294.78125 46 294.910156 46.335938 295.128906 46.773438 C 295.34375 47.210938 295.757812 47.808594 296.261719 48.3125 C 296.769531 48.816406 297.347656 49.234375 297.984375 49.566406 C 298.617188 49.902344 299.304688 50.167969 299.828125 50.105469 C 300.351562 50.042969 301.523438 45.96875 301.238281 45.886719 C 301.238281 45.886719 300.855469 45.347656 300.523438 45.234375 C 300.1875 45.121094 299.945312 45.003906 299.78125 44.902344 C 299.621094 44.800781 299.523438 44.714844 299.433594 44.589844 C 299.34375 44.460938 299.296875 44.375 299.253906 44.289062 C 299.214844 44.199219 299.183594 44.121094 299.160156 44.042969 C 299.136719 43.964844 299.121094 43.886719 299.113281 43.800781 C 299.105469 43.710938 299.136719 43.363281 299.1875 42.9375 C 299.238281 42.507812 299.304688 42 299.398438 41.417969 C 299.488281 40.835938 299.605469 40.183594 299.738281 39.472656 C 299.871094 38.761719 300.257812 36.914062 300.613281 35.289062 C 300.972656 33.660156 301.289062 32.257812 301.542969 31.078125 C 301.796875 29.894531 301.992188 28.941406 301.972656 28.539062 C 302.097656 27.773438 297.90625 26.511719 298.050781 26.148438 Z M 298.050781 26.148438 " fill-opacity="1" fill-rule="nonzero"/><path fill="#fffc00" d="M 300.1875 46.828125 C 301.058594 46.742188 302.476562 46.214844 303.660156 45.683594 C 304.839844 45.152344 305.808594 44.65625 306.585938 44.226562 C 307.367188 43.796875 307.988281 43.4375 308.453125 43.160156 C 308.921875 42.878906 309.574219 42.464844 310.265625 41.960938 C 310.953125 41.457031 311.6875 40.863281 312.445312 40.148438 C 313.203125 39.4375 313.957031 38.570312 314.5625 37.917969 C 315.171875 37.261719 312.375 34.082031 311.933594 34.46875 C 311.933594 34.46875 310.941406 35.097656 310.074219 35.667969 C 309.203125 36.234375 308.453125 36.761719 307.808594 37.226562 C 307.164062 37.691406 306.613281 38.078125 306.109375 38.402344 C 305.609375 38.726562 305.230469 38.988281 304.707031 39.28125 C 304.183594 39.570312 303.417969 39.953125 302.4375 40.441406 C 301.460938 40.925781 300.28125 41.535156 299.699219 42.027344 C 298.375 42.863281 300.933594 46.484375 300.1875 46.828125 Z M 300.1875 46.828125 " fill-opacity="1" fill-rule="nonzero"/><path fill="#fffc00" d="M 56.082031 39.40625 C 56.480469 39.472656 57.445312 39.398438 58.71875 39.230469 C 59.996094 39.066406 61.578125 38.824219 63.464844 38.507812 C 65.351562 38.1875 67.542969 37.828125 69.175781 37.519531 C 70.8125 37.210938 71.375 37.011719 71.90625 36.75 C 72.433594 36.484375 72.933594 36.136719 73.378906 35.664062 C 73.824219 35.191406 74.164062 34.578125 74.367188 33.8125 C 74.566406 33.050781 74.695312 31.957031 74.722656 30.789062 C 74.746094 29.625 74.667969 28.367188 74.464844 27.011719 C 74.261719 25.652344 73.953125 24.191406 73.484375 22.535156 C 73.015625 20.875 72.449219 19.242188 71.828125 17.742188 C 71.207031 16.246094 70.503906 14.890625 69.707031 13.703125 C 68.910156 12.511719 67.988281 11.523438 67.359375 10.886719 C 66.734375 10.246094 63.4375 12.90625 63.796875 13.347656 C 63.796875 13.347656 64.332031 14.285156 64.824219 15.28125 C 65.316406 16.273438 65.863281 17.359375 66.445312 18.574219 C 67.023438 19.785156 67.617188 21.140625 68.195312 22.632812 C 68.777344 24.121094 69.203125 25.445312 69.519531 26.65625 C 69.835938 27.871094 70.027344 28.941406 70.121094 29.855469 C 70.214844 30.773438 70.167969 31.527344 70.015625 32.152344 C 69.863281 32.773438 69.894531 32.671875 69.972656 32.539062 C 70.050781 32.40625 70.070312 32.375 69.980469 32.414062 C 69.890625 32.449219 69.683594 32.523438 69.480469 32.585938 C 69.273438 32.644531 66.894531 32.867188 64.75 33.105469 C 62.601562 33.339844 60.757812 33.59375 59.210938 33.890625 C 57.667969 34.183594 56.417969 34.527344 55.886719 34.804688 C 54.953125 35.191406 56.484375 39.296875 56.082031 39.40625 Z M 56.082031 39.40625 " fill-opacity="1" fill-rule="nonzero"/><path fill="#fffc00" d="M 57.710938 23.128906 C 58.023438 24.09375 59.144531 25.753906 60.503906 27.351562 C 61.867188 28.945312 63.394531 30.527344 65.035156 32.144531 C 66.675781 33.761719 68.566406 35.273438 70.078125 36.332031 C 71.589844 37.394531 74.355469 34.183594 73.433594 33.390625 C 73.433594 33.390625 71.847656 31.546875 70.253906 29.960938 C 68.65625 28.375 67.125 26.902344 65.789062 25.410156 C 64.453125 23.917969 63.226562 22.488281 62.511719 21.917969 C 61.261719 20.597656 58.246094 23.875 57.710938 23.128906 Z M 57.710938 23.128906 " fill-opacity="1" fill-rule="nonzero"/><g clip-path="url(#311a5f78f9)"><path fill="#fffc00" d="M 296.53125 46.898438 C 296.703125 47.207031 297.1875 47.722656 297.761719 48.1875 C 298.332031 48.652344 298.996094 49.066406 299.734375 49.445312 C 300.476562 49.824219 301.300781 50.171875 302.203125 50.492188 C 303.105469 50.816406 304.175781 51.152344 305.4375 51.503906 C 306.703125 51.855469 308.144531 52.292969 309.78125 52.78125 C 311.417969 53.265625 313.265625 53.738281 314.324219 53.957031 C 315.378906 54.171875 315.554688 54.203125 315.785156 54.25 C 316.019531 54.296875 316.304688 54.347656 316.640625 54.410156 C 316.976562 54.46875 317.363281 54.539062 317.660156 54.652344 C 317.957031 54.765625 319.621094 50.871094 319.421875 50.789062 C 319.421875 50.789062 319.03125 50.597656 318.683594 50.363281 C 318.335938 50.132812 318.011719 49.941406 317.707031 49.777344 C 317.402344 49.617188 317.113281 49.488281 316.832031 49.378906 C 316.550781 49.273438 314.609375 48.660156 312.859375 48.195312 C 311.109375 47.726562 309.554688 47.328125 308.21875 46.929688 C 306.886719 46.53125 305.765625 46.152344 304.859375 45.835938 C 303.949219 45.515625 303.199219 45.246094 302.554688 44.992188 C 301.910156 44.734375 301.355469 44.511719 300.894531 44.304688 C 300.4375 44.101562 300.058594 43.933594 299.898438 43.933594 C 299.566406 43.769531 296.703125 47.066406 296.53125 46.898438 Z M 296.53125 46.898438 " fill-opacity="1" fill-rule="nonzero"/></g><path fill="#fffc00" d="M 142.460938 75.910156 C 142.839844 77.550781 144.328125 80.285156 146.015625 82.648438 C 147.699219 85.011719 149.492188 87.042969 151.367188 88.761719 C 153.246094 90.476562 155.207031 91.871094 157.425781 92.984375 C 159.640625 94.101562 162.023438 94.949219 164.460938 95.5 C 166.898438 96.054688 169.382812 96.304688 171.910156 96.261719 C 174.4375 96.21875 177.007812 95.886719 179.636719 95.164062 C 182.265625 94.4375 184.660156 93.445312 186.84375 92.277344 C 189.03125 91.109375 191.003906 89.761719 192.765625 88.238281 C 194.527344 86.714844 196.0625 85.007812 197.707031 82.601562 C 199.347656 80.195312 200.976562 77.316406 202.292969 74.492188 C 203.613281 71.667969 204.605469 68.890625 205.21875 66.148438 C 205.832031 63.410156 205.941406 60.71875 205.78125 58.855469 C 205.625 56.992188 201.386719 56.945312 201.375 58.152344 C 201.375 58.152344 200.988281 60.449219 200.597656 62.738281 C 200.203125 65.027344 199.644531 67.449219 198.8125 70.007812 C 197.976562 72.570312 196.828125 75.253906 195.367188 78.042969 C 193.910156 80.832031 192.824219 82.375 191.480469 83.804688 C 190.132812 85.230469 188.578125 86.519531 186.792969 87.664062 C 185.011719 88.8125 183.007812 89.816406 180.808594 90.664062 C 178.609375 91.511719 176.355469 91.953125 174.101562 92.148438 C 171.851562 92.34375 169.660156 92.265625 167.527344 91.925781 C 165.394531 91.585938 163.316406 90.96875 161.304688 90.089844 C 159.292969 89.207031 157.71875 88.179688 156.175781 86.824219 C 154.632812 85.46875 153.140625 83.804688 151.707031 81.820312 C 150.273438 79.832031 148.863281 77.546875 147.960938 76.441406 C 146.34375 73.929688 143.175781 77.3125 142.460938 75.910156 Z M 142.460938 75.910156 " fill-opacity="1" fill-rule="nonzero"/><path fill="#fffc00" d="M 148.621094 42.625 C 148.4375 43.203125 148.398438 44.296875 148.46875 45.304688 C 148.539062 46.316406 148.695312 47.246094 148.917969 48.105469 C 149.144531 48.960938 149.445312 49.746094 150.167969 50.675781 C 150.886719 51.605469 151.472656 51.878906 152.441406 51.863281 C 153.40625 51.851562 154.304688 51.292969 154.699219 50.695312 C 155.089844 50.097656 155.214844 49.644531 155.253906 49.394531 C 155.289062 49.148438 155.296875 49.058594 155.304688 48.972656 C 155.3125 48.882812 155.320312 48.796875 155.328125 48.707031 C 155.332031 48.621094 155.335938 48.535156 155.359375 47.871094 C 155.382812 47.210938 155.453125 45.964844 155.460938 45.699219 C 155.46875 45.429688 155.46875 45.222656 155.464844 45.019531 C 155.457031 44.820312 155.445312 44.617188 155.421875 44.421875 C 155.398438 44.222656 155.371094 44.03125 155.324219 43.753906 C 155.273438 43.476562 155.210938 43.191406 155.125 42.914062 C 155.042969 42.636719 154.949219 42.363281 154.835938 42.09375 C 154.722656 41.828125 154.613281 41.59375 154.511719 41.40625 C 154.410156 41.214844 154.292969 41.019531 154.164062 40.808594 C 154.03125 40.59375 153.878906 40.363281 153.703125 40.109375 C 153.527344 39.855469 153.335938 39.597656 153.339844 39.601562 C 153.339844 39.601562 153.3125 39.550781 153.273438 39.492188 C 153.234375 39.433594 153.1875 39.363281 153.140625 39.277344 C 153.089844 39.191406 152.992188 39.023438 152.84375 38.824219 C 152.699219 38.625 152.566406 38.480469 152.359375 38.304688 C 152.152344 38.125 151.808594 37.921875 151.195312 37.773438 C 150.585938 37.628906 150.425781 37.636719 149.480469 38.089844 C 148.535156 38.546875 148.035156 39.367188 147.9375 39.847656 C 147.839844 40.328125 147.835938 40.636719 147.863281 40.898438 C 147.890625 41.160156 147.933594 41.421875 148.015625 41.785156 C 148.097656 42.144531 148.195312 42.527344 148.320312 42.929688 C 148.441406 43.332031 148.597656 43.753906 148.777344 44.066406 C 148.953125 44.375 153.101562 43.519531 153.058594 43.300781 C 153.058594 43.300781 153.183594 42.820312 153.167969 42.414062 C 153.152344 42.007812 153.125 41.636719 153.09375 41.300781 C 153.0625 40.96875 153.039062 40.679688 153.042969 40.605469 C 153.046875 40.53125 153.050781 40.535156 153.042969 40.691406 C 153.03125 40.84375 152.910156 41.273438 152.117188 42.011719 C 151.324219 42.753906 150.726562 42.871094 150.320312 42.828125 C 149.914062 42.78125 149.433594 42.597656 149.179688 42.429688 C 148.925781 42.257812 148.792969 42.128906 148.71875 42.046875 C 148.648438 41.964844 148.503906 41.757812 148.546875 41.832031 C 148.585938 41.902344 148.644531 42.003906 148.695312 42.101562 C 148.746094 42.195312 148.800781 42.285156 148.851562 42.367188 C 148.902344 42.449219 148.996094 42.597656 149.171875 42.855469 C 149.347656 43.113281 149.488281 43.324219 149.601562 43.496094 C 149.714844 43.664062 149.804688 43.792969 149.847656 43.867188 C 149.894531 43.941406 149.910156 43.96875 149.960938 44.066406 C 150.011719 44.164062 150.050781 44.253906 150.089844 44.347656 C 150.125 44.445312 150.15625 44.550781 150.1875 44.660156 C 150.21875 44.773438 150.253906 44.910156 150.261719 44.96875 C 150.269531 45.027344 150.28125 45.105469 150.292969 45.199219 C 150.304688 45.292969 150.3125 45.402344 150.320312 45.53125 C 150.328125 45.65625 150.335938 45.691406 150.246094 46.910156 C 150.152344 48.128906 150.148438 48.179688 150.140625 48.234375 C 150.132812 48.289062 150.128906 48.34375 150.125 48.398438 C 150.117188 48.457031 150.113281 48.511719 150.109375 48.527344 C 150.109375 48.542969 150.109375 48.511719 150.226562 48.222656 C 150.34375 47.933594 150.761719 47.417969 151.613281 47.101562 C 152.464844 46.78125 153.171875 46.90625 153.792969 47.441406 C 154.417969 47.972656 154.316406 47.722656 154.164062 47.242188 C 154.011719 46.765625 153.855469 46.160156 153.707031 45.429688 C 153.558594 44.699219 153.402344 43.847656 153.199219 43.40625 C 152.976562 42.425781 148.644531 43.160156 148.621094 42.625 Z M 148.621094 42.625 " fill-opacity="1" fill-rule="nonzero"/><path fill="#fffc00" d="M 180.15625 38.164062 C 179.972656 38.746094 179.933594 39.835938 180.003906 40.847656 C 180.074219 41.859375 180.230469 42.789062 180.453125 43.644531 C 180.679688 44.503906 180.980469 45.289062 181.703125 46.21875 C 182.421875 47.148438 183.007812 47.417969 183.976562 47.40625 C 184.941406 47.390625 185.839844 46.835938 186.234375 46.234375 C 186.625 45.636719 186.75 45.1875 186.785156 44.9375 C 186.824219 44.6875 186.832031 44.601562 186.839844 44.511719 C 186.847656 44.421875 186.855469 44.335938 186.863281 44.25 C 186.867188 44.164062 186.871094 44.074219 186.894531 43.414062 C 186.914062 42.753906 186.988281 41.507812 186.996094 41.238281 C 187.003906 40.972656 187.003906 40.765625 186.996094 40.5625 C 186.992188 40.359375 186.980469 40.160156 186.957031 39.960938 C 186.933594 39.765625 186.90625 39.570312 186.855469 39.292969 C 186.808594 39.015625 186.746094 38.734375 186.660156 38.457031 C 186.578125 38.179688 186.484375 37.90625 186.371094 37.636719 C 186.257812 37.371094 186.148438 37.136719 186.046875 36.949219 C 185.945312 36.757812 185.828125 36.5625 185.699219 36.347656 C 185.566406 36.136719 185.414062 35.90625 185.238281 35.652344 C 185.0625 35.394531 184.871094 35.140625 184.875 35.140625 C 184.875 35.140625 184.84375 35.09375 184.808594 35.035156 C 184.769531 34.976562 184.722656 34.902344 184.671875 34.820312 C 184.625 34.734375 184.527344 34.566406 184.378906 34.367188 C 184.234375 34.167969 184.101562 34.023438 183.894531 33.84375 C 183.6875 33.667969 183.34375 33.460938 182.730469 33.316406 C 182.121094 33.171875 181.957031 33.179688 181.015625 33.632812 C 180.070312 34.085938 179.570312 34.910156 179.472656 35.390625 C 179.375 35.867188 179.371094 36.179688 179.398438 36.441406 C 179.425781 36.703125 179.46875 36.960938 179.550781 37.324219 C 179.632812 37.6875 179.730469 38.066406 179.851562 38.46875 C 179.976562 38.871094 180.132812 39.296875 180.3125 39.605469 C 180.488281 39.917969 184.636719 39.0625 184.589844 38.839844 C 184.589844 38.839844 184.71875 38.363281 184.703125 37.953125 C 184.6875 37.546875 184.65625 37.179688 184.628906 36.84375 C 184.597656 36.507812 184.574219 36.21875 184.578125 36.148438 C 184.578125 36.074219 184.585938 36.078125 184.574219 36.234375 C 184.566406 36.386719 184.445312 36.816406 183.652344 37.554688 C 182.859375 38.292969 182.261719 38.410156 181.855469 38.367188 C 181.449219 38.324219 180.96875 38.140625 180.714844 37.96875 C 180.460938 37.800781 180.328125 37.671875 180.253906 37.589844 C 180.183594 37.507812 180.039062 37.300781 180.082031 37.371094 C 180.121094 37.445312 180.175781 37.546875 180.230469 37.640625 C 180.28125 37.738281 180.335938 37.828125 180.386719 37.910156 C 180.4375 37.992188 180.53125 38.140625 180.707031 38.398438 C 180.878906 38.65625 181.023438 38.863281 181.136719 39.035156 C 181.25 39.207031 181.335938 39.332031 181.382812 39.40625 C 181.429688 39.480469 181.445312 39.511719 181.496094 39.609375 C 181.546875 39.707031 181.585938 39.796875 181.621094 39.890625 C 181.660156 39.984375 181.691406 40.089844 181.722656 40.203125 C 181.753906 40.3125 181.789062 40.453125 181.796875 40.511719 C 181.804688 40.570312 181.816406 40.644531 181.828125 40.738281 C 181.835938 40.832031 181.847656 40.945312 181.855469 41.070312 C 181.863281 41.199219 181.871094 41.234375 181.78125 42.449219 C 181.6875 43.667969 181.683594 43.71875 181.675781 43.773438 C 181.667969 43.828125 181.664062 43.886719 181.660156 43.941406 C 181.652344 44 181.648438 44.054688 181.644531 44.070312 C 181.644531 44.082031 181.644531 44.054688 181.761719 43.765625 C 181.878906 43.476562 182.296875 42.960938 183.148438 42.640625 C 184 42.324219 184.707031 42.445312 185.328125 42.980469 C 185.953125 43.515625 185.851562 43.265625 185.699219 42.785156 C 185.546875 42.304688 185.390625 41.699219 185.242188 40.96875 C 185.09375 40.238281 184.933594 39.390625 184.734375 38.945312 C 184.511719 37.964844 180.179688 38.703125 180.15625 38.164062 Z M 180.15625 38.164062 " fill-opacity="1" fill-rule="nonzero"/></svg>