<svg xmlns="http://www.w3.org/2000/svg" xmlns:xlink="http://www.w3.org/1999/xlink" width="500" zoomAndPan="magnify" viewBox="0 0 375 374.999991" height="500" preserveAspectRatio="xMidYMid meet" version="1.0"><defs><clipPath id="1e6f1127ec"><path d="M 1.222656 29 L 373 29 L 373 336 L 1.222656 336 Z M 1.222656 29 " clip-rule="nonzero"/></clipPath></defs><g clip-path="url(#1e6f1127ec)"><path fill="#ffffff" d="M 194.609375 29.5625 C 193.382812 29.539062 192.425781 29.796875 192.425781 30.347656 C 192.425781 30.792969 191.507812 31.386719 190.390625 31.667969 C 187.332031 32.433594 181.378906 47.65625 181.214844 55.136719 C 181.152344 58.089844 180.507812 62.546875 179.78125 65.046875 C 174.835938 82.105469 172.265625 116.816406 174.132812 141.277344 L 174.6875 148.558594 L 171.992188 150.609375 C 170.511719 151.738281 169.300781 153.179688 169.300781 153.8125 C 169.300781 155.644531 167.695312 156.132812 167.078125 154.492188 C 166.765625 153.667969 164.589844 149.8125 162.242188 145.925781 C 157.992188 138.898438 157.976562 138.84375 159.503906 136.957031 C 161.925781 133.96875 161.46875 128.855469 158.050781 120.597656 C 155.191406 113.6875 155.085938 113.078125 155.609375 106.753906 C 156.132812 100.445312 156.3125 99.988281 159.496094 96.738281 C 162.371094 93.804688 162.828125 92.832031 162.828125 89.71875 C 162.828125 87.730469 162.445312 85.113281 161.980469 83.902344 C 160.90625 81.097656 160.503906 67.984375 161.378906 64.332031 C 162.007812 61.699219 161.796875 61.324219 157.335938 57.175781 C 154.75 54.765625 151.457031 52.363281 150.023438 51.832031 C 148.589844 51.304688 146.859375 50.535156 146.179688 50.125 C 135.835938 43.914062 132.738281 41.714844 129.179688 38.050781 C 124.023438 32.738281 122.199219 32.015625 114.007812 32.015625 C 110.453125 32.015625 104.628906 31.410156 101.066406 30.671875 C 91.132812 28.617188 81.804688 29.441406 64.199219 33.921875 C 48.183594 38 43.296875 40.25 40.449219 44.859375 C 37.984375 48.847656 38.664062 52.441406 42.964844 58.136719 C 48.109375 64.953125 50.542969 70.394531 51.003906 76.128906 C 51.816406 86.253906 48.046875 96.421875 40.25 105.148438 C 31.152344 115.332031 27.046875 122.238281 27.347656 126.84375 C 27.476562 128.789062 26.90625 130.902344 25.757812 132.761719 C 24.773438 134.351562 23.964844 136.488281 23.964844 137.511719 C 23.964844 138.535156 23.21875 140.757812 22.308594 142.453125 C 20.347656 146.113281 20.230469 148.53125 21.863281 151.6875 C 23.320312 154.507812 22.683594 155.535156 17.5 158.734375 C 13.457031 161.226562 11.574219 164.785156 11.574219 169.921875 C 11.574219 171.871094 10.703125 174.996094 9.503906 177.367188 C 5.9375 184.402344 4.851562 190.078125 4.839844 201.714844 C 4.824219 213.683594 7.023438 232.734375 8.523438 233.664062 C 9.226562 234.097656 8.382812 237.609375 5.480469 246.3125 C 1.679688 257.699219 1.480469 258.734375 1.824219 265.257812 C 2.179688 272.054688 2.269531 272.292969 7.617188 281.117188 C 10.601562 286.042969 13.972656 291.933594 15.105469 294.203125 C 17.472656 298.941406 20.65625 308.8125 20.664062 311.425781 C 20.671875 314.617188 22.363281 319.390625 23.488281 319.390625 C 24.089844 319.390625 25.046875 318.832031 25.613281 318.152344 C 28.183594 315.054688 32.210938 317.445312 38.054688 325.542969 C 40.007812 328.25 41.75 330.027344 41.925781 329.5 C 42.132812 328.878906 41.078125 325.425781 39.632812 321.394531 L 52.03125 322.078125 C 51.058594 325.707031 50.433594 328.515625 50.472656 329.425781 C 50.527344 330.628906 51.015625 329.792969 51.753906 327.234375 C 52.121094 325.972656 52.78125 324.089844 53.511719 322.160156 C 62.910156 321.992188 71.410156 318.238281 82.226562 323.75 C 81.726562 324.882812 81.261719 325.875 80.945312 326.410156 C 80.136719 327.773438 79.222656 329.722656 78.914062 330.746094 C 78.503906 332.097656 78.691406 332.601562 79.589844 332.601562 C 80.273438 332.601562 81.066406 331.859375 81.351562 330.953125 C 81.640625 330.042969 82.582031 329.300781 83.445312 329.300781 C 84.992188 329.300781 85.796875 328.421875 87.089844 324.015625 L 95.101562 324.460938 C 93.871094 327.242188 93.289062 329.394531 93.773438 330.175781 C 94.148438 330.785156 96.226562 328.769531 99.527344 324.703125 C 106.007812 326.96875 112.121094 328.121094 117.03125 325.675781 C 116.996094 325.78125 116.941406 325.925781 116.925781 325.996094 C 116.535156 327.574219 116.617188 327.769531 117.273438 326.824219 C 117.445312 326.570312 117.714844 326.148438 117.984375 325.726562 L 132.347656 326.519531 C 132.089844 327.851562 132.359375 327.972656 133.175781 326.566406 L 138.109375 326.839844 C 137.734375 328.101562 137.433594 329.1875 137.347656 329.726562 C 136.582031 334.433594 138.40625 333.039062 139.878906 327.789062 C 139.953125 327.523438 140.046875 327.238281 140.144531 326.953125 C 149.855469 324.402344 156.652344 326.230469 163.609375 327.816406 L 166.226562 329.894531 C 166.179688 330.050781 166.148438 330.171875 166.101562 330.332031 C 161.472656 346.292969 172.242188 321.089844 172.191406 317.460938 C 172.855469 314.597656 173.640625 308.933594 173.933594 304.878906 C 174.566406 296.191406 174.84375 295.78125 184.34375 289.542969 C 189.703125 286.027344 191.703125 285.179688 195.355469 284.875 C 200.796875 284.425781 202.257812 283.082031 200.398438 280.246094 C 198.746094 277.730469 199.722656 276.765625 205.332031 275.367188 C 208.480469 274.585938 209.382812 273.964844 209.769531 272.320312 C 210.1875 270.5625 210.742188 270.25 213.523438 270.207031 C 216.074219 270.167969 217.4375 269.535156 219.769531 267.316406 C 225.058594 262.277344 229.949219 258.539062 232.066406 257.914062 C 233.199219 257.574219 236.171875 255.191406 238.667969 252.613281 C 241.167969 250.035156 244.234375 247.273438 245.480469 246.480469 C 246.730469 245.683594 247.753906 244.535156 247.753906 243.933594 C 247.753906 243.328125 248.589844 241.882812 249.609375 240.71875 C 253.984375 235.746094 256.640625 232.128906 257.1875 230.402344 C 257.507812 229.386719 258.125 228.554688 258.554688 228.554688 C 260.257812 228.554688 262.613281 223.125 262.613281 219.1875 L 262.613281 215.1875 L 259.023438 218.882812 C 257.050781 220.914062 255.203125 223.175781 254.921875 223.914062 C 254.636719 224.648438 253.835938 225.25 253.136719 225.25 C 252.425781 225.25 251.28125 226.707031 250.539062 228.5625 C 249.808594 230.386719 248.140625 232.640625 246.828125 233.574219 C 245.519531 234.507812 244.445312 235.964844 244.445312 236.808594 C 244.445312 237.765625 243.753906 238.445312 242.621094 238.609375 C 241.613281 238.757812 239.832031 240.308594 238.625 242.089844 C 237.425781 243.855469 235.367188 245.863281 234.046875 246.546875 L 231.648438 247.796875 L 234.332031 245.273438 C 235.808594 243.886719 237.015625 242.375 237.015625 241.910156 C 237.015625 240.460938 241.277344 235.921875 244.625 233.808594 C 246.386719 232.695312 248.042969 231.152344 248.300781 230.375 C 249.710938 226.175781 252.472656 221.273438 254.515625 219.34375 C 256.085938 217.863281 256.832031 216.332031 256.832031 214.597656 C 256.832031 212.890625 257.242188 212.039062 258.050781 212.039062 C 258.71875 212.039062 259.839844 210.929688 260.542969 209.574219 C 262.078125 206.601562 263.152344 199.648438 262.070312 199.648438 C 260.734375 199.648438 254.355469 206.671875 254.355469 208.144531 C 254.355469 208.921875 253.871094 209.558594 253.273438 209.558594 C 252.679688 209.558594 251.558594 210.953125 250.78125 212.65625 C 249.496094 215.464844 241.96875 224.492188 241.96875 223.222656 C 241.96875 222.929688 242.535156 221.59375 243.230469 220.253906 C 243.921875 218.914062 244.21875 217.816406 243.886719 217.816406 C 243.558594 217.816406 243.734375 217.371094 244.28125 216.828125 C 244.824219 216.28125 245.273438 215.261719 245.28125 214.554688 C 245.289062 213.851562 246.773438 211.679688 248.585938 209.730469 C 250.394531 207.78125 251.878906 205.578125 251.878906 204.839844 C 251.878906 204.101562 252.378906 202.910156 252.988281 202.191406 C 254.445312 200.480469 256.832031 194.277344 256.832031 192.203125 C 256.832031 189.398438 253.921875 190.304688 251.582031 193.839844 C 250.390625 195.636719 248.3125 197.925781 246.960938 198.925781 C 245.605469 199.925781 243.1875 202.726562 241.582031 205.144531 C 239.972656 207.5625 237.175781 210.480469 235.359375 211.625 C 233.542969 212.769531 232.058594 214.222656 232.058594 214.855469 C 232.058594 216.273438 226.210938 224.148438 224.015625 225.6875 C 222.4375 226.792969 222.429688 226.734375 223.632812 223.078125 C 224.449219 220.597656 226.625 217.511719 230.113281 213.882812 C 233 210.882812 235.363281 208.015625 235.363281 207.511719 C 235.363281 207.011719 237.035156 204.957031 239.078125 202.953125 C 241.121094 200.945312 242.792969 198.886719 242.792969 198.378906 C 242.792969 197.867188 243.722656 195.625 244.855469 193.390625 C 245.988281 191.15625 246.917969 188.492188 246.917969 187.46875 C 246.925781 184.53125 244.058594 185.140625 242.078125 188.5 C 240.925781 190.453125 239.757812 191.394531 238.488281 191.402344 C 235.929688 191.421875 235.144531 192.050781 232.585938 196.140625 C 231.375 198.070312 229.914062 199.648438 229.339844 199.648438 C 228.765625 199.648438 227.066406 200.949219 225.566406 202.539062 C 224.066406 204.128906 222.5 205.429688 222.082031 205.429688 C 221.664062 205.429688 221.320312 205.894531 221.320312 206.460938 C 221.300781 210.542969 219.40625 213.742188 215.515625 216.261719 C 212.1875 218.417969 211.414062 219.363281 211.414062 221.257812 C 211.414062 223.203125 211.066406 223.597656 209.351562 223.597656 C 208.148438 223.597656 207.285156 224.070312 207.285156 224.734375 C 207.285156 225.359375 206.769531 226.300781 206.140625 226.824219 C 205.507812 227.347656 203.855469 230.085938 202.464844 232.910156 C 200.011719 237.894531 195.199219 243.992188 194.371094 243.167969 C 193.21875 242.011719 195.40625 236.25 197.972656 233.679688 C 200.175781 231.480469 200.699219 230.394531 200.308594 228.847656 C 199.707031 226.453125 203.203125 220.015625 206.15625 218.082031 C 207.230469 217.378906 208.109375 215.988281 208.109375 214.992188 C 208.109375 214 209.25 211.386719 210.648438 209.1875 C 212.40625 206.410156 213.035156 204.59375 212.695312 203.246094 C 211.886719 200.015625 209.433594 200.898438 206.617188 205.429688 C 204.980469 208.058594 203.472656 209.558594 202.464844 209.558594 C 200.453125 209.558594 199.371094 210.910156 198.636719 214.34375 C 198.222656 216.28125 197.125 217.648438 194.824219 219.101562 C 191.902344 220.945312 191.203125 221.9375 191.496094 223.804688 C 191.550781 224.144531 190.851562 225.167969 189.945312 226.074219 C 188.738281 227.28125 188.292969 228.828125 188.292969 231.808594 C 188.292969 234.433594 187.691406 236.910156 186.605469 238.746094 C 185.4375 240.726562 184.835938 243.441406 184.640625 247.636719 C 184.476562 251.117188 183.964844 253.804688 183.433594 253.984375 C 182.925781 254.152344 182.511719 254.976562 182.511719 255.8125 C 182.511719 256.652344 182.03125 257.828125 181.449219 258.429688 C 180.863281 259.03125 179.933594 261.054688 179.382812 262.929688 C 178.269531 266.695312 172.632812 274.910156 171.421875 274.527344 C 168.726562 273.675781 169.097656 271.402344 174.175781 257.746094 C 180.210938 241.507812 185.300781 223.652344 187.203125 212.035156 C 187.71875 208.890625 188.636719 207.941406 191.183594 207.914062 C 193.03125 207.898438 200.679688 200.410156 200.679688 198.617188 C 200.679688 197.988281 201.628906 196.644531 202.789062 195.636719 C 204.171875 194.433594 204.734375 193.285156 204.421875 192.300781 C 204.152344 191.453125 204.488281 190.347656 205.203125 189.757812 C 206.792969 188.433594 206.816406 185.574219 205.246094 183.5 C 203.617188 181.34375 203.683594 180.175781 205.589844 177.527344 C 207.601562 174.722656 207.027344 171.15625 204.273438 169.351562 C 202.488281 168.183594 202.429688 167.964844 203.660156 167.066406 C 205.253906 165.898438 205.425781 159.402344 203.933594 156.613281 C 203.132812 155.125 202.550781 154.957031 199.980469 155.46875 C 196.175781 156.230469 194.433594 156.226562 190.5625 155.457031 C 187.871094 154.921875 187.457031 155.042969 187.414062 156.394531 C 187.367188 157.777344 187.285156 157.753906 186.652344 156.195312 C 185.367188 153.015625 183.917969 121.941406 184.4375 108.8125 C 185.304688 87.042969 189.722656 64.078125 193.761719 60.335938 C 194.839844 59.335938 195.722656 57.984375 195.722656 57.332031 C 195.722656 55.402344 198.488281 52.585938 199.644531 53.332031 C 201.398438 54.457031 202.515625 63.34375 202.210938 73.683594 L 201.917969 83.566406 L 205.21875 84.148438 C 209.597656 84.921875 234.351562 94.25 241.140625 97.6875 C 244.09375 99.179688 251.519531 103.21875 257.636719 106.65625 C 268.132812 112.554688 268.816406 112.816406 269.632812 111.289062 C 270.460938 109.742188 270.59375 109.78125 272.535156 112.128906 C 273.652344 113.484375 275.039062 114.59375 275.609375 114.59375 C 276.183594 114.59375 276.652344 115.523438 276.652344 116.65625 C 276.652344 118.003906 277.113281 118.722656 277.976562 118.722656 C 278.773438 118.722656 279.128906 119.183594 278.863281 119.875 C 278.40625 121.070312 285.632812 126.152344 287.792969 126.152344 C 288.40625 126.152344 289.960938 127.175781 291.246094 128.425781 C 292.53125 129.675781 295.253906 132.066406 297.296875 133.738281 C 299.339844 135.410156 304.355469 139.585938 308.445312 143.019531 C 312.53125 146.449219 316.464844 149.261719 317.183594 149.265625 C 317.902344 149.273438 318.964844 150.113281 319.542969 151.132812 C 320.125 152.15625 322.511719 154.617188 324.847656 156.601562 C 331.023438 161.855469 344.335938 176.355469 350.183594 184.195312 C 352.964844 187.925781 358.835938 196.632812 363.222656 203.546875 C 367.613281 210.457031 371.648438 216.125 372.191406 216.140625 C 373.601562 216.175781 372.734375 206.246094 370.390625 195.519531 C 366.527344 177.820312 358.609375 160.261719 347.316406 144.355469 C 327.933594 117.050781 313.929688 104.996094 265.347656 73.800781 C 255.722656 67.625 247.621094 62.566406 247.339844 62.566406 C 247.0625 62.566406 244.714844 61.144531 242.128906 59.402344 C 239.542969 57.664062 232.964844 53.886719 227.515625 51.007812 C 214.25 44.003906 210.199219 41.324219 204.746094 35.945312 C 202.214844 33.445312 199.359375 30.980469 198.402344 30.46875 C 197.332031 29.894531 195.835938 29.589844 194.609375 29.5625 L 194.605469 29.5625 Z M 194.609375 29.5625 " fill-opacity="1" fill-rule="nonzero"/><path fill="#ff00c7" d="M 166.109375 330.332031 C 171.949219 310.449219 172.632812 304.179688 170.203125 292.628906 C 169.257812 288.128906 168.484375 282.804688 168.484375 280.796875 C 168.484375 277.890625 168.007812 276.671875 166.136719 274.800781 C 163.007812 271.671875 157.949219 270.328125 153.65625 271.484375 C 148.910156 272.765625 148.949219 273.679688 153.769531 274.25 C 157.832031 274.730469 161.878906 277.207031 161.878906 279.214844 C 161.878906 279.667969 161.027344 279.242188 159.988281 278.265625 C 158.949219 277.292969 157.1875 276.390625 156.066406 276.265625 C 154.289062 276.066406 154.054688 276.335938 154.207031 278.441406 C 154.300781 279.761719 154.820312 281.25 155.359375 281.742188 C 156.078125 282.40625 156.183594 282.371094 155.757812 281.613281 C 155.4375 281.042969 155.589844 280.578125 156.101562 280.578125 C 157.597656 280.578125 156.722656 285.894531 155.175781 286.1875 C 154.199219 286.371094 153.707031 285.582031 153.328125 283.21875 C 152.511719 278.109375 150.058594 275.625 145.828125 275.625 C 139.257812 275.625 133.597656 277.214844 128.476562 280.503906 C 125.726562 282.269531 121.25 284.339844 118.523438 285.101562 C 111.699219 287.011719 107.5 289.628906 102.53125 295.066406 C 100.199219 297.617188 98.292969 299.265625 98.292969 298.726562 C 98.292969 298.1875 100.929688 295.023438 104.152344 291.699219 C 109.164062 286.53125 110.992188 285.257812 116.746094 282.910156 L 123.480469 280.167969 L 118.144531 279.917969 C 114.164062 279.730469 111.027344 280.222656 105.757812 281.855469 C 93.441406 285.679688 87.675781 288.804688 82.394531 294.523438 C 77.320312 300.019531 76.144531 300.230469 80 294.949219 C 87.148438 285.160156 96.582031 279.527344 108.195312 278.113281 L 112.742188 277.5625 L 110.265625 276.519531 C 107.832031 275.5 100.640625 275.609375 84.253906 276.925781 C 79.214844 277.332031 77.292969 277.121094 73.929688 275.796875 C 71.660156 274.898438 69.800781 273.84375 69.800781 273.449219 C 69.800781 272.441406 76.386719 272.082031 81.777344 272.796875 L 86.316406 273.398438 L 78.886719 275.460938 L 83.167969 275.542969 C 85.523438 275.589844 88.464844 275.238281 89.707031 274.765625 C 90.945312 274.296875 93.941406 273.832031 96.359375 273.734375 C 98.777344 273.636719 100.757812 273.296875 100.761719 272.976562 C 100.777344 271.789062 93.039062 266.554688 85.671875 262.765625 C 75.929688 257.761719 70.570312 254.128906 71.800781 253.367188 C 72.957031 252.652344 70.953125 249.851562 64.535156 243.210938 C 62.011719 240.601562 60.238281 238.464844 60.59375 238.464844 C 62.179688 238.464844 67.179688 243.195312 71.765625 249.039062 C 76.347656 254.871094 77.332031 255.65625 83.808594 258.625 C 87.6875 260.40625 91.09375 261.628906 91.375 261.347656 C 92.488281 260.234375 86.90625 252.503906 79.320312 244.65625 C 74.929688 240.117188 70.113281 234.804688 68.613281 232.851562 C 65.710938 229.070312 64.175781 228.605469 66.546875 232.222656 C 67.324219 233.414062 67.773438 234.574219 67.546875 234.804688 C 67.316406 235.035156 64.472656 231.957031 61.226562 227.96875 C 57.980469 223.980469 55.707031 220.589844 56.175781 220.433594 C 58.15625 219.773438 64.804688 224.914062 69.316406 230.59375 C 71.964844 233.925781 77.320312 239.941406 81.214844 243.957031 C 85.109375 247.976562 90.828125 254.421875 93.914062 258.28125 C 99.714844 265.53125 104.675781 268.933594 111.398438 270.285156 L 114.179688 270.84375 L 112.636719 268.214844 C 110.660156 264.851562 108.78125 263.164062 109.488281 265.390625 C 110.253906 267.796875 103.632812 260.328125 101.125 255.960938 C 97.539062 249.710938 89.261719 238.363281 85.214844 234.148438 C 83.152344 232 81.703125 230.003906 81.996094 229.714844 C 82.585938 229.121094 90.183594 235.386719 93.269531 239.011719 C 94.367188 240.296875 98.945312 245.195312 103.445312 249.894531 C 111.546875 258.34375 113.890625 262.199219 107.328125 256.269531 C 105.457031 254.582031 103.703125 253.425781 103.425781 253.703125 C 102.675781 254.453125 117.125 268.714844 121.488281 271.527344 C 124.808594 273.667969 128.847656 274.777344 128.847656 273.550781 C 128.847656 273.316406 126.246094 264.746094 123.066406 254.507812 C 117.375 236.175781 115.492188 228.023438 119.339844 238.390625 C 120.421875 241.304688 122.035156 244.671875 122.921875 245.875 C 123.8125 247.078125 125.65625 250.265625 127.019531 252.964844 C 129.558594 257.980469 133.082031 262.410156 134.539062 262.410156 C 134.988281 262.410156 137.070312 263.898438 139.171875 265.714844 C 142.019531 268.179688 143.703125 269.015625 145.8125 269.015625 C 148.148438 269.015625 148.726562 268.652344 149.160156 266.921875 C 149.925781 263.871094 149.207031 261.21875 144.664062 250.308594 C 139.886719 238.851562 139.0625 236.390625 140.257812 237.128906 C 140.726562 237.417969 141.335938 238.671875 141.617188 239.917969 C 141.894531 241.160156 143.367188 244.1875 144.886719 246.636719 C 147.285156 250.507812 147.722656 250.871094 148.195312 249.386719 C 148.492188 248.445312 148.308594 245.210938 147.785156 242.199219 C 147.261719 239.1875 147.039062 236.511719 147.296875 236.253906 C 147.808594 235.746094 147.839844 235.882812 150.25 248.371094 C 152.722656 261.199219 154.171875 265.515625 156.21875 266.164062 C 157.300781 266.507812 158.234375 266.292969 158.691406 265.597656 C 159.101562 264.972656 159.207031 257.332031 158.9375 248.371094 C 158.5625 236.171875 158.078125 231.070312 156.925781 227.316406 C 155.085938 221.332031 152.648438 189.320312 154.144531 190.816406 C 154.433594 191.101562 154.976562 194.601562 155.351562 198.589844 C 156.425781 210.035156 157.363281 216.347656 158.628906 220.707031 C 160.433594 226.921875 161.878906 237.5 161.878906 244.464844 C 161.878906 252.921875 164.046875 266.539062 165.394531 266.539062 C 165.980469 266.539062 166.128906 262.828125 165.847656 255.183594 C 165.621094 248.941406 165.707031 242.714844 166.035156 241.351562 C 166.554688 239.21875 166.65625 239.449219 166.746094 243.003906 C 166.804688 245.277344 167.097656 248.605469 167.394531 250.402344 C 168.230469 255.480469 169.152344 251.597656 168.753906 244.65625 C 168.21875 235.273438 168.039062 204.636719 168.488281 198.824219 L 168.898438 193.457031 L 170.011719 201.820312 C 170.640625 206.558594 170.921875 212.996094 170.65625 216.683594 C 170.300781 221.65625 170.375 222.503906 170.984375 220.296875 C 172.703125 214.039062 172.121094 192.367188 169.808594 176.527344 C 168.789062 169.5625 168.765625 169.511719 166.5 169.757812 C 165.242188 169.894531 163.691406 169.574219 163.054688 169.042969 C 162.074219 168.226562 162.230469 167.476562 164.070312 164.199219 C 165.769531 161.183594 166.132812 159.695312 165.710938 157.484375 C 165.082031 154.179688 160.570312 145.972656 159.386719 145.972656 C 158.214844 145.972656 158.375 147.800781 160.214844 155.410156 C 161.46875 160.605469 161.664062 162.84375 161.039062 165.015625 C 160.59375 166.570312 160.226562 169.820312 160.226562 172.234375 C 160.226562 174.953125 159.914062 176.429688 159.402344 176.113281 C 158.949219 175.832031 158.578125 174.535156 158.578125 173.230469 C 158.578125 171.921875 158.179688 169.808594 157.691406 168.53125 L 156.804688 166.203125 L 153.976562 169.289062 C 151.203125 172.308594 151.144531 172.527344 151.144531 179.570312 C 151.144531 183.882812 150.847656 186.453125 150.398438 185.984375 C 149.988281 185.550781 149.519531 184.453125 149.355469 183.546875 C 148.828125 180.621094 145.910156 181.515625 144.785156 184.945312 C 143.585938 188.605469 143.035156 204.589844 143.957031 208.941406 C 144.878906 213.289062 143.210938 212.945312 141.953125 208.527344 C 140.832031 204.585938 140.71875 204.046875 140.523438 201.714844 C 140.425781 200.566406 140.183594 200.378906 139.730469 201.089844 C 138.738281 202.652344 138.582031 213.949219 139.519531 216.410156 C 140.011719 217.707031 140.042969 218.773438 139.589844 219.050781 C 138.898438 219.480469 136.28125 212.246094 136.28125 209.90625 C 136.28125 208.933594 132.824219 208.21875 124.71875 207.511719 C 122.675781 207.332031 119.542969 206.8125 117.753906 206.359375 C 112.113281 204.929688 109.484375 208.21875 111.367188 214.355469 C 111.871094 215.984375 112.140625 217.457031 111.972656 217.625 C 111.808594 217.792969 109.933594 215.496094 107.808594 212.519531 C 104.777344 208.273438 103.273438 206.910156 100.789062 206.164062 C 97.300781 205.117188 92.820312 205.660156 90.417969 207.417969 C 88.929688 208.503906 88.996094 208.710938 91.925781 211.949219 C 93.609375 213.816406 94.992188 215.683594 94.992188 216.101562 C 94.992188 216.515625 95.222656 217.539062 95.503906 218.371094 C 95.78125 219.203125 93.632812 217.375 90.722656 214.308594 C 84.546875 207.796875 82.417969 207.277344 77.976562 211.175781 C 74.785156 213.976562 69.46875 215.671875 66.152344 214.941406 C 62.011719 214.03125 57.480469 208.839844 53.535156 200.476562 C 51.496094 196.160156 48.117188 190.144531 46.023438 187.105469 C 43.929688 184.0625 41.289062 179.75 40.15625 177.519531 C 37.75 172.769531 30.472656 165.894531 27.144531 165.230469 C 24.3125 164.664062 24.875 163.3125 27.941406 163.316406 C 32.796875 163.324219 37.445312 168.050781 42.558594 178.179688 C 43.816406 180.675781 46.058594 184.207031 47.535156 186.023438 C 49.011719 187.839844 52.332031 192.859375 54.910156 197.171875 C 61.867188 208.804688 63.226562 210.386719 66.285156 210.386719 C 67.855469 210.386719 71.074219 209.058594 74.445312 207.023438 C 82.050781 202.425781 86.804688 201.292969 100.769531 200.75 C 110.046875 200.390625 114.179688 200.585938 119.109375 201.621094 C 126.289062 203.125 131.105469 203.308594 134.039062 202.195312 L 136.03125 201.4375 L 132.882812 194.96875 C 130.789062 190.660156 128.933594 184.835938 127.332031 177.523438 C 126.007812 171.488281 124.71875 166.339844 124.464844 166.085938 C 123.394531 165.015625 122.242188 166.933594 122.257812 169.761719 C 122.289062 174.867188 125.257812 186.644531 127.878906 192.054688 C 129.242188 194.867188 130.019531 197.371094 129.609375 197.625 C 129.195312 197.878906 124.375 197.253906 118.894531 196.238281 C 110.210938 194.625 108.3125 194.511719 104.179688 195.367188 C 101.570312 195.90625 97.039062 196.351562 94.113281 196.355469 C 90.121094 196.359375 86.742188 197.097656 80.539062 199.3125 C 67.644531 203.921875 66.246094 204.269531 65.101562 203.121094 C 64.324219 202.347656 64.78125 202.128906 67.183594 202.128906 C 68.941406 202.128906 72.300781 201.097656 75.007812 199.730469 C 81.308594 196.550781 85.378906 195.53125 95.785156 194.511719 C 108.179688 193.300781 114.492188 193.390625 120.285156 194.863281 C 127.675781 196.746094 128.019531 196.160156 124.4375 187.816406 C 122.773438 183.949219 121.414062 180.199219 121.414062 179.480469 C 121.414062 178.765625 121.027344 178.179688 120.554688 178.179688 C 120.078125 178.179688 119.800781 178.65625 119.933594 179.234375 C 120.066406 179.816406 119.835938 180.46875 119.421875 180.679688 C 119.003906 180.894531 117.96875 179.027344 117.121094 176.527344 C 115.675781 172.265625 112.105469 168.222656 110.871094 169.453125 C 110.402344 169.921875 111.148438 173.359375 112.675781 177.765625 C 113.128906 179.074219 112.9375 178.996094 111.757812 177.398438 C 107.347656 171.425781 107.976562 171.511719 103.09375 176.203125 C 100.679688 178.519531 97.789062 181.027344 96.664062 181.773438 C 94.042969 183.519531 87.421875 183.539062 83.792969 181.816406 C 80.429688 180.21875 73.085938 172.046875 66.875 162.980469 C 61.957031 155.800781 60.410156 154.699219 49.285156 150.480469 C 42.785156 148.015625 39.523438 148.1875 32.40625 151.382812 C 27.898438 153.40625 16.199219 162.519531 14.832031 165.066406 C 13.960938 166.703125 13.792969 169.921875 14.585938 169.921875 C 14.871094 169.921875 16.449219 169.101562 18.09375 168.097656 C 20.832031 166.429688 20.980469 166.414062 19.867188 167.894531 C 19.199219 168.78125 17.214844 171.117188 15.457031 173.078125 C 9.238281 180.03125 6.402344 189.972656 7.167969 202.128906 C 7.535156 207.96875 9.878906 226.292969 10.3125 226.730469 C 10.460938 226.878906 10.828125 224.28125 11.125 220.964844 C 11.898438 212.394531 12.386719 210.386719 13.683594 210.386719 C 15.734375 210.386719 16.972656 216.597656 15.882812 221.40625 C 14.628906 226.914062 10.816406 239.175781 7.105469 249.609375 C 2.863281 261.53125 3.019531 264.785156 8.355469 275.691406 C 12.519531 284.207031 13.714844 285.84375 15.125 284.972656 C 16.5625 284.085938 21.71875 290.179688 24.5625 296.117188 C 26.492188 300.148438 28.101562 302.40625 29.398438 302.898438 C 30.46875 303.304688 32.34375 305.222656 33.570312 307.164062 C 36.105469 311.179688 42.421875 328.042969 41.933594 329.5 C 41.757812 330.03125 40.015625 328.25 38.066406 325.546875 C 32.222656 317.449219 28.195312 315.054688 25.621094 318.152344 C 25.058594 318.832031 24.101562 319.390625 23.496094 319.390625 C 22.375 319.390625 20.679688 314.617188 20.671875 311.425781 C 20.664062 308.8125 17.480469 298.941406 15.117188 294.203125 C 13.980469 291.933594 10.613281 286.042969 7.625 281.117188 C 2.277344 272.292969 2.191406 272.054688 1.832031 265.257812 C 1.492188 258.730469 1.691406 257.699219 5.488281 246.3125 C 8.390625 237.609375 9.234375 234.097656 8.53125 233.664062 C 7.03125 232.738281 4.835938 213.6875 4.847656 201.714844 C 4.859375 190.078125 5.949219 184.402344 9.511719 177.367188 C 10.714844 174.996094 11.585938 171.871094 11.585938 169.921875 C 11.585938 164.785156 13.46875 161.226562 17.507812 158.734375 C 22.695312 155.535156 23.332031 154.507812 21.871094 151.6875 C 20.242188 148.53125 20.359375 146.113281 22.320312 142.457031 C 23.226562 140.761719 23.972656 138.535156 23.972656 137.511719 C 23.972656 136.488281 24.78125 134.351562 25.765625 132.761719 C 26.917969 130.902344 27.484375 128.792969 27.355469 126.847656 C 27.054688 122.242188 31.164062 115.332031 40.261719 105.148438 C 48.058594 96.421875 51.824219 86.253906 51.011719 76.128906 C 50.550781 70.394531 48.121094 64.953125 42.972656 58.136719 C 38.675781 52.441406 37.992188 48.847656 40.460938 44.859375 C 43.308594 40.253906 48.195312 38.003906 64.210938 33.925781 C 81.8125 29.441406 91.140625 28.621094 101.074219 30.675781 C 104.636719 31.414062 110.460938 32.015625 114.015625 32.015625 C 122.207031 32.015625 124.03125 32.742188 129.191406 38.054688 C 132.746094 41.714844 135.84375 43.914062 146.1875 50.128906 C 146.871094 50.539062 148.601562 51.304688 150.035156 51.835938 C 151.46875 52.363281 154.757812 54.765625 157.347656 57.175781 C 161.804688 61.328125 162.015625 61.699219 161.386719 64.332031 C 160.511719 67.984375 160.917969 81.101562 161.988281 83.902344 C 162.453125 85.113281 162.835938 87.730469 162.835938 89.71875 C 162.835938 92.835938 162.378906 93.804688 159.503906 96.738281 C 156.320312 99.988281 156.140625 100.445312 155.617188 106.757812 C 155.09375 113.078125 155.199219 113.6875 158.0625 120.597656 C 161.476562 128.855469 161.933594 133.972656 159.515625 136.957031 C 157.984375 138.847656 158 138.898438 162.25 145.925781 C 164.597656 149.816406 166.773438 153.667969 167.085938 154.492188 C 167.703125 156.136719 169.3125 155.644531 169.3125 153.816406 C 169.3125 153.183594 170.523438 151.742188 172.003906 150.613281 L 174.695312 148.558594 L 174.140625 141.28125 C 172.273438 116.816406 174.84375 82.109375 179.789062 65.046875 C 180.515625 62.550781 181.160156 58.089844 181.226562 55.136719 C 181.390625 47.660156 187.339844 32.4375 190.398438 31.667969 C 191.519531 31.386719 192.433594 30.792969 192.433594 30.347656 C 192.433594 29.246094 196.269531 29.324219 198.414062 30.472656 C 199.371094 30.984375 202.226562 33.449219 204.757812 35.945312 C 210.210938 41.328125 214.261719 44.007812 227.53125 51.011719 C 232.980469 53.886719 239.554688 57.667969 242.140625 59.40625 C 244.726562 61.144531 247.074219 62.570312 247.351562 62.570312 C 247.632812 62.570312 255.734375 67.625 265.359375 73.804688 C 313.941406 104.996094 327.945312 117.050781 347.328125 144.359375 C 358.617188 160.265625 366.539062 177.824219 370.402344 195.523438 C 372.746094 206.246094 373.613281 216.179688 372.203125 216.140625 C 371.660156 216.128906 367.625 210.460938 363.234375 203.550781 C 358.84375 196.636719 352.976562 187.929688 350.195312 184.199219 C 344.347656 176.359375 331.03125 161.859375 324.855469 156.605469 C 322.523438 154.621094 320.136719 152.160156 319.554688 151.136719 C 318.976562 150.117188 317.914062 149.273438 317.195312 149.269531 C 316.476562 149.265625 312.542969 146.453125 308.457031 143.019531 C 304.367188 139.589844 299.351562 135.414062 297.308594 133.742188 C 295.265625 132.066406 292.542969 129.675781 291.257812 128.429688 C 289.972656 127.179688 288.417969 126.15625 287.804688 126.15625 C 285.644531 126.15625 278.417969 121.074219 278.875 119.878906 C 279.140625 119.1875 278.785156 118.726562 277.992188 118.726562 C 277.125 118.726562 276.664062 118.007812 276.664062 116.660156 C 276.664062 115.523438 276.195312 114.597656 275.621094 114.597656 C 275.050781 114.597656 273.664062 113.488281 272.546875 112.132812 C 270.605469 109.785156 270.472656 109.746094 269.644531 111.292969 C 268.828125 112.820312 268.144531 112.558594 257.648438 106.660156 C 251.53125 103.21875 244.105469 99.183594 241.15625 97.691406 C 234.367188 94.253906 209.609375 84.925781 205.230469 84.152344 L 201.929688 83.570312 L 202.222656 73.691406 C 202.527344 63.347656 201.410156 54.460938 199.65625 53.335938 C 198.496094 52.589844 195.734375 55.40625 195.734375 57.335938 C 195.734375 57.988281 194.851562 59.339844 193.773438 60.339844 C 189.734375 64.085938 185.316406 87.046875 184.449219 108.816406 C 183.929688 121.945312 185.378906 153.015625 186.664062 156.199219 C 187.296875 157.757812 187.378906 157.78125 187.425781 156.398438 C 187.472656 155.046875 187.882812 154.925781 190.574219 155.460938 C 194.449219 156.234375 196.1875 156.234375 199.992188 155.472656 C 202.5625 154.960938 203.144531 155.128906 203.945312 156.621094 C 205.4375 159.40625 205.269531 165.902344 203.671875 167.070312 C 202.441406 167.96875 202.5 168.1875 204.285156 169.355469 C 207.039062 171.160156 207.613281 174.730469 205.601562 177.53125 C 203.695312 180.179688 203.628906 181.347656 205.257812 183.503906 C 206.828125 185.578125 206.808594 188.4375 205.214844 189.761719 C 204.503906 190.351562 204.164062 191.457031 204.433594 192.304688 C 204.746094 193.289062 204.183594 194.4375 202.800781 195.640625 C 201.640625 196.648438 200.691406 197.992188 200.691406 198.625 C 200.691406 200.414062 193.042969 207.902344 191.195312 207.921875 C 188.648438 207.945312 187.734375 208.894531 187.21875 212.039062 C 185.3125 223.65625 180.222656 241.511719 174.1875 257.753906 C 169.113281 271.40625 168.738281 273.679688 171.433594 274.53125 C 172.644531 274.914062 178.285156 266.695312 179.394531 262.933594 C 179.945312 261.058594 180.875 259.03125 181.460938 258.433594 C 182.046875 257.832031 182.523438 256.65625 182.523438 255.816406 C 182.523438 254.980469 182.9375 254.15625 183.445312 253.984375 C 183.980469 253.808594 184.488281 251.117188 184.652344 247.640625 C 184.847656 243.445312 185.449219 240.730469 186.621094 238.75 C 187.703125 236.914062 188.304688 234.4375 188.304688 231.8125 C 188.304688 228.832031 188.75 227.285156 189.957031 226.078125 C 190.863281 225.171875 191.5625 224.148438 191.507812 223.808594 C 191.214844 221.941406 191.917969 220.949219 194.835938 219.105469 C 197.136719 217.652344 198.234375 216.285156 198.648438 214.347656 C 199.382812 210.914062 200.464844 209.5625 202.476562 209.5625 C 203.484375 209.5625 204.996094 208.0625 206.628906 205.433594 C 209.445312 200.902344 211.898438 200.019531 212.707031 203.246094 C 213.046875 204.59375 212.417969 206.414062 210.660156 209.191406 C 209.265625 211.390625 208.121094 214.003906 208.121094 214.996094 C 208.121094 215.992188 207.242188 217.382812 206.167969 218.085938 C 203.214844 220.019531 199.722656 226.457031 200.320312 228.851562 C 200.710938 230.398438 200.1875 231.484375 197.984375 233.683594 C 195.414062 236.253906 193.230469 242.015625 194.386719 243.171875 C 195.210938 243.996094 200.023438 237.898438 202.476562 232.917969 C 203.867188 230.089844 205.519531 227.351562 206.152344 226.828125 C 206.78125 226.304688 207.296875 225.363281 207.296875 224.738281 C 207.296875 224.078125 208.160156 223.601562 209.363281 223.601562 C 211.078125 223.601562 211.425781 223.207031 211.425781 221.261719 C 211.425781 219.367188 212.199219 218.421875 215.527344 216.265625 C 219.417969 213.746094 221.3125 210.546875 221.332031 206.46875 C 221.332031 205.898438 221.675781 205.433594 222.09375 205.433594 C 222.511719 205.433594 224.078125 204.132812 225.578125 202.542969 C 227.078125 200.953125 228.777344 199.652344 229.351562 199.652344 C 229.925781 199.652344 231.386719 198.074219 232.597656 196.144531 C 235.15625 192.054688 235.941406 191.425781 238.5 191.410156 C 239.769531 191.398438 240.9375 190.457031 242.089844 188.503906 C 244.074219 185.144531 246.9375 184.535156 246.929688 187.472656 C 246.929688 188.496094 246 191.160156 244.867188 193.394531 C 243.734375 195.628906 242.804688 197.875 242.804688 198.382812 C 242.804688 198.894531 241.132812 200.953125 239.089844 202.957031 C 237.046875 204.964844 235.375 207.015625 235.375 207.515625 C 235.375 208.019531 233.011719 210.886719 230.125 213.890625 C 226.636719 217.515625 224.460938 220.605469 223.644531 223.085938 C 222.441406 226.738281 222.449219 226.796875 224.027344 225.691406 C 226.222656 224.15625 232.070312 216.277344 232.070312 214.859375 C 232.070312 214.230469 233.554688 212.777344 235.371094 211.628906 C 237.1875 210.484375 239.984375 207.566406 241.59375 205.148438 C 243.199219 202.730469 245.617188 199.933594 246.972656 198.933594 C 248.324219 197.933594 250.40625 195.640625 251.597656 193.84375 C 253.933594 190.308594 256.84375 189.402344 256.84375 192.203125 C 256.84375 194.28125 254.457031 200.484375 253 202.195312 C 252.390625 202.914062 251.890625 204.105469 251.890625 204.84375 C 251.890625 205.582031 250.40625 207.785156 248.597656 209.734375 C 246.785156 211.683594 245.300781 213.855469 245.292969 214.558594 C 245.285156 215.261719 244.835938 216.285156 244.292969 216.832031 C 243.746094 217.375 243.570312 217.820312 243.902344 217.820312 C 244.230469 217.820312 243.933594 218.917969 243.238281 220.257812 C 242.546875 221.597656 241.980469 222.933594 241.980469 223.226562 C 241.980469 224.496094 249.507812 215.46875 250.792969 212.660156 C 251.570312 210.957031 252.695312 209.5625 253.289062 209.5625 C 253.882812 209.5625 254.367188 208.925781 254.367188 208.148438 C 254.367188 206.675781 260.746094 199.652344 262.082031 199.652344 C 263.164062 199.652344 262.089844 206.605469 260.554688 209.578125 C 259.851562 210.933594 258.730469 212.039062 258.0625 212.039062 C 257.25 212.039062 256.84375 212.894531 256.84375 214.601562 C 256.84375 216.332031 256.097656 217.863281 254.527344 219.347656 C 252.484375 221.277344 249.722656 226.179688 248.3125 230.378906 C 248.050781 231.15625 246.398438 232.699219 244.636719 233.8125 C 241.289062 235.925781 237.027344 240.464844 237.027344 241.914062 C 237.027344 242.378906 235.816406 243.894531 234.339844 245.28125 L 231.65625 247.800781 L 234.058594 246.550781 C 235.378906 245.867188 237.4375 243.859375 238.636719 242.09375 C 239.839844 240.3125 241.625 238.761719 242.636719 238.617188 C 243.769531 238.453125 244.457031 237.769531 244.457031 236.8125 C 244.457031 235.96875 245.53125 234.511719 246.839844 233.578125 C 248.152344 232.644531 249.820312 230.390625 250.550781 228.566406 C 251.292969 226.707031 252.433594 225.253906 253.148438 225.253906 C 253.847656 225.253906 254.648438 224.652344 254.933594 223.917969 C 255.214844 223.183594 257.058594 220.917969 259.035156 218.886719 L 262.625 215.191406 L 262.625 219.191406 C 262.625 223.128906 260.269531 228.558594 258.566406 228.558594 C 258.136719 228.558594 257.519531 229.386719 257.199219 230.40625 C 256.652344 232.128906 253.996094 235.75 249.621094 240.722656 C 248.601562 241.886719 247.765625 243.332031 247.765625 243.9375 C 247.765625 244.539062 246.742188 245.6875 245.492188 246.484375 C 244.246094 247.277344 241.179688 250.039062 238.679688 252.617188 C 236.183594 255.195312 233.210938 257.578125 232.074219 257.917969 C 229.960938 258.542969 225.070312 262.28125 219.78125 267.320312 C 217.449219 269.539062 216.085938 270.171875 213.535156 270.210938 C 210.753906 270.253906 210.199219 270.566406 209.785156 272.324219 C 209.394531 273.96875 208.492188 274.589844 205.34375 275.371094 C 199.734375 276.769531 198.761719 277.734375 200.410156 280.25 C 202.269531 283.085938 200.808594 284.429688 195.367188 284.878906 C 191.714844 285.183594 189.714844 286.03125 184.359375 289.546875 C 174.859375 295.785156 174.578125 296.195312 173.945312 304.882812 C 173.652344 308.941406 172.867188 314.601562 172.203125 317.46875 C 172.253906 321.09375 161.484375 346.296875 166.113281 330.335938 Z M 183.25 284.585938 C 187.410156 281.421875 189.183594 280.578125 191.65625 280.578125 C 193.382812 280.578125 195.351562 281.136719 196.03125 281.816406 C 197.339844 283.125 199.054688 283.480469 199.015625 282.4375 C 199.003906 282.097656 196.746094 280.332031 194 278.515625 C 191.25 276.699219 188.464844 274.1875 187.808594 272.941406 C 185.691406 268.925781 183.320312 270.234375 178.1875 278.238281 C 176.636719 280.660156 174.746094 283.152344 173.988281 283.777344 C 173.234375 284.398438 172.613281 285.234375 172.613281 285.632812 C 172.613281 287.003906 174.214844 286.355469 177.128906 283.796875 C 180.679688 280.675781 180.941406 281.65625 177.601562 285.566406 C 172.925781 291.035156 175.308594 290.625 183.25 284.585938 Z M 177.65625 275.046875 C 179.214844 273.320312 181.042969 271.140625 181.714844 270.203125 C 182.386719 269.261719 183.585938 268.253906 184.382812 267.957031 C 186.082031 267.320312 186.230469 265.261719 184.792969 262.167969 C 183.710938 259.839844 182.523438 259.207031 182.523438 260.964844 C 182.523438 263.117188 177.597656 272.28125 174.753906 275.429688 C 173.121094 277.238281 171.789062 278.960938 171.789062 279.261719 C 171.789062 280.347656 174.875 278.128906 177.65625 275.046875 Z M 201.511719 273.8125 C 201.511719 273.496094 200.765625 272.714844 199.847656 272.070312 C 198.796875 271.335938 198.371094 270.398438 198.695312 269.546875 C 199.046875 268.632812 198.777344 268.191406 197.867188 268.191406 C 196.347656 268.191406 194.722656 271.691406 195.410156 273.488281 C 195.867188 274.679688 201.503906 274.980469 201.511719 273.8125 Z M 207.296875 271.90625 C 207.296875 271.785156 206.367188 271.511719 205.234375 271.292969 C 203.941406 271.046875 203.167969 271.277344 203.167969 271.90625 C 203.167969 272.539062 203.941406 272.769531 205.234375 272.523438 C 206.367188 272.304688 207.296875 272.027344 207.296875 271.90625 Z M 194.160156 270.058594 C 194.632812 268.8125 194.796875 266.492188 194.523438 264.898438 L 194.03125 262 L 195.546875 263.910156 C 197.046875 265.804688 197.089844 265.808594 199.699219 264.324219 C 201.148438 263.5 202.335938 262.546875 202.335938 262.203125 C 202.335938 261.863281 202.980469 261.585938 203.757812 261.585938 C 204.996094 261.585938 205.023438 261.441406 203.964844 260.425781 C 202.992188 259.488281 201.730469 259.421875 197.535156 260.078125 C 190.550781 261.167969 189.617188 260.738281 190.257812 256.734375 C 190.75 253.636719 190.707031 253.570312 188.5 253.953125 C 184.9375 254.570312 183.914062 256.449219 185.816406 258.867188 C 186.683594 259.972656 187.640625 262.613281 187.9375 264.738281 C 188.921875 271.714844 192.398438 274.6875 194.160156 270.058594 Z M 218.390625 266.332031 C 223.753906 261.050781 229.371094 256.71875 231.570312 256.167969 C 234.300781 255.480469 234.179688 253.042969 231.398438 252.644531 C 229.113281 252.320312 227.117188 253.808594 227.117188 255.835938 C 227.117188 257.601562 221.335938 262.398438 219.152344 262.445312 C 218.308594 262.464844 216.378906 263.539062 214.859375 264.839844 C 212.3125 267.019531 212.21875 267.265625 213.621094 268.082031 C 215.636719 269.253906 215.304688 269.375 218.390625 266.335938 Z M 207.65625 265.628906 C 206.9375 264.460938 205.644531 264.765625 205.644531 266.101562 C 205.644531 266.839844 206.128906 267.128906 206.878906 266.839844 C 207.558594 266.582031 207.90625 266.035156 207.65625 265.628906 Z M 212.429688 262.75 C 212.269531 261.585938 213.390625 259.921875 215.859375 257.644531 C 217.875 255.789062 219.339844 254.082031 219.113281 253.859375 C 218.210938 252.953125 225.914062 248.265625 227.730469 248.613281 C 228.753906 248.808594 229.59375 248.582031 229.59375 248.105469 C 229.59375 246.699219 226.113281 243.414062 224.699219 243.484375 C 223.847656 243.527344 223.757812 243.691406 224.433594 243.964844 C 226.351562 244.738281 225.480469 246.40625 222.195312 248.253906 C 218.667969 250.234375 209.992188 257.023438 208.355469 259.082031 C 206.238281 261.742188 207.847656 265.164062 211.003906 264.714844 C 212.15625 264.546875 212.59375 263.949219 212.429688 262.75 Z M 223.578125 255.996094 C 227.359375 252.542969 226.617188 251.753906 222.210938 254.535156 C 218.234375 257.042969 215.554688 259.570312 215.554688 260.804688 C 215.554688 261.964844 219.898438 259.363281 223.578125 255.996094 Z M 196.210938 256.890625 C 196.007812 254.960938 194.449219 253.59375 192.226562 253.386719 C 191.460938 253.3125 191.402344 257.800781 192.15625 258.558594 C 192.460938 258.859375 193.550781 259.109375 194.578125 259.109375 C 196.117188 259.109375 196.40625 258.714844 196.214844 256.890625 Z M 206.023438 257.511719 C 206.285156 257.089844 206.121094 256.511719 205.660156 256.226562 C 204.324219 255.402344 204.683594 254.15625 206.265625 254.132812 C 208.472656 254.101562 214.484375 247.976562 216.808594 243.386719 C 218.679688 239.695312 219.042969 239.390625 220.484375 240.292969 C 222.335938 241.445312 223.613281 240.652344 222.398438 239.101562 C 221.230469 237.613281 220.527344 234.335938 221.375 234.335938 C 221.765625 234.335938 223.039062 234.769531 224.210938 235.300781 C 225.835938 236.042969 226.5625 236.042969 227.304688 235.300781 C 228.042969 234.5625 228.039062 234.335938 227.28125 234.335938 C 224.882812 234.335938 226.722656 231.109375 232.113281 225.867188 C 236.582031 221.523438 237.816406 219.832031 237.425781 218.597656 C 236.835938 216.75 237.257812 216.628906 239.765625 217.925781 C 241.226562 218.683594 241.109375 218.371094 239.140625 216.273438 C 237.808594 214.851562 236.320312 213.691406 235.839844 213.691406 C 234.886719 213.695312 231.585938 220.886719 231.773438 222.558594 C 231.832031 223.121094 231.601562 223.40625 231.253906 223.191406 C 230.902344 222.976562 229.738281 223.679688 228.660156 224.753906 C 227.585938 225.828125 225.402344 227.433594 223.8125 228.316406 C 222.199219 229.214844 220.808594 230.691406 220.664062 231.664062 C 220.507812 232.722656 219.699219 233.507812 218.601562 233.664062 C 217.25 233.855469 215.921875 235.691406 213.332031 240.941406 C 210.132812 247.421875 207.1875 251.09375 203.554688 253.128906 C 202.488281 253.722656 202.253906 254.507812 202.65625 256.109375 C 203.191406 258.242188 205.085938 259.03125 206.023438 257.511719 Z M 216.734375 237.207031 C 218.429688 235.921875 219.378906 236.125 218.480469 237.582031 C 218.179688 238.066406 217.308594 238.449219 216.539062 238.4375 C 215.3125 238.414062 215.335938 238.261719 216.734375 237.207031 Z M 222.988281 230.714844 C 222.988281 230.085938 223.730469 229.378906 224.640625 229.140625 C 226.5 228.652344 226.78125 229.386719 225.300781 230.867188 C 223.980469 232.183594 222.988281 232.121094 222.988281 230.714844 Z M 199.679688 252.441406 C 199.199219 249.171875 204.410156 238.488281 207.144531 237.136719 C 211.945312 234.765625 215.828125 229.152344 213.332031 228.195312 C 209.738281 226.816406 208.289062 227.683594 205.3125 233.003906 C 202.453125 238.121094 198.664062 243.226562 194.472656 247.613281 C 193.351562 248.789062 192.433594 250.140625 192.433594 250.625 C 192.433594 251.957031 195.109375 252.691406 195.8125 251.550781 C 196.582031 250.308594 199.039062 252.054688 199.039062 253.839844 C 199.039062 254.464844 199.265625 254.976562 199.546875 254.976562 C 199.824219 254.976562 199.886719 253.835938 199.679688 252.441406 Z M 210.601562 232.027344 C 210.601562 231.589844 211.199219 230.734375 211.933594 230.125 C 213.089844 229.167969 213.226562 229.226562 212.964844 230.574219 C 212.65625 232.179688 210.601562 233.441406 210.601562 232.027344 Z M 189.628906 250.363281 C 189.808594 246.957031 189.992188 246.558594 191.167969 247.007812 C 192.953125 247.695312 193.734375 245.808594 192.144531 244.644531 C 189.492188 242.707031 190.453125 238.742188 194.664062 234.242188 C 199.039062 229.5625 198.910156 227.523438 194.207031 227.054688 C 192.042969 226.839844 191.46875 227.160156 190.78125 228.96875 C 190.328125 230.160156 189.957031 232.703125 189.957031 234.617188 C 189.957031 236.53125 189.375 238.921875 188.667969 239.9375 C 187.957031 240.949219 187.484375 242.425781 187.613281 243.214844 C 187.742188 244.007812 187.542969 245.144531 187.167969 245.742188 C 186.203125 247.285156 187.351562 252.683594 188.558594 252.273438 C 189.101562 252.089844 189.582031 251.230469 189.628906 250.363281 Z M 195.773438 230.132812 C 196.28125 229.1875 196.898438 228.613281 197.144531 228.859375 C 197.824219 229.539062 196.734375 231.855469 195.734375 231.855469 C 195.121094 231.855469 195.136719 231.328125 195.773438 230.132812 Z M 237.574219 251.46875 C 237.933594 250.902344 238.128906 249.855469 238.011719 249.148438 C 237.828125 248.027344 243.617188 241.765625 244.835938 241.765625 C 245.082031 241.765625 245.285156 242.398438 245.285156 243.171875 C 245.285156 244.234375 245.515625 244.34375 246.238281 243.617188 C 246.964844 242.894531 246.9375 242.351562 246.136719 241.386719 C 244.332031 239.210938 242.105469 239.953125 239.453125 243.625 C 238.054688 245.554688 236.011719 247.609375 234.90625 248.191406 C 232.65625 249.378906 232.445312 250.066406 233.886719 251.511719 C 235.167969 252.792969 236.757812 252.773438 237.574219 251.46875 Z M 218.445312 248.167969 C 221.121094 246.433594 222.152344 245.039062 220.714844 245.089844 C 219.863281 245.121094 214.164062 249.972656 214.949219 250.003906 C 215.296875 250.015625 216.871094 249.1875 218.445312 248.167969 Z M 211.441406 240.527344 C 216.136719 232.609375 213.558594 233.835938 208.191406 242.074219 C 206.335938 244.921875 204.820312 247.78125 204.824219 248.429688 C 204.832031 249.96875 208.296875 245.828125 211.441406 240.527344 Z M 233.558594 244.078125 C 234.714844 242.921875 234.878906 240.941406 233.820312 240.941406 C 233.417969 240.941406 232.878906 241.746094 232.621094 242.726562 C 232.214844 244.289062 231.980469 244.371094 230.789062 243.378906 C 229.539062 242.34375 229.625 242.078125 231.777344 240.320312 C 233.074219 239.261719 235.898438 237.234375 238.050781 235.816406 C 243.082031 232.503906 244.730469 230.019531 244.023438 226.804688 C 243.371094 223.824219 241.890625 224.070312 241.027344 227.308594 C 240.34375 229.859375 233.195312 237.636719 231.527344 237.636719 C 230.96875 237.636719 229.511719 238.5 228.285156 239.550781 L 226.0625 241.464844 L 228.351562 243.265625 C 230.953125 245.3125 232.136719 245.496094 233.558594 244.078125 Z M 226.703125 238.464844 C 226.984375 238.007812 226.820312 237.636719 226.339844 237.636719 C 225.859375 237.636719 225.464844 238.007812 225.464844 238.464844 C 225.464844 238.917969 225.628906 239.289062 225.828125 239.289062 C 226.03125 239.289062 226.421875 238.917969 226.703125 238.464844 Z M 249.414062 238.53125 C 249.414062 238.117188 249.007812 237.640625 248.515625 237.476562 C 248.019531 237.308594 249.433594 235.296875 251.65625 233.003906 C 255.507812 229.027344 256.320312 226.902344 253.988281 226.902344 C 253.398438 226.902344 252.441406 228.046875 251.863281 229.441406 C 251.285156 230.839844 249.71875 233.078125 248.378906 234.414062 C 246.96875 235.828125 246.144531 237.359375 246.414062 238.066406 C 246.921875 239.390625 249.414062 239.773438 249.414062 238.53125 Z M 236.199219 231.578125 C 237.785156 229.734375 239.488281 227.050781 239.984375 225.613281 C 240.796875 223.25 240.734375 223.039062 239.347656 223.398438 C 237.382812 223.914062 231.550781 230.515625 229.472656 234.582031 L 227.867188 237.71875 L 230.589844 236.324219 C 232.085938 235.554688 234.609375 233.421875 236.199219 231.578125 Z M 175.160156 228.980469 C 175.730469 228.410156 175.859375 229.335938 175.558594 231.855469 L 175.113281 235.574219 L 176.378906 231.855469 C 178.003906 227.070312 179.390625 217.519531 179.667969 209.148438 C 179.917969 201.597656 179.574219 199.652344 177.984375 199.652344 C 176.882812 199.652344 176.613281 201.082031 175.511719 212.730469 C 175.28125 215.152344 174.535156 219.542969 173.855469 222.484375 C 173.171875 225.421875 172.652344 229.757812 172.695312 232.113281 L 172.78125 236.398438 L 173.550781 233.109375 C 173.972656 231.300781 174.699219 229.441406 175.160156 228.980469 Z M 218.960938 229.542969 C 219.328125 228.542969 219.484375 227.726562 219.304688 227.726562 C 218.621094 227.726562 216.382812 230.359375 216.382812 231.160156 C 216.382812 232.613281 218.257812 231.4375 218.960938 229.542969 Z M 247.292969 229.464844 C 247.546875 229.058594 247.214844 228.519531 246.558594 228.269531 C 245.765625 227.964844 245.519531 228.210938 245.828125 229.007812 C 246.359375 230.394531 246.660156 230.488281 247.292969 229.464844 Z M 216.691406 227.070312 C 217.84375 225.203125 214.296875 223.40625 211.902344 224.640625 C 210.429688 225.402344 210.488281 225.539062 212.726562 226.527344 C 215.695312 227.839844 216.175781 227.902344 216.691406 227.070312 Z M 258.96875 224.097656 C 259.785156 221.496094 259.738281 221.363281 258.347656 222.234375 C 257.519531 222.75 256.84375 224.011719 256.84375 225.035156 C 256.84375 227.796875 257.96875 227.300781 258.96875 224.097656 Z M 170.453125 224.792969 C 170.734375 224.058594 170.597656 223.726562 170.128906 224.015625 C 169.679688 224.296875 169.3125 224.871094 169.3125 225.300781 C 169.3125 226.488281 169.902344 226.226562 170.453125 224.792969 Z M 197.773438 224.332031 C 197.332031 222.949219 198.042969 221.828125 201.175781 218.953125 C 204.070312 216.292969 204.886719 215.074219 204.214844 214.402344 C 203.710938 213.898438 203.515625 212.925781 203.777344 212.238281 C 204.09375 211.414062 203.859375 211.109375 203.09375 211.347656 C 202.453125 211.546875 201 213.617188 199.867188 215.953125 C 198.730469 218.285156 196.882812 221.167969 195.757812 222.351562 C 194.039062 224.167969 193.910156 224.632812 194.933594 225.28125 C 197.097656 226.652344 198.371094 226.222656 197.773438 224.332031 Z M 221.335938 224.4375 C 221.335938 224.042969 220.765625 223.601562 220.0625 223.453125 C 219.023438 223.234375 219.214844 222.503906 221.097656 219.46875 C 222.363281 217.425781 223.402344 215.371094 223.402344 214.90625 C 223.402344 214.441406 224.246094 212.984375 225.28125 211.667969 C 226.722656 209.839844 227.394531 209.503906 228.132812 210.246094 C 228.664062 210.777344 229.652344 211.210938 230.328125 211.210938 C 231.160156 211.210938 230.789062 210.414062 229.183594 208.734375 C 226.3125 205.742188 223.828125 205.453125 223.785156 208.113281 C 223.769531 209.136719 223.304688 210.777344 222.753906 211.757812 C 221.40625 214.15625 215.910156 220.035156 214.566406 220.511719 C 213.941406 220.734375 213.796875 221.203125 214.222656 221.628906 C 214.648438 222.054688 215.109375 221.929688 215.324219 221.328125 C 215.960938 219.546875 217.207031 220.203125 217.207031 222.320312 C 217.207031 223.433594 217.851562 224.703125 218.636719 225.140625 C 220.125 225.976562 221.335938 225.660156 221.335938 224.4375 Z M 249 225.25 C 249.28125 224.796875 249.117188 224.425781 248.636719 224.425781 C 246.984375 224.425781 247.769531 222.582031 251.140625 218.550781 C 253 216.332031 254.230469 214.515625 253.875 214.515625 C 253.519531 214.515625 253.890625 214.03125 254.699219 213.4375 C 256.023438 212.472656 256.039062 212.257812 254.882812 211.292969 C 253.761719 210.367188 253.320312 210.847656 251.515625 214.921875 C 250.207031 217.878906 248.820312 219.78125 247.765625 220.054688 C 246.023438 220.511719 244.730469 223.6875 245.667969 225.203125 C 246.351562 226.308594 248.332031 226.335938 249 225.25 Z M 240.355469 213.738281 C 239.625 212.371094 240.105469 211.628906 243.632812 208.65625 C 247.539062 205.359375 248.753906 202.835938 246.960938 201.730469 C 246.519531 201.457031 245.613281 202.542969 244.945312 204.140625 C 244.28125 205.738281 242.398438 208.21875 240.765625 209.652344 C 237.945312 212.125 237.867188 212.335938 239.191406 213.800781 C 240.988281 215.785156 241.4375 215.761719 240.355469 213.738281 Z M 208.835938 207.84375 C 210.734375 205.632812 211.429688 204.160156 211.042969 203.164062 C 210.570312 201.953125 210.304688 202.121094 209.414062 204.191406 C 208.828125 205.554688 207.554688 207.378906 206.585938 208.242188 C 204.832031 209.804688 204.253906 211.277344 205.441406 211.140625 C 205.78125 211.101562 207.308594 209.621094 208.835938 207.84375 Z M 257.21875 209.492188 C 256.914062 209 257.675781 207.546875 258.910156 206.257812 C 260.148438 204.96875 261.007812 203.46875 260.828125 202.929688 C 260.648438 202.386719 259.492188 203.398438 258.261719 205.175781 C 255.90625 208.574219 255.429688 210.386719 256.894531 210.386719 C 257.375 210.386719 257.519531 209.984375 257.21875 209.492188 Z M 369.164062 198.84375 C 367.300781 189.71875 362.339844 175.289062 358.082031 166.617188 C 354.492188 159.316406 346.65625 148.433594 336.070312 136.042969 C 321.40625 118.890625 313.855469 112.273438 293.539062 98.78125 C 283.578125 92.164062 273.105469 85.371094 270.261719 83.679688 C 267.421875 81.992188 263.308594 79.195312 261.121094 77.46875 C 258.9375 75.742188 254.574219 72.84375 251.425781 71.03125 C 248.277344 69.214844 242.695312 65.917969 239.023438 63.703125 C 228.355469 57.273438 202.375 44.511719 197.101562 43.109375 C 194.375 42.386719 191.367188 40.925781 190.199219 39.761719 C 189.0625 38.625 188.03125 37.808594 187.902344 37.949219 C 187.203125 38.726562 182.527344 53.535156 182.527344 54.980469 C 182.527344 57.414062 185.617188 59.265625 189.667969 59.265625 C 192.898438 59.265625 193.203125 59.066406 194.089844 56.378906 C 195.800781 51.191406 197.417969 50.769531 205.132812 53.5 C 220.535156 58.945312 251.003906 75.066406 273.777344 89.820312 C 280.59375 94.234375 290.066406 100.363281 294.835938 103.445312 C 304.785156 109.871094 312.546875 116.046875 322.464844 125.4375 C 329.617188 132.210938 341.460938 145.480469 345.582031 151.34375 C 347.222656 153.675781 346.742188 153.3125 343.945312 150.101562 C 330.976562 135.210938 312.546875 118.777344 295.519531 106.925781 C 272.03125 90.574219 224.761719 64.488281 211.613281 60.621094 C 205.378906 58.789062 204.828125 59.210938 204.828125 65.839844 C 204.828125 68.902344 204.601562 73.601562 204.328125 76.28125 L 203.828125 81.148438 L 211.886719 83.875 C 228.445312 89.472656 241.140625 95.0625 254.375 102.585938 C 265.121094 108.695312 268.140625 110.085938 268.660156 109.160156 C 270.035156 106.722656 273.964844 108.113281 275.242188 111.484375 C 275.570312 112.347656 276.285156 112.722656 277.050781 112.425781 C 277.863281 112.117188 278.324219 112.410156 278.324219 113.242188 C 278.324219 117.902344 285.308594 124.898438 289 123.933594 C 290.207031 123.617188 290.710938 123.875 290.710938 124.820312 C 290.710938 125.554688 291.265625 126.15625 291.949219 126.15625 C 292.628906 126.15625 293.1875 126.488281 293.1875 126.894531 C 293.1875 127.300781 297.722656 131.480469 303.261719 136.183594 C 317.800781 148.523438 316.988281 147.949219 318.398438 146.777344 C 319.382812 145.964844 319.613281 146.027344 319.613281 147.113281 C 319.613281 147.847656 319.984375 148.453125 320.4375 148.453125 C 320.890625 148.453125 321.261719 148.964844 321.261719 149.59375 C 321.261719 150.21875 322.472656 151.65625 323.949219 152.78125 C 335.757812 161.792969 353.738281 183.503906 366.074219 203.65625 C 371.207031 212.039062 371.695312 211.277344 369.164062 198.847656 Z M 188.617188 55.570312 C 188.363281 54.898438 188.957031 53.046875 189.941406 51.453125 C 190.980469 49.773438 191.527344 47.902344 191.242188 47.007812 C 190.953125 46.09375 191.289062 45.015625 192.058594 44.375 C 193.699219 43.011719 200.023438 44.429688 205.652344 47.421875 L 209.371094 49.394531 L 205.859375 48.890625 C 203.570312 48.558594 202.351562 48.695312 202.351562 49.28125 C 202.351562 50.476562 199.273438 50.441406 198.871094 49.246094 C 198.1875 47.191406 194.773438 49.554688 193.234375 53.144531 C 191.671875 56.792969 189.519531 57.921875 188.617188 55.570312 Z M 233.214844 202.949219 C 235.414062 201.132812 237.636719 199.65625 238.15625 199.671875 C 238.675781 199.6875 238.382812 200.242188 237.507812 200.902344 C 236.632812 201.566406 236.105469 202.292969 236.335938 202.523438 C 236.5625 202.753906 237.628906 202.011719 238.699219 200.871094 C 240.199219 199.273438 240.421875 198.574219 239.664062 197.816406 C 239.125 197.28125 238.6875 196.167969 238.6875 195.351562 C 238.6875 192.785156 236.308594 193.734375 234.652344 196.960938 C 233.777344 198.664062 231.910156 200.730469 230.507812 201.550781 C 229.039062 202.40625 227.949219 203.726562 227.949219 204.648438 C 227.949219 206.925781 228.699219 206.683594 233.214844 202.949219 Z M 190.824219 203.710938 C 191.875 201.75 191.246094 199.265625 189.910156 200.09375 C 189.417969 200.398438 188.054688 199.769531 186.878906 198.699219 C 185.230469 197.199219 184.863281 197.085938 185.265625 198.199219 C 186.042969 200.371094 185.078125 199.949219 182.496094 196.992188 C 180.167969 194.324219 180.03125 192.539062 182.222656 193.378906 C 183.160156 193.738281 183.21875 193.5 182.511719 192.175781 C 181.71875 190.695312 181.496094 190.65625 180.367188 191.78125 C 179.675781 192.472656 178.394531 193.039062 177.519531 193.039062 C 175.320312 193.039062 175.511719 194.554688 177.785156 195.140625 C 178.804688 195.402344 181.21875 197.824219 183.148438 200.523438 C 186.898438 205.761719 189.210938 206.722656 190.824219 203.710938 Z M 188.058594 204.074219 C 187.296875 203.308594 188.214844 202.125 189.574219 202.125 C 190.269531 202.125 190.546875 202.621094 190.261719 203.363281 C 189.757812 204.675781 188.929688 204.941406 188.058594 204.074219 Z M 194.933594 201.691406 C 195.808594 200.640625 195.757812 200.519531 194.621094 200.953125 C 193.878906 201.238281 193.265625 201.804688 193.265625 202.210938 C 193.265625 203.273438 193.746094 203.125 194.933594 201.691406 Z M 250.40625 201.414062 C 249.597656 200.898438 250.0625 199.996094 252.265625 197.792969 C 253.878906 196.179688 255.203125 194.359375 255.203125 193.753906 C 255.203125 193.148438 253.664062 194.191406 251.78125 196.070312 C 248.46875 199.386719 247.851562 202.140625 250.429688 202.109375 C 251.273438 202.101562 251.269531 201.960938 250.40625 201.414062 Z M 192.730469 196.34375 C 192.402344 194.707031 192.566406 193.867188 193.210938 193.867188 C 193.75 193.867188 193.945312 193.46875 193.644531 192.984375 C 193.34375 192.5 192.589844 192.296875 191.96875 192.535156 C 191.34375 192.773438 189.800781 192.113281 188.542969 191.0625 C 185.644531 188.652344 183.007812 187.257812 181.347656 187.257812 C 179.316406 187.257812 179.835938 188.675781 182.074219 189.238281 C 183.1875 189.519531 185.859375 191.789062 188.011719 194.28125 C 190.167969 196.777344 192.222656 198.820312 192.578125 198.820312 C 192.933594 198.820312 193.003906 197.707031 192.730469 196.34375 Z M 200.804688 194.144531 C 201.832031 192.898438 201.765625 192.863281 200.078125 193.757812 C 198.160156 194.78125 197.683594 195.515625 198.945312 195.515625 C 199.34375 195.515625 200.179688 194.898438 200.804688 194.144531 Z M 241.738281 194.988281 C 241.445312 194.699219 242.128906 193.371094 243.25 192.035156 C 244.375 190.703125 245.292969 189 245.292969 188.25 C 245.292969 187.257812 244.914062 187.441406 243.886719 188.933594 C 243.117188 190.054688 241.832031 191.449219 241.03125 192.03125 C 239.554688 193.105469 239.800781 195.515625 241.390625 195.515625 C 241.871094 195.515625 242.027344 195.28125 241.738281 194.988281 Z M 140.824219 190.355469 C 142.328125 178.765625 143.636719 175.195312 148.84375 168.503906 C 155.214844 160.3125 156.894531 156.648438 156.902344 150.925781 C 156.910156 144.34375 156.136719 143.566406 152.480469 146.480469 C 150.84375 147.789062 149.5 149.117188 149.5 149.4375 C 149.5 149.753906 148.570312 151.015625 147.4375 152.242188 C 146.300781 153.464844 145.371094 155.332031 145.371094 156.382812 C 145.371094 157.453125 144.644531 158.6875 143.71875 159.183594 C 142.8125 159.667969 142.070312 160.734375 142.070312 161.550781 C 142.070312 163.671875 141.257812 164.203125 139.46875 163.246094 C 137.226562 162.046875 136.714844 164.058594 138.300781 167.855469 C 140.152344 172.285156 140 172.3125 135.894531 168.28125 C 131.796875 164.261719 130.460938 164.285156 132.484375 168.339844 C 134.140625 171.65625 134.164062 172.707031 132.570312 172.097656 C 130.757812 171.398438 130.972656 175.054688 132.972656 178.976562 C 135.113281 183.175781 135.988281 183.621094 136.664062 180.851562 C 136.964844 179.609375 138.097656 177.238281 139.179688 175.585938 C 140.257812 173.933594 141.6875 171.273438 142.355469 169.679688 C 143.023438 168.082031 144.773438 165.902344 146.246094 164.835938 C 147.910156 163.628906 149.957031 160.714844 151.660156 157.117188 C 154.660156 150.777344 155.128906 150.839844 153.199219 157.332031 C 152.347656 160.203125 150.796875 162.710938 148.375 165.128906 C 144.921875 168.585938 137.113281 182.027344 137.113281 184.515625 C 137.113281 186.425781 135.242188 185.355469 133.140625 182.242188 C 128.609375 175.523438 128.960938 180.59375 133.558594 188.28125 C 136.089844 192.507812 138.097656 194.589844 139.71875 194.667969 C 140.019531 194.679688 140.515625 192.742188 140.824219 190.355469 Z M 178.644531 190.871094 C 178.929688 190.585938 178.539062 189.191406 177.773438 187.773438 C 176.445312 185.308594 176.375 185.277344 176.089844 187.113281 C 175.597656 190.316406 177.054688 192.460938 178.644531 190.871094 Z M 195.421875 188.292969 C 196.453125 186.933594 196.519531 186.941406 196.542969 188.457031 C 196.566406 189.722656 196.785156 189.851562 197.578125 189.0625 C 198.367188 188.269531 198.25 187.441406 197.035156 185.179688 C 195.644531 182.597656 195.128906 182.304688 192.015625 182.304688 C 189.675781 182.304688 187.554688 181.632812 185.5 180.238281 C 182.152344 177.964844 180.882812 177.667969 180.882812 179.15625 C 180.882812 179.691406 180.097656 180.964844 179.144531 181.984375 C 176.839844 184.4375 177.742188 185.605469 181.960938 185.621094 C 184.117188 185.628906 186.667969 186.378906 188.726562 187.609375 C 192.773438 190.027344 194.007812 190.152344 195.421875 188.292969 Z M 193.1875 184.273438 C 192.230469 183.121094 192.292969 182.980469 193.636719 183.242188 C 194.496094 183.40625 195.351562 184.007812 195.539062 184.574219 C 196.03125 186.046875 194.5 185.851562 193.1875 184.273438 Z M 180.636719 182.777344 C 182.171875 180.054688 182.636719 179.945312 185.476562 181.617188 C 187.035156 182.539062 188.3125 183.347656 188.3125 183.417969 C 188.3125 183.488281 186.472656 183.570312 184.226562 183.601562 C 181.542969 183.640625 180.3125 183.359375 180.636719 182.777344 Z M 200.699219 187.625 C 200.699219 186.96875 201.070312 186.433594 201.523438 186.433594 C 201.980469 186.433594 202.363281 187.082031 202.375 187.878906 C 202.398438 189.207031 202.464844 189.210938 203.203125 187.949219 C 204.03125 186.53125 203.488281 183.957031 202.363281 183.957031 C 202.011719 183.957031 201.363281 184.421875 200.917969 184.988281 C 199.804688 186.410156 199.03125 189.84375 199.949219 189.277344 C 200.363281 189.023438 200.699219 188.277344 200.699219 187.625 Z M 179.230469 179.351562 C 179.230469 177.753906 173.773438 172.027344 173.171875 173 C 172.863281 173.5 173.523438 174.992188 174.640625 176.316406 C 176.035156 177.976562 176.515625 179.308594 176.179688 180.597656 C 175.726562 182.328125 175.820312 182.382812 177.460938 181.359375 C 178.433594 180.753906 179.230469 179.847656 179.230469 179.351562 Z M 199.148438 180.09375 C 198.429688 178.859375 198.265625 178.820312 198.246094 179.894531 C 198.21875 181.285156 199.089844 182.539062 199.675781 181.953125 C 199.867188 181.761719 199.628906 180.925781 199.148438 180.09375 Z M 194.917969 176.9375 C 194.917969 174.101562 196.027344 173.039062 196.847656 175.078125 C 197.117188 175.746094 197.289062 175.777344 197.332031 175.171875 C 197.367188 174.652344 196.679688 173.351562 195.804688 172.28125 C 194.523438 170.714844 194.003906 170.535156 193.160156 171.363281 C 191.632812 172.863281 188.3125 172.628906 184.851562 170.773438 C 182.882812 169.71875 180.820312 169.28125 178.957031 169.519531 C 177.007812 169.769531 175.949219 169.519531 175.652344 168.742188 C 174.949219 166.910156 176.074219 166.492188 177.714844 167.980469 C 178.546875 168.730469 179.226562 168.960938 179.226562 168.488281 C 179.226562 167.695312 175.730469 164.960938 174.714844 164.960938 C 173.960938 164.960938 174.226562 167.609375 175.273438 170.5 C 175.847656 172.09375 176.703125 173.097656 177.285156 172.875 C 177.859375 172.652344 178.410156 173.269531 178.558594 174.296875 C 178.78125 175.882812 179.367188 176.128906 183.179688 176.253906 C 185.972656 176.34375 188.496094 177.007812 190.199219 178.097656 C 193.988281 180.527344 194.917969 180.296875 194.917969 176.9375 Z M 180.402344 173.109375 C 180.222656 172.820312 180.53125 172.234375 181.09375 171.808594 C 181.765625 171.300781 183.113281 171.539062 185.007812 172.496094 L 187.898438 173.960938 L 184.316406 173.796875 C 182.347656 173.707031 180.585938 173.398438 180.402344 173.109375 Z M 203.1875 175.746094 C 203.195312 175.039062 203.421875 173.625 203.695312 172.601562 C 204.082031 171.160156 203.847656 170.742188 202.652344 170.742188 C 201.335938 170.742188 201.113281 171.402344 201.113281 175.300781 C 201.113281 179.148438 201.273438 179.636719 202.144531 178.445312 C 202.710938 177.667969 203.179688 176.453125 203.1875 175.746094 Z M 97.363281 175.042969 C 99.011719 173.320312 101.417969 170.511719 102.707031 168.800781 C 105.734375 164.785156 111.210938 160.832031 113.746094 160.832031 C 114.863281 160.832031 115.511719 160.472656 115.226562 160.007812 C 114.269531 158.460938 107.125 159.121094 103.664062 161.074219 C 101.113281 162.515625 100.308594 163.5 100.136719 165.394531 L 99.914062 167.851562 L 101.960938 165.40625 C 103.085938 164.0625 104.210938 163.167969 104.460938 163.417969 C 105.335938 164.292969 96.859375 174.496094 93.957031 176.058594 C 91.273438 177.503906 90.761719 177.535156 87.851562 176.429688 C 84.148438 175.023438 82.378906 171.375 83.027344 166.488281 C 83.246094 164.832031 86.226562 157.769531 89.648438 150.800781 C 93.070312 143.828125 97.199219 133.851562 98.820312 128.625 C 100.441406 123.402344 102.988281 117.085938 104.484375 114.589844 C 105.980469 112.089844 108.976562 105.816406 111.140625 100.644531 C 115.875 89.332031 118.78125 84.90625 128.152344 74.75 C 137.25 64.890625 143.257812 61.359375 149.984375 61.914062 C 152.699219 62.140625 155.074219 62.871094 156.09375 63.796875 C 157.789062 65.328125 158.964844 65.285156 157.914062 63.730469 C 156.46875 61.59375 152.992188 60.085938 149.519531 60.09375 C 144.726562 60.105469 138.992188 62.808594 132.253906 68.234375 C 129.359375 70.566406 126.757812 72.460938 126.476562 72.441406 C 126.191406 72.425781 128.066406 70.425781 130.640625 68 C 136.613281 62.371094 144.3125 58.441406 149.421875 58.417969 L 153.210938 58.398438 L 151.148438 56.757812 C 150.011719 55.855469 146.878906 53.976562 144.183594 52.582031 C 137.949219 49.359375 132.664062 45.777344 128.3125 41.839844 C 126.429688 40.128906 123.273438 37.910156 121.300781 36.902344 C 117.867188 35.152344 117.3125 35.113281 108.554688 35.96875 C 98.304688 36.972656 92.148438 38.960938 87.367188 42.800781 C 85.597656 44.222656 83.96875 45.207031 83.746094 44.984375 C 82.433594 43.671875 95.824219 35.375 99.328125 35.332031 C 100.125 35.320312 100.773438 34.96875 100.773438 34.546875 C 100.773438 33.332031 92.054688 32.5625 84.707031 33.128906 C 78.085938 33.636719 57.777344 38.71875 49.320312 41.984375 C 44.453125 43.863281 42.144531 46.140625 42.144531 49.0625 C 42.144531 51.175781 45.023438 57.4375 46.640625 58.84375 C 48.316406 60.300781 53.394531 67.050781 53.953125 68.570312 C 54.929688 71.222656 56.851562 71.058594 60.574219 68.007812 C 62.566406 66.378906 64.433594 65.042969 64.71875 65.042969 C 65.003906 65.042969 63.835938 66.894531 62.125 69.160156 C 60.21875 71.675781 58.09375 76.078125 56.664062 80.476562 C 52.925781 91.949219 47.066406 102.511719 40.039062 110.460938 C 33.539062 117.808594 28.925781 125.648438 30.296875 127.019531 C 32.605469 129.332031 53.84375 107.144531 58.375 97.6875 C 59.894531 94.519531 61.136719 91.375 61.136719 90.703125 C 61.136719 89.898438 61.414062 89.761719 61.953125 90.300781 C 62.828125 91.179688 62.496094 92.609375 59.480469 100.929688 C 55.984375 110.578125 52.722656 114.765625 43.835938 121.03125 C 32.621094 128.941406 26.375 134.605469 27.5625 135.792969 C 27.808594 136.039062 29.613281 134.957031 31.570312 133.386719 C 33.523438 131.8125 37.539062 128.917969 40.492188 126.949219 C 43.445312 124.984375 48.273438 121.097656 51.226562 118.3125 C 54.179688 115.53125 59.59375 110.792969 63.257812 107.78125 C 66.921875 104.773438 70.972656 100.792969 72.257812 98.9375 C 73.542969 97.082031 74.789062 95.761719 75.027344 96 C 75.265625 96.238281 74.273438 98.011719 72.824219 99.9375 C 71.375 101.863281 68.757812 105.484375 67.007812 107.984375 C 62.089844 115.003906 48.359375 126.886719 38.558594 132.601562 C 29.464844 137.90625 23.148438 143.917969 23.148438 147.265625 C 23.148438 149.335938 25.125 151.75 26.820312 151.75 C 27.410156 151.75 31.007812 149.648438 34.8125 147.074219 C 54.507812 133.769531 66.269531 124.527344 82.789062 109.367188 C 94.496094 98.628906 94.179688 101.175781 82.363281 112.804688 C 78.367188 116.738281 74.40625 121.273438 73.558594 122.878906 C 72.707031 124.488281 69.101562 128.554688 65.542969 131.917969 C 57.84375 139.191406 56.996094 140.292969 56.140625 144.089844 C 55.296875 147.828125 56.300781 149.941406 60.28125 152.78125 C 64.066406 155.484375 64.800781 155.621094 63.613281 153.402344 C 63.121094 152.484375 63.066406 151.75 63.488281 151.75 C 64.4375 151.75 66.914062 155.449219 66.925781 156.882812 C 66.941406 159.09375 71.007812 166.566406 73.992188 169.871094 C 79.253906 175.695312 79.703125 175.609375 79.8125 168.765625 C 79.875 164.949219 80.414062 161.855469 81.320312 160.101562 C 83.003906 156.84375 83.867188 157.136719 82.542969 160.511719 C 82.027344 161.824219 81.554688 165.621094 81.488281 168.953125 C 81.378906 174.394531 81.566406 175.167969 83.316406 176.589844 C 84.710938 177.726562 86.558594 178.175781 89.8125 178.175781 C 94 178.175781 94.601562 177.925781 97.359375 175.042969 Z M 92.847656 134.40625 C 97.074219 121.886719 99.691406 115.707031 100.445312 116.464844 C 100.65625 116.671875 99.914062 119.027344 98.804688 121.703125 C 97.695312 124.375 95.597656 130.382812 94.140625 135.054688 C 92.6875 139.722656 90.832031 144.367188 90.015625 145.375 C 89.050781 146.5625 90.046875 142.707031 92.847656 134.40625 Z M 199.046875 171.320312 C 199.046875 170.730469 198.609375 169.808594 198.074219 169.273438 C 197.324219 168.523438 197.355469 167.820312 198.203125 166.234375 C 199.054688 164.640625 199.75 164.28125 201.242188 164.65625 C 202.898438 165.070312 203.175781 164.832031 203.175781 162.988281 C 203.175781 160.988281 202.910156 160.832031 199.5 160.832031 C 195.960938 160.832031 195.789062 160.949219 194.976562 163.886719 C 194.25 166.523438 194.359375 167.152344 195.765625 168.460938 C 196.660156 169.296875 197.394531 170.523438 197.394531 171.1875 C 197.394531 171.851562 197.765625 172.394531 198.222656 172.394531 C 198.675781 172.394531 199.046875 171.910156 199.046875 171.320312 Z M 172.089844 164.558594 C 172.375 163.820312 171.953125 163.636719 170.703125 163.960938 C 169.125 164.367188 169.039062 164.257812 170.007812 163.078125 C 170.617188 162.335938 170.886719 161.367188 170.609375 160.921875 C 170.335938 160.472656 170.765625 159.726562 171.570312 159.257812 C 172.375 158.789062 172.664062 158.402344 172.207031 158.394531 C 170.804688 158.371094 169.796875 159.46875 168.042969 162.917969 L 166.355469 166.242188 L 169.019531 165.929688 C 170.484375 165.761719 171.867188 165.144531 172.089844 164.558594 Z M 191.613281 164.453125 C 191.613281 164.277344 190.871094 164.136719 189.964844 164.136719 C 189.054688 164.136719 188.3125 164.472656 188.3125 164.886719 C 188.3125 165.296875 189.054688 165.4375 189.964844 165.203125 C 190.871094 164.964844 191.613281 164.628906 191.613281 164.453125 Z M 175.097656 160.378906 C 175.097656 159.773438 174.667969 159.015625 174.144531 158.691406 C 173.542969 158.316406 173.417969 158.464844 173.804688 159.089844 C 174.140625 159.632812 173.957031 160.628906 173.402344 161.300781 C 172.566406 162.308594 172.625 162.429688 173.742188 162.003906 C 174.488281 161.714844 175.097656 160.988281 175.097656 160.378906 Z M 196.980469 158.933594 C 198.128906 158.667969 197.875 158.515625 196.15625 158.441406 C 194.792969 158.382812 192.75 158.097656 191.613281 157.808594 L 189.550781 157.285156 L 191.535156 159.457031 C 193.179688 161.25 193.679688 161.425781 194.425781 160.472656 C 194.921875 159.839844 196.074219 159.148438 196.980469 158.933594 Z M 180.875 159.386719 C 180.875 158.59375 180.328125 151.253906 179.664062 143.078125 C 178.4375 128.003906 178.375 102.597656 179.558594 100.6875 C 179.914062 100.113281 180.179688 96.972656 180.148438 93.714844 C 180.117188 90.453125 180.445312 86.46875 180.878906 84.859375 C 181.832031 81.328125 182.601562 76.519531 182.9375 72.058594 C 183.070312 70.242188 183.777344 67.132812 184.507812 65.144531 C 186.121094 60.746094 186.144531 61.1875 184.28125 60.699219 C 182.96875 60.355469 182.460938 61.207031 181.03125 66.175781 C 177.171875 79.5625 174.964844 100.019531 174.921875 122.847656 C 174.890625 138.269531 176.488281 156.402344 178.101562 158.976562 C 179.492188 161.191406 180.882812 161.398438 180.875 159.386719 Z M 138.546875 157.019531 C 140.0625 155.351562 140.367188 154.121094 140.257812 150.109375 C 140.171875 146.945312 139.816406 145.414062 139.257812 145.761719 C 137.472656 146.863281 131.429688 146.585938 130.96875 145.382812 C 130.667969 144.601562 129.921875 144.390625 128.753906 144.761719 C 127.789062 145.070312 127.195312 144.996094 127.441406 144.597656 C 127.6875 144.203125 126.992188 143.453125 125.894531 142.9375 C 124.746094 142.394531 123.703125 142.3125 123.4375 142.742188 C 122.667969 143.992188 121.210938 143.578125 121.71875 142.253906 C 122.015625 141.488281 121.367188 140.476562 120.015625 139.589844 C 118.410156 138.539062 117.742188 138.429688 117.492188 139.171875 C 117.011719 140.617188 115.640625 140.433594 115.640625 138.921875 C 115.640625 136.917969 112.144531 135.933594 110.859375 137.578125 C 109.519531 139.296875 108.609375 138.070312 107.890625 133.574219 C 107.375 130.335938 105.445312 127.914062 104.542969 129.371094 C 104.265625 129.824219 104.480469 131.957031 105.023438 134.113281 C 105.773438 137.09375 105.777344 138.109375 105.042969 138.351562 C 103.300781 138.933594 103.910156 144.105469 105.886719 145.492188 C 108.050781 147.003906 107.394531 148.125 105.070312 146.882812 C 103.355469 145.964844 102.902344 144.707031 101.972656 138.269531 C 101.324219 133.789062 99.804688 134.078125 99.4375 138.75 C 99.320312 140.246094 98.839844 142.480469 98.371094 143.714844 C 97.320312 146.476562 97.917969 148.214844 100.167969 148.929688 C 101.113281 149.226562 103.535156 151.101562 105.550781 153.089844 C 108.277344 155.773438 109.886719 156.714844 111.8125 156.738281 C 113.238281 156.761719 116.261719 157.46875 118.53125 158.3125 C 121.789062 159.519531 124.144531 159.761719 129.679688 159.449219 C 135.8125 159.101562 136.933594 158.792969 138.546875 157.019531 Z M 121.671875 155.507812 C 117.382812 153.519531 114.605469 151.0625 118.277344 152.5 C 123.632812 154.601562 127.277344 156.558594 126.605469 156.976562 C 126.191406 157.230469 123.972656 156.570312 121.675781 155.507812 Z M 121.535156 146.21875 C 116.472656 143.585938 112.695312 141.308594 113.148438 141.15625 C 113.597656 141.007812 115.550781 141.628906 117.488281 142.535156 C 119.425781 143.441406 121.566406 144.402344 122.25 144.671875 C 122.929688 144.9375 124.730469 145.910156 126.253906 146.832031 C 127.847656 147.792969 129.6875 148.292969 130.589844 148.007812 C 131.457031 147.730469 132.15625 147.898438 132.15625 148.386719 C 132.15625 148.910156 133.339844 149.109375 135.105469 148.882812 C 137.179688 148.621094 137.957031 148.804688 137.726562 149.507812 C 137.546875 150.058594 135.898438 150.621094 134.070312 150.757812 C 131.347656 150.960938 129.058594 150.132812 121.535156 146.21875 Z M 174.03125 155.300781 C 173.003906 155.035156 172.707031 154.433594 173.054688 153.332031 C 173.65625 151.4375 172.191406 151.179688 171.472656 153.054688 C 170.585938 155.363281 170.921875 155.878906 173.242188 155.78125 C 174.703125 155.722656 174.984375 155.550781 174.03125 155.300781 Z M 150.09375 142.859375 C 158.820312 137.957031 160.789062 130.351562 156.019531 119.957031 C 153.589844 114.660156 153.074219 116.84375 155.257812 123.195312 C 157.355469 129.289062 157.355469 131.359375 155.265625 135.675781 C 154.007812 138.273438 152.191406 140 147.835938 142.734375 C 144.664062 144.722656 142.066406 146.679688 142.066406 147.082031 C 142.066406 147.484375 143.089844 147.136719 144.339844 146.3125 C 145.585938 145.488281 148.175781 143.933594 150.09375 142.859375 Z M 136.726562 143.453125 C 137.09375 142.851562 137.597656 142.863281 138.351562 143.492188 C 139.144531 144.148438 139.597656 144.144531 140.011719 143.476562 C 140.328125 142.96875 141.09375 142.75 141.714844 142.988281 C 143.023438 143.488281 145.371094 140.511719 145.371094 138.351562 C 145.371094 137.546875 145 136.886719 144.542969 136.886719 C 144.089844 136.886719 143.71875 136.28125 143.71875 135.546875 C 143.71875 134.449219 143.941406 134.390625 144.957031 135.234375 C 146.027344 136.121094 146.199219 135.765625 146.210938 132.652344 C 146.21875 129.925781 146.902344 128.039062 148.992188 124.960938 L 151.765625 120.882812 L 149.804688 117.199219 C 146.273438 110.554688 147.882812 103.578125 154.128906 98.457031 C 158.21875 95.105469 160.234375 91.816406 160.234375 88.488281 C 160.234375 86.308594 160.195312 86.289062 158.582031 87.75 C 156.890625 89.28125 156.210938 88.390625 157.832031 86.765625 C 159.488281 85.113281 159.3125 75.722656 157.546875 71.476562 C 156.179688 68.179688 155.375 67.375 152.265625 66.1875 C 149.449219 65.113281 147.980469 64.976562 145.933594 65.605469 C 143.179688 66.449219 134.628906 72.652344 130.164062 77.042969 C 126.042969 81.097656 118.121094 91.757812 118.121094 93.253906 C 118.121094 94.007812 116.695312 97.355469 114.957031 100.6875 C 112.097656 106.15625 111.808594 107.292969 111.953125 112.371094 C 112.039062 115.464844 112.535156 118.417969 113.050781 118.933594 C 113.566406 119.453125 113.992188 120.234375 113.992188 120.675781 C 113.992188 121.117188 114.640625 122.207031 115.4375 123.097656 C 116.835938 124.667969 116.816406 124.699219 114.816406 124.078125 C 113.679688 123.730469 111.503906 122.777344 109.984375 121.964844 C 106.5625 120.140625 103.667969 120.925781 103.667969 123.675781 C 103.667969 125.148438 104.382812 125.773438 106.972656 126.574219 C 108.789062 127.132812 112.320312 128.5625 114.816406 129.753906 C 120.773438 132.589844 122.902344 132.488281 127.75 129.15625 C 132.964844 125.566406 135.460938 124.734375 135.460938 126.578125 C 135.460938 127.339844 136.5625 128.359375 137.9375 128.878906 C 141.339844 130.164062 141.042969 131.105469 137.238281 131.105469 C 132.773438 131.105469 128.855469 133.214844 128.855469 135.617188 C 128.855469 137.800781 130.675781 138.863281 132.058594 137.480469 C 132.742188 136.796875 132.984375 136.800781 132.984375 137.492188 C 132.984375 139.019531 137.933594 138.5 137.964844 136.964844 C 137.984375 135.835938 138.109375 135.851562 138.832031 137.089844 C 140 139.101562 141.230469 138.894531 141.308594 136.679688 C 141.351562 135.4375 141.527344 135.230469 141.84375 136.058594 C 142.101562 136.742188 142.679688 137.535156 143.121094 137.824219 C 145.761719 139.546875 139.609375 141.214844 134.691406 140.109375 C 133.070312 139.746094 130.445312 139.292969 128.855469 139.101562 C 125.996094 138.757812 121.394531 137.011719 120.597656 135.964844 C 119.777344 134.894531 113.785156 131.859375 113.351562 132.296875 C 113.105469 132.542969 112.40625 132.328125 111.796875 131.820312 C 110.925781 131.101562 110.6875 131.292969 110.6875 132.722656 C 110.6875 133.808594 111.101562 134.40625 111.710938 134.203125 C 112.277344 134.015625 113.253906 134.378906 113.882812 135.007812 C 114.511719 135.636719 115.539062 135.957031 116.160156 135.71875 C 116.785156 135.480469 117.292969 135.636719 117.292969 136.070312 C 117.292969 136.5 118.316406 137.105469 119.566406 137.414062 C 120.8125 137.726562 122.339844 138.6875 122.953125 139.550781 C 123.566406 140.417969 124.589844 140.925781 125.222656 140.683594 C 125.859375 140.4375 126.378906 140.644531 126.378906 141.136719 C 126.378906 141.640625 127.257812 141.863281 128.402344 141.644531 C 129.71875 141.394531 130.589844 141.695312 130.90625 142.511719 C 131.273438 143.46875 131.617188 143.539062 132.351562 142.804688 C 133.675781 141.480469 134.636719 141.597656 134.636719 143.078125 C 134.636719 144.5 135.933594 144.734375 136.726562 143.453125 Z M 142.480469 127.800781 C 141.898438 126.855469 146.066406 122.910156 147.691406 122.871094 C 148.925781 122.84375 148.382812 124.042969 145.929688 126.769531 C 144.097656 128.804688 143.257812 129.058594 142.480469 127.800781 Z M 121.96875 124.925781 C 121.214844 124.171875 120.597656 123.140625 120.597656 122.632812 C 120.597656 122.125 121.355469 122.523438 122.28125 123.515625 C 124.136719 125.511719 125.507812 126.023438 123.945312 124.140625 C 123.40625 123.492188 122.894531 121.667969 122.8125 120.09375 C 122.730469 118.519531 122.382812 117.402344 122.042969 117.609375 C 120.925781 118.292969 121.429688 116.691406 122.886719 114.910156 C 124.683594 112.71875 137.363281 108.757812 141.730469 109.023438 C 144.832031 109.214844 144.972656 109.355469 145.996094 113.265625 C 146.574219 115.492188 146.886719 117.476562 146.683594 117.679688 C 146.480469 117.882812 145.375 116.558594 144.226562 114.734375 C 141.613281 110.597656 140.722656 110.027344 140.167969 112.144531 C 139.929688 113.058594 139.421875 113.753906 139.042969 113.6875 C 137.328125 113.386719 136.488281 113.90625 135.625 115.796875 C 134.351562 118.59375 135.625 119.066406 138.441406 116.847656 C 139.730469 115.832031 140.96875 115.121094 141.1875 115.269531 C 141.410156 115.414062 141.875 114.859375 142.21875 114.03125 C 142.648438 113.003906 142.789062 113.4375 142.664062 115.394531 C 142.5 117.980469 142.117188 118.402344 138.84375 119.605469 C 136.847656 120.339844 134.800781 121.464844 134.304688 122.101562 C 133.3125 123.363281 128.863281 125.285156 125.476562 125.90625 C 124.148438 126.148438 122.820312 125.777344 121.96875 124.925781 Z M 128.855469 123.671875 C 129.855469 123.023438 129.738281 122.871094 128.234375 122.859375 C 127.214844 122.851562 126.378906 123.21875 126.378906 123.671875 C 126.378906 124.707031 127.253906 124.707031 128.855469 123.671875 Z M 147.65625 121.054688 C 148.136719 120.574219 149.015625 120.347656 149.613281 120.542969 C 150.230469 120.75 149.855469 121.125 148.738281 121.417969 C 147.367188 121.777344 147.042969 121.667969 147.65625 121.054688 Z M 127.515625 107.394531 C 127.835938 107.074219 130.035156 105.867188 132.398438 104.710938 C 135.488281 103.207031 137.21875 101.683594 138.542969 99.3125 C 140.246094 96.261719 140.390625 96.175781 140.402344 98.167969 C 140.421875 101.117188 137.511719 104.578125 133.460938 106.417969 C 130.148438 107.921875 126.367188 108.542969 127.515625 107.394531 Z M 341.082031 138.253906 C 341.082031 138.09375 340.246094 137.257812 339.222656 136.394531 L 337.363281 134.820312 L 338.9375 136.679688 C 340.417969 138.425781 341.082031 138.914062 341.082031 138.253906 Z M 126.785156 136.058594 C 127.066406 135.605469 126.902344 135.234375 126.421875 135.234375 C 125.941406 135.234375 125.546875 135.605469 125.546875 136.058594 C 125.546875 136.515625 125.710938 136.886719 125.914062 136.886719 C 126.113281 136.886719 126.507812 136.515625 126.785156 136.058594 Z M 337.777344 134.15625 C 337.777344 134.019531 336.382812 132.625 334.679688 131.058594 L 331.585938 128.214844 L 334.429688 131.3125 C 337.078125 134.195312 337.777344 134.789062 337.777344 134.15625 Z M 328.648438 123.617188 C 326.71875 121.316406 322.804688 117.367188 319.945312 114.839844 C 313.054688 108.753906 290.378906 92.136719 280 85.566406 C 275.4375 82.679688 264.925781 75.9375 256.640625 70.585938 C 248.351562 65.230469 236.957031 58.4375 231.320312 55.488281 C 217.882812 48.460938 208.695312 42.96875 204.78125 39.621094 C 201.628906 36.925781 201.601562 36.921875 200.660156 38.683594 C 199.875 40.152344 199.207031 40.375 196.796875 39.984375 C 193.371094 39.429688 190.785156 37.34375 190.785156 35.136719 C 190.785156 34.269531 190.429688 33.785156 189.992188 34.054688 C 188.574219 34.929688 190.820312 38.332031 193.96875 40.074219 C 195.625 40.992188 198.652344 42.011719 200.695312 42.335938 C 202.738281 42.664062 204.78125 43.21875 205.238281 43.566406 C 205.691406 43.914062 212.566406 47.542969 220.515625 51.625 C 236.300781 59.734375 253.476562 69.761719 263.980469 77.007812 C 267.679688 79.554688 274.128906 83.664062 278.3125 86.140625 C 282.5 88.613281 288.210938 92.421875 291 94.601562 C 293.792969 96.78125 300.351562 101.386719 305.578125 104.832031 C 312.117188 109.144531 317.660156 113.703125 323.335938 119.441406 C 327.871094 124.03125 331.710938 127.789062 331.867188 127.792969 C 332.023438 127.796875 330.574219 125.917969 328.648438 123.617188 Z M 153.117188 106.476562 C 153.421875 104.46875 153.34375 103.101562 152.933594 103.355469 C 152.53125 103.605469 151.980469 105.414062 151.710938 107.378906 C 151.441406 109.339844 150.996094 111.671875 150.71875 112.5625 C 150.410156 113.554688 150.667969 113.378906 151.390625 112.113281 C 152.039062 110.976562 152.816406 108.441406 153.117188 106.476562 Z M 194.441406 36.230469 C 194.976562 35.363281 192.917969 33.453125 192.210938 34.160156 C 191.570312 34.800781 192.414062 36.964844 193.300781 36.964844 C 193.679688 36.964844 194.191406 36.632812 194.441406 36.230469 Z M 199.664062 33.453125 C 199.246094 32.195312 195.167969 30.652344 194.371094 31.453125 C 193.59375 32.230469 196.605469 34.429688 198.492188 34.460938 C 199.34375 34.476562 199.855469 34.035156 199.664062 33.453125 Z M 78.921875 330.742188 C 79.230469 329.71875 80.144531 327.769531 80.953125 326.40625 C 81.761719 325.042969 83.414062 321.140625 84.625 317.734375 C 88.472656 306.914062 92.171875 300.140625 96.707031 295.605469 C 101.710938 290.601562 103.632812 289.929688 100.140625 294.40625 C 94.59375 301.515625 90.894531 309.082031 88.765625 317.683594 C 86.28125 327.722656 85.5625 329.296875 83.453125 329.296875 C 82.589844 329.296875 81.648438 330.039062 81.363281 330.949219 C 81.074219 331.855469 80.28125 332.597656 79.597656 332.597656 C 78.699219 332.597656 78.515625 332.09375 78.921875 330.742188 Z M 137.355469 329.722656 C 137.609375 328.140625 139.34375 322.691406 141.203125 317.617188 C 143.0625 312.539062 144.460938 308.019531 144.3125 307.570312 C 143.976562 306.566406 137.742188 316.960938 134.566406 323.820312 C 131.25 330.988281 131.585938 327.234375 135.066406 318.25 C 141.148438 302.5625 145.085938 295.984375 148.128906 296.429688 C 149.640625 296.652344 149.796875 297.195312 149.617188 301.632812 C 149.339844 308.523438 147.558594 314.144531 144.148438 318.910156 C 142.546875 321.144531 140.628906 325.136719 139.886719 327.785156 C 138.414062 333.035156 136.589844 334.429688 137.355469 329.722656 Z M 50.480469 329.417969 C 50.382812 327.1875 54.195312 313.71875 57.714844 303.875 C 59.117188 299.949219 59.765625 297.046875 59.273438 296.882812 C 57.566406 296.316406 62.523438 292.28125 67.144531 290.480469 C 72.175781 288.515625 74.546875 288.921875 71.039062 291.144531 C 69.902344 291.867188 67.101562 294.335938 64.816406 296.636719 C 61.289062 300.179688 60.425781 301.699219 59.148438 306.59375 C 58.320312 309.769531 56.585938 314.78125 55.300781 317.734375 C 54.011719 320.6875 52.421875 324.960938 51.761719 327.230469 C 51.019531 329.789062 50.535156 330.621094 50.480469 329.417969 Z M 93.78125 330.171875 C 92.390625 327.921875 99.652344 314.515625 106.480469 306.734375 C 108.796875 304.089844 111.308594 300.746094 112.058594 299.300781 C 112.871094 297.738281 113.570312 297.117188 113.785156 297.761719 C 114.132812 298.792969 109.808594 305.761719 104.082031 313.398438 C 100.828125 317.738281 101.691406 318.019531 105.34375 313.8125 C 109.894531 308.574219 109.492188 311.535156 104.792969 317.882812 C 98.429688 326.480469 94.328125 331.058594 93.78125 330.171875 Z M 116.933594 325.992188 C 117.210938 324.855469 119.976562 318.539062 123.078125 311.953125 C 126.175781 305.367188 128.96875 299.09375 129.28125 298.007812 C 129.597656 296.925781 131.152344 294.335938 132.738281 292.257812 C 134.324219 290.179688 135.238281 288.347656 134.769531 288.191406 C 133.59375 287.800781 129.816406 289.839844 125.230469 293.339844 C 123.121094 294.949219 121.195312 296.265625 120.945312 296.265625 C 120.019531 296.265625 128.128906 286.382812 130.988281 284.027344 C 134.222656 281.359375 142.78125 278.492188 143.96875 279.675781 C 145.140625 280.851562 143.953125 283.351562 137.738281 292.765625 C 134.519531 297.640625 130.691406 303.863281 129.234375 306.585938 C 126.71875 311.292969 119.113281 324.167969 117.28125 326.820312 C 116.625 327.765625 116.542969 327.570312 116.933594 325.992188 Z M 156.597656 318.558594 C 156.898438 315.609375 158.21875 309.683594 159.53125 305.390625 C 161.957031 297.449219 162.523438 292.269531 161.527344 287.148438 C 161.007812 284.476562 161.054688 284.394531 162.238281 285.878906 C 164.253906 288.402344 164.648438 292.601562 163.675781 301.128906 C 163.179688 305.492188 162.761719 311.597656 162.746094 314.695312 C 162.730469 317.792969 162.355469 320.949219 161.910156 321.714844 C 161.324219 322.722656 161.09375 321.589844 161.074219 317.578125 C 161.0625 314.539062 160.71875 311.847656 160.316406 311.597656 C 159.914062 311.347656 159.140625 313.488281 158.601562 316.355469 C 157.195312 323.800781 155.914062 325.210938 156.597656 318.558594 Z M 137.28125 230.488281 C 136.769531 228.828125 136.679688 227.808594 137.082031 228.21875 C 137.890625 229.046875 139.144531 233.507812 138.570312 233.507812 C 138.367188 233.507812 137.789062 232.148438 137.28125 230.488281 Z M 55.777344 192.023438 C 54.910156 190.554688 52.851562 187.863281 51.199219 186.039062 C 49.550781 184.214844 45.929688 179.375 43.152344 175.289062 C 37.082031 166.351562 33.335938 162.5625 30.324219 162.3125 C 27.410156 162.070312 27.921875 160.65625 31.273438 159.691406 C 33.953125 158.925781 35.863281 159.609375 34.09375 160.703125 C 33.453125 161.097656 34.527344 162.519531 37.230469 164.847656 C 39.492188 166.796875 42.253906 170.1875 43.367188 172.386719 C 44.484375 174.585938 47.378906 178.554688 49.800781 181.203125 C 54.894531 186.773438 57.371094 190.210938 58.1875 192.835938 C 59.039062 195.582031 57.589844 195.09375 55.777344 192.023438 Z M 55.777344 192.023438 " fill-opacity="1" fill-rule="nonzero"/></g></svg>