<svg xmlns="http://www.w3.org/2000/svg" xmlns:xlink="http://www.w3.org/1999/xlink" width="500" zoomAndPan="magnify" viewBox="0 0 375 374.999991" height="500" preserveAspectRatio="xMidYMid meet" version="1.0"><defs><clipPath id="cf6c9ba477"><path d="M 49.171875 17 L 325 17 L 325 361 L 49.171875 361 Z M 49.171875 17 " clip-rule="nonzero"/></clipPath></defs><g clip-path="url(#cf6c9ba477)"><path fill="#0dff00" d="M 68.375 234.695312 C 63.554688 233.910156 59.105469 231.257812 56.085938 226.25 C 55.691406 225.59375 55.382812 225.0625 54.214844 222.5625 C 53.691406 221.449219 52.417969 218.589844 51.625 216.332031 C 50.257812 212.449219 49.882812 210.0625 49.703125 208.71875 C 49.402344 206.472656 49.214844 203.226562 50.066406 199.535156 C 51.433594 193.613281 54.707031 189.3125 57.246094 186.535156 C 58.753906 184.886719 61.054688 182.679688 63.175781 181.109375 C 63.195312 180.308594 63.214844 179.398438 63.234375 178.363281 C 63.566406 159.90625 62.230469 156.660156 62.648438 154.429688 C 63.03125 152.40625 64.894531 151.851562 67.195312 151.695312 C 68.925781 151.574219 71.140625 151.429688 74.199219 151.480469 C 74.617188 151.488281 76.953125 151.570312 78.753906 151.757812 C 81.050781 151.996094 82.308594 152.21875 82.613281 152.273438 C 84.03125 152.527344 85.4375 152.800781 87.84375 153.457031 C 87.949219 153.484375 90.632812 154.230469 93.703125 155.417969 C 93.152344 151.15625 91.523438 135.570312 91.511719 135.398438 C 91.09375 129.78125 95.675781 99.414062 101.082031 79.625 C 103.835938 69.550781 105.679688 66.257812 106.601562 64.390625 C 117.136719 43.074219 123.847656 31.960938 152.933594 21.3125 C 157.453125 19.660156 174.019531 13.78125 195.640625 19.765625 C 213.710938 24.765625 232.332031 37.398438 244.144531 59.320312 C 253.886719 77.394531 258.96875 98.792969 262.074219 117.082031 C 264.9375 133.96875 266.433594 151.007812 267.007812 157.757812 C 267.914062 168.414062 268.476562 177.003906 269.351562 191.027344 C 270.605469 211.003906 272.03125 239.703125 275.933594 261.90625 C 279.347656 281.304688 284.640625 296.335938 293.382812 305.222656 C 306.609375 318.664062 306.136719 319.144531 319.214844 331.121094 C 321.300781 333.03125 325.769531 336.9375 324.546875 340.824219 C 323.578125 343.914062 319.761719 344.773438 317.042969 345.207031 C 314.257812 345.648438 311.015625 345.816406 309.8125 346.261719 C 308.863281 347.28125 304.886719 351.292969 295.953125 351.773438 C 289.5625 352.117188 282.09375 350.535156 274.867188 346.722656 C 273.214844 348.414062 269.082031 351.316406 264.5625 352.898438 C 255.347656 356.121094 250.484375 352.125 249.375 351.386719 C 245.261719 348.644531 243.054688 349.109375 240.820312 350.0625 C 237.355469 351.539062 233.019531 354.851562 225.730469 353.867188 C 224.789062 353.742188 221.402344 353.222656 218.132812 351.410156 C 217.996094 351.496094 217.851562 351.582031 217.707031 351.664062 C 214.511719 353.519531 209.847656 355.496094 204.65625 354.679688 C 203.875 354.554688 203.324219 354.421875 203.023438 354.378906 L 203.023438 354.394531 C 203.027344 354.421875 203.046875 354.445312 202.964844 354.472656 C 202.855469 354.511719 202.496094 354.632812 201.632812 355.007812 C 201.152344 355.214844 201.160156 355.230469 200.675781 355.433594 C 199.351562 355.992188 197.714844 356.765625 195.203125 357.523438 C 193.550781 358.019531 191.34375 358.574219 188.671875 358.605469 C 185.511719 358.636719 181.683594 357.914062 177.839844 355 C 177.777344 355.078125 177.714844 355.15625 177.652344 355.234375 C 177.015625 356.035156 176.292969 356.734375 176.167969 356.855469 C 172.707031 360.210938 169.007812 360.808594 164.703125 359.507812 C 162.019531 358.699219 159.109375 357.234375 154.082031 354.878906 C 153.949219 354.925781 153.765625 354.996094 153.503906 355.109375 C 150.234375 356.558594 144.65625 361.226562 139.53125 360.652344 C 136.84375 360.351562 134.5625 358.535156 131.3125 356.019531 C 129.769531 354.820312 126.601562 352.328125 125.140625 352.542969 C 125.101562 352.546875 125.066406 352.554688 125.03125 352.566406 C 124.695312 352.996094 124.339844 353.417969 123.964844 353.839844 C 123.898438 353.996094 123.101562 354.800781 122.339844 355.515625 C 119.761719 357.921875 116.464844 359.878906 112.320312 360.34375 C 109.691406 360.636719 106.921875 360.292969 104.09375 359.273438 C 99.984375 357.789062 97.035156 355.351562 95.816406 354.296875 C 93.035156 353.566406 85.285156 354.882812 79.59375 353.164062 C 74.289062 351.5625 71.640625 347.515625 72.367188 341.789062 C 72.984375 336.917969 75.886719 331.925781 77.117188 329.566406 C 84.695312 315.019531 87.59375 303.046875 88.742188 297.738281 C 94.316406 271.960938 89.746094 252.097656 89.78125 242.960938 C 78.660156 241.75 75.269531 244.738281 74.175781 245.804688 C 73.277344 246.679688 72.839844 247.574219 71.945312 247.890625 C 71.816406 247.933594 71.078125 248.195312 70.269531 247.761719 C 70.152344 247.699219 69.472656 247.332031 69.253906 246.457031 C 69.15625 246.058594 69.191406 246.046875 68.375 234.695312 Z M 63.894531 188.042969 C 61.429688 190.699219 58.253906 194.773438 57.074219 199.644531 C 56.296875 202.855469 56.546875 205.671875 56.746094 207.199219 C 56.757812 207.28125 57.027344 209.609375 57.988281 212.757812 C 58.832031 215.515625 60.015625 218.390625 60.214844 218.875 C 61.539062 222.09375 61.761719 222.585938 62.316406 223.503906 C 66.984375 231.175781 77.167969 229.859375 83.382812 225.515625 C 88.640625 221.84375 92.011719 215.507812 85.582031 208.996094 C 84.890625 209.578125 84.144531 210.144531 83.273438 210.765625 C 80.273438 212.894531 76.574219 215.011719 73.5625 216.804688 C 72.496094 217.433594 71.828125 217.859375 71.3125 218.195312 C 71.054688 218.363281 71.074219 218.390625 71.050781 218.402344 C 70.878906 218.5 70.71875 218.628906 70.527344 218.691406 C 70.441406 218.722656 69.945312 218.882812 69.394531 218.605469 C 69.308594 218.5625 68.824219 218.320312 68.628906 217.714844 C 68.4375 217.128906 68.675781 216.660156 68.71875 216.578125 C 68.894531 216.222656 68.921875 216.242188 69.222656 215.984375 C 69.484375 215.765625 69.421875 215.695312 72.304688 213.011719 C 74.089844 211.347656 78.351562 207.734375 81 204.5 C 81.292969 204.136719 82.09375 203.253906 82.960938 201.746094 C 83.15625 201.410156 83.496094 200.734375 83.617188 200.285156 C 83.632812 200.230469 83.765625 199.898438 83.773438 199.492188 C 83.773438 199.425781 83.554688 197.765625 83.351562 196.929688 C 83.230469 196.425781 83.132812 196.160156 83.082031 196.03125 C 81.40625 196.464844 77.773438 198.761719 74.410156 200.410156 C 72.46875 201.363281 71.15625 201.878906 70.640625 202.082031 C 70.320312 202.210938 70.320312 202.234375 69.972656 202.253906 C 69.867188 202.261719 69.265625 202.296875 68.734375 201.835938 C 68.648438 201.765625 68.183594 201.363281 68.132812 200.625 C 68.125 200.523438 68.082031 199.917969 68.550781 199.386719 C 68.601562 199.328125 68.691406 199.222656 69.320312 198.832031 C 73.171875 196.414062 76.0625 193.714844 78.664062 191.917969 C 78.792969 191.730469 79.027344 191.378906 79.390625 190.765625 C 81.816406 186.679688 82.5 183.171875 80.621094 181.714844 C 78.257812 179.882812 71.960938 180.839844 66.652344 185.34375 C 65.789062 186.078125 64.25 187.660156 63.894531 188.042969 Z M 96.871094 152.230469 C 97.140625 154.882812 97.300781 156.941406 97.378906 156.980469 C 102.101562 159.15625 109.460938 163.191406 116.640625 170.160156 C 117.78125 171.265625 118.722656 172.25 119.339844 172.914062 C 132.285156 162.011719 145.019531 156.957031 154.746094 154.289062 C 157.6875 153.480469 160.796875 152.878906 161.328125 152.773438 C 163.992188 152.253906 166.460938 151.867188 169.988281 151.511719 C 170.621094 151.445312 173.449219 151.21875 175.152344 151.171875 C 177.597656 151.105469 179.316406 151.109375 182.269531 151.230469 C 183.558594 151.285156 185.71875 151.464844 186.019531 151.488281 C 190.789062 151.882812 193.761719 152.355469 195.957031 152.691406 C 196.015625 152.699219 196.535156 152.777344 196.703125 152.828125 C 196.886719 152.882812 197.957031 153.191406 198.535156 154.363281 C 198.589844 154.46875 198.867188 155.027344 198.84375 155.792969 C 198.8125 156.78125 198.316406 161.226562 198.285156 165.644531 C 198.261719 169.078125 198.417969 172.140625 198.960938 182.816406 C 199.214844 187.804688 199.210938 187.804688 199.238281 188.238281 C 199.253906 188.425781 199.277344 188.613281 199.296875 188.804688 C 199.304688 188.894531 199.359375 189.425781 198.960938 189.914062 C 198.839844 190.0625 198.683594 190.191406 198.515625 190.28125 C 197.957031 190.585938 197.433594 190.425781 197.347656 190.398438 C 196.757812 190.21875 196.507812 189.757812 196.464844 189.679688 C 196.367188 189.503906 196.328125 189.300781 196.289062 189.109375 C 196.25 188.921875 196.253906 188.726562 196.230469 188.539062 C 195.9375 186.375 193.753906 172.660156 193.207031 165.835938 C 193.003906 163.308594 192.953125 161.089844 192.929688 158.476562 C 190.738281 158.355469 187.515625 158.210938 184.328125 158.203125 C 184.0625 158.203125 183.105469 158.203125 181.019531 158.222656 C 179.875 158.238281 177.144531 158.304688 175.699219 158.363281 C 174.035156 158.4375 172.890625 158.464844 169.710938 158.6875 C 167.984375 158.8125 164.777344 159.105469 161.847656 159.523438 C 153.449219 160.722656 147.238281 162.789062 146.597656 162.996094 C 134.636719 166.832031 125.890625 172.523438 120.859375 176.179688 C 120.800781 176.222656 121.03125 187.199219 123.542969 198.195312 C 123.671875 198.761719 123.683594 198.757812 125.027344 204.976562 C 125.292969 206.195312 125.320312 206.363281 125.65625 208.039062 C 125.902344 209.285156 125.953125 209.59375 126.265625 211.320312 C 126.378906 211.953125 126.472656 212.585938 126.679688 213.933594 C 126.691406 214 126.992188 216.269531 127.039062 216.679688 C 127.554688 221.265625 127.660156 222.703125 127.8125 224.804688 C 128.3125 231.726562 128.160156 233.628906 129.195312 242.917969 C 129.292969 243.792969 129.386719 244.609375 129.460938 245.230469 C 130.796875 244.5625 132.453125 243.789062 134.394531 242.984375 C 135.0625 242.707031 137.59375 241.722656 139.9375 241.003906 C 143.027344 240.0625 146.058594 239.316406 149.828125 238.699219 C 153.1875 238.148438 158.316406 237.488281 165.316406 237.617188 C 180.53125 237.898438 192.691406 241.765625 197.496094 242.761719 C 197.492188 241.023438 197.480469 238.628906 197.46875 237.089844 L 197.269531 237.058594 C 197.101562 237.035156 195.46875 236.746094 194.5625 236.519531 C 192.773438 236.078125 191.941406 235.785156 191.082031 235.476562 C 191.023438 235.457031 189.273438 234.871094 186.863281 233.675781 C 186.386719 233.4375 183.386719 231.878906 180.761719 229.820312 C 173.140625 223.84375 169.0625 215.773438 170.039062 206.96875 C 170.058594 206.789062 170.085938 206.640625 170.109375 206.527344 C 169.914062 205.902344 169.761719 205.144531 169.777344 204.3125 C 169.800781 202.535156 170.417969 201.011719 171.542969 199.921875 C 170.652344 198.0625 171 195.910156 172.359375 193.960938 C 173.996094 191.613281 177.335938 189.304688 180.390625 188.960938 C 182.351562 188.742188 184.160156 188.773438 188.109375 189.148438 C 188.394531 189.175781 189.597656 189.324219 190.492188 189.433594 C 190.734375 189.464844 191.289062 189.550781 192.589844 189.734375 C 192.933594 189.78125 193.78125 189.9375 195.261719 190.15625 C 195.515625 190.195312 196.582031 190.378906 197.976562 190.570312 C 198.480469 190.636719 203.074219 191.394531 207.464844 191.148438 C 214.605469 190.753906 219.796875 187.898438 223.84375 182.992188 C 224.066406 182.722656 224.050781 182.703125 224.34375 182.519531 C 224.941406 182.144531 225.535156 182.28125 225.636719 182.304688 C 226.351562 182.46875 226.675781 183 226.734375 183.089844 C 227.105469 183.6875 226.972656 184.277344 226.949219 184.378906 C 226.929688 184.457031 226.878906 184.691406 226.527344 185.238281 C 221.566406 192.972656 214.1875 196.808594 204.332031 197.535156 C 203.652344 197.585938 200.347656 197.777344 196.460938 197.449219 C 194.722656 197.304688 193.851562 197.199219 191.847656 196.917969 C 191.308594 196.84375 189.441406 196.507812 189.363281 196.492188 C 188.792969 196.382812 188.0625 196.234375 187.378906 196.105469 C 186.691406 195.972656 183.109375 195.15625 180.863281 195.070312 C 180.699219 195.0625 180.492188 195.003906 179.789062 195.183594 C 178.230469 195.578125 176.238281 196.796875 175.765625 197.957031 C 175.742188 198.011719 175.738281 198.082031 175.75 198.15625 C 176.339844 198.105469 176.964844 198.109375 177.628906 198.167969 C 178.113281 198.210938 178.425781 198.351562 178.492188 198.378906 C 178.585938 198.421875 179.164062 198.679688 179.476562 199.242188 C 179.476562 199.246094 179.652344 199.804688 179.652344 199.808594 C 179.558594 200.335938 179.597656 200.425781 179.324219 200.761719 C 179.710938 200.921875 180.128906 201.082031 180.585938 201.246094 C 181.582031 201.59375 182.488281 201.84375 182.765625 201.925781 C 182.867188 201.949219 183.144531 201.996094 183.152344 202 C 183.335938 202.074219 183.539062 202.113281 183.703125 202.222656 C 183.78125 202.269531 184.222656 202.558594 184.355469 203.15625 C 184.417969 203.453125 184.417969 203.457031 184.363281 203.757812 C 184.351562 203.847656 184.253906 204.371094 183.738281 204.730469 C 183.578125 204.839844 183.394531 204.921875 183.207031 204.960938 C 182.734375 205.066406 182.734375 204.976562 182.25 204.90625 C 181.511719 204.800781 178.355469 204.523438 175.652344 203.402344 C 175.667969 203.441406 175.695312 203.476562 175.734375 203.496094 C 175.847656 203.5625 175.882812 203.527344 176.101562 203.8125 C 176.234375 203.984375 176.417969 204.050781 176.617188 204.203125 C 176.753906 204.304688 176.757812 204.296875 176.886719 204.40625 C 177.039062 204.535156 177.054688 204.519531 177.199219 204.65625 C 177.347656 204.800781 177.355469 204.792969 177.5 204.9375 C 177.535156 204.96875 177.539062 204.964844 177.917969 205.335938 C 178.347656 205.753906 179.152344 206.367188 179.363281 206.519531 C 180.757812 207.53125 182.285156 208.242188 183.339844 208.734375 C 183.375 208.75 183.882812 208.988281 184.476562 209.234375 C 184.535156 209.257812 184.539062 209.230469 184.597656 209.253906 C 184.785156 209.316406 184.992188 209.34375 185.164062 209.441406 C 185.242188 209.488281 185.699219 209.75 185.863281 210.34375 C 185.945312 210.636719 185.945312 210.640625 185.90625 210.941406 C 185.894531 211.03125 185.832031 211.558594 185.332031 211.945312 C 185.179688 212.066406 185.003906 212.15625 184.816406 212.207031 C 184.625 212.261719 184.417969 212.242188 184.222656 212.253906 C 184.183594 212.253906 184.144531 212.238281 184.109375 212.238281 C 183.953125 212.234375 182.992188 212.40625 181.300781 212.398438 C 178.484375 212.386719 176.757812 211.988281 176.003906 211.8125 C 175.714844 211.742188 175.136719 211.539062 175.058594 211.515625 C 174.621094 211.359375 174.308594 211.234375 173.996094 211.082031 C 175.964844 219.761719 183.429688 224.039062 184.910156 224.933594 C 186.449219 225.859375 188.09375 226.6875 190.570312 227.664062 C 191.171875 227.902344 192.910156 228.550781 194.519531 229.03125 C 194.925781 229.148438 195.417969 229.324219 196.507812 229.625 C 196.679688 229.675781 197.425781 229.90625 198.542969 230.1875 C 199.082031 230.320312 200.671875 230.777344 203.15625 231.183594 C 204.875 231.464844 211.394531 232.667969 219.660156 231.125 C 220.371094 230.992188 222.425781 230.628906 225.089844 229.789062 C 225.316406 229.714844 225.480469 229.628906 225.503906 229.625 C 225.699219 229.585938 225.890625 229.507812 226.089844 229.507812 C 226.183594 229.507812 226.707031 229.507812 227.144531 229.9375 C 227.363281 230.152344 227.363281 230.152344 227.484375 230.433594 C 227.519531 230.515625 227.726562 231.007812 227.488281 231.589844 C 227.417969 231.769531 227.304688 231.9375 227.171875 232.078125 C 226.902344 232.347656 226.882812 232.328125 226.527344 232.476562 C 226.082031 232.660156 225.792969 232.847656 224.511719 233.421875 C 221.914062 234.59375 217.734375 236.203125 211.753906 237.078125 C 206.367188 237.863281 202.105469 237.558594 201.269531 237.5 C 201.046875 237.484375 200.832031 237.46875 200.625 237.449219 C 200.804688 239.851562 200.871094 240.464844 201.105469 243.871094 C 201.164062 244.714844 201.199219 245 201.042969 245.421875 C 201 245.535156 200.761719 246.1875 200.003906 246.488281 C 198.289062 247.175781 194.003906 245.894531 186.140625 244.714844 C 174.8125 243.011719 164.710938 242.90625 154.488281 244.648438 C 153.417969 244.832031 149.765625 245.445312 144.710938 246.96875 C 144.535156 247.019531 141.257812 248 137.863281 249.363281 C 137.089844 249.675781 134.183594 250.800781 130.355469 252.777344 C 129.300781 253.324219 129.308594 253.335938 129.21875 253.382812 C 129.035156 253.46875 128.851562 253.5625 128.65625 253.632812 C 128.519531 253.675781 127.769531 253.941406 126.84375 253.761719 C 126.386719 253.675781 126.390625 253.652344 125.960938 253.484375 C 119.605469 250.992188 114.882812 249.234375 108.695312 247.28125 C 102.589844 245.355469 97.554688 244.152344 93.398438 243.460938 C 93.671875 248.386719 95.417969 257.144531 96.027344 268.292969 C 96.679688 280.238281 96.390625 299.75 87.457031 322.628906 C 84.980469 328.976562 82.132812 334.492188 81.960938 334.847656 C 79.03125 340.855469 78.859375 344.132812 79.730469 345.246094 C 80.96875 346.828125 85.8125 346.867188 86.667969 346.878906 C 90.898438 346.957031 94.976562 346.578125 97.832031 347.457031 C 99.628906 348.007812 100.308594 348.8125 100.976562 349.390625 C 102.078125 350.339844 105.050781 352.691406 108.574219 353.484375 C 111.359375 354.109375 116.433594 354.3125 121.820312 346.625 C 122.71875 345.34375 125.605469 340.960938 127.914062 334.257812 C 133.328125 318.527344 131.847656 301.414062 131.398438 285.085938 C 131.296875 281.273438 131.332031 280.847656 131.285156 278.972656 C 131.28125 278.796875 131.273438 278.472656 131.273438 278.472656 C 131.304688 278.273438 131.304688 278.070312 131.378906 277.882812 C 131.410156 277.796875 131.601562 277.308594 132.164062 277.058594 C 132.746094 276.800781 133.25 276.996094 133.335938 277.03125 C 133.914062 277.253906 134.125 277.734375 134.164062 277.816406 C 134.242188 278 134.261719 278.203125 134.292969 278.398438 C 134.324219 278.578125 134.265625 278.582031 134.382812 280.636719 C 135.078125 292.621094 136.914062 305.875 136 319.21875 C 135.574219 325.386719 134.289062 336.570312 128.277344 347.574219 C 128.042969 348.007812 127.777344 348.472656 127.492188 348.957031 L 127.5625 348.976562 C 131.617188 350.144531 136.441406 354.632812 139.304688 355.496094 C 141.988281 356.304688 146.839844 352.042969 150.195312 350.066406 C 152.433594 348.746094 154.273438 348.253906 156.152344 348.980469 C 158.761719 349.988281 158.757812 350.003906 161.351562 351.042969 C 165.050781 352.519531 167.796875 353.492188 169.351562 352.957031 C 170.183594 352.671875 171.144531 351.914062 172.617188 349.96875 C 172.773438 349.761719 173.378906 348.960938 174.460938 347.261719 C 174.808594 346.714844 175.414062 345.859375 176.066406 343.902344 C 176.097656 343.804688 177.050781 341.230469 177.757812 335.386719 C 178.917969 325.761719 178.570312 313.785156 178.308594 307.019531 C 178.1875 303.851562 177.996094 300.289062 177.972656 300.050781 C 177.96875 300.011719 177.929688 299.605469 177.929688 299.597656 C 177.953125 299.402344 177.9375 299.195312 177.996094 299.003906 C 178.027344 298.917969 178.1875 298.417969 178.730469 298.132812 C 179.296875 297.835938 179.8125 298.003906 179.902344 298.03125 C 180.488281 298.21875 180.730469 298.683594 180.773438 298.765625 C 180.957031 299.117188 180.921875 299.128906 180.960938 299.523438 C 181.023438 300.191406 181.0625 300.304688 181.46875 303.113281 C 181.90625 306.136719 182.84375 312.6875 183.472656 320.917969 C 184.523438 334.660156 183.554688 340.835938 183.386719 342.007812 C 182.601562 347.523438 181.285156 349.640625 180.625 350.792969 C 180.542969 350.933594 180.421875 351.152344 180.257812 351.425781 C 184.976562 353.824219 188.730469 352.792969 191.363281 351.816406 C 192.355469 351.449219 193.042969 351.140625 195.027344 350.164062 C 195.441406 349.960938 196.359375 349.484375 197.929688 348.761719 C 198.058594 348.703125 199.179688 348.238281 199.765625 348.054688 C 202.230469 347.277344 203.601562 347.4375 204.859375 347.875 C 205.800781 348.203125 207.046875 348.753906 208.835938 348.90625 C 210.574219 349.054688 212.382812 348.8125 214.179688 348.339844 C 212.59375 346.652344 211.722656 345 211.242188 344 C 210.027344 341.480469 209.34375 338.707031 208.90625 335.929688 C 208.226562 331.570312 208.015625 326.667969 207.890625 323.835938 C 207.535156 315.890625 207.292969 306.648438 205.785156 294.441406 C 205.417969 291.480469 205.0625 289.164062 204.890625 288.035156 C 204.792969 287.410156 204.722656 287.195312 204.722656 287.152344 C 204.722656 286.953125 204.683594 286.75 204.722656 286.554688 C 204.738281 286.46875 204.839844 285.949219 205.347656 285.605469 C 205.425781 285.550781 205.875 285.246094 206.496094 285.367188 C 207.105469 285.484375 207.398438 285.917969 207.449219 285.992188 C 207.5625 286.160156 207.625 286.355469 207.6875 286.542969 C 207.710938 286.628906 207.703125 286.726562 207.878906 287.429688 C 209.542969 294.144531 210.824219 300.574219 212.027344 308.8125 C 213.183594 316.722656 213.835938 323.480469 214.765625 329.734375 C 214.886719 330.523438 215.441406 334.417969 216.445312 337.675781 C 217.417969 340.824219 218.523438 342.265625 218.738281 342.5625 C 219.402344 343.496094 220.332031 344.457031 221.75 345.289062 C 221.9375 345.398438 223 345.933594 223.371094 346.085938 C 223.535156 346.152344 223.703125 346.21875 223.878906 346.285156 C 230.167969 348.601562 233.023438 346.671875 237.550781 344.859375 C 241.492188 343.28125 246.285156 342.183594 252.890625 347.472656 C 253.84375 348.238281 257.261719 350.972656 264.988281 348.222656 C 267.539062 347.316406 270.011719 345.96875 271.59375 344.832031 C 259.023438 336.890625 247.820312 321.847656 245.210938 297.984375 C 245.042969 296.46875 244.96875 295.777344 244.847656 294.234375 C 244.84375 294.140625 244.800781 293.609375 245.210938 293.132812 C 245.335938 292.988281 245.492188 292.859375 245.664062 292.773438 C 246.230469 292.480469 246.746094 292.652344 246.835938 292.683594 C 247.421875 292.875 247.660156 293.34375 247.699219 293.421875 C 247.792969 293.601562 247.824219 293.804688 247.863281 293.996094 C 247.925781 294.285156 248.308594 303.421875 251.9375 313.621094 C 263.558594 346.277344 294.53125 352.363281 305.136719 344.46875 C 306.339844 343.570312 306.554688 343.082031 307.132812 342.648438 C 308.980469 341.265625 312.90625 341.308594 316.75 340.578125 C 317.113281 340.507812 319.21875 340.117188 319.996094 339.476562 C 320.011719 339.460938 320.023438 339.449219 320.035156 339.4375 C 319.988281 339.195312 319.671875 338.011719 316.773438 335.417969 C 313.105469 332.128906 308.339844 327.992188 302.433594 322.011719 C 298.644531 318.171875 296.703125 316.050781 289.578125 309.011719 C 276.609375 296.210938 270.316406 272.488281 266.542969 240.261719 C 264.121094 219.574219 262.566406 192.730469 260.964844 172.09375 C 260.597656 167.382812 259.339844 150.625 257.457031 135.230469 C 255.105469 115.972656 251.917969 99.207031 247.382812 84.734375 C 241.824219 67 235.742188 57.765625 233.726562 54.792969 C 215.332031 27.667969 182.847656 16.605469 155.113281 26.328125 C 126.636719 36.308594 120.980469 46.425781 110.011719 68.007812 C 103.054688 81.691406 95.175781 126.933594 95.246094 134.796875 C 95.246094 134.835938 95.25 135.070312 95.265625 135.242188 C 96.253906 146.136719 96.734375 150.875 96.871094 152.230469 Z M 128.359375 74.96875 C 129.078125 74.921875 132.9375 75.914062 135.164062 84.589844 C 137.183594 92.457031 138.296875 104.152344 137.824219 115.03125 C 137.796875 115.683594 137.523438 123.789062 135.710938 130.234375 C 134.941406 132.980469 134.046875 134.53125 133.847656 134.878906 C 133.5625 135.378906 131.839844 138.523438 128.507812 138.621094 C 127.316406 138.660156 124.761719 138.3125 122.742188 134.726562 C 121.390625 132.324219 120.683594 129.398438 120.351562 127.902344 C 120.09375 126.738281 119.386719 123.394531 118.988281 117.460938 C 118.832031 115.082031 118.804688 112.25 118.800781 111.796875 C 118.679688 97.675781 120.964844 82.796875 124.738281 77.328125 C 125.140625 76.746094 125.683594 76.09375 126.363281 75.632812 C 127.390625 74.929688 128.308594 74.96875 128.359375 74.96875 Z M 177.382812 71.398438 C 179.625 71.300781 182.125 72.4375 184.667969 81.773438 C 186.898438 89.964844 188.023438 102.132812 187.527344 113.570312 C 187.484375 114.480469 187.175781 123.402344 185.089844 130.410156 C 184.269531 133.15625 183.335938 134.742188 183.132812 135.09375 C 182.785156 135.683594 180.957031 138.90625 177.515625 139.007812 C 176.359375 139.039062 173.726562 138.742188 171.566406 135.121094 C 170.070312 132.609375 169.273438 129.480469 168.878906 127.804688 C 168.679688 126.957031 167.816406 123.269531 167.34375 116.714844 C 167.152344 114.050781 167.117188 111 167.113281 110.5 C 166.925781 94.113281 169.914062 76.347656 175 72.488281 C 176.15625 71.605469 176.511719 71.433594 177.382812 71.398438 Z M 88.179688 206.453125 C 98.367188 215.617188 92.375 227.664062 81.375 232.714844 C 78.375 234.089844 75.152344 234.878906 71.972656 234.941406 C 72.34375 237.929688 72.460938 239.222656 72.695312 241.320312 C 75.582031 239.101562 80.925781 236.941406 91.582031 237.777344 C 102.53125 238.640625 114.503906 242.304688 118.355469 243.496094 C 121.773438 244.558594 124.570312 245.507812 126.398438 246.148438 C 124.421875 238.945312 123.851562 235.992188 122.785156 230.371094 C 122.097656 226.753906 122.027344 226.480469 120.925781 221.296875 C 120.359375 218.605469 120.328125 218.613281 119.980469 216.910156 C 119.710938 215.574219 119.703125 215.578125 119.457031 214.238281 C 119.300781 213.378906 119.292969 213.382812 119.160156 212.519531 C 118.851562 210.550781 118.84375 210.554688 118.65625 209.230469 C 118.4375 207.683594 118.429688 207.683594 118.234375 206.136719 C 117.636719 201.390625 117.625 201.394531 117.375 199.257812 C 115.679688 184.84375 116.101562 175.050781 116.460938 174.625 C 109.867188 169.1875 104.039062 166.382812 102.546875 165.667969 C 98.9375 163.933594 95.453125 162.625 91.136719 161.425781 C 90.105469 161.140625 88.640625 160.742188 85.476562 160.105469 C 85.257812 160.0625 84.558594 159.921875 82.734375 159.597656 C 82.527344 159.5625 82.140625 159.496094 80.15625 159.179688 C 79.875 159.136719 78.691406 158.949219 76.621094 158.707031 C 75.539062 158.578125 73.046875 158.328125 70.6875 158.234375 C 69.960938 158.207031 69.351562 158.195312 68.832031 158.1875 C 68.816406 161.445312 68.714844 167.75 67.5 178.515625 C 74.9375 174.96875 82.53125 175.75 84.835938 180.648438 C 86.285156 183.726562 85.078125 187.238281 83.652344 189.859375 C 84.933594 189.8125 87.039062 190.164062 88.683594 192.640625 C 90.039062 194.679688 90.605469 197.480469 90.71875 198.015625 C 90.753906 198.171875 91.253906 199.964844 90.527344 202.371094 C 90.453125 202.621094 90.082031 203.671875 89.519531 204.601562 C 89.070312 205.339844 88.617188 205.945312 88.179688 206.453125 Z M 88.179688 206.453125 " fill-opacity="1" fill-rule="evenodd"/></g></svg>