<svg xmlns="http://www.w3.org/2000/svg" xmlns:xlink="http://www.w3.org/1999/xlink" width="500" zoomAndPan="magnify" viewBox="0 0 375 374.999991" height="500" preserveAspectRatio="xMidYMid meet" version="1.0"><path fill="#545454" d="M 322.796875 264.808594 C 319.394531 256.304688 311.707031 250.519531 307.554688 242.558594 C 301.839844 226.84375 289.523438 210.851562 271.496094 220.378906 C 268.773438 220.175781 266.867188 217.65625 268.296875 215.140625 C 275.03125 203.710938 277.753906 207.859375 286.804688 202.28125 C 294.898438 197.246094 303.949219 183.570312 293.945312 176.222656 C 282.175781 160.914062 295.582031 142.542969 298.300781 126.417969 C 321.84375 -25.515625 39.140625 -14.492188 82.890625 137.4375 C 89.21875 153.089844 93.164062 168.601562 79.894531 181.597656 C 78.738281 191.734375 87.109375 201.125 96.089844 204.59375 C 98.945312 205.75 102.214844 206.160156 104.527344 208.269531 C 117.65625 220.515625 115.277344 239.769531 113.167969 255.894531 C 112.757812 262.496094 96.019531 256.304688 86.632812 256.847656 C 82.957031 256.574219 81.9375 255.757812 85.476562 253.378906 C 88.808594 249.976562 78.195312 256.167969 76.835938 255.554688 C 68.601562 255.828125 54.515625 253.785156 50.910156 253.785156 C 48.324219 253.308594 53.15625 259.160156 53.226562 260.113281 C 55.128906 266.507812 74.453125 262.765625 84.929688 265.964844 C 88.195312 266.78125 91.257812 269.503906 94.457031 269.773438 C 96.703125 269.230469 90.304688 266.375 93.503906 266.304688 C 97.179688 266.375 101.261719 266.917969 104.59375 267.121094 C 110.855469 267.054688 104.457031 272.089844 102.6875 274.128906 C 94.046875 285.695312 90.851562 301.820312 78.128906 310.121094 C 74.65625 320.054688 118.882812 325.023438 127.726562 310.597656 C 129.835938 308.828125 131.46875 309.78125 132.964844 311.6875 C 149.566406 332.847656 165.351562 338.628906 191.820312 334.820312 C 203.25 337.472656 215.632812 335.910156 225.703125 329.785156 C 227.40625 328.695312 229.515625 327.878906 231.351562 328.902344 C 238.765625 334.820312 252.511719 338.699219 262.921875 339.242188 C 272.855469 343.324219 284.011719 347.136719 294.152344 341.761719 C 305.785156 336.386719 313.339844 323.796875 311.230469 311.277344 C 310.546875 296.71875 335.859375 294.132812 322.796875 264.808594 Z M 312.726562 254.398438 C 325.449219 270.863281 314.496094 294.746094 294.21875 297.125 C 288.4375 298.625 268.839844 293.792969 285.644531 291.957031 C 291.769531 294.335938 284.964844 289.300781 292.109375 292.433594 C 293.539062 292.839844 292.3125 291.34375 292.789062 291.003906 C 294.21875 290.800781 295.582031 292.226562 297.007812 292.296875 C 297.28125 292.160156 296.738281 291.617188 296.53125 291.410156 C 294.289062 289.097656 298.234375 289.507812 300.003906 287.125 C 302.042969 283.316406 301.296875 276.375 307.554688 277.125 C 309.730469 277.464844 312.386719 276.78125 308.710938 275.558594 C 303.539062 275.21875 307.554688 272.359375 309.9375 271 C 313 268.957031 308.78125 269.84375 307.554688 270.320312 C 304.085938 270.660156 313.066406 260.726562 310.480469 261.882812 C 305.785156 266.03125 307.691406 263.039062 307.828125 259.160156 C 307.964844 258.074219 307.691406 255.691406 306.671875 257.324219 C 305.855469 258.003906 305.515625 264.738281 304.699219 261.203125 C 303.675781 256.984375 301.363281 253.308594 300.613281 249.023438 C 300.480469 247.730469 298.914062 245.894531 299.457031 244.804688 C 304.628906 246.097656 309.324219 250.179688 312.726562 254.398438 Z M 274.894531 284.132812 C 275.101562 285.425781 277.6875 286.988281 274.554688 285.765625 C 272.71875 285.765625 264.894531 278.757812 264.960938 281.75 C 264.960938 284.199219 276.871094 288.621094 274.625 288.351562 C 273.535156 288.417969 265.777344 286.242188 267.003906 288.417969 C 267.957031 289.097656 269.519531 289.4375 270.472656 289.847656 C 272.785156 290.867188 268.160156 290.664062 268.5 291.617188 C 269.316406 292.636719 272.71875 291.75 273.46875 292.636719 C 270.746094 294.199219 261.425781 298.285156 259.519531 294.472656 C 257.070312 291.003906 254.757812 287.328125 253.394531 283.246094 C 252.375 281.136719 250.335938 278.007812 254.007812 277.328125 C 258.769531 276.441406 261.21875 270.863281 266.390625 272.292969 C 274.078125 274.742188 279.453125 281.546875 284.695312 287.125 C 286.191406 288.691406 278.980469 285.902344 278.503906 285.355469 C 277.957031 285.082031 274.894531 282.90625 274.894531 284.132812 Z M 270.949219 309.851562 C 263.398438 306.449219 255.027344 305.425781 247.410156 302.230469 C 232.78125 296.105469 231.417969 278.890625 235.160156 265.421875 C 235.707031 262.085938 236.113281 258.683594 236.046875 255.28125 C 235.230469 248.75 237.066406 251.675781 239.582031 255.214844 C 242.714844 260.113281 245.09375 265.691406 246.796875 271.273438 C 246.726562 272.222656 245.027344 270.117188 244.414062 269.980469 C 242.984375 269.230469 242.375 270.046875 243.121094 271.40625 C 244.074219 273.109375 245.777344 274.402344 246.59375 276.171875 C 246.660156 277.53125 242.375 275.898438 245.777344 278.484375 C 246.933594 278.6875 254.007812 285.21875 250.808594 285.015625 C 249.925781 284.742188 248.566406 284.132812 247.476562 284.0625 C 241.761719 284.335938 251.421875 286.71875 252.375 287.601562 C 254.550781 289.097656 249.519531 287.058594 250.46875 288.417969 C 251.21875 289.097656 257.546875 291.140625 254.894531 292.363281 C 253.941406 292.433594 252.308594 292.09375 251.21875 292.433594 C 248.089844 293.726562 252.101562 294.542969 253.464844 294.335938 C 257.476562 294.542969 258.703125 295.902344 261.085938 298.964844 C 263.804688 302.707031 268.5 306.378906 270.949219 309.851562 Z M 235.910156 296.71875 C 218.015625 283.925781 202.910156 255.417969 219.648438 235.890625 C 229.242188 227.796875 224.003906 219.628906 229.105469 219.96875 C 239.039062 218.8125 253.53125 224.800781 251.082031 236.707031 C 250.128906 238.613281 247.136719 243.648438 247.273438 238.546875 C 247.410156 236.640625 245.300781 228.679688 245.164062 234.667969 C 245.164062 235.007812 245.570312 244.738281 244.617188 240.789062 C 244.210938 238.679688 243.800781 236.503906 243.054688 234.460938 C 240.332031 228.613281 243.394531 244.261719 243.121094 245.621094 C 243.121094 246.371094 242.917969 245.960938 242.78125 245.484375 C 241.285156 241.199219 240.402344 236.300781 237.476562 232.695312 C 234.957031 231.128906 241.082031 243.648438 240.605469 245.347656 C 240.671875 245.824219 241.964844 251.746094 240.46875 249.566406 C 239.652344 248.003906 235.433594 240.925781 236.792969 247.050781 C 236.113281 249.429688 232.78125 241.539062 231.078125 242.96875 C 229.921875 244.125 231.691406 246.574219 232.101562 247.867188 C 232.710938 249.5 234.683594 255.757812 231.351562 252.289062 C 229.308594 249.566406 222.777344 248.136719 228.425781 252.492188 C 229.648438 253.648438 231.691406 255.28125 231.828125 257.050781 C 229.378906 256.710938 226.453125 255.078125 223.730469 256.097656 C 220.125 257.390625 227.882812 257.390625 228.699219 258.277344 C 229.582031 258.753906 233.1875 260.453125 232.304688 261.339844 C 230.464844 261.339844 228.5625 260.65625 226.65625 261 C 224.003906 261.40625 224.140625 262.019531 226.65625 262.359375 C 240.742188 263.378906 223.253906 275.625 235.910156 296.71875 Z M 209.101562 281.75 C 208.761719 286.105469 204.816406 292.160156 199.917969 291.070312 C 198.898438 288.214844 201.210938 284.199219 199.78125 281.207031 C 201.210938 280.253906 203.660156 280.253906 205.359375 279.84375 C 207.46875 279.4375 209.375 279.027344 209.101562 281.75 Z M 210.941406 287.535156 C 210.871094 284.609375 210.328125 278.757812 214 277.941406 C 215.566406 278.417969 214.410156 280.867188 214.410156 282.226562 C 214.136719 283.859375 214.207031 285.898438 213.117188 287.261719 C 212.574219 287.941406 211.28125 288.824219 210.941406 287.535156 Z M 248.769531 256.097656 C 250.335938 256.644531 252.101562 255.078125 253.464844 254.261719 C 255.097656 253.171875 254.894531 253.445312 253.464844 254.601562 C 251.898438 256.03125 249.042969 258.140625 249.789062 260.453125 C 251.558594 260.863281 253.261719 257.121094 254.824219 256.4375 C 256.730469 255.148438 251.832031 261.679688 253.261719 262.972656 C 253.871094 263.449219 254.894531 261 255.234375 260.523438 C 255.980469 258.683594 261.425781 252.355469 258.703125 258.074219 C 258.363281 258.957031 258.023438 260.65625 258.976562 261.132812 C 261.289062 260.792969 261.695312 255.828125 263.601562 254.261719 C 265.4375 251.40625 266.390625 255.691406 268.5 252.5625 C 269.113281 250.113281 281.90625 244.667969 279.320312 249.839844 C 269.863281 256.097656 266.800781 269.433594 255.574219 273.175781 C 248.089844 276.375 248.835938 268.6875 246.25 263.992188 C 245.433594 262.222656 244.890625 260.25 245.570312 258.414062 C 246.183594 257.1875 247.203125 254.804688 248.769531 256.097656 Z M 300.003906 276.648438 C 300.480469 285.289062 294.152344 288.824219 286.597656 285.152344 C 285.78125 284.8125 285.851562 284.675781 286.9375 284.878906 C 288.707031 285.152344 293.8125 286.105469 293.199219 283.109375 C 293.128906 282.429688 293.742188 282.023438 294.082031 281.546875 C 294.558594 280.050781 290.886719 282.023438 290.070312 282.023438 C 288.84375 282.226562 286.53125 282.632812 285.917969 281.886719 C 287.347656 281.136719 290.070312 280.933594 290 278.824219 C 290.75 277.601562 292.996094 277.53125 293.8125 276.035156 C 294.96875 274.675781 294.765625 272.699219 294.765625 271.066406 C 296.125 268.6875 300.34375 274.808594 300.003906 276.648438 Z M 281.359375 274.878906 C 282.3125 271.273438 282.039062 267.324219 282.722656 263.652344 C 285.101562 259.023438 287.484375 267.460938 286.667969 269.570312 C 285.851562 273.859375 285.988281 268.890625 285.714844 267.460938 C 284.421875 263.105469 282.175781 266.578125 282.585938 269.367188 C 282.3125 271.136719 283.605469 273.109375 283.402344 274.605469 C 283.128906 275.492188 281.632812 275.832031 281.359375 274.878906 Z M 278.367188 278.210938 C 267.34375 267.871094 261.5625 273.246094 268.570312 264.332031 C 270.472656 261.609375 270.609375 261.472656 270.609375 264.605469 C 272.039062 265.421875 273.398438 258.074219 274.421875 257.050781 C 275.507812 255.554688 274.214844 259.976562 274.214844 260.316406 C 273.332031 266.578125 275.371094 264.128906 276.121094 259.910156 C 276.460938 258.683594 276.734375 257.800781 276.527344 259.433594 C 275.238281 265.625 277.003906 272.496094 278.367188 278.210938 Z M 282.722656 277.871094 C 288.503906 274.539062 290.886719 266.578125 286.394531 261.132812 C 285.78125 260.179688 283.742188 259.707031 283.605469 258.683594 C 284.488281 258.140625 286.667969 258.957031 287.550781 259.023438 C 288.570312 259.296875 289.386719 258.414062 290.203125 259.363281 C 292.109375 261.066406 293.472656 263.71875 293.199219 266.304688 C 292.996094 267.257812 291.769531 267.191406 291.769531 268.210938 C 293.878906 273.992188 293.402344 276.238281 286.804688 277.257812 C 285.851562 277.464844 282.925781 279.367188 282.722656 277.871094 Z M 295.851562 268.347656 C 294.832031 259.839844 290 253.648438 280.746094 255.078125 C 280.136719 255.011719 279.863281 254.535156 280.066406 254.058594 C 284.488281 248.820312 292.042969 253.921875 295.035156 258.277344 C 295.648438 258.480469 294.96875 256.644531 294.765625 256.167969 C 293.742188 253.582031 290.953125 251.746094 288.914062 250.246094 C 291.972656 249.773438 295.582031 253.308594 297.144531 256.03125 C 297.894531 256.574219 299.253906 263.789062 300.003906 261.066406 C 300.75 256.507812 296.601562 251.746094 294.082031 249.429688 C 297.484375 251.199219 299.730469 254.601562 300.683594 258.277344 C 303.132812 262.425781 303.066406 267.394531 302.042969 272.089844 C 301.296875 276.375 300.34375 273.449219 298.710938 271.476562 C 297.757812 270.386719 296.53125 269.640625 295.851562 268.347656 Z M 298.640625 249.566406 C 295.035156 247.664062 290.886719 245.621094 286.667969 246.914062 C 285.441406 247.457031 280.882812 248.820312 283.539062 246.300781 C 283.945312 245.6875 289.59375 243.921875 287.484375 243.308594 C 284.148438 243.035156 279.726562 247.527344 276.871094 244.804688 C 283.46875 237.933594 297.28125 239.15625 298.640625 249.566406 Z M 274.488281 222.417969 C 286.257812 212.828125 299.117188 227.386719 303.675781 238 C 304.96875 240.519531 308.167969 246.03125 302.589844 243.851562 C 301.363281 243.445312 300.070312 243.238281 298.914062 242.832031 C 296.53125 242.082031 294.96875 239.90625 292.585938 239.089844 C 291.15625 238.75 289.660156 237.863281 288.980469 236.84375 C 287.414062 236.300781 279.929688 241.335938 283.605469 236.84375 C 284.898438 235.144531 286.328125 233.238281 286.871094 231.128906 C 286.9375 229.902344 284.761719 233.78125 284.488281 234.054688 C 283.878906 235.144531 278.296875 241.402344 277.753906 239.769531 C 278.84375 237.660156 280.339844 235.074219 281.019531 232.695312 C 281.835938 230.449219 281.292969 229.085938 280 232.011719 C 277.414062 237.933594 273.128906 243.238281 267.617188 246.640625 C 261.765625 250.65625 272.175781 240.722656 272.3125 237.253906 C 274.691406 230.039062 266.324219 246.234375 261.425781 247.59375 C 260.0625 248.003906 264.28125 241.742188 261.085938 244.191406 C 257.273438 248.886719 253.054688 251.609375 247.136719 252.699219 C 244.484375 251.539062 249.246094 242.289062 250.945312 240.722656 C 258.023438 233.441406 269.453125 231.945312 274.488281 222.417969 Z M 271.628906 223.234375 C 270.542969 228.203125 263.875 230.246094 259.859375 232.625 C 256.796875 234.257812 258.566406 232.558594 259.722656 230.992188 C 260.402344 229.972656 261.628906 228.066406 261.355469 226.976562 C 259.65625 227.046875 257.75 231.742188 258.566406 226.636719 C 258.566406 221.601562 256.933594 225.957031 256.183594 227.863281 C 255.574219 227.726562 256.183594 225.277344 255.980469 224.394531 C 255.710938 221.738281 255.710938 217.65625 252.917969 216.433594 C 250.335938 216.226562 255.300781 226.433594 253.328125 227.589844 C 251.96875 225.414062 251.355469 222.078125 249.3125 220.378906 C 247.75 219.699219 249.246094 222.828125 249.382812 223.441406 C 250.46875 226.503906 247.339844 222.625 246.386719 222.214844 C 241.421875 217.726562 230.261719 218.882812 235.5 215.886719 C 249.519531 206.769531 260.269531 214.664062 271.628906 223.234375 Z M 110.71875 199.152344 C 103.640625 197.246094 99.355469 190.714844 94.183594 186.019531 C 87.585938 183.839844 102.621094 198.808594 104.1875 199.421875 C 99.832031 197.3125 96.089844 193.367188 93.164062 189.488281 C 92.007812 187.449219 86.902344 182.414062 89.351562 188.128906 C 90.988281 191.054688 93.164062 193.707031 95.546875 196.15625 C 96.632812 197.246094 100.375 200.648438 96.292969 198.808594 C 76.492188 186.222656 88.402344 184.316406 93.027344 172.957031 C 99.21875 154.789062 85.542969 133.289062 100.375 117.164062 C 101.054688 115.328125 114.730469 105.257812 106.566406 108.25 C 103.097656 110.085938 100.105469 112.808594 97.519531 115.800781 C 90.171875 124.308594 101.125 104.574219 102.144531 102.332031 C 100.511719 98.589844 92.484375 114.101562 91.53125 116.144531 C 88.535156 113.148438 108.472656 85.523438 99.289062 93.824219 C 96.363281 96.820312 94.183594 100.5625 92.074219 104.234375 C 91.804688 104.644531 91.054688 106.003906 91.191406 104.78125 C 89.828125 101.445312 105.953125 76.203125 97.179688 85.730469 C 95.476562 87.703125 93.84375 90.695312 92.550781 92.738281 C 91.734375 94.097656 91.734375 93.417969 92.210938 91.988281 C 96.019531 78.789062 103.847656 67.15625 110.445312 55.316406 C 111.058594 53.273438 109.5625 54.566406 108.609375 55.519531 C 97.042969 68.582031 89.421875 85.046875 85.136719 101.921875 C 80.984375 73.003906 119.15625 24.085938 162.15625 27.554688 C 172.089844 26.398438 168.074219 24.019531 160.792969 24.699219 C 217.132812 14.21875 291.769531 36.332031 294.152344 103.417969 C 294.21875 106.074219 293.605469 103.554688 293.265625 102.261719 C 290.070312 88.925781 284.355469 76.136719 276.871094 64.707031 C 255.4375 36.808594 283.539062 80.148438 285.375 89.8125 C 288.980469 100.492188 281.15625 82.804688 278.164062 83.484375 C 277.957031 84.777344 279.25 86.339844 279.863281 87.566406 C 282.585938 92.261719 287.550781 101.039062 286.597656 105.050781 C 284.148438 101.105469 281.90625 96.683594 278.433594 93.484375 C 270.472656 86.75 288.570312 111.515625 286.871094 116.347656 C 284.488281 112.671875 282.585938 107.636719 279.523438 104.234375 C 278.296875 102.46875 274.691406 99.542969 276.527344 103.625 C 277.617188 105.121094 286.464844 121.652344 281.835938 117.164062 C 279.320312 114.167969 276.460938 111.242188 273.128906 109.132812 C 270.542969 107.367188 266.59375 106.550781 270.8125 110.425781 C 297.347656 127.097656 274.421875 157.714844 288.707031 179.417969 C 297.007812 185.882812 290.816406 193.640625 283.808594 197.859375 C 275.78125 202.144531 282.652344 196.429688 284.695312 193.910156 C 288.164062 190.984375 292.859375 179.757812 285.171875 189.285156 C 282.789062 192.753906 277.003906 198.742188 274.285156 199.21875 C 278.09375 196.226562 281.835938 192.824219 284.558594 188.808594 C 288.097656 182.34375 281.835938 187.582031 280.269531 189.898438 C 276.800781 193.707031 272.855469 197.515625 267.886719 199.152344 C 267.140625 199.421875 265.371094 199.695312 266.253906 198.605469 C 268.570312 196.359375 272.445312 194.386719 274.625 191.800781 C 279.183594 186.359375 274.421875 188.128906 271.5625 191.054688 C 268.636719 193.367188 265.371094 196.15625 261.628906 196.835938 C 260.878906 196.429688 264.214844 193.503906 262.378906 193.367188 C 261.628906 193.09375 257.070312 195.953125 258.5 194.117188 C 261.425781 190.167969 257.136719 192.277344 254.960938 192.414062 C 253.667969 192.277344 254.078125 190.03125 252.441406 190.375 C 250.199219 190.578125 248.019531 190.238281 245.84375 189.964844 C 243.257812 190.167969 241.761719 190.851562 239.109375 190.167969 C 232.917969 191.9375 235.023438 200.785156 238.699219 204.253906 C 239.652344 205.75 246.183594 208.878906 242.984375 210.308594 C 232.78125 210.648438 233.460938 187.3125 230.808594 198.402344 C 230.535156 201.601562 231.417969 204.867188 230.875 208.132812 C 230.195312 215.957031 230.875 216.296875 233.1875 208.949219 C 237.746094 206.5 237.609375 215.957031 230.601562 217.792969 C 227.066406 218.675781 222.710938 217.792969 223.527344 223.03125 C 223.867188 230.039062 221.347656 227.320312 219.714844 230.109375 C 218.832031 232.011719 217.8125 236.640625 214.953125 236.09375 C 214.207031 235.621094 213.59375 233.78125 213.183594 233.511719 C 212.230469 233.511719 212.84375 237.046875 212.777344 238.203125 C 212.980469 240.789062 211.960938 244.191406 208.898438 242.355469 C 207.539062 241.472656 207.265625 242.761719 206.585938 243.578125 C 205.496094 244.53125 202.910156 241.878906 201.6875 241.8125 C 200.664062 241.472656 199.917969 241.8125 200.664062 242.96875 C 204.882812 248.820312 206.3125 257.597656 205.835938 264.671875 C 204.476562 267.460938 200.121094 267.664062 197.808594 266.238281 C 187.941406 269.503906 190.867188 260.863281 191.683594 254.261719 C 192.5 250.859375 199.578125 236.980469 192.363281 246.777344 C 188.488281 254.804688 188.488281 250.042969 185.015625 245.144531 C 178.417969 236.980469 189.777344 258.683594 188.417969 261.609375 C 190.050781 270.589844 179.097656 268.007812 175.015625 265.148438 C 173.382812 265.285156 173.652344 265.011719 174.128906 263.789062 C 174.199219 262.15625 172.226562 263.921875 173.585938 260.25 C 174.675781 255.757812 173.382812 250.859375 175.492188 246.503906 C 177.667969 243.105469 180.253906 239.769531 174.265625 242.96875 C 170.183594 245.621094 172.769531 239.632812 167.53125 243.445312 C 161.816406 245.6875 165.625 238.75 165.761719 236.09375 C 165.964844 234.460938 165.695312 232.011719 164.671875 234.597656 C 163.515625 243.238281 154.875 242.015625 157.050781 235.210938 C 162.425781 221.058594 150.519531 237.796875 153.308594 241.265625 C 160.25 243.445312 161.609375 247.050781 169.09375 248.003906 C 171.410156 248.953125 172.769531 251.675781 168.890625 249.839844 C 164.265625 247.320312 161.476562 252.015625 158.890625 247.664062 C 158.140625 246.503906 157.121094 245.28125 155.828125 244.738281 C 149.910156 243.445312 149.636719 244.804688 145.484375 239.363281 C 142.015625 236.230469 147.800781 230.789062 148.480469 226.976562 C 149.976562 217.589844 143.988281 233.238281 141.949219 233.578125 C 140.316406 233.714844 138.953125 231.878906 137.523438 231.0625 C 134.257812 229.085938 131.128906 229.769531 131.671875 224.871094 C 131.945312 222.625 130.585938 222.554688 130.652344 220.992188 C 130.449219 218.066406 139.226562 209.492188 131.46875 213.234375 C 130.855469 208.335938 142.628906 205.410156 141.949219 199.152344 C 141.609375 192.074219 134.53125 188.46875 128.203125 190.238281 C 123.644531 190.03125 126.164062 190.101562 123.644531 192.210938 C 113.78125 189.488281 122.964844 195.410156 119.425781 194.320312 C 116.839844 193.164062 113.914062 191.9375 116.839844 196.089844 C 115.820312 198.539062 106.773438 190.714844 104.933594 189.285156 C 100.445312 185.882812 101.804688 189.898438 104.253906 192.074219 C 104.59375 193.367188 116.09375 199.832031 110.921875 199.015625 Z M 190.800781 283.042969 C 204.679688 275.832031 192.773438 301.550781 189.914062 292.910156 C 189.371094 289.914062 189.78125 285.898438 190.800781 283.042969 Z M 188.351562 288.824219 C 189.371094 299.917969 182.089844 292.773438 181.003906 286.851562 C 179.300781 281.75 184.269531 281.273438 187.738281 282.90625 C 188.894531 284.472656 187.804688 286.988281 188.351562 288.824219 Z M 169.027344 281.75 C 168.753906 278.960938 170.660156 279.503906 172.632812 279.84375 C 174.402344 280.253906 176.714844 280.320312 178.210938 281.273438 C 177.054688 284.335938 179.164062 288.214844 178.210938 291.140625 C 173.3125 292.296875 169.367188 286.105469 169.027344 281.75 Z M 137.59375 254.601562 C 135.550781 250.179688 134.667969 244.871094 134.53125 239.90625 C 134.328125 232.625 138.546875 241.0625 138.953125 243.511719 C 138.886719 247.457031 139.023438 251.472656 140.316406 255.214844 C 141.742188 260.589844 138.207031 257.664062 137.59375 254.601562 Z M 140.179688 240.519531 C 138.410156 239.363281 138.136719 235.824219 136.027344 234.871094 C 133.648438 233.578125 132.355469 237.117188 131.808594 236.164062 C 128.816406 223.304688 145.417969 239.019531 140.179688 240.519531 Z M 144.191406 241.199219 C 149.09375 245.6875 147.527344 252.289062 147.253906 258.140625 C 146.847656 267.191406 140.449219 252.425781 140.996094 249.773438 C 140.859375 247.457031 140.042969 239.15625 144.191406 241.199219 Z M 148.75 273.382812 C 150.179688 272.835938 152.359375 273.925781 153.445312 275.015625 C 155.078125 278.28125 154.671875 282.566406 156.917969 285.765625 C 157.324219 286.511719 158.480469 288.351562 156.847656 287.804688 C 151.746094 285.765625 148.070312 278.6875 148.75 273.382812 Z M 157.324219 262.765625 C 155.351562 263.449219 152.425781 262.222656 150.726562 261.066406 C 148.207031 258.277344 148.820312 243.578125 154.738281 245.6875 C 157.527344 247.457031 159.367188 252.765625 158.753906 256.03125 C 158.003906 258.074219 158.753906 260.929688 157.324219 262.765625 Z M 157.324219 276.308594 C 158.753906 275.695312 165.21875 277.734375 166.035156 279.164062 C 166.851562 280.457031 168.824219 288.894531 165.761719 288.214844 C 161.816406 287.191406 158.820312 284.539062 157.800781 280.457031 C 157.597656 279.503906 156.644531 277.054688 157.324219 276.308594 Z M 160.523438 263.378906 C 158.957031 259.707031 159.84375 253.445312 163.039062 250.722656 C 166.375 248.480469 170.457031 250.792969 170.59375 254.671875 C 170.320312 257.324219 170.117188 263.582031 168.210938 265.214844 C 165.828125 265.691406 162.425781 264.945312 160.523438 263.378906 Z M 112.28125 209.628906 C 118.132812 212.011719 121.738281 218.8125 122.828125 224.800781 C 125.6875 230.378906 125.824219 236.84375 126.367188 243.035156 C 125.824219 245.144531 127.046875 264.265625 122.691406 258.683594 C 122.011719 257.390625 125.277344 245.347656 122.011719 248.410156 C 120.855469 249.296875 119.496094 263.652344 118.339844 257.597656 C 120.378906 241.472656 122.625 223.578125 112.28125 209.628906 Z M 121.945312 312.300781 C 109.902344 321.28125 93.4375 318.355469 80.917969 312.230469 C 80.578125 311.550781 81.460938 311.074219 82.074219 310.734375 C 87.3125 307.945312 93.707031 304.882812 96.769531 299.578125 C 96.703125 296.515625 90.171875 303.863281 88.671875 304.136719 C 85.882812 305.496094 89.488281 301.210938 89.761719 300.394531 C 93.777344 292.910156 96.226562 288.621094 104.933594 286.171875 C 107.996094 285.152344 108.269531 283.449219 104.730469 284.265625 C 103.097656 284.472656 100.921875 286.035156 99.421875 285.832031 C 101.191406 280.253906 107.929688 270.25 113.574219 267.800781 C 116.707031 266.78125 118.949219 270.046875 121.875 270.660156 C 127.863281 272.835938 120.652344 273.515625 129.496094 274.128906 C 130.652344 274.402344 127.863281 274.808594 127.589844 274.878906 C 122.488281 275.832031 117.316406 276.988281 112.351562 278.484375 C 109.085938 279.707031 110.921875 280.59375 113.304688 279.980469 C 115.414062 279.914062 130.515625 275.015625 124.597656 280.183594 C 120.175781 285.628906 113.234375 287.125 107.246094 290.253906 C 104.59375 290.800781 94.253906 296.515625 103.234375 293.65625 C 110.71875 292.433594 121.128906 283.996094 109.289062 296.445312 C 109.015625 296.855469 108.269531 297.875 108.746094 298.148438 C 111.671875 297.808594 109.355469 300.394531 109.765625 301.890625 C 112.011719 300.867188 112.828125 297.125 114.1875 295.152344 C 115.480469 292.910156 117.65625 291.34375 119.425781 289.507812 C 125.617188 283.996094 114.800781 305.5625 113.03125 306.71875 C 110.988281 308.761719 108.335938 314.203125 113.097656 309.304688 C 118.816406 302.773438 121.875 294.609375 124.800781 286.648438 C 126.027344 285.765625 127.117188 285.289062 127.25 283.65625 C 127.863281 280.523438 130.449219 278.621094 132.898438 276.851562 C 135.550781 276.238281 132.148438 285.289062 131.742188 286.648438 C 130.925781 289.097656 129.15625 291.820312 128.75 294.40625 C 129.292969 296.039062 131.332031 291.75 131.742188 291.070312 C 135.007812 285.765625 135.414062 279.4375 137.320312 273.652344 C 142.015625 269.367188 134.941406 290.050781 133.648438 291.207031 C 129.429688 298.691406 133.917969 295.425781 135.824219 290.800781 C 138.207031 286.171875 139.90625 281.136719 140.722656 275.964844 C 140.792969 273.789062 142.355469 266.847656 142.425781 273.382812 C 142.898438 274.605469 139.703125 287.191406 142.082031 281.953125 C 144.328125 277.804688 144.667969 273.109375 145.691406 268.617188 C 145.960938 267.871094 146.777344 266.507812 147.324219 267.460938 C 146.4375 285.082031 136.097656 301.890625 121.945312 312.300781 Z M 208.21875 327.0625 C 205.835938 327.199219 216.042969 315.769531 209.304688 317.675781 C 207.742188 318.492188 206.652344 320.261719 205.222656 321.28125 C 205.5625 318.695312 209.171875 315.089844 209.304688 312.300781 C 207.945312 310.597656 200.257812 327.609375 201.753906 319.851562 C 201.957031 317.8125 204.339844 309.578125 201.617188 309.238281 C 198.488281 309.375 196.652344 328.355469 194.882812 324.613281 C 194.542969 322.574219 195.085938 319.851562 194.8125 317.742188 C 192.230469 310.328125 191.617188 326.859375 189.984375 326.179688 C 188.828125 321.347656 190.9375 315.429688 189.4375 310.667969 C 187.941406 312.164062 190.597656 328.492188 188.214844 325.703125 C 187.464844 324.136719 186.71875 312.09375 184.132812 317.402344 C 183.519531 319.101562 184.878906 324.546875 183.519531 325.296875 C 180.59375 322.914062 181.070312 308.761719 176.445312 309.644531 C 174.8125 321.144531 181.820312 328.5625 170.046875 312.367188 C 167.667969 311.277344 173.042969 319.578125 173.246094 320.328125 C 174.945312 323.660156 170.386719 318.015625 169.503906 317.878906 C 166.917969 316.449219 166.714844 319.308594 167.734375 321.007812 C 176.988281 336.996094 161.136719 316.789062 159.570312 312.640625 C 158.210938 310.871094 157.1875 307.46875 154.941406 306.992188 C 150.929688 308.421875 167.800781 331.621094 158.890625 323.117188 C 155.964844 321.757812 149.023438 302.367188 146.777344 309.441406 C 146.710938 310.871094 147.1875 312.570312 147.59375 314 C 149.433594 322.371094 141.132812 301.957031 138.613281 302.910156 C 135.417969 303.726562 140.382812 310.804688 140.449219 312.640625 C 132.421875 304.746094 132.558594 305.085938 139.089844 295.902344 C 140.859375 293.316406 142.425781 290.730469 143.445312 287.667969 C 145.484375 282.292969 145.417969 291.277344 148.140625 291.957031 C 150.792969 292.5 149.296875 288.691406 149.023438 287.464844 C 149.160156 286.445312 150.859375 287.738281 151.472656 288.007812 C 155.488281 290.324219 159.027344 292.910156 161.882812 296.515625 C 166.101562 299.03125 161.882812 293.113281 164.535156 293.382812 C 167.667969 293.65625 170.660156 294.8125 173.722656 295.5625 C 180.320312 296.921875 177.394531 300.664062 181.34375 303.183594 C 183.179688 303.523438 181.820312 300.800781 182.160156 299.917969 C 186.582031 297.535156 184.878906 308.421875 189.371094 302.433594 C 192.839844 306.109375 192.230469 303.523438 194.132812 300.460938 C 195.765625 298.828125 197.46875 299.578125 196.652344 301.890625 C 196.3125 304.269531 198.554688 303.046875 199.304688 301.617188 C 200.664062 295.425781 206.515625 295.222656 211.757812 293.929688 C 214.816406 293.929688 213.457031 298.011719 214.136719 299.984375 C 216.65625 315.835938 222.097656 312.640625 208.21875 327.0625 Z M 253.601562 336.726562 C 228.492188 332.574219 211.757812 306.515625 216.179688 281.816406 C 216.449219 280.183594 216.925781 279.914062 217.949219 281.207031 C 220.601562 285.425781 224.820312 289.167969 227.675781 292.910156 C 221.621094 292.839844 228.96875 296.175781 230.738281 296.992188 C 229.71875 297.941406 225.363281 297.125 224.003906 298.554688 C 223.390625 300.734375 231.417969 298.894531 232.78125 300.1875 C 233.121094 301.277344 228.765625 303.589844 228.152344 305.359375 C 227.882812 305.769531 227.132812 307.402344 228.152344 307.195312 C 229.515625 306.652344 230.535156 305.019531 231.894531 304.339844 C 233.257812 303.792969 230.601562 308.761719 233.664062 306.039062 C 234.003906 305.769531 235.910156 303.589844 236.046875 304.203125 C 235.84375 305.15625 234.683594 306.585938 234.277344 307.605469 C 232.371094 312.570312 236.660156 307.265625 235.976562 311.824219 C 236.523438 315.566406 238.15625 309.035156 239.109375 309.511719 C 241.625 315.566406 244.007812 322.027344 248.226562 327.199219 C 250.402344 330.125 252.988281 332.78125 255.777344 335.09375 C 258.769531 337.542969 255.980469 337.203125 253.601562 336.726562 Z M 306.261719 326.792969 C 295.171875 349.3125 262.648438 344.957031 249.992188 326.042969 C 245.027344 319.578125 241.898438 311.753906 240.128906 303.863281 C 238.699219 297.941406 251.761719 309.78125 253.261719 310.667969 C 253.667969 311.007812 255.164062 311.960938 254.894531 310.800781 C 255.097656 309.917969 250.742188 306.71875 252.308594 306.71875 C 256.050781 307.878906 259.316406 310.394531 261.96875 313.253906 C 262.445312 313.660156 265.03125 317.402344 265.03125 315.429688 C 264.554688 313.320312 262.378906 311.210938 261.015625 309.511719 C 260.132812 308.351562 263.667969 310.667969 263.875 310.734375 C 268.023438 312.910156 269.792969 317.46875 271.5625 321.484375 C 272.71875 320.191406 271.5625 316.925781 271.222656 315.226562 C 271.5625 313.183594 277.277344 320.601562 277.820312 321.554688 C 282.109375 329.921875 282.246094 326.65625 279.183594 320.191406 C 276.597656 314.613281 284.488281 321.28125 285.375 322.980469 C 286.054688 323.730469 287.007812 325.429688 287.753906 325.769531 C 288.503906 325.976562 287.753906 323.796875 287.621094 323.457031 C 287.210938 321.621094 281.972656 316.519531 287.007812 318.082031 C 288.914062 318.21875 293.0625 322.371094 294.082031 321.621094 C 293.8125 319.308594 285.988281 315.15625 292.65625 316.449219 C 293.539062 316.652344 295.105469 317.402344 295.582031 316.859375 C 295.785156 316.109375 294.695312 315.359375 294.492188 314.75 C 294.492188 312.503906 302.929688 309.984375 305.039062 308.21875 C 312.113281 304.40625 308.371094 324.070312 306.261719 326.792969 Z M 323.816406 281.953125 C 320.890625 299.371094 298.164062 315.429688 280.882812 312.980469 C 274.761719 311.621094 270.203125 307.332031 266.1875 302.707031 C 263.261719 299.917969 265.777344 299.78125 268.296875 299.167969 C 274.894531 295.5625 276.324219 302.433594 277.140625 300.734375 C 275.101562 295.96875 281.5625 301.480469 282.855469 302.570312 C 285.101562 304.609375 285.644531 304.609375 284.421875 301.683594 C 286.257812 300.460938 289.320312 304.203125 290.816406 305.425781 C 294.421875 308.285156 290.070312 303.046875 289.796875 302.160156 C 290.816406 300.1875 302.382812 302.027344 305.582031 300.9375 C 309.9375 299.78125 293.402344 299.578125 299.1875 298.625 C 300.886719 298.417969 302.453125 298.761719 304.222656 298.625 C 305.105469 298.625 310.617188 297.671875 307.894531 296.855469 C 302.113281 296.921875 307.214844 295.289062 309.050781 293.519531 C 317.558594 287.058594 321.367188 276.035156 320.550781 265.691406 C 323.339844 270.320312 324.359375 276.511719 323.816406 281.953125 Z M 104.527344 184.113281 C 107.859375 189.082031 111.671875 188.671875 110.785156 182.074219 C 110.785156 181.121094 112.011719 177.105469 109.96875 178.398438 C 105.34375 185.816406 108.746094 170.164062 106.363281 173.566406 C 105.136719 176.902344 104.320312 177.378906 103.574219 173.363281 C 103.097656 170.710938 104.457031 167.582031 102.894531 165.199219 C 101.804688 164.996094 102.214844 170.574219 101.53125 171.390625 C 101.125 172.546875 100.714844 171.117188 100.648438 170.507812 C 100.171875 166.289062 102.078125 162.207031 102.347656 158.054688 C 102.417969 146.488281 95.886719 167.988281 96.769531 170.4375 C 97.109375 176.015625 101.667969 179.894531 104.527344 184.113281 Z M 100.511719 150.164062 C 101.941406 140.296875 101.464844 131.65625 111.671875 126.210938 C 116.160156 121.789062 102.757812 127.300781 100.238281 134.035156 C 98.8125 135.398438 99.628906 129.820312 99.695312 129.003906 C 100.035156 124.171875 103.914062 120.835938 106.5 117.367188 C 96.566406 120.292969 95.679688 132.675781 96.566406 141.453125 C 96.703125 143.835938 96.15625 155.128906 100.511719 150.164062 Z M 147.050781 205.886719 C 147.050781 202.960938 150.25 193.027344 145.28125 193.300781 C 146.914062 203.84375 139.976562 204.660156 137.320312 213.847656 C 136.707031 215.277344 136.164062 221.058594 138.886719 219.222656 C 140.042969 216.160156 139.703125 212.554688 141.878906 209.832031 C 142.425781 209.085938 143.851562 206.429688 144.941406 207.246094 C 146.777344 209.152344 146.300781 213.097656 146.847656 215.480469 C 147.730469 216.910156 148.34375 214.117188 148.277344 213.4375 C 148.410156 210.785156 147.324219 208.402344 147.050781 205.886719 Z M 203.183594 218.746094 C 202.433594 217.859375 201.890625 219.289062 201.6875 219.96875 C 199.78125 232.761719 207.808594 232.695312 203.183594 218.746094 Z M 196.445312 233.375 C 193.046875 232.964844 190.121094 240.179688 187.804688 237.523438 C 186.171875 235.960938 184.609375 233.988281 182.089844 233.375 C 176.917969 233.035156 189.371094 240.585938 188.757812 246.503906 C 188.960938 248.136719 189.234375 247.867188 189.4375 246.4375 C 189.371094 239.566406 200.597656 233.851562 196.445312 233.375 Z M 207.671875 215.480469 C 202.707031 213.507812 197.058594 212.214844 193.726562 207.453125 C 193.316406 207.042969 192.296875 206.089844 191.957031 206.769531 C 192.296875 210.851562 196.515625 214.117188 199.917969 216.023438 C 201.550781 217.042969 209.441406 219.5625 207.671875 215.480469 Z M 112.011719 136.351562 C 107.65625 149.6875 101.804688 176.765625 121.605469 179.625 C 131.128906 179.828125 140.722656 178.332031 150.179688 177.308594 C 151.472656 177.105469 152.835938 176.902344 152.5625 178.738281 C 152.015625 180.167969 152.015625 184.929688 154.195312 181.664062 C 155.488281 177.71875 156.441406 174.792969 160.046875 172.273438 C 165.488281 166.355469 170.457031 159.960938 175.355469 153.632812 C 177.667969 150.296875 173.519531 148.597656 171.476562 146.625 C 167.191406 142.132812 162.972656 137.507812 158.003906 133.765625 C 152.5625 129.34375 145.621094 127.980469 138.816406 127.4375 C 136.914062 127.4375 133.851562 124.851562 132.285156 125.464844 C 133.308594 126.757812 134.667969 127.777344 131.742188 127.503906 C 128.542969 127.164062 126.164062 124.308594 123.03125 123.761719 C 120.3125 124.511719 127.523438 127.164062 126.027344 127.980469 C 124.53125 128.320312 122.625 127.027344 121.265625 126.960938 C 120.105469 126.960938 121.605469 128.59375 120.789062 129.207031 C 119.699219 129.886719 117.726562 129.613281 116.976562 130.703125 C 115.34375 132.675781 113.167969 134.242188 112.011719 136.351562 Z M 190.460938 216.09375 C 189.984375 217.25 190.1875 219.835938 191.886719 219.5625 C 193.046875 218.949219 195.085938 213.914062 193.316406 213.4375 C 191.886719 213.371094 190.867188 214.867188 190.460938 216.09375 Z M 186.105469 206.90625 C 185.765625 205.546875 183.792969 207.996094 183.316406 208.472656 C 180.660156 211.535156 176.988281 213.574219 173.042969 214.324219 C 171.476562 214.460938 168.414062 216.09375 170.863281 217.453125 C 177.054688 218.472656 184.8125 213.03125 186.105469 206.90625 Z M 211.824219 205.683594 C 211.347656 204.730469 211.414062 196.769531 209.648438 199.695312 C 209.238281 200.101562 209.441406 203.777344 208.695312 202.550781 C 208.421875 202.144531 208.015625 201.328125 207.46875 201.464844 C 205.699219 206.429688 214.886719 212.757812 210.121094 217.996094 C 208.898438 221.945312 215.363281 218.8125 214.410156 214.527344 C 214.136719 211.398438 212.300781 208.742188 211.824219 205.683594 Z M 174.878906 218.8125 C 170.253906 232.695312 178.28125 232.761719 176.375 219.96875 C 176.238281 219.289062 175.628906 217.929688 174.878906 218.8125 Z M 193.589844 128.796875 C 196.3125 126.6875 198.691406 124.035156 202.164062 123.082031 C 219.648438 116.550781 236.863281 107.773438 255.777344 106.34375 C 257.136719 106.414062 259.722656 105.390625 256.933594 104.78125 C 239.652344 102.875 220.058594 113.964844 203.796875 119.203125 C 201.003906 120.292969 202.367188 119.136719 203.660156 118.117188 C 205.769531 116.074219 209.511719 114.238281 210.53125 111.449219 C 207.742188 110.835938 202.503906 116.960938 199.847656 118.59375 C 198.351562 119.816406 186.378906 129.613281 193.589844 128.796875 Z M 248.972656 128.050781 C 249.042969 127.164062 255.710938 124.375 253.667969 123.695312 C 252.648438 123.96875 240.195312 130.703125 241.898438 126.757812 C 242.035156 126.484375 242.851562 125.464844 242.375 125.328125 C 240.265625 125.941406 237.746094 128.867188 235.296875 128.117188 C 235.023438 127.84375 236.386719 126.484375 235.5 126.484375 C 232.167969 127.777344 228.902344 129.820312 225.5 131.042969 C 218.421875 134.511719 212.914062 140.570312 207.46875 146.214844 C 205.972656 148.257812 202.433594 149.074219 202.230469 151.863281 C 202.296875 153.222656 203.25 154.378906 204.066406 155.402344 C 208.695312 160.980469 213.046875 166.765625 218.015625 172.003906 C 226.316406 179.964844 238.15625 177.378906 248.703125 179.214844 C 265.4375 182.277344 272.652344 169.960938 269.792969 154.722656 C 269.113281 149.6875 268.976562 144.515625 267.546875 139.617188 C 265.4375 129.613281 250.335938 130.160156 257.34375 127.234375 C 258.703125 126.757812 261.96875 123.96875 258.292969 125.53125 C 255.4375 126.6875 251.898438 129.207031 248.972656 128.050781 Z M 265.4375 125.261719 C 274.554688 130.976562 277.003906 137.644531 277.140625 148.121094 C 277.003906 150.636719 279.660156 153.15625 280.953125 149.820312 C 281.632812 146.625 281.359375 143.152344 281.632812 139.886719 C 282.449219 131.585938 281.222656 121.992188 273.128906 117.707031 C 272.175781 117.230469 271.085938 116.960938 271.96875 118.046875 C 276.1875 121.585938 278.980469 126.621094 278.773438 132.199219 C 278.773438 132.949219 278.84375 135.398438 277.820312 133.765625 C 276.527344 130.769531 268.433594 122.878906 265.4375 125.261719 Z M 222.097656 202.6875 C 221.621094 201.601562 220.738281 200.308594 219.921875 199.421875 C 218.289062 197.859375 216.996094 199.761719 217.605469 201.464844 C 218.628906 204.796875 223.1875 205.34375 222.097656 202.6875 Z M 278.84375 158.53125 C 278.503906 156.832031 275.917969 151.726562 275.644531 156.285156 C 275.507812 162.410156 279.929688 168.871094 275.78125 174.453125 C 274.421875 176.289062 270.882812 180.507812 270.132812 181.1875 C 272.992188 177.648438 271.019531 177.648438 268.839844 180.710938 C 268.160156 181.460938 261.152344 189.421875 265.167969 187.242188 C 268.5 183.433594 266.324219 187.242188 269.179688 187.652344 C 272.515625 187.582031 281.292969 174.65625 281.359375 171.253906 C 281.5625 166.832031 279.929688 162.613281 278.84375 158.53125 Z M 195.5625 167.308594 C 199.101562 172.273438 203.25 177.039062 205.019531 183.023438 C 205.5625 185.203125 207.46875 186.359375 208.488281 188.195312 C 210.257812 190.984375 209.714844 197.109375 212.230469 198.742188 C 214.679688 195.542969 207.265625 181.9375 205.699219 177.785156 C 204.679688 175.609375 197.46875 165.199219 195.5625 167.308594 Z M 164.605469 175.675781 C 167.460938 176.425781 184.0625 150.570312 175.355469 159.007812 C 174.46875 161.523438 160.863281 175.269531 164.605469 175.675781 Z M 171.273438 189.082031 C 170.183594 189.625 169.230469 191.800781 168.550781 192.550781 C 168.007812 192.957031 169.230469 189.488281 169.300781 189.214844 C 169.84375 186.972656 171.75 185.746094 172.835938 183.707031 C 174.605469 177.308594 179.371094 172.34375 182.566406 167.035156 C 176.578125 168.667969 171.886719 178.464844 169.707031 184.113281 C 164.671875 193.773438 164.671875 204.796875 163.585938 215.410156 C 163.242188 217.386719 166.511719 221.398438 167.871094 218.746094 C 166.644531 216.160156 165.828125 214.253906 167.328125 211.464844 C 169.4375 207.109375 168.007812 202.210938 169.707031 197.789062 C 169.707031 196.226562 175.152344 187.925781 171.273438 189.082031 Z M 164.128906 186.5625 C 167.257812 182.683594 170.117188 178.261719 172.703125 173.90625 C 174.878906 169.214844 180.390625 166.21875 181.34375 161.046875 C 180.660156 155.742188 178.554688 163.632812 176.851562 164.449219 C 175.355469 164.789062 158.210938 189.082031 164.128906 186.5625 Z M 149.910156 198.675781 C 150.726562 198.332031 150.519531 188.265625 149.296875 189.828125 C 149.023438 190.917969 147.933594 199.558594 149.910156 198.675781 Z M 119.972656 105.867188 C 141.265625 108.589844 162.222656 116.484375 181.34375 126.144531 C 182.769531 127.234375 184.335938 129.820312 186.308594 128.867188 C 189.984375 127.164062 169.640625 110.632812 167.597656 111.242188 C 166.511719 113.082031 177.191406 119.273438 175.421875 119.613281 C 161.746094 115.734375 132.082031 99.675781 119.972656 105.867188 Z M 152.085938 186.972656 C 150.65625 189.558594 152.492188 201.871094 153.175781 192.007812 C 153.105469 191.121094 153.445312 185.882812 152.085938 186.972656 Z M 189.234375 217.996094 C 189.097656 216.570312 186.105469 211.195312 185.015625 214.390625 C 185.832031 218.269531 185.085938 222.554688 185.628906 226.503906 C 185.695312 229.429688 186.039062 232.695312 189.097656 233.851562 C 189.78125 229.019531 190.324219 223.03125 189.234375 217.996094 Z M 184.402344 141.726562 C 183.519531 143.359375 179.503906 137.03125 178.894531 136.144531 C 178.007812 134.71875 175.355469 125.464844 175.558594 132.0625 C 175.492188 132.472656 177.667969 138.527344 176.511719 137.167969 C 175.285156 135.398438 172.359375 129.75 173.246094 135.671875 C 171.136719 136.417969 165.21875 123.898438 165.828125 131.382812 C 159.910156 130.769531 157.050781 123.898438 155.011719 118.933594 C 154.671875 118.25 153.855469 116.347656 153.175781 116.617188 C 152.492188 119.273438 155.351562 122.605469 155.214844 125.191406 C 154.808594 125.804688 153.652344 124.988281 153.039062 124.714844 C 144.601562 120.15625 135.890625 116.074219 126.773438 113.148438 C 116.707031 111.3125 141.675781 120.226562 142.832031 122.199219 C 154.125 128.933594 165.695312 135.058594 175.152344 144.242188 C 178.417969 146.148438 181.546875 148.53125 182.839844 152.136719 C 184.609375 153.769531 183.519531 147.507812 186.511719 154.652344 C 186.921875 157.035156 188.417969 165.335938 190.730469 159.007812 C 193.046875 156.21875 187.261719 139.683594 192.5 144.378906 C 195.835938 145.875 194.679688 147.847656 194.132812 150.636719 C 194.066406 151.25 194.269531 153.222656 195.15625 152.273438 C 196.445312 149.414062 198.421875 146.691406 201.480469 145.261719 C 204 143.699219 206.109375 141.65625 208.285156 139.753906 C 217.539062 131.316406 229.378906 126.144531 239.992188 119.542969 C 243.191406 117.777344 263.667969 109.882812 248.226562 114.167969 C 240.265625 117.164062 232.441406 120.703125 224.957031 124.785156 C 224.207031 125.191406 222.4375 126.210938 222.777344 124.714844 C 223.1875 123.558594 227.066406 113.011719 223.390625 118.183594 C 221.078125 123.492188 218.832031 129.613281 212.777344 131.585938 C 211.890625 131.859375 212.097656 131.109375 212.164062 130.5 C 212.640625 127.777344 210.394531 129.683594 209.578125 130.976562 C 208.355469 132.539062 207.128906 134.242188 205.632812 135.535156 C 203.660156 136.894531 206.585938 132.539062 205.429688 132.132812 C 204.273438 132.402344 203.320312 134.648438 202.707031 135.667969 C 200.324219 140.296875 202.707031 132.949219 201.347656 131.929688 C 200.734375 131.722656 200.394531 133.628906 200.257812 134.171875 C 200.054688 136.691406 198.421875 138.664062 196.515625 140.09375 C 195.699219 141.179688 195.699219 143.96875 193.792969 142.132812 C 188.417969 133.425781 189.847656 132.132812 184.402344 141.726562 Z M 189.371094 174.859375 C 189.4375 179.894531 191.140625 184.863281 190.460938 189.964844 C 190.730469 193.773438 188.828125 198.46875 191.003906 201.804688 C 192.910156 202.824219 194.472656 204.117188 195.359375 206.226562 C 197.195312 209.695312 204.542969 213.234375 206.175781 207.996094 C 210.394531 203.234375 192.160156 161.253906 189.371094 174.859375 Z M 186.308594 172.003906 C 178.417969 176.152344 160.046875 222.488281 181.683594 207.65625 C 185.355469 200.785156 188.144531 203.503906 188.011719 198.605469 C 187.941406 192.753906 186.921875 186.835938 188.011719 180.984375 C 188.214844 178.535156 190.324219 171.796875 186.308594 172.003906 Z M 197.46875 159.28125 C 195.019531 162.679688 199.984375 166.421875 201.820312 169.078125 C 203.660156 169.960938 209.304688 183.773438 210.394531 178.464844 C 209.171875 171.867188 203.183594 167.445312 199.507812 162.273438 C 198.964844 161.523438 198.285156 158.9375 197.46875 159.28125 Z M 134.257812 36.878906 C 140.859375 36.265625 147.1875 33.066406 153.855469 32.183594 C 161.609375 30.003906 155.011719 27.554688 150.726562 29.1875 C 148.480469 29.597656 129.566406 33.542969 134.257812 36.878906 Z M 213.457031 175.675781 C 217.265625 175.40625 203.523438 161.457031 202.640625 159.007812 C 194.066406 150.570312 210.53125 176.355469 213.457031 175.675781 Z M 213.457031 175.675781 " fill-opacity="1" fill-rule="nonzero"/><path fill="#00d036" d="M 121.945312 312.300781 C 109.902344 321.28125 93.4375 318.355469 80.917969 312.230469 C 80.578125 311.550781 81.460938 311.074219 82.074219 310.734375 C 87.3125 307.945312 93.707031 304.882812 96.769531 299.578125 C 96.703125 296.515625 90.171875 303.863281 88.671875 304.136719 C 85.882812 305.496094 89.488281 301.210938 89.761719 300.394531 C 93.777344 292.910156 96.226562 288.621094 104.933594 286.171875 C 107.996094 285.152344 108.269531 283.449219 104.730469 284.265625 C 103.097656 284.472656 100.921875 286.035156 99.421875 285.832031 C 101.191406 280.253906 107.929688 270.25 113.574219 267.800781 C 116.707031 266.78125 118.949219 270.046875 121.875 270.660156 C 127.863281 272.835938 120.652344 273.515625 129.496094 274.128906 C 130.652344 274.402344 127.863281 274.808594 127.589844 274.878906 C 122.488281 275.832031 117.316406 276.988281 112.351562 278.484375 C 109.085938 279.707031 110.921875 280.59375 113.304688 279.980469 C 115.414062 279.914062 130.515625 275.015625 124.597656 280.183594 C 120.175781 285.628906 113.234375 287.125 107.246094 290.253906 C 104.59375 290.800781 94.253906 296.515625 103.234375 293.65625 C 110.71875 292.433594 121.128906 283.996094 109.289062 296.445312 C 109.015625 296.855469 108.269531 297.875 108.746094 298.148438 C 111.671875 297.808594 109.355469 300.394531 109.765625 301.890625 C 112.011719 300.867188 112.828125 297.125 114.1875 295.152344 C 115.480469 292.910156 117.65625 291.34375 119.425781 289.507812 C 125.617188 283.996094 114.800781 305.5625 113.03125 306.71875 C 110.988281 308.761719 108.335938 314.203125 113.097656 309.304688 C 118.816406 302.773438 121.875 294.609375 124.800781 286.648438 C 126.027344 285.765625 127.117188 285.289062 127.25 283.65625 C 127.863281 280.523438 130.449219 278.621094 132.898438 276.851562 C 135.550781 276.238281 132.148438 285.289062 131.742188 286.648438 C 130.925781 289.097656 129.15625 291.820312 128.75 294.40625 C 129.292969 296.039062 131.332031 291.75 131.742188 291.070312 C 135.007812 285.765625 135.414062 279.4375 137.320312 273.652344 C 142.015625 269.367188 134.941406 290.050781 133.648438 291.207031 C 129.429688 298.691406 133.917969 295.425781 135.824219 290.800781 C 138.207031 286.171875 139.90625 281.136719 140.722656 275.964844 C 140.792969 273.789062 142.355469 266.847656 142.425781 273.382812 C 142.898438 274.605469 139.703125 287.191406 142.082031 281.953125 C 144.328125 277.804688 144.667969 273.109375 145.691406 268.617188 C 145.960938 267.871094 146.777344 266.507812 147.324219 267.460938 C 146.4375 285.082031 136.097656 301.890625 121.945312 312.300781 Z M 121.945312 312.300781 " fill-opacity="1" fill-rule="nonzero"/><path fill="#ff0029" d="M 312.726562 254.398438 C 325.449219 270.863281 314.496094 294.746094 294.21875 297.125 C 288.4375 298.625 268.839844 293.792969 285.644531 291.957031 C 291.769531 294.335938 284.964844 289.300781 292.109375 292.433594 C 293.539062 292.839844 292.3125 291.34375 292.789062 291.003906 C 294.21875 290.800781 295.582031 292.226562 297.007812 292.296875 C 297.28125 292.160156 296.738281 291.617188 296.53125 291.410156 C 294.289062 289.097656 298.234375 289.507812 300.003906 287.125 C 302.042969 283.316406 301.296875 276.375 307.554688 277.125 C 309.730469 277.464844 312.386719 276.78125 308.710938 275.558594 C 303.539062 275.21875 307.554688 272.359375 309.9375 271 C 313 268.957031 308.78125 269.84375 307.554688 270.320312 C 304.085938 270.660156 313.066406 260.726562 310.480469 261.882812 C 305.785156 266.03125 307.691406 263.039062 307.828125 259.160156 C 307.964844 258.074219 307.691406 255.691406 306.671875 257.324219 C 305.855469 258.003906 305.515625 264.738281 304.699219 261.203125 C 303.675781 256.984375 301.363281 253.308594 300.613281 249.023438 C 300.480469 247.730469 298.914062 245.894531 299.457031 244.804688 C 304.628906 246.097656 309.324219 250.179688 312.726562 254.398438 Z M 274.894531 284.132812 C 275.101562 285.425781 277.6875 286.988281 274.554688 285.765625 C 272.71875 285.765625 264.894531 278.757812 264.960938 281.75 C 264.960938 284.199219 276.871094 288.621094 274.625 288.351562 C 273.535156 288.417969 265.777344 286.242188 267.003906 288.417969 C 267.957031 289.097656 269.519531 289.4375 270.472656 289.847656 C 272.785156 290.867188 268.160156 290.664062 268.5 291.617188 C 269.316406 292.636719 272.71875 291.75 273.46875 292.636719 C 270.746094 294.199219 261.425781 298.285156 259.519531 294.472656 C 257.070312 291.003906 254.757812 287.328125 253.394531 283.246094 C 252.375 281.136719 250.335938 278.007812 254.007812 277.328125 C 258.769531 276.441406 261.21875 270.863281 266.390625 272.292969 C 274.078125 274.742188 279.453125 281.546875 284.695312 287.125 C 286.191406 288.691406 278.980469 285.902344 278.503906 285.355469 C 277.957031 285.082031 274.894531 282.90625 274.894531 284.132812 Z M 270.949219 309.851562 C 263.398438 306.449219 255.027344 305.425781 247.410156 302.230469 C 232.78125 296.105469 231.417969 278.890625 235.160156 265.421875 C 235.707031 262.085938 236.113281 258.683594 236.046875 255.28125 C 235.230469 248.75 237.066406 251.675781 239.582031 255.214844 C 242.714844 260.113281 245.09375 265.691406 246.796875 271.273438 C 246.726562 272.222656 245.027344 270.117188 244.414062 269.980469 C 242.984375 269.230469 242.375 270.046875 243.121094 271.40625 C 244.074219 273.109375 245.777344 274.402344 246.59375 276.171875 C 246.660156 277.53125 242.375 275.898438 245.777344 278.484375 C 246.933594 278.6875 254.007812 285.21875 250.808594 285.015625 C 249.925781 284.742188 248.566406 284.132812 247.476562 284.0625 C 241.761719 284.335938 251.421875 286.71875 252.375 287.601562 C 254.550781 289.097656 249.519531 287.058594 250.46875 288.417969 C 251.21875 289.097656 257.546875 291.140625 254.894531 292.363281 C 253.941406 292.433594 252.308594 292.09375 251.21875 292.433594 C 248.089844 293.726562 252.101562 294.542969 253.464844 294.335938 C 257.476562 294.542969 258.703125 295.902344 261.085938 298.964844 C 263.804688 302.707031 268.5 306.378906 270.949219 309.851562 Z M 235.910156 296.71875 C 218.015625 283.925781 202.910156 255.417969 219.648438 235.890625 C 229.242188 227.796875 224.003906 219.628906 229.105469 219.96875 C 239.039062 218.8125 253.53125 224.800781 251.082031 236.707031 C 250.128906 238.613281 247.136719 243.648438 247.273438 238.546875 C 247.410156 236.640625 245.300781 228.679688 245.164062 234.667969 C 245.164062 235.007812 245.570312 244.738281 244.617188 240.789062 C 244.210938 238.679688 243.800781 236.503906 243.054688 234.460938 C 240.332031 228.613281 243.394531 244.261719 243.121094 245.621094 C 243.121094 246.371094 242.917969 245.960938 242.78125 245.484375 C 241.285156 241.199219 240.402344 236.300781 237.476562 232.695312 C 234.957031 231.128906 241.082031 243.648438 240.605469 245.347656 C 240.671875 245.824219 241.964844 251.746094 240.46875 249.566406 C 239.652344 248.003906 235.433594 240.925781 236.792969 247.050781 C 236.113281 249.429688 232.78125 241.539062 231.078125 242.96875 C 229.921875 244.125 231.691406 246.574219 232.101562 247.867188 C 232.710938 249.5 234.683594 255.757812 231.351562 252.289062 C 229.308594 249.566406 222.777344 248.136719 228.425781 252.492188 C 229.648438 253.648438 231.691406 255.28125 231.828125 257.050781 C 229.378906 256.710938 226.453125 255.078125 223.730469 256.097656 C 220.125 257.390625 227.882812 257.390625 228.699219 258.277344 C 229.582031 258.753906 233.1875 260.453125 232.304688 261.339844 C 230.464844 261.339844 228.5625 260.65625 226.65625 261 C 224.003906 261.40625 224.140625 262.019531 226.65625 262.359375 C 240.742188 263.378906 223.253906 275.625 235.910156 296.71875 Z M 248.769531 256.097656 C 250.335938 256.644531 252.101562 255.078125 253.464844 254.261719 C 255.097656 253.171875 254.894531 253.445312 253.464844 254.601562 C 251.898438 256.03125 249.042969 258.140625 249.789062 260.453125 C 251.558594 260.863281 253.261719 257.121094 254.824219 256.4375 C 256.730469 255.148438 251.832031 261.679688 253.261719 262.972656 C 253.871094 263.449219 254.894531 261 255.234375 260.523438 C 255.980469 258.683594 261.425781 252.355469 258.703125 258.074219 C 258.363281 258.957031 258.023438 260.65625 258.976562 261.132812 C 261.289062 260.792969 261.695312 255.828125 263.601562 254.261719 C 265.4375 251.40625 266.390625 255.691406 268.5 252.5625 C 269.113281 250.113281 281.90625 244.667969 279.320312 249.839844 C 269.863281 256.097656 266.800781 269.433594 255.574219 273.175781 C 248.089844 276.375 248.835938 268.6875 246.25 263.992188 C 245.433594 262.222656 244.890625 260.25 245.570312 258.414062 C 246.183594 257.1875 247.203125 254.804688 248.769531 256.097656 Z M 300.003906 276.648438 C 300.480469 285.289062 294.152344 288.824219 286.597656 285.152344 C 285.78125 284.8125 285.851562 284.675781 286.9375 284.878906 C 288.707031 285.152344 293.8125 286.105469 293.199219 283.109375 C 293.128906 282.429688 293.742188 282.023438 294.082031 281.546875 C 294.558594 280.050781 290.886719 282.023438 290.070312 282.023438 C 288.84375 282.226562 286.53125 282.632812 285.917969 281.886719 C 287.347656 281.136719 290.070312 280.933594 290 278.824219 C 290.75 277.601562 292.996094 277.53125 293.8125 276.035156 C 294.96875 274.675781 294.765625 272.699219 294.765625 271.066406 C 296.125 268.6875 300.34375 274.808594 300.003906 276.648438 Z M 281.359375 274.878906 C 282.3125 271.273438 282.039062 267.324219 282.722656 263.652344 C 285.101562 259.023438 287.484375 267.460938 286.667969 269.570312 C 285.851562 273.859375 285.988281 268.890625 285.714844 267.460938 C 284.421875 263.105469 282.175781 266.578125 282.585938 269.367188 C 282.3125 271.136719 283.605469 273.109375 283.402344 274.605469 C 283.128906 275.492188 281.632812 275.832031 281.359375 274.878906 Z M 278.367188 278.210938 C 267.34375 267.871094 261.5625 273.246094 268.570312 264.332031 C 270.472656 261.609375 270.609375 261.472656 270.609375 264.605469 C 272.039062 265.421875 273.398438 258.074219 274.421875 257.050781 C 275.507812 255.554688 274.214844 259.976562 274.214844 260.316406 C 273.332031 266.578125 275.371094 264.128906 276.121094 259.910156 C 276.460938 258.683594 276.734375 257.800781 276.527344 259.433594 C 275.238281 265.625 277.003906 272.496094 278.367188 278.210938 Z M 282.722656 277.871094 C 288.503906 274.539062 290.886719 266.578125 286.394531 261.132812 C 285.78125 260.179688 283.742188 259.707031 283.605469 258.683594 C 284.488281 258.140625 286.667969 258.957031 287.550781 259.023438 C 288.570312 259.296875 289.386719 258.414062 290.203125 259.363281 C 292.109375 261.066406 293.472656 263.71875 293.199219 266.304688 C 292.996094 267.257812 291.769531 267.191406 291.769531 268.210938 C 293.878906 273.992188 293.402344 276.238281 286.804688 277.257812 C 285.851562 277.464844 282.925781 279.367188 282.722656 277.871094 Z M 295.851562 268.347656 C 294.832031 259.839844 290 253.648438 280.746094 255.078125 C 280.136719 255.011719 279.863281 254.535156 280.066406 254.058594 C 284.488281 248.820312 292.042969 253.921875 295.035156 258.277344 C 295.648438 258.480469 294.96875 256.644531 294.765625 256.167969 C 293.742188 253.582031 290.953125 251.746094 288.914062 250.246094 C 291.972656 249.773438 295.582031 253.308594 297.144531 256.03125 C 297.894531 256.574219 299.253906 263.789062 300.003906 261.066406 C 300.75 256.507812 296.601562 251.746094 294.082031 249.429688 C 297.484375 251.199219 299.730469 254.601562 300.683594 258.277344 C 303.132812 262.425781 303.066406 267.394531 302.042969 272.089844 C 301.296875 276.375 300.34375 273.449219 298.710938 271.476562 C 297.757812 270.386719 296.53125 269.640625 295.851562 268.347656 Z M 298.640625 249.566406 C 295.035156 247.664062 290.886719 245.621094 286.667969 246.914062 C 285.441406 247.457031 280.882812 248.820312 283.539062 246.300781 C 283.945312 245.6875 289.59375 243.921875 287.484375 243.308594 C 284.148438 243.035156 279.726562 247.527344 276.871094 244.804688 C 283.46875 237.933594 297.28125 239.15625 298.640625 249.566406 Z M 274.488281 222.417969 C 286.257812 212.828125 299.117188 227.386719 303.675781 238 C 304.96875 240.519531 308.167969 246.03125 302.589844 243.851562 C 301.363281 243.445312 300.070312 243.238281 298.914062 242.832031 C 296.53125 242.082031 294.96875 239.90625 292.585938 239.089844 C 291.15625 238.75 289.660156 237.863281 288.980469 236.84375 C 287.414062 236.300781 279.929688 241.335938 283.605469 236.84375 C 284.898438 235.144531 286.328125 233.238281 286.871094 231.128906 C 286.9375 229.902344 284.761719 233.78125 284.488281 234.054688 C 283.878906 235.144531 278.296875 241.402344 277.753906 239.769531 C 278.84375 237.660156 280.339844 235.074219 281.019531 232.695312 C 281.835938 230.449219 281.292969 229.085938 280 232.011719 C 277.414062 237.933594 273.128906 243.238281 267.617188 246.640625 C 261.765625 250.65625 272.175781 240.722656 272.3125 237.253906 C 274.691406 230.039062 266.324219 246.234375 261.425781 247.59375 C 260.0625 248.003906 264.28125 241.742188 261.085938 244.191406 C 257.273438 248.886719 253.054688 251.609375 247.136719 252.699219 C 244.484375 251.539062 249.246094 242.289062 250.945312 240.722656 C 258.023438 233.441406 269.453125 231.945312 274.488281 222.417969 Z M 271.628906 223.234375 C 270.542969 228.203125 263.875 230.246094 259.859375 232.625 C 256.796875 234.257812 258.566406 232.558594 259.722656 230.992188 C 260.402344 229.972656 261.628906 228.066406 261.355469 226.976562 C 259.65625 227.046875 257.75 231.742188 258.566406 226.636719 C 258.566406 221.601562 256.933594 225.957031 256.183594 227.863281 C 255.574219 227.726562 256.183594 225.277344 255.980469 224.394531 C 255.710938 221.738281 255.710938 217.65625 252.917969 216.433594 C 250.335938 216.226562 255.300781 226.433594 253.328125 227.589844 C 251.96875 225.414062 251.355469 222.078125 249.3125 220.378906 C 247.75 219.699219 249.246094 222.828125 249.382812 223.441406 C 250.46875 226.503906 247.339844 222.625 246.386719 222.214844 C 241.421875 217.726562 230.261719 218.882812 235.5 215.886719 C 249.519531 206.769531 260.269531 214.664062 271.628906 223.234375 Z M 253.601562 336.726562 C 228.492188 332.574219 211.757812 306.515625 216.179688 281.816406 C 216.449219 280.183594 216.925781 279.914062 217.949219 281.207031 C 220.601562 285.425781 224.820312 289.167969 227.675781 292.910156 C 221.621094 292.839844 228.96875 296.175781 230.738281 296.992188 C 229.71875 297.941406 225.363281 297.125 224.003906 298.554688 C 223.390625 300.734375 231.417969 298.894531 232.78125 300.1875 C 233.121094 301.277344 228.765625 303.589844 228.152344 305.359375 C 227.882812 305.769531 227.132812 307.402344 228.152344 307.195312 C 229.515625 306.652344 230.535156 305.019531 231.894531 304.339844 C 233.257812 303.792969 230.601562 308.761719 233.664062 306.039062 C 234.003906 305.769531 235.910156 303.589844 236.046875 304.203125 C 235.84375 305.15625 234.683594 306.585938 234.277344 307.605469 C 232.371094 312.570312 236.660156 307.265625 235.976562 311.824219 C 236.523438 315.566406 238.15625 309.035156 239.109375 309.511719 C 241.625 315.566406 244.007812 322.027344 248.226562 327.199219 C 250.402344 330.125 252.988281 332.78125 255.777344 335.09375 C 258.769531 337.542969 255.980469 337.203125 253.601562 336.726562 Z M 306.261719 326.792969 C 295.171875 349.3125 262.648438 344.957031 249.992188 326.042969 C 245.027344 319.578125 241.898438 311.753906 240.128906 303.863281 C 238.699219 297.941406 251.761719 309.78125 253.261719 310.667969 C 253.667969 311.007812 255.164062 311.960938 254.894531 310.800781 C 255.097656 309.917969 250.742188 306.71875 252.308594 306.71875 C 256.050781 307.878906 259.316406 310.394531 261.96875 313.253906 C 262.445312 313.660156 265.03125 317.402344 265.03125 315.429688 C 264.554688 313.320312 262.378906 311.210938 261.015625 309.511719 C 260.132812 308.351562 263.667969 310.667969 263.875 310.734375 C 268.023438 312.910156 269.792969 317.46875 271.5625 321.484375 C 272.71875 320.191406 271.5625 316.925781 271.222656 315.226562 C 271.5625 313.183594 277.277344 320.601562 277.820312 321.554688 C 282.109375 329.921875 282.246094 326.65625 279.183594 320.191406 C 276.597656 314.613281 284.488281 321.28125 285.375 322.980469 C 286.054688 323.730469 287.007812 325.429688 287.753906 325.769531 C 288.503906 325.976562 287.753906 323.796875 287.621094 323.457031 C 287.210938 321.621094 281.972656 316.519531 287.007812 318.082031 C 288.914062 318.21875 293.0625 322.371094 294.082031 321.621094 C 293.8125 319.308594 285.988281 315.15625 292.65625 316.449219 C 293.539062 316.652344 295.105469 317.402344 295.582031 316.859375 C 295.785156 316.109375 294.695312 315.359375 294.492188 314.75 C 294.492188 312.503906 302.929688 309.984375 305.039062 308.21875 C 312.113281 304.40625 308.371094 324.070312 306.261719 326.792969 Z M 323.816406 281.953125 C 320.890625 299.371094 298.164062 315.429688 280.882812 312.980469 C 274.761719 311.621094 270.203125 307.332031 266.1875 302.707031 C 263.261719 299.917969 265.777344 299.78125 268.296875 299.167969 C 274.894531 295.5625 276.324219 302.433594 277.140625 300.734375 C 275.101562 295.96875 281.5625 301.480469 282.855469 302.570312 C 285.101562 304.609375 285.644531 304.609375 284.421875 301.683594 C 286.257812 300.460938 289.320312 304.203125 290.816406 305.425781 C 294.421875 308.285156 290.070312 303.046875 289.796875 302.160156 C 290.816406 300.1875 302.382812 302.027344 305.582031 300.9375 C 309.9375 299.78125 293.402344 299.578125 299.1875 298.625 C 300.886719 298.417969 302.453125 298.761719 304.222656 298.625 C 305.105469 298.625 310.617188 297.671875 307.894531 296.855469 C 302.113281 296.921875 307.214844 295.289062 309.050781 293.519531 C 317.558594 287.058594 321.367188 276.035156 320.550781 265.691406 C 323.339844 270.320312 324.359375 276.511719 323.816406 281.953125 Z M 323.816406 281.953125 " fill-opacity="1" fill-rule="nonzero"/></svg>