<svg xmlns="http://www.w3.org/2000/svg" xmlns:xlink="http://www.w3.org/1999/xlink" width="500" zoomAndPan="magnify" viewBox="0 0 375 374.999991" height="500" preserveAspectRatio="xMidYMid meet" version="1.0"><defs><clipPath id="42a982284c"><path d="M 151.796875 161 L 219 161 L 219 265.746094 L 151.796875 265.746094 Z M 151.796875 161 " clip-rule="nonzero"/></clipPath><clipPath id="5ce9cf1943"><path d="M 185 161 L 252.296875 161 L 252.296875 265.746094 L 185 265.746094 Z M 185 161 " clip-rule="nonzero"/></clipPath><clipPath id="9248aac84d"><path d="M 152 115.746094 L 252 115.746094 L 252 214 L 152 214 Z M 152 115.746094 " clip-rule="nonzero"/></clipPath><clipPath id="8da43eff44"><path d="M 198.535156 117.1875 C 200.476562 115.25 203.625 115.25 205.570312 117.1875 C 206.464844 118.074219 207.398438 119.007812 208.21875 119.824219 C 209.640625 121.242188 211.777344 121.664062 213.640625 120.898438 C 214.707031 120.457031 215.929688 119.953125 217.09375 119.472656 C 219.632812 118.429688 222.542969 119.628906 223.597656 122.160156 C 224.078125 123.320312 224.585938 124.539062 225.03125 125.605469 C 225.800781 127.457031 227.613281 128.667969 229.625 128.667969 C 230.78125 128.667969 232.105469 128.671875 233.363281 128.671875 C 236.113281 128.671875 238.339844 130.894531 238.339844 133.632812 C 238.339844 134.890625 238.34375 136.210938 238.34375 137.363281 C 238.347656 139.371094 239.558594 141.179688 241.414062 141.949219 C 242.484375 142.390625 243.707031 142.898438 244.871094 143.378906 C 247.40625 144.429688 248.609375 147.332031 247.5625 149.863281 C 247.082031 151.023438 246.574219 152.242188 246.132812 153.308594 C 245.367188 155.164062 245.789062 157.296875 247.210938 158.71875 C 248.027344 159.53125 248.964844 160.46875 249.855469 161.355469 C 251.796875 163.296875 251.796875 166.4375 249.855469 168.375 C 248.964844 169.265625 248.027344 170.199219 247.210938 171.015625 C 245.789062 172.433594 245.367188 174.570312 246.132812 176.421875 C 246.574219 177.488281 247.082031 178.707031 247.5625 179.871094 C 248.609375 182.402344 247.40625 185.304688 244.871094 186.355469 C 243.707031 186.835938 242.484375 187.34375 241.414062 187.785156 C 239.558594 188.554688 238.347656 190.363281 238.34375 192.367188 C 238.34375 193.519531 238.339844 194.84375 238.339844 196.101562 C 238.339844 198.839844 236.113281 201.058594 233.363281 201.0625 C 232.105469 201.0625 230.78125 201.0625 229.625 201.0625 C 227.613281 201.066406 225.800781 202.273438 225.03125 204.128906 C 224.585938 205.191406 224.078125 206.410156 223.597656 207.574219 C 222.542969 210.105469 219.632812 211.304688 217.09375 210.257812 C 215.929688 209.777344 214.707031 209.273438 213.640625 208.832031 C 211.777344 208.066406 209.640625 208.492188 208.21875 209.910156 C 207.398438 210.722656 206.464844 211.65625 205.570312 212.546875 C 203.625 214.480469 200.476562 214.480469 198.535156 212.546875 C 197.644531 211.65625 196.707031 210.722656 195.886719 209.910156 C 194.464844 208.492188 192.324219 208.066406 190.46875 208.832031 C 189.398438 209.273438 188.175781 209.777344 187.007812 210.257812 C 184.46875 211.304688 181.5625 210.105469 180.507812 207.574219 C 180.027344 206.410156 179.519531 205.191406 179.074219 204.128906 C 178.304688 202.273438 176.492188 201.066406 174.480469 201.0625 C 173.324219 201.0625 172 201.0625 170.738281 201.0625 C 167.992188 201.058594 165.765625 198.839844 165.765625 196.101562 C 165.761719 194.84375 165.761719 193.519531 165.761719 192.367188 C 165.761719 190.363281 164.546875 188.554688 162.691406 187.785156 C 161.625 187.34375 160.402344 186.835938 159.238281 186.355469 C 156.699219 185.304688 155.492188 182.402344 156.542969 179.871094 C 157.023438 178.707031 157.53125 177.488281 157.972656 176.421875 C 158.742188 174.570312 158.3125 172.433594 156.894531 171.015625 C 156.078125 170.199219 155.140625 169.265625 154.25 168.375 C 152.308594 166.4375 152.308594 163.296875 154.25 161.355469 C 155.140625 160.46875 156.078125 159.53125 156.894531 158.71875 C 158.3125 157.296875 158.742188 155.164062 157.972656 153.308594 C 157.53125 152.242188 157.023438 151.023438 156.542969 149.863281 C 155.492188 147.332031 156.699219 144.429688 159.238281 143.378906 C 160.402344 142.898438 161.625 142.390625 162.691406 141.949219 C 164.546875 141.179688 165.761719 139.371094 165.761719 137.363281 C 165.761719 136.210938 165.761719 134.890625 165.765625 133.632812 C 165.765625 130.894531 167.992188 128.671875 170.738281 128.671875 C 172 128.671875 173.324219 128.667969 174.480469 128.667969 C 176.492188 128.667969 178.304688 127.457031 179.074219 125.605469 C 179.519531 124.539062 180.027344 123.320312 180.507812 122.160156 C 181.5625 119.628906 184.46875 118.429688 187.007812 119.472656 C 188.175781 119.953125 189.398438 120.457031 190.46875 120.898438 C 192.324219 121.664062 194.464844 121.242188 195.886719 119.824219 C 196.707031 119.007812 197.644531 118.074219 198.535156 117.1875 Z M 198.535156 117.1875 " clip-rule="evenodd"/></clipPath><linearGradient x1="-0.20746" gradientTransform="matrix(83.41506, -27.91772, 27.989524, 83.201071, 158.459321, 175.526826)" y1="0" x2="1.222409" gradientUnits="userSpaceOnUse" y2="0" id="68bb331ff9"><stop stop-opacity="1" stop-color="rgb(79.219055%, 63.139343%, 27.839661%)" offset="0"/><stop stop-opacity="1" stop-color="rgb(79.219055%, 63.139343%, 27.839661%)" offset="0.125"/><stop stop-opacity="1" stop-color="rgb(79.219055%, 63.139343%, 27.839661%)" offset="0.140625"/><stop stop-opacity="1" stop-color="rgb(79.318237%, 63.269043%, 27.986145%)" offset="0.148438"/><stop stop-opacity="1" stop-color="rgb(79.649353%, 63.700867%, 28.474426%)" offset="0.152344"/><stop stop-opacity="1" stop-color="rgb(79.882812%, 64.002991%, 28.816223%)" offset="0.15625"/><stop stop-opacity="1" stop-color="rgb(80.114746%, 64.305115%, 29.156494%)" offset="0.160156"/><stop stop-opacity="1" stop-color="rgb(80.34668%, 64.607239%, 29.498291%)" offset="0.164062"/><stop stop-opacity="1" stop-color="rgb(80.578613%, 64.909363%, 29.840088%)" offset="0.167969"/><stop stop-opacity="1" stop-color="rgb(80.810547%, 65.211487%, 30.181885%)" offset="0.171875"/><stop stop-opacity="1" stop-color="rgb(81.04248%, 65.513611%, 30.523682%)" offset="0.175781"/><stop stop-opacity="1" stop-color="rgb(81.27594%, 65.817261%, 30.865479%)" offset="0.179688"/><stop stop-opacity="1" stop-color="rgb(81.507874%, 66.119385%, 31.207275%)" offset="0.183594"/><stop stop-opacity="1" stop-color="rgb(81.739807%, 66.421509%, 31.549072%)" offset="0.1875"/><stop stop-opacity="1" stop-color="rgb(81.971741%, 66.723633%, 31.890869%)" offset="0.191406"/><stop stop-opacity="1" stop-color="rgb(82.203674%, 67.025757%, 32.232666%)" offset="0.195312"/><stop stop-opacity="1" stop-color="rgb(82.435608%, 67.327881%, 32.574463%)" offset="0.199219"/><stop stop-opacity="1" stop-color="rgb(82.667542%, 67.630005%, 32.91626%)" offset="0.203125"/><stop stop-opacity="1" stop-color="rgb(82.899475%, 67.932129%, 33.258057%)" offset="0.207031"/><stop stop-opacity="1" stop-color="rgb(83.132935%, 68.234253%, 33.599854%)" offset="0.210937"/><stop stop-opacity="1" stop-color="rgb(83.364868%, 68.536377%, 33.94165%)" offset="0.214844"/><stop stop-opacity="1" stop-color="rgb(83.596802%, 68.840027%, 34.283447%)" offset="0.21875"/><stop stop-opacity="1" stop-color="rgb(83.828735%, 69.142151%, 34.625244%)" offset="0.222656"/><stop stop-opacity="1" stop-color="rgb(84.060669%, 69.444275%, 34.967041%)" offset="0.226562"/><stop stop-opacity="1" stop-color="rgb(84.292603%, 69.746399%, 35.307312%)" offset="0.230469"/><stop stop-opacity="1" stop-color="rgb(84.524536%, 70.048523%, 35.649109%)" offset="0.234375"/><stop stop-opacity="1" stop-color="rgb(84.75647%, 70.350647%, 35.990906%)" offset="0.238281"/><stop stop-opacity="1" stop-color="rgb(84.989929%, 70.652771%, 36.332703%)" offset="0.242188"/><stop stop-opacity="1" stop-color="rgb(85.221863%, 70.954895%, 36.6745%)" offset="0.246094"/><stop stop-opacity="1" stop-color="rgb(85.453796%, 71.257019%, 37.016296%)" offset="0.25"/><stop stop-opacity="1" stop-color="rgb(85.68573%, 71.559143%, 37.358093%)" offset="0.253906"/><stop stop-opacity="1" stop-color="rgb(85.917664%, 71.862793%, 37.69989%)" offset="0.257812"/><stop stop-opacity="1" stop-color="rgb(86.149597%, 72.164917%, 38.041687%)" offset="0.261719"/><stop stop-opacity="1" stop-color="rgb(86.381531%, 72.467041%, 38.383484%)" offset="0.265625"/><stop stop-opacity="1" stop-color="rgb(86.613464%, 72.769165%, 38.725281%)" offset="0.269531"/><stop stop-opacity="1" stop-color="rgb(86.846924%, 73.071289%, 39.067078%)" offset="0.273438"/><stop stop-opacity="1" stop-color="rgb(87.078857%, 73.373413%, 39.408875%)" offset="0.277344"/><stop stop-opacity="1" stop-color="rgb(87.310791%, 73.675537%, 39.750671%)" offset="0.28125"/><stop stop-opacity="1" stop-color="rgb(87.542725%, 73.977661%, 40.092468%)" offset="0.285156"/><stop stop-opacity="1" stop-color="rgb(87.774658%, 74.279785%, 40.434265%)" offset="0.289062"/><stop stop-opacity="1" stop-color="rgb(88.006592%, 74.581909%, 40.776062%)" offset="0.292969"/><stop stop-opacity="1" stop-color="rgb(88.238525%, 74.885559%, 41.117859%)" offset="0.296875"/><stop stop-opacity="1" stop-color="rgb(88.470459%, 75.187683%, 41.459656%)" offset="0.300781"/><stop stop-opacity="1" stop-color="rgb(88.703918%, 75.489807%, 41.801453%)" offset="0.304688"/><stop stop-opacity="1" stop-color="rgb(88.935852%, 75.791931%, 42.141724%)" offset="0.308594"/><stop stop-opacity="1" stop-color="rgb(89.167786%, 76.094055%, 42.483521%)" offset="0.3125"/><stop stop-opacity="1" stop-color="rgb(89.399719%, 76.396179%, 42.825317%)" offset="0.316406"/><stop stop-opacity="1" stop-color="rgb(89.631653%, 76.698303%, 43.167114%)" offset="0.320312"/><stop stop-opacity="1" stop-color="rgb(89.863586%, 77.000427%, 43.508911%)" offset="0.324219"/><stop stop-opacity="1" stop-color="rgb(90.09552%, 77.302551%, 43.850708%)" offset="0.328125"/><stop stop-opacity="1" stop-color="rgb(90.327454%, 77.604675%, 44.192505%)" offset="0.332031"/><stop stop-opacity="1" stop-color="rgb(90.560913%, 77.908325%, 44.534302%)" offset="0.335938"/><stop stop-opacity="1" stop-color="rgb(90.792847%, 78.210449%, 44.876099%)" offset="0.339844"/><stop stop-opacity="1" stop-color="rgb(91.02478%, 78.512573%, 45.217896%)" offset="0.34375"/><stop stop-opacity="1" stop-color="rgb(91.256714%, 78.814697%, 45.559692%)" offset="0.347656"/><stop stop-opacity="1" stop-color="rgb(91.488647%, 79.116821%, 45.901489%)" offset="0.351562"/><stop stop-opacity="1" stop-color="rgb(91.720581%, 79.418945%, 46.243286%)" offset="0.355469"/><stop stop-opacity="1" stop-color="rgb(91.952515%, 79.721069%, 46.585083%)" offset="0.359375"/><stop stop-opacity="1" stop-color="rgb(92.184448%, 80.023193%, 46.92688%)" offset="0.363281"/><stop stop-opacity="1" stop-color="rgb(92.417908%, 80.326843%, 47.268677%)" offset="0.367187"/><stop stop-opacity="1" stop-color="rgb(92.649841%, 80.628967%, 47.610474%)" offset="0.371094"/><stop stop-opacity="1" stop-color="rgb(92.881775%, 80.931091%, 47.952271%)" offset="0.375"/><stop stop-opacity="1" stop-color="rgb(93.113708%, 81.233215%, 48.292542%)" offset="0.378906"/><stop stop-opacity="1" stop-color="rgb(93.345642%, 81.535339%, 48.634338%)" offset="0.382812"/><stop stop-opacity="1" stop-color="rgb(93.577576%, 81.837463%, 48.976135%)" offset="0.386719"/><stop stop-opacity="1" stop-color="rgb(93.809509%, 82.139587%, 49.317932%)" offset="0.390625"/><stop stop-opacity="1" stop-color="rgb(94.041443%, 82.441711%, 49.659729%)" offset="0.394531"/><stop stop-opacity="1" stop-color="rgb(94.274902%, 82.743835%, 50.001526%)" offset="0.398438"/><stop stop-opacity="1" stop-color="rgb(94.506836%, 83.045959%, 50.343323%)" offset="0.402344"/><stop stop-opacity="1" stop-color="rgb(94.73877%, 83.349609%, 50.68512%)" offset="0.40625"/><stop stop-opacity="1" stop-color="rgb(94.970703%, 83.651733%, 51.026917%)" offset="0.410156"/><stop stop-opacity="1" stop-color="rgb(95.202637%, 83.953857%, 51.368713%)" offset="0.414062"/><stop stop-opacity="1" stop-color="rgb(95.43457%, 84.255981%, 51.71051%)" offset="0.417969"/><stop stop-opacity="1" stop-color="rgb(95.66803%, 84.558105%, 52.052307%)" offset="0.421875"/><stop stop-opacity="1" stop-color="rgb(95.899963%, 84.860229%, 52.394104%)" offset="0.425781"/><stop stop-opacity="1" stop-color="rgb(96.131897%, 85.162354%, 52.735901%)" offset="0.429688"/><stop stop-opacity="1" stop-color="rgb(96.363831%, 85.464478%, 53.077698%)" offset="0.433594"/><stop stop-opacity="1" stop-color="rgb(96.595764%, 85.766602%, 53.419495%)" offset="0.4375"/><stop stop-opacity="1" stop-color="rgb(96.827698%, 86.068726%, 53.761292%)" offset="0.441406"/><stop stop-opacity="1" stop-color="rgb(97.059631%, 86.372375%, 54.103088%)" offset="0.445312"/><stop stop-opacity="1" stop-color="rgb(97.291565%, 86.6745%, 54.444885%)" offset="0.449219"/><stop stop-opacity="1" stop-color="rgb(97.525024%, 86.976624%, 54.786682%)" offset="0.453125"/><stop stop-opacity="1" stop-color="rgb(97.756958%, 87.278748%, 55.126953%)" offset="0.457031"/><stop stop-opacity="1" stop-color="rgb(97.988892%, 87.580872%, 55.46875%)" offset="0.460938"/><stop stop-opacity="1" stop-color="rgb(98.220825%, 87.882996%, 55.810547%)" offset="0.464844"/><stop stop-opacity="1" stop-color="rgb(98.452759%, 88.18512%, 56.152344%)" offset="0.46875"/><stop stop-opacity="1" stop-color="rgb(98.684692%, 88.487244%, 56.494141%)" offset="0.472656"/><stop stop-opacity="1" stop-color="rgb(98.916626%, 88.789368%, 56.835938%)" offset="0.476562"/><stop stop-opacity="1" stop-color="rgb(99.14856%, 89.091492%, 57.177734%)" offset="0.480469"/><stop stop-opacity="1" stop-color="rgb(99.382019%, 89.395142%, 57.519531%)" offset="0.484375"/><stop stop-opacity="1" stop-color="rgb(99.613953%, 89.697266%, 57.861328%)" offset="0.488281"/><stop stop-opacity="1" stop-color="rgb(99.845886%, 89.99939%, 58.203125%)" offset="0.492188"/><stop stop-opacity="1" stop-color="rgb(99.766541%, 89.897156%, 58.087158%)" offset="0.5"/><stop stop-opacity="1" stop-color="rgb(99.456787%, 89.492798%, 57.629395%)" offset="0.503906"/><stop stop-opacity="1" stop-color="rgb(99.224854%, 89.190674%, 57.289124%)" offset="0.507812"/><stop stop-opacity="1" stop-color="rgb(98.991394%, 88.887024%, 56.947327%)" offset="0.511719"/><stop stop-opacity="1" stop-color="rgb(98.75946%, 88.5849%, 56.60553%)" offset="0.515625"/><stop stop-opacity="1" stop-color="rgb(98.527527%, 88.282776%, 56.263733%)" offset="0.519531"/><stop stop-opacity="1" stop-color="rgb(98.295593%, 87.980652%, 55.921936%)" offset="0.523438"/><stop stop-opacity="1" stop-color="rgb(98.06366%, 87.678528%, 55.580139%)" offset="0.527344"/><stop stop-opacity="1" stop-color="rgb(97.831726%, 87.376404%, 55.238342%)" offset="0.53125"/><stop stop-opacity="1" stop-color="rgb(97.599792%, 87.07428%, 54.896545%)" offset="0.535156"/><stop stop-opacity="1" stop-color="rgb(97.367859%, 86.772156%, 54.554749%)" offset="0.539062"/><stop stop-opacity="1" stop-color="rgb(97.134399%, 86.470032%, 54.212952%)" offset="0.542969"/><stop stop-opacity="1" stop-color="rgb(96.902466%, 86.167908%, 53.871155%)" offset="0.546875"/><stop stop-opacity="1" stop-color="rgb(96.670532%, 85.864258%, 53.529358%)" offset="0.550781"/><stop stop-opacity="1" stop-color="rgb(96.438599%, 85.562134%, 53.187561%)" offset="0.554688"/><stop stop-opacity="1" stop-color="rgb(96.206665%, 85.26001%, 52.845764%)" offset="0.558594"/><stop stop-opacity="1" stop-color="rgb(95.974731%, 84.957886%, 52.503967%)" offset="0.5625"/><stop stop-opacity="1" stop-color="rgb(95.742798%, 84.655762%, 52.16217%)" offset="0.566406"/><stop stop-opacity="1" stop-color="rgb(95.510864%, 84.353638%, 51.820374%)" offset="0.570312"/><stop stop-opacity="1" stop-color="rgb(95.277405%, 84.051514%, 51.478577%)" offset="0.574219"/><stop stop-opacity="1" stop-color="rgb(95.045471%, 83.74939%, 51.138306%)" offset="0.578125"/><stop stop-opacity="1" stop-color="rgb(94.813538%, 83.447266%, 50.796509%)" offset="0.582031"/><stop stop-opacity="1" stop-color="rgb(94.581604%, 83.145142%, 50.454712%)" offset="0.585938"/><stop stop-opacity="1" stop-color="rgb(94.34967%, 82.841492%, 50.112915%)" offset="0.589844"/><stop stop-opacity="1" stop-color="rgb(94.117737%, 82.539368%, 49.771118%)" offset="0.59375"/><stop stop-opacity="1" stop-color="rgb(93.885803%, 82.237244%, 49.429321%)" offset="0.597656"/><stop stop-opacity="1" stop-color="rgb(93.65387%, 81.93512%, 49.087524%)" offset="0.601562"/><stop stop-opacity="1" stop-color="rgb(93.42041%, 81.632996%, 48.745728%)" offset="0.605469"/><stop stop-opacity="1" stop-color="rgb(93.188477%, 81.330872%, 48.403931%)" offset="0.609375"/><stop stop-opacity="1" stop-color="rgb(92.956543%, 81.028748%, 48.062134%)" offset="0.613281"/><stop stop-opacity="1" stop-color="rgb(92.724609%, 80.726624%, 47.720337%)" offset="0.617187"/><stop stop-opacity="1" stop-color="rgb(92.492676%, 80.4245%, 47.37854%)" offset="0.621094"/><stop stop-opacity="1" stop-color="rgb(92.260742%, 80.122375%, 47.036743%)" offset="0.625"/><stop stop-opacity="1" stop-color="rgb(92.028809%, 79.818726%, 46.694946%)" offset="0.628906"/><stop stop-opacity="1" stop-color="rgb(91.796875%, 79.516602%, 46.353149%)" offset="0.632812"/><stop stop-opacity="1" stop-color="rgb(91.563416%, 79.214478%, 46.011353%)" offset="0.636719"/><stop stop-opacity="1" stop-color="rgb(91.331482%, 78.912354%, 45.669556%)" offset="0.640625"/><stop stop-opacity="1" stop-color="rgb(91.099548%, 78.610229%, 45.327759%)" offset="0.644531"/><stop stop-opacity="1" stop-color="rgb(90.867615%, 78.308105%, 44.985962%)" offset="0.648438"/><stop stop-opacity="1" stop-color="rgb(90.635681%, 78.005981%, 44.644165%)" offset="0.652344"/><stop stop-opacity="1" stop-color="rgb(90.403748%, 77.703857%, 44.303894%)" offset="0.65625"/><stop stop-opacity="1" stop-color="rgb(90.170288%, 77.400208%, 43.962097%)" offset="0.660156"/><stop stop-opacity="1" stop-color="rgb(89.938354%, 77.098083%, 43.6203%)" offset="0.664062"/><stop stop-opacity="1" stop-color="rgb(89.706421%, 76.795959%, 43.278503%)" offset="0.667969"/><stop stop-opacity="1" stop-color="rgb(89.474487%, 76.493835%, 42.936707%)" offset="0.671875"/><stop stop-opacity="1" stop-color="rgb(89.242554%, 76.191711%, 42.59491%)" offset="0.675781"/><stop stop-opacity="1" stop-color="rgb(89.01062%, 75.889587%, 42.253113%)" offset="0.679687"/><stop stop-opacity="1" stop-color="rgb(88.778687%, 75.587463%, 41.911316%)" offset="0.683594"/><stop stop-opacity="1" stop-color="rgb(88.546753%, 75.285339%, 41.569519%)" offset="0.6875"/><stop stop-opacity="1" stop-color="rgb(88.313293%, 74.983215%, 41.227722%)" offset="0.691406"/><stop stop-opacity="1" stop-color="rgb(88.08136%, 74.681091%, 40.885925%)" offset="0.695312"/><stop stop-opacity="1" stop-color="rgb(87.849426%, 74.377441%, 40.544128%)" offset="0.699219"/><stop stop-opacity="1" stop-color="rgb(87.617493%, 74.075317%, 40.202332%)" offset="0.703125"/><stop stop-opacity="1" stop-color="rgb(87.385559%, 73.773193%, 39.860535%)" offset="0.707031"/><stop stop-opacity="1" stop-color="rgb(87.153625%, 73.471069%, 39.518738%)" offset="0.710938"/><stop stop-opacity="1" stop-color="rgb(86.921692%, 73.168945%, 39.176941%)" offset="0.714844"/><stop stop-opacity="1" stop-color="rgb(86.689758%, 72.866821%, 38.835144%)" offset="0.71875"/><stop stop-opacity="1" stop-color="rgb(86.456299%, 72.564697%, 38.493347%)" offset="0.722656"/><stop stop-opacity="1" stop-color="rgb(86.224365%, 72.262573%, 38.153076%)" offset="0.726562"/><stop stop-opacity="1" stop-color="rgb(85.992432%, 71.960449%, 37.811279%)" offset="0.730469"/><stop stop-opacity="1" stop-color="rgb(85.760498%, 71.658325%, 37.469482%)" offset="0.734375"/><stop stop-opacity="1" stop-color="rgb(85.528564%, 71.354675%, 37.127686%)" offset="0.738281"/><stop stop-opacity="1" stop-color="rgb(85.296631%, 71.052551%, 36.785889%)" offset="0.742188"/><stop stop-opacity="1" stop-color="rgb(85.064697%, 70.750427%, 36.444092%)" offset="0.746094"/><stop stop-opacity="1" stop-color="rgb(84.832764%, 70.448303%, 36.102295%)" offset="0.75"/><stop stop-opacity="1" stop-color="rgb(84.599304%, 70.146179%, 35.760498%)" offset="0.753906"/><stop stop-opacity="1" stop-color="rgb(84.367371%, 69.844055%, 35.418701%)" offset="0.757812"/><stop stop-opacity="1" stop-color="rgb(84.135437%, 69.541931%, 35.076904%)" offset="0.761719"/><stop stop-opacity="1" stop-color="rgb(83.903503%, 69.239807%, 34.735107%)" offset="0.765625"/><stop stop-opacity="1" stop-color="rgb(83.67157%, 68.937683%, 34.393311%)" offset="0.769531"/><stop stop-opacity="1" stop-color="rgb(83.439636%, 68.635559%, 34.051514%)" offset="0.773438"/><stop stop-opacity="1" stop-color="rgb(83.207703%, 68.331909%, 33.709717%)" offset="0.777344"/><stop stop-opacity="1" stop-color="rgb(82.975769%, 68.029785%, 33.36792%)" offset="0.78125"/><stop stop-opacity="1" stop-color="rgb(82.74231%, 67.727661%, 33.026123%)" offset="0.785156"/><stop stop-opacity="1" stop-color="rgb(82.510376%, 67.425537%, 32.684326%)" offset="0.789062"/><stop stop-opacity="1" stop-color="rgb(82.278442%, 67.123413%, 32.342529%)" offset="0.792969"/><stop stop-opacity="1" stop-color="rgb(82.046509%, 66.821289%, 32.000732%)" offset="0.796875"/><stop stop-opacity="1" stop-color="rgb(81.814575%, 66.519165%, 31.658936%)" offset="0.800781"/><stop stop-opacity="1" stop-color="rgb(81.582642%, 66.217041%, 31.318665%)" offset="0.804688"/><stop stop-opacity="1" stop-color="rgb(81.350708%, 65.914917%, 30.976868%)" offset="0.808594"/><stop stop-opacity="1" stop-color="rgb(81.118774%, 65.612793%, 30.635071%)" offset="0.8125"/><stop stop-opacity="1" stop-color="rgb(80.885315%, 65.309143%, 30.293274%)" offset="0.816406"/><stop stop-opacity="1" stop-color="rgb(80.653381%, 65.007019%, 29.951477%)" offset="0.820312"/><stop stop-opacity="1" stop-color="rgb(80.421448%, 64.704895%, 29.60968%)" offset="0.824219"/><stop stop-opacity="1" stop-color="rgb(80.189514%, 64.402771%, 29.267883%)" offset="0.828125"/><stop stop-opacity="1" stop-color="rgb(79.957581%, 64.100647%, 28.926086%)" offset="0.832031"/><stop stop-opacity="1" stop-color="rgb(79.725647%, 63.798523%, 28.58429%)" offset="0.835937"/><stop stop-opacity="1" stop-color="rgb(79.493713%, 63.496399%, 28.242493%)" offset="0.839844"/><stop stop-opacity="1" stop-color="rgb(79.26178%, 63.194275%, 27.900696%)" offset="0.84375"/><stop stop-opacity="1" stop-color="rgb(79.240417%, 63.166809%, 27.870178%)" offset="0.875"/><stop stop-opacity="1" stop-color="rgb(79.219055%, 63.139343%, 27.839661%)" offset="1"/></linearGradient><clipPath id="2eb1086839"><path d="M 168 130 L 237 130 L 237 199 L 168 199 Z M 168 130 " clip-rule="nonzero"/></clipPath><clipPath id="26b463e2cc"><path d="M 236.027344 164.867188 C 236.027344 165.976562 235.972656 167.082031 235.863281 168.1875 C 235.753906 169.292969 235.59375 170.390625 235.375 171.476562 C 235.15625 172.566406 234.886719 173.640625 234.566406 174.703125 C 234.242188 175.765625 233.867188 176.808594 233.441406 177.835938 C 233.015625 178.859375 232.539062 179.863281 232.015625 180.839844 C 231.492188 181.820312 230.921875 182.769531 230.300781 183.695312 C 229.683594 184.617188 229.023438 185.507812 228.316406 186.363281 C 227.609375 187.222656 226.863281 188.042969 226.078125 188.828125 C 225.289062 189.613281 224.464844 190.359375 223.605469 191.0625 C 222.746094 191.765625 221.851562 192.425781 220.929688 193.042969 C 220.003906 193.660156 219.050781 194.230469 218.066406 194.753906 C 217.085938 195.277344 216.082031 195.75 215.054688 196.175781 C 214.027344 196.597656 212.980469 196.972656 211.914062 197.296875 C 210.851562 197.617188 209.773438 197.886719 208.679688 198.101562 C 207.589844 198.320312 206.488281 198.484375 205.382812 198.589844 C 204.273438 198.699219 203.164062 198.753906 202.050781 198.753906 C 200.941406 198.753906 199.828125 198.699219 198.722656 198.589844 C 197.613281 198.484375 196.515625 198.320312 195.425781 198.101562 C 194.332031 197.886719 193.253906 197.617188 192.191406 197.296875 C 191.125 196.972656 190.078125 196.597656 189.050781 196.175781 C 188.023438 195.75 187.019531 195.277344 186.035156 194.753906 C 185.054688 194.230469 184.101562 193.660156 183.175781 193.042969 C 182.25 192.425781 181.359375 191.765625 180.5 191.0625 C 179.640625 190.359375 178.816406 189.613281 178.027344 188.828125 C 177.242188 188.042969 176.496094 187.222656 175.789062 186.363281 C 175.082031 185.507812 174.421875 184.617188 173.804688 183.695312 C 173.183594 182.769531 172.613281 181.820312 172.089844 180.839844 C 171.566406 179.863281 171.089844 178.859375 170.664062 177.835938 C 170.238281 176.808594 169.863281 175.765625 169.539062 174.703125 C 169.21875 173.640625 168.949219 172.566406 168.730469 171.476562 C 168.511719 170.390625 168.351562 169.292969 168.242188 168.1875 C 168.132812 167.082031 168.078125 165.976562 168.078125 164.867188 C 168.078125 163.757812 168.132812 162.648438 168.242188 161.542969 C 168.351562 160.441406 168.511719 159.34375 168.730469 158.253906 C 168.949219 157.167969 169.21875 156.089844 169.539062 155.027344 C 169.863281 153.96875 170.238281 152.921875 170.664062 151.898438 C 171.089844 150.871094 171.566406 149.871094 172.089844 148.890625 C 172.613281 147.914062 173.183594 146.960938 173.804688 146.039062 C 174.421875 145.117188 175.082031 144.226562 175.789062 143.367188 C 176.496094 142.511719 177.242188 141.6875 178.027344 140.902344 C 178.816406 140.121094 179.640625 139.375 180.5 138.671875 C 181.359375 137.964844 182.25 137.304688 183.175781 136.691406 C 184.101562 136.074219 185.054688 135.503906 186.035156 134.980469 C 187.019531 134.457031 188.023438 133.984375 189.050781 133.558594 C 190.078125 133.132812 191.125 132.761719 192.191406 132.4375 C 193.253906 132.117188 194.332031 131.847656 195.425781 131.628906 C 196.515625 131.414062 197.613281 131.25 198.722656 131.140625 C 199.828125 131.03125 200.941406 130.976562 202.050781 130.976562 C 203.164062 130.976562 204.273438 131.03125 205.382812 131.140625 C 206.488281 131.25 207.589844 131.414062 208.679688 131.628906 C 209.773438 131.847656 210.851562 132.117188 211.914062 132.4375 C 212.980469 132.761719 214.027344 133.132812 215.054688 133.558594 C 216.082031 133.984375 217.085938 134.457031 218.066406 134.980469 C 219.050781 135.503906 220.003906 136.074219 220.929688 136.691406 C 221.851562 137.304688 222.746094 137.964844 223.605469 138.671875 C 224.464844 139.375 225.289062 140.121094 226.078125 140.902344 C 226.863281 141.6875 227.609375 142.511719 228.316406 143.367188 C 229.023438 144.226562 229.683594 145.117188 230.300781 146.039062 C 230.921875 146.960938 231.492188 147.914062 232.015625 148.890625 C 232.539062 149.871094 233.015625 150.871094 233.441406 151.898438 C 233.867188 152.921875 234.242188 153.96875 234.566406 155.027344 C 234.886719 156.089844 235.15625 157.167969 235.375 158.253906 C 235.59375 159.34375 235.753906 160.441406 235.863281 161.542969 C 235.972656 162.648438 236.027344 163.757812 236.027344 164.867188 Z M 236.027344 164.867188 " clip-rule="nonzero"/></clipPath><linearGradient x1="-0.07185" gradientTransform="matrix(59.153506, -0.000000000000047352, 0.000000000000047474, 59.001754, 172.32755, 164.866406)" y1="0" x2="1.076862" gradientUnits="userSpaceOnUse" y2="0" id="ed76e330ce"><stop stop-opacity="1" stop-color="rgb(79.219055%, 63.139343%, 27.839661%)" offset="0"/><stop stop-opacity="1" stop-color="rgb(79.219055%, 63.139343%, 27.839661%)" offset="0.0625"/><stop stop-opacity="1" stop-color="rgb(79.403687%, 63.380432%, 28.111267%)" offset="0.0664062"/><stop stop-opacity="1" stop-color="rgb(79.589844%, 63.621521%, 28.384399%)" offset="0.0703125"/><stop stop-opacity="1" stop-color="rgb(79.776001%, 63.864136%, 28.659058%)" offset="0.0742188"/><stop stop-opacity="1" stop-color="rgb(79.962158%, 64.108276%, 28.933716%)" offset="0.078125"/><stop stop-opacity="1" stop-color="rgb(80.148315%, 64.350891%, 29.208374%)" offset="0.0820312"/><stop stop-opacity="1" stop-color="rgb(80.335999%, 64.593506%, 29.483032%)" offset="0.0859375"/><stop stop-opacity="1" stop-color="rgb(80.522156%, 64.836121%, 29.75769%)" offset="0.0898438"/><stop stop-opacity="1" stop-color="rgb(80.708313%, 65.078735%, 30.032349%)" offset="0.09375"/><stop stop-opacity="1" stop-color="rgb(80.89447%, 65.32135%, 30.307007%)" offset="0.0976562"/><stop stop-opacity="1" stop-color="rgb(81.082153%, 65.563965%, 30.581665%)" offset="0.101562"/><stop stop-opacity="1" stop-color="rgb(81.268311%, 65.80658%, 30.854797%)" offset="0.105469"/><stop stop-opacity="1" stop-color="rgb(81.454468%, 66.05072%, 31.129456%)" offset="0.109375"/><stop stop-opacity="1" stop-color="rgb(81.640625%, 66.293335%, 31.404114%)" offset="0.113281"/><stop stop-opacity="1" stop-color="rgb(81.828308%, 66.53595%, 31.678772%)" offset="0.117187"/><stop stop-opacity="1" stop-color="rgb(82.014465%, 66.778564%, 31.95343%)" offset="0.121094"/><stop stop-opacity="1" stop-color="rgb(82.200623%, 67.021179%, 32.228088%)" offset="0.125"/><stop stop-opacity="1" stop-color="rgb(82.38678%, 67.263794%, 32.502747%)" offset="0.128906"/><stop stop-opacity="1" stop-color="rgb(82.572937%, 67.507935%, 32.777405%)" offset="0.132813"/><stop stop-opacity="1" stop-color="rgb(82.759094%, 67.750549%, 33.052063%)" offset="0.136719"/><stop stop-opacity="1" stop-color="rgb(82.946777%, 67.993164%, 33.326721%)" offset="0.140625"/><stop stop-opacity="1" stop-color="rgb(83.132935%, 68.235779%, 33.601379%)" offset="0.144531"/><stop stop-opacity="1" stop-color="rgb(83.319092%, 68.478394%, 33.876038%)" offset="0.148438"/><stop stop-opacity="1" stop-color="rgb(83.505249%, 68.721008%, 34.14917%)" offset="0.152344"/><stop stop-opacity="1" stop-color="rgb(83.692932%, 68.965149%, 34.423828%)" offset="0.15625"/><stop stop-opacity="1" stop-color="rgb(83.879089%, 69.207764%, 34.698486%)" offset="0.160156"/><stop stop-opacity="1" stop-color="rgb(84.065247%, 69.450378%, 34.973145%)" offset="0.164062"/><stop stop-opacity="1" stop-color="rgb(84.251404%, 69.692993%, 35.247803%)" offset="0.167969"/><stop stop-opacity="1" stop-color="rgb(84.439087%, 69.935608%, 35.522461%)" offset="0.171875"/><stop stop-opacity="1" stop-color="rgb(84.625244%, 70.178223%, 35.797119%)" offset="0.175781"/><stop stop-opacity="1" stop-color="rgb(84.811401%, 70.420837%, 36.071777%)" offset="0.179688"/><stop stop-opacity="1" stop-color="rgb(84.997559%, 70.663452%, 36.346436%)" offset="0.183594"/><stop stop-opacity="1" stop-color="rgb(85.185242%, 70.907593%, 36.621094%)" offset="0.1875"/><stop stop-opacity="1" stop-color="rgb(85.371399%, 71.150208%, 36.895752%)" offset="0.191406"/><stop stop-opacity="1" stop-color="rgb(85.557556%, 71.392822%, 37.17041%)" offset="0.195312"/><stop stop-opacity="1" stop-color="rgb(85.743713%, 71.635437%, 37.443542%)" offset="0.199219"/><stop stop-opacity="1" stop-color="rgb(85.929871%, 71.878052%, 37.718201%)" offset="0.203125"/><stop stop-opacity="1" stop-color="rgb(86.116028%, 72.120667%, 37.992859%)" offset="0.207031"/><stop stop-opacity="1" stop-color="rgb(86.303711%, 72.364807%, 38.267517%)" offset="0.210938"/><stop stop-opacity="1" stop-color="rgb(86.489868%, 72.607422%, 38.542175%)" offset="0.214844"/><stop stop-opacity="1" stop-color="rgb(86.676025%, 72.850037%, 38.816833%)" offset="0.21875"/><stop stop-opacity="1" stop-color="rgb(86.862183%, 73.092651%, 39.091492%)" offset="0.222656"/><stop stop-opacity="1" stop-color="rgb(87.049866%, 73.335266%, 39.36615%)" offset="0.226562"/><stop stop-opacity="1" stop-color="rgb(87.236023%, 73.577881%, 39.640808%)" offset="0.230469"/><stop stop-opacity="1" stop-color="rgb(87.42218%, 73.822021%, 39.915466%)" offset="0.234375"/><stop stop-opacity="1" stop-color="rgb(87.608337%, 74.064636%, 40.188599%)" offset="0.238281"/><stop stop-opacity="1" stop-color="rgb(87.796021%, 74.307251%, 40.463257%)" offset="0.242187"/><stop stop-opacity="1" stop-color="rgb(87.982178%, 74.549866%, 40.737915%)" offset="0.246094"/><stop stop-opacity="1" stop-color="rgb(88.168335%, 74.79248%, 41.012573%)" offset="0.25"/><stop stop-opacity="1" stop-color="rgb(88.354492%, 75.035095%, 41.287231%)" offset="0.253906"/><stop stop-opacity="1" stop-color="rgb(88.540649%, 75.279236%, 41.56189%)" offset="0.257812"/><stop stop-opacity="1" stop-color="rgb(88.726807%, 75.521851%, 41.836548%)" offset="0.261719"/><stop stop-opacity="1" stop-color="rgb(88.91449%, 75.764465%, 42.111206%)" offset="0.265625"/><stop stop-opacity="1" stop-color="rgb(89.100647%, 76.00708%, 42.385864%)" offset="0.269531"/><stop stop-opacity="1" stop-color="rgb(89.286804%, 76.249695%, 42.660522%)" offset="0.273438"/><stop stop-opacity="1" stop-color="rgb(89.472961%, 76.49231%, 42.935181%)" offset="0.277344"/><stop stop-opacity="1" stop-color="rgb(89.660645%, 76.734924%, 43.209839%)" offset="0.28125"/><stop stop-opacity="1" stop-color="rgb(89.846802%, 76.977539%, 43.482971%)" offset="0.285156"/><stop stop-opacity="1" stop-color="rgb(90.032959%, 77.22168%, 43.757629%)" offset="0.289062"/><stop stop-opacity="1" stop-color="rgb(90.219116%, 77.464294%, 44.032288%)" offset="0.292969"/><stop stop-opacity="1" stop-color="rgb(90.406799%, 77.706909%, 44.306946%)" offset="0.296875"/><stop stop-opacity="1" stop-color="rgb(90.592957%, 77.949524%, 44.581604%)" offset="0.300781"/><stop stop-opacity="1" stop-color="rgb(90.779114%, 78.192139%, 44.856262%)" offset="0.304688"/><stop stop-opacity="1" stop-color="rgb(90.965271%, 78.434753%, 45.13092%)" offset="0.308594"/><stop stop-opacity="1" stop-color="rgb(91.151428%, 78.678894%, 45.405579%)" offset="0.3125"/><stop stop-opacity="1" stop-color="rgb(91.337585%, 78.921509%, 45.680237%)" offset="0.316406"/><stop stop-opacity="1" stop-color="rgb(91.525269%, 79.164124%, 45.954895%)" offset="0.320312"/><stop stop-opacity="1" stop-color="rgb(91.711426%, 79.406738%, 46.229553%)" offset="0.324219"/><stop stop-opacity="1" stop-color="rgb(91.897583%, 79.649353%, 46.504211%)" offset="0.328125"/><stop stop-opacity="1" stop-color="rgb(92.08374%, 79.891968%, 46.777344%)" offset="0.332031"/><stop stop-opacity="1" stop-color="rgb(92.271423%, 80.136108%, 47.052002%)" offset="0.335938"/><stop stop-opacity="1" stop-color="rgb(92.457581%, 80.378723%, 47.32666%)" offset="0.339844"/><stop stop-opacity="1" stop-color="rgb(92.643738%, 80.621338%, 47.601318%)" offset="0.34375"/><stop stop-opacity="1" stop-color="rgb(92.829895%, 80.863953%, 47.875977%)" offset="0.347656"/><stop stop-opacity="1" stop-color="rgb(93.017578%, 81.106567%, 48.150635%)" offset="0.351562"/><stop stop-opacity="1" stop-color="rgb(93.203735%, 81.349182%, 48.425293%)" offset="0.355469"/><stop stop-opacity="1" stop-color="rgb(93.389893%, 81.591797%, 48.699951%)" offset="0.359375"/><stop stop-opacity="1" stop-color="rgb(93.57605%, 81.834412%, 48.974609%)" offset="0.363281"/><stop stop-opacity="1" stop-color="rgb(93.762207%, 82.078552%, 49.249268%)" offset="0.367188"/><stop stop-opacity="1" stop-color="rgb(93.948364%, 82.321167%, 49.5224%)" offset="0.371094"/><stop stop-opacity="1" stop-color="rgb(94.136047%, 82.563782%, 49.797058%)" offset="0.375"/><stop stop-opacity="1" stop-color="rgb(94.322205%, 82.806396%, 50.071716%)" offset="0.378906"/><stop stop-opacity="1" stop-color="rgb(94.508362%, 83.049011%, 50.346375%)" offset="0.382812"/><stop stop-opacity="1" stop-color="rgb(94.694519%, 83.291626%, 50.621033%)" offset="0.386719"/><stop stop-opacity="1" stop-color="rgb(94.882202%, 83.535767%, 50.895691%)" offset="0.390625"/><stop stop-opacity="1" stop-color="rgb(95.068359%, 83.778381%, 51.170349%)" offset="0.394531"/><stop stop-opacity="1" stop-color="rgb(95.254517%, 84.020996%, 51.445007%)" offset="0.398438"/><stop stop-opacity="1" stop-color="rgb(95.440674%, 84.263611%, 51.719666%)" offset="0.402344"/><stop stop-opacity="1" stop-color="rgb(95.628357%, 84.506226%, 51.994324%)" offset="0.40625"/><stop stop-opacity="1" stop-color="rgb(95.814514%, 84.74884%, 52.268982%)" offset="0.410156"/><stop stop-opacity="1" stop-color="rgb(96.000671%, 84.992981%, 52.54364%)" offset="0.414062"/><stop stop-opacity="1" stop-color="rgb(96.186829%, 85.235596%, 52.816772%)" offset="0.417969"/><stop stop-opacity="1" stop-color="rgb(96.372986%, 85.47821%, 53.091431%)" offset="0.421875"/><stop stop-opacity="1" stop-color="rgb(96.559143%, 85.720825%, 53.366089%)" offset="0.425781"/><stop stop-opacity="1" stop-color="rgb(96.746826%, 85.96344%, 53.640747%)" offset="0.429688"/><stop stop-opacity="1" stop-color="rgb(96.932983%, 86.206055%, 53.915405%)" offset="0.433594"/><stop stop-opacity="1" stop-color="rgb(97.119141%, 86.448669%, 54.190063%)" offset="0.4375"/><stop stop-opacity="1" stop-color="rgb(97.305298%, 86.691284%, 54.464722%)" offset="0.441406"/><stop stop-opacity="1" stop-color="rgb(97.492981%, 86.935425%, 54.73938%)" offset="0.445312"/><stop stop-opacity="1" stop-color="rgb(97.679138%, 87.17804%, 55.014038%)" offset="0.449219"/><stop stop-opacity="1" stop-color="rgb(97.865295%, 87.420654%, 55.288696%)" offset="0.453125"/><stop stop-opacity="1" stop-color="rgb(98.051453%, 87.663269%, 55.563354%)" offset="0.457031"/><stop stop-opacity="1" stop-color="rgb(98.239136%, 87.905884%, 55.838013%)" offset="0.460938"/><stop stop-opacity="1" stop-color="rgb(98.425293%, 88.148499%, 56.111145%)" offset="0.464844"/><stop stop-opacity="1" stop-color="rgb(98.61145%, 88.392639%, 56.385803%)" offset="0.46875"/><stop stop-opacity="1" stop-color="rgb(98.797607%, 88.635254%, 56.660461%)" offset="0.472656"/><stop stop-opacity="1" stop-color="rgb(98.983765%, 88.877869%, 56.93512%)" offset="0.476562"/><stop stop-opacity="1" stop-color="rgb(99.169922%, 89.120483%, 57.209778%)" offset="0.480469"/><stop stop-opacity="1" stop-color="rgb(99.357605%, 89.363098%, 57.484436%)" offset="0.484375"/><stop stop-opacity="1" stop-color="rgb(99.543762%, 89.605713%, 57.759094%)" offset="0.488281"/><stop stop-opacity="1" stop-color="rgb(99.729919%, 89.849854%, 58.033752%)" offset="0.492187"/><stop stop-opacity="1" stop-color="rgb(99.812317%, 89.956665%, 58.154297%)" offset="0.5"/><stop stop-opacity="1" stop-color="rgb(99.708557%, 89.820862%, 58.001709%)" offset="0.503906"/><stop stop-opacity="1" stop-color="rgb(99.5224%, 89.578247%, 57.727051%)" offset="0.507813"/><stop stop-opacity="1" stop-color="rgb(99.334717%, 89.334106%, 57.452393%)" offset="0.511719"/><stop stop-opacity="1" stop-color="rgb(99.14856%, 89.091492%, 57.177734%)" offset="0.515625"/><stop stop-opacity="1" stop-color="rgb(98.962402%, 88.848877%, 56.903076%)" offset="0.519531"/><stop stop-opacity="1" stop-color="rgb(98.776245%, 88.606262%, 56.628418%)" offset="0.523438"/><stop stop-opacity="1" stop-color="rgb(98.590088%, 88.363647%, 56.35376%)" offset="0.527344"/><stop stop-opacity="1" stop-color="rgb(98.403931%, 88.121033%, 56.079102%)" offset="0.53125"/><stop stop-opacity="1" stop-color="rgb(98.216248%, 87.878418%, 55.804443%)" offset="0.535156"/><stop stop-opacity="1" stop-color="rgb(98.03009%, 87.635803%, 55.531311%)" offset="0.539062"/><stop stop-opacity="1" stop-color="rgb(97.843933%, 87.391663%, 55.256653%)" offset="0.542969"/><stop stop-opacity="1" stop-color="rgb(97.657776%, 87.149048%, 54.981995%)" offset="0.546875"/><stop stop-opacity="1" stop-color="rgb(97.470093%, 86.906433%, 54.707336%)" offset="0.550781"/><stop stop-opacity="1" stop-color="rgb(97.283936%, 86.663818%, 54.432678%)" offset="0.554688"/><stop stop-opacity="1" stop-color="rgb(97.097778%, 86.421204%, 54.15802%)" offset="0.558594"/><stop stop-opacity="1" stop-color="rgb(96.911621%, 86.178589%, 53.883362%)" offset="0.5625"/><stop stop-opacity="1" stop-color="rgb(96.723938%, 85.934448%, 53.608704%)" offset="0.566406"/><stop stop-opacity="1" stop-color="rgb(96.537781%, 85.691833%, 53.334045%)" offset="0.570312"/><stop stop-opacity="1" stop-color="rgb(96.351624%, 85.449219%, 53.059387%)" offset="0.574219"/><stop stop-opacity="1" stop-color="rgb(96.165466%, 85.206604%, 52.784729%)" offset="0.578125"/><stop stop-opacity="1" stop-color="rgb(95.979309%, 84.963989%, 52.510071%)" offset="0.582031"/><stop stop-opacity="1" stop-color="rgb(95.793152%, 84.721375%, 52.236938%)" offset="0.585938"/><stop stop-opacity="1" stop-color="rgb(95.605469%, 84.477234%, 51.96228%)" offset="0.589844"/><stop stop-opacity="1" stop-color="rgb(95.419312%, 84.234619%, 51.687622%)" offset="0.59375"/><stop stop-opacity="1" stop-color="rgb(95.233154%, 83.992004%, 51.412964%)" offset="0.597656"/><stop stop-opacity="1" stop-color="rgb(95.046997%, 83.74939%, 51.138306%)" offset="0.601562"/><stop stop-opacity="1" stop-color="rgb(94.859314%, 83.506775%, 50.863647%)" offset="0.605469"/><stop stop-opacity="1" stop-color="rgb(94.673157%, 83.26416%, 50.588989%)" offset="0.609375"/><stop stop-opacity="1" stop-color="rgb(94.487%, 83.021545%, 50.314331%)" offset="0.613281"/><stop stop-opacity="1" stop-color="rgb(94.300842%, 82.778931%, 50.039673%)" offset="0.617188"/><stop stop-opacity="1" stop-color="rgb(94.113159%, 82.53479%, 49.765015%)" offset="0.621094"/><stop stop-opacity="1" stop-color="rgb(93.927002%, 82.292175%, 49.491882%)" offset="0.625"/><stop stop-opacity="1" stop-color="rgb(93.740845%, 82.049561%, 49.217224%)" offset="0.628906"/><stop stop-opacity="1" stop-color="rgb(93.554688%, 81.806946%, 48.942566%)" offset="0.632812"/><stop stop-opacity="1" stop-color="rgb(93.367004%, 81.564331%, 48.667908%)" offset="0.636719"/><stop stop-opacity="1" stop-color="rgb(93.180847%, 81.321716%, 48.39325%)" offset="0.640625"/><stop stop-opacity="1" stop-color="rgb(92.99469%, 81.077576%, 48.118591%)" offset="0.644531"/><stop stop-opacity="1" stop-color="rgb(92.808533%, 80.834961%, 47.843933%)" offset="0.648438"/><stop stop-opacity="1" stop-color="rgb(92.622375%, 80.592346%, 47.569275%)" offset="0.652344"/><stop stop-opacity="1" stop-color="rgb(92.436218%, 80.349731%, 47.294617%)" offset="0.65625"/><stop stop-opacity="1" stop-color="rgb(92.248535%, 80.107117%, 47.019958%)" offset="0.660156"/><stop stop-opacity="1" stop-color="rgb(92.062378%, 79.864502%, 46.7453%)" offset="0.664062"/><stop stop-opacity="1" stop-color="rgb(91.876221%, 79.620361%, 46.470642%)" offset="0.667969"/><stop stop-opacity="1" stop-color="rgb(91.690063%, 79.377747%, 46.19751%)" offset="0.671875"/><stop stop-opacity="1" stop-color="rgb(91.50238%, 79.135132%, 45.922852%)" offset="0.675781"/><stop stop-opacity="1" stop-color="rgb(91.316223%, 78.892517%, 45.648193%)" offset="0.679688"/><stop stop-opacity="1" stop-color="rgb(91.130066%, 78.649902%, 45.373535%)" offset="0.683594"/><stop stop-opacity="1" stop-color="rgb(90.943909%, 78.407288%, 45.098877%)" offset="0.6875"/><stop stop-opacity="1" stop-color="rgb(90.756226%, 78.164673%, 44.824219%)" offset="0.691406"/><stop stop-opacity="1" stop-color="rgb(90.570068%, 77.922058%, 44.549561%)" offset="0.695312"/><stop stop-opacity="1" stop-color="rgb(90.383911%, 77.677917%, 44.274902%)" offset="0.699219"/><stop stop-opacity="1" stop-color="rgb(90.197754%, 77.435303%, 44.000244%)" offset="0.703125"/><stop stop-opacity="1" stop-color="rgb(90.011597%, 77.192688%, 43.725586%)" offset="0.707031"/><stop stop-opacity="1" stop-color="rgb(89.825439%, 76.950073%, 43.450928%)" offset="0.710938"/><stop stop-opacity="1" stop-color="rgb(89.637756%, 76.707458%, 43.17627%)" offset="0.714844"/><stop stop-opacity="1" stop-color="rgb(89.451599%, 76.464844%, 42.903137%)" offset="0.71875"/><stop stop-opacity="1" stop-color="rgb(89.265442%, 76.220703%, 42.628479%)" offset="0.722656"/><stop stop-opacity="1" stop-color="rgb(89.079285%, 75.978088%, 42.353821%)" offset="0.726562"/><stop stop-opacity="1" stop-color="rgb(88.891602%, 75.735474%, 42.079163%)" offset="0.730469"/><stop stop-opacity="1" stop-color="rgb(88.705444%, 75.492859%, 41.804504%)" offset="0.734375"/><stop stop-opacity="1" stop-color="rgb(88.519287%, 75.250244%, 41.529846%)" offset="0.738281"/><stop stop-opacity="1" stop-color="rgb(88.33313%, 75.007629%, 41.255188%)" offset="0.742188"/><stop stop-opacity="1" stop-color="rgb(88.145447%, 74.763489%, 40.98053%)" offset="0.746094"/><stop stop-opacity="1" stop-color="rgb(87.95929%, 74.520874%, 40.705872%)" offset="0.75"/><stop stop-opacity="1" stop-color="rgb(87.773132%, 74.278259%, 40.431213%)" offset="0.753906"/><stop stop-opacity="1" stop-color="rgb(87.586975%, 74.035645%, 40.158081%)" offset="0.757812"/><stop stop-opacity="1" stop-color="rgb(87.400818%, 73.79303%, 39.883423%)" offset="0.761719"/><stop stop-opacity="1" stop-color="rgb(87.214661%, 73.550415%, 39.608765%)" offset="0.765625"/><stop stop-opacity="1" stop-color="rgb(87.026978%, 73.3078%, 39.334106%)" offset="0.769531"/><stop stop-opacity="1" stop-color="rgb(86.84082%, 73.065186%, 39.059448%)" offset="0.773438"/><stop stop-opacity="1" stop-color="rgb(86.654663%, 72.821045%, 38.78479%)" offset="0.777344"/><stop stop-opacity="1" stop-color="rgb(86.468506%, 72.57843%, 38.510132%)" offset="0.78125"/><stop stop-opacity="1" stop-color="rgb(86.280823%, 72.335815%, 38.235474%)" offset="0.785156"/><stop stop-opacity="1" stop-color="rgb(86.094666%, 72.093201%, 37.960815%)" offset="0.789062"/><stop stop-opacity="1" stop-color="rgb(85.908508%, 71.850586%, 37.686157%)" offset="0.792969"/><stop stop-opacity="1" stop-color="rgb(85.722351%, 71.607971%, 37.411499%)" offset="0.796875"/><stop stop-opacity="1" stop-color="rgb(85.534668%, 71.363831%, 37.136841%)" offset="0.800781"/><stop stop-opacity="1" stop-color="rgb(85.348511%, 71.121216%, 36.863708%)" offset="0.804688"/><stop stop-opacity="1" stop-color="rgb(85.162354%, 70.878601%, 36.58905%)" offset="0.808594"/><stop stop-opacity="1" stop-color="rgb(84.976196%, 70.635986%, 36.314392%)" offset="0.8125"/><stop stop-opacity="1" stop-color="rgb(84.790039%, 70.393372%, 36.039734%)" offset="0.816406"/><stop stop-opacity="1" stop-color="rgb(84.603882%, 70.150757%, 35.765076%)" offset="0.820312"/><stop stop-opacity="1" stop-color="rgb(84.416199%, 69.906616%, 35.490417%)" offset="0.824219"/><stop stop-opacity="1" stop-color="rgb(84.230042%, 69.664001%, 35.215759%)" offset="0.828125"/><stop stop-opacity="1" stop-color="rgb(84.043884%, 69.421387%, 34.941101%)" offset="0.832031"/><stop stop-opacity="1" stop-color="rgb(83.857727%, 69.178772%, 34.666443%)" offset="0.835938"/><stop stop-opacity="1" stop-color="rgb(83.670044%, 68.936157%, 34.391785%)" offset="0.839844"/><stop stop-opacity="1" stop-color="rgb(83.483887%, 68.693542%, 34.117126%)" offset="0.84375"/><stop stop-opacity="1" stop-color="rgb(83.297729%, 68.450928%, 33.842468%)" offset="0.847656"/><stop stop-opacity="1" stop-color="rgb(83.111572%, 68.208313%, 33.569336%)" offset="0.851562"/><stop stop-opacity="1" stop-color="rgb(82.923889%, 67.964172%, 33.294678%)" offset="0.855469"/><stop stop-opacity="1" stop-color="rgb(82.737732%, 67.721558%, 33.02002%)" offset="0.859375"/><stop stop-opacity="1" stop-color="rgb(82.551575%, 67.478943%, 32.745361%)" offset="0.863281"/><stop stop-opacity="1" stop-color="rgb(82.365417%, 67.236328%, 32.470703%)" offset="0.867188"/><stop stop-opacity="1" stop-color="rgb(82.17926%, 66.993713%, 32.196045%)" offset="0.871094"/><stop stop-opacity="1" stop-color="rgb(81.993103%, 66.751099%, 31.921387%)" offset="0.875"/><stop stop-opacity="1" stop-color="rgb(81.80542%, 66.506958%, 31.646729%)" offset="0.878906"/><stop stop-opacity="1" stop-color="rgb(81.619263%, 66.264343%, 31.37207%)" offset="0.882812"/><stop stop-opacity="1" stop-color="rgb(81.433105%, 66.021729%, 31.097412%)" offset="0.886719"/><stop stop-opacity="1" stop-color="rgb(81.246948%, 65.779114%, 30.822754%)" offset="0.890625"/><stop stop-opacity="1" stop-color="rgb(81.059265%, 65.536499%, 30.548096%)" offset="0.894531"/><stop stop-opacity="1" stop-color="rgb(80.873108%, 65.293884%, 30.274963%)" offset="0.898438"/><stop stop-opacity="1" stop-color="rgb(80.686951%, 65.049744%, 30.000305%)" offset="0.902344"/><stop stop-opacity="1" stop-color="rgb(80.500793%, 64.807129%, 29.725647%)" offset="0.90625"/><stop stop-opacity="1" stop-color="rgb(80.31311%, 64.564514%, 29.450989%)" offset="0.910156"/><stop stop-opacity="1" stop-color="rgb(80.126953%, 64.321899%, 29.176331%)" offset="0.914062"/><stop stop-opacity="1" stop-color="rgb(79.940796%, 64.079285%, 28.901672%)" offset="0.917969"/><stop stop-opacity="1" stop-color="rgb(79.754639%, 63.83667%, 28.627014%)" offset="0.921875"/><stop stop-opacity="1" stop-color="rgb(79.568481%, 63.594055%, 28.352356%)" offset="0.925781"/><stop stop-opacity="1" stop-color="rgb(79.382324%, 63.35144%, 28.077698%)" offset="0.929687"/><stop stop-opacity="1" stop-color="rgb(79.299927%, 63.244629%, 27.958679%)" offset="0.9375"/><stop stop-opacity="1" stop-color="rgb(79.219055%, 63.139343%, 27.839661%)" offset="1"/></linearGradient><clipPath id="ae43857018"><path d="M 31.28125 31.28125 L 344 31.28125 L 344 344 L 31.28125 344 Z M 31.28125 31.28125 " clip-rule="nonzero"/></clipPath></defs><path fill="#000000" d="M 140.421875 64.914062 C 132.003906 41.640625 106.289062 29.582031 83.011719 38.019531 C 59.734375 46.4375 47.703125 72.132812 56.117188 95.410156 C 57.132812 98.214844 58.414062 100.855469 59.898438 103.335938 C 60.832031 105.53125 61.890625 107.6875 63.070312 109.820312 L 145.96875 259.765625 C 150.117188 267.269531 158.738281 270.621094 166.199219 267.917969 C 173.660156 265.214844 178.128906 257.125 176.523438 248.707031 L 144.304688 80.425781 C 143.835938 78.027344 143.265625 75.6875 142.597656 73.414062 C 142.148438 70.566406 141.4375 67.71875 140.421875 64.914062 Z M 140.421875 64.914062 " fill-opacity="1" fill-rule="nonzero"/><path fill="#000000" d="M 201.601562 292.378906 C 202.25 293.027344 202.867188 293.710938 203.449219 294.417969 C 204.03125 295.128906 204.578125 295.867188 205.089844 296.628906 C 205.601562 297.394531 206.070312 298.179688 206.503906 298.992188 C 206.9375 299.800781 207.332031 300.632812 207.683594 301.480469 C 208.035156 302.328125 208.34375 303.195312 208.609375 304.074219 C 208.875 304.953125 209.101562 305.84375 209.277344 306.742188 C 209.457031 307.644531 209.59375 308.550781 209.683594 309.464844 C 209.773438 310.382812 209.816406 311.296875 209.816406 312.214844 C 209.816406 313.136719 209.773438 314.050781 209.683594 314.964844 C 209.59375 315.878906 209.457031 316.789062 209.277344 317.6875 C 209.101562 318.589844 208.875 319.480469 208.609375 320.359375 C 208.34375 321.238281 208.035156 322.101562 207.683594 322.953125 C 207.332031 323.800781 206.9375 324.628906 206.503906 325.441406 C 206.074219 326.25 205.601562 327.039062 205.089844 327.800781 C 204.578125 328.566406 204.035156 329.304688 203.449219 330.011719 C 202.867188 330.722656 202.25 331.402344 201.601562 332.054688 C 200.953125 332.703125 200.273438 333.320312 199.5625 333.902344 C 198.851562 334.484375 198.113281 335.03125 197.351562 335.542969 C 196.585938 336.050781 195.800781 336.523438 194.988281 336.957031 C 194.179688 337.390625 193.347656 337.78125 192.5 338.136719 C 191.652344 338.488281 190.789062 338.796875 189.910156 339.0625 C 189.027344 339.328125 188.140625 339.550781 187.238281 339.730469 C 186.335938 339.910156 185.429688 340.046875 184.515625 340.136719 C 183.601562 340.226562 182.683594 340.269531 181.765625 340.269531 C 180.847656 340.269531 179.929688 340.226562 179.015625 340.136719 C 178.101562 340.046875 177.191406 339.910156 176.292969 339.730469 C 175.390625 339.550781 174.5 339.328125 173.621094 339.0625 C 172.742188 338.796875 171.878906 338.488281 171.027344 338.136719 C 170.179688 337.785156 169.351562 337.390625 168.539062 336.957031 C 167.730469 336.523438 166.941406 336.054688 166.179688 335.542969 C 165.414062 335.03125 164.679688 334.484375 163.96875 333.902344 C 163.257812 333.320312 162.578125 332.703125 161.929688 332.054688 C 161.277344 331.40625 160.660156 330.722656 160.078125 330.015625 C 159.496094 329.304688 158.949219 328.566406 158.4375 327.804688 C 157.929688 327.039062 157.457031 326.25 157.023438 325.441406 C 156.589844 324.632812 156.199219 323.800781 155.847656 322.953125 C 155.496094 322.105469 155.183594 321.238281 154.917969 320.359375 C 154.652344 319.480469 154.429688 318.589844 154.25 317.691406 C 154.070312 316.789062 153.9375 315.882812 153.847656 314.96875 C 153.753906 314.050781 153.710938 313.136719 153.710938 312.21875 C 153.710938 311.296875 153.753906 310.382812 153.847656 309.46875 C 153.9375 308.554688 154.070312 307.644531 154.25 306.746094 C 154.429688 305.84375 154.652344 304.953125 154.917969 304.074219 C 155.183594 303.195312 155.496094 302.332031 155.847656 301.480469 C 156.199219 300.632812 156.589844 299.804688 157.023438 298.992188 C 157.457031 298.183594 157.929688 297.394531 158.4375 296.632812 C 158.949219 295.867188 159.496094 295.128906 160.078125 294.421875 C 160.660156 293.710938 161.277344 293.03125 161.925781 292.378906 C 162.578125 291.730469 163.257812 291.113281 163.96875 290.53125 C 164.675781 289.949219 165.414062 289.402344 166.179688 288.890625 C 166.941406 288.378906 167.730469 287.910156 168.539062 287.476562 C 169.351562 287.042969 170.179688 286.648438 171.027344 286.296875 C 171.878906 285.945312 172.742188 285.636719 173.621094 285.371094 C 174.5 285.105469 175.390625 284.882812 176.289062 284.703125 C 177.191406 284.523438 178.101562 284.386719 179.015625 284.296875 C 179.929688 284.207031 180.84375 284.164062 181.765625 284.164062 C 182.683594 284.164062 183.597656 284.207031 184.511719 284.296875 C 185.429688 284.386719 186.335938 284.523438 187.238281 284.703125 C 188.136719 284.882812 189.027344 285.105469 189.90625 285.371094 C 190.785156 285.636719 191.652344 285.945312 192.5 286.296875 C 193.347656 286.648438 194.179688 287.042969 194.988281 287.476562 C 195.796875 287.910156 196.585938 288.378906 197.351562 288.890625 C 198.113281 289.402344 198.851562 289.949219 199.5625 290.53125 C 200.269531 291.113281 200.953125 291.730469 201.601562 292.378906 Z M 201.601562 292.378906 " fill-opacity="1" fill-rule="nonzero"/><path fill="#000000" d="M 270.363281 83.882812 C 272.4375 68.898438 261.964844 55.074219 246.984375 53.023438 C 232 50.949219 218.179688 61.417969 216.125 76.402344 C 215.882812 78.210938 215.820312 80 215.921875 81.746094 C 215.800781 83.191406 215.757812 84.675781 215.800781 86.160156 L 217.996094 190.789062 C 218.097656 196.015625 221.816406 200.285156 226.613281 200.957031 C 231.414062 201.625 236.148438 198.515625 237.652344 193.515625 L 268.066406 93.375 C 268.492188 91.953125 268.859375 90.53125 269.144531 89.085938 C 269.691406 87.4375 270.097656 85.691406 270.363281 83.882812 Z M 270.363281 83.882812 " fill-opacity="1" fill-rule="nonzero"/><path fill="#000000" d="M 238.960938 224.867188 C 239.105469 225.410156 239.226562 225.957031 239.320312 226.511719 C 239.410156 227.066406 239.476562 227.621094 239.515625 228.179688 C 239.554688 228.742188 239.566406 229.300781 239.546875 229.863281 C 239.53125 230.425781 239.488281 230.984375 239.414062 231.539062 C 239.34375 232.097656 239.246094 232.648438 239.117188 233.195312 C 238.992188 233.742188 238.839844 234.28125 238.660156 234.8125 C 238.484375 235.34375 238.277344 235.867188 238.046875 236.378906 C 237.816406 236.890625 237.5625 237.390625 237.285156 237.878906 C 237.003906 238.363281 236.703125 238.835938 236.375 239.292969 C 236.050781 239.75 235.703125 240.191406 235.335938 240.613281 C 234.964844 241.035156 234.578125 241.441406 234.167969 241.824219 C 233.757812 242.210938 233.332031 242.574219 232.890625 242.917969 C 232.445312 243.257812 231.984375 243.578125 231.507812 243.878906 C 231.03125 244.175781 230.542969 244.449219 230.039062 244.699219 C 229.539062 244.949219 229.023438 245.171875 228.5 245.371094 C 227.976562 245.570312 227.441406 245.742188 226.898438 245.890625 C 226.359375 246.039062 225.8125 246.15625 225.257812 246.25 C 224.703125 246.34375 224.148438 246.410156 223.585938 246.445312 C 223.027344 246.484375 222.464844 246.496094 221.90625 246.480469 C 221.34375 246.460938 220.785156 246.417969 220.230469 246.347656 C 219.671875 246.273438 219.121094 246.175781 218.574219 246.050781 C 218.027344 245.925781 217.488281 245.773438 216.957031 245.59375 C 216.421875 245.414062 215.902344 245.210938 215.390625 244.980469 C 214.878906 244.75 214.378906 244.496094 213.890625 244.214844 C 213.40625 243.9375 212.933594 243.632812 212.476562 243.308594 C 212.019531 242.980469 211.578125 242.636719 211.15625 242.265625 C 210.730469 241.898438 210.328125 241.507812 209.945312 241.101562 C 209.558594 240.691406 209.195312 240.265625 208.851562 239.820312 C 208.507812 239.375 208.1875 238.914062 207.890625 238.441406 C 207.59375 237.964844 207.320312 237.476562 207.070312 236.972656 C 206.820312 236.46875 206.597656 235.957031 206.398438 235.429688 C 206.199219 234.90625 206.023438 234.375 205.878906 233.832031 C 205.730469 233.289062 205.609375 232.742188 205.519531 232.1875 C 205.425781 231.636719 205.359375 231.078125 205.320312 230.519531 C 205.28125 229.957031 205.273438 229.398438 205.289062 228.835938 C 205.304688 228.277344 205.351562 227.71875 205.421875 227.160156 C 205.492188 226.605469 205.59375 226.050781 205.71875 225.503906 C 205.84375 224.957031 205.996094 224.417969 206.175781 223.886719 C 206.355469 223.355469 206.558594 222.832031 206.789062 222.320312 C 207.019531 221.808594 207.273438 221.308594 207.554688 220.824219 C 207.832031 220.335938 208.136719 219.863281 208.460938 219.40625 C 208.785156 218.949219 209.132812 218.507812 209.503906 218.085938 C 209.871094 217.664062 210.261719 217.261719 210.667969 216.875 C 211.078125 216.488281 211.503906 216.125 211.949219 215.785156 C 212.390625 215.441406 212.851562 215.121094 213.328125 214.824219 C 213.804688 214.523438 214.292969 214.25 214.796875 214 C 215.296875 213.75 215.8125 213.527344 216.335938 213.328125 C 216.863281 213.128906 217.394531 212.957031 217.9375 212.808594 C 218.480469 212.664062 219.027344 212.542969 219.578125 212.449219 C 220.132812 212.355469 220.691406 212.292969 221.25 212.253906 C 221.808594 212.214844 222.371094 212.203125 222.929688 212.21875 C 223.492188 212.238281 224.050781 212.28125 224.609375 212.351562 C 225.164062 212.425781 225.714844 212.523438 226.261719 212.648438 C 226.808594 212.777344 227.351562 212.929688 227.882812 213.105469 C 228.414062 213.285156 228.9375 213.492188 229.449219 213.722656 C 229.960938 213.949219 230.457031 214.207031 230.945312 214.484375 C 231.433594 214.765625 231.90625 215.066406 232.363281 215.390625 C 232.820312 215.71875 233.257812 216.066406 233.683594 216.433594 C 234.105469 216.804688 234.507812 217.191406 234.894531 217.601562 C 235.277344 218.007812 235.640625 218.433594 235.984375 218.878906 C 236.328125 219.324219 236.648438 219.785156 236.945312 220.261719 C 237.242188 220.734375 237.515625 221.226562 237.765625 221.726562 C 238.015625 222.230469 238.242188 222.742188 238.441406 223.269531 C 238.640625 223.792969 238.8125 224.328125 238.960938 224.867188 Z M 238.960938 224.867188 " fill-opacity="1" fill-rule="nonzero"/><path fill="#000000" d="M 342.425781 175.097656 C 348.628906 166.925781 347.023438 155.277344 338.828125 149.078125 C 330.65625 142.875 319.007812 144.480469 312.808594 152.675781 C 312.054688 153.671875 311.425781 154.707031 310.898438 155.765625 C 310.347656 156.578125 309.839844 157.429688 309.351562 158.324219 L 275.910156 220.957031 C 274.246094 224.089844 275.015625 227.851562 277.640625 229.820312 C 280.261719 231.8125 284.085938 231.53125 286.644531 229.089844 L 337.875 179.933594 C 338.605469 179.242188 339.296875 178.511719 339.925781 177.761719 C 340.84375 176.988281 341.675781 176.09375 342.425781 175.097656 Z M 342.425781 175.097656 " fill-opacity="1" fill-rule="nonzero"/><path fill="#000000" d="M 268.597656 233.976562 C 269.335938 234.164062 270.050781 234.421875 270.742188 234.75 C 271.429688 235.074219 272.082031 235.46875 272.695312 235.921875 C 273.308594 236.378906 273.871094 236.890625 274.382812 237.457031 C 274.894531 238.023438 275.347656 238.632812 275.738281 239.289062 C 276.128906 239.941406 276.453125 240.628906 276.710938 241.351562 C 276.964844 242.070312 277.152344 242.804688 277.261719 243.5625 C 277.371094 244.316406 277.410156 245.074219 277.371094 245.839844 C 277.332031 246.601562 277.21875 247.351562 277.035156 248.09375 C 276.847656 248.832031 276.589844 249.546875 276.261719 250.238281 C 275.9375 250.929688 275.542969 251.578125 275.089844 252.191406 C 274.632812 252.804688 274.121094 253.367188 273.554688 253.878906 C 272.988281 254.390625 272.378906 254.84375 271.722656 255.234375 C 271.070312 255.625 270.382812 255.949219 269.664062 256.207031 C 268.941406 256.464844 268.207031 256.648438 267.449219 256.757812 C 266.695312 256.871094 265.9375 256.90625 265.171875 256.867188 C 264.410156 256.828125 263.660156 256.71875 262.917969 256.53125 C 262.179688 256.34375 261.464844 256.085938 260.773438 255.761719 C 260.082031 255.433594 259.433594 255.042969 258.820312 254.585938 C 258.207031 254.128906 257.644531 253.621094 257.132812 253.054688 C 256.621094 252.488281 256.167969 251.875 255.777344 251.222656 C 255.386719 250.566406 255.0625 249.878906 254.804688 249.160156 C 254.546875 248.441406 254.363281 247.703125 254.253906 246.945312 C 254.140625 246.191406 254.105469 245.433594 254.144531 244.671875 C 254.183594 243.90625 254.292969 243.15625 254.480469 242.414062 C 254.667969 241.675781 254.925781 240.960938 255.25 240.269531 C 255.578125 239.582031 255.96875 238.929688 256.425781 238.316406 C 256.882812 237.703125 257.390625 237.140625 257.957031 236.628906 C 258.523438 236.117188 259.136719 235.664062 259.792969 235.273438 C 260.445312 234.882812 261.132812 234.558594 261.851562 234.300781 C 262.570312 234.046875 263.308594 233.863281 264.066406 233.75 C 264.820312 233.640625 265.578125 233.601562 266.339844 233.640625 C 267.105469 233.679688 267.855469 233.792969 268.597656 233.976562 Z M 268.597656 233.976562 " fill-opacity="1" fill-rule="nonzero"/><g clip-path="url(#42a982284c)"><path fill="#ab2d00" d="M 218.785156 172.265625 L 176.347656 265.730469 L 169.707031 247.988281 L 151.863281 254.671875 L 194.296875 161.207031 Z M 218.785156 172.265625 " fill-opacity="1" fill-rule="evenodd"/></g><g clip-path="url(#5ce9cf1943)"><path fill="#ab2d00" d="M 185.320312 172.265625 L 227.757812 265.730469 L 234.398438 247.988281 L 252.242188 254.671875 L 209.808594 161.207031 Z M 185.320312 172.265625 " fill-opacity="1" fill-rule="evenodd"/></g><g clip-path="url(#9248aac84d)"><g clip-path="url(#8da43eff44)"><path fill="url(#68bb331ff9)" d="M 122.457031 125.738281 L 162.378906 244.410156 L 281.652344 204.488281 L 241.730469 85.816406 Z M 122.457031 125.738281 " fill-rule="nonzero"/></g></g><g clip-path="url(#2eb1086839)"><g clip-path="url(#26b463e2cc)"><path fill="url(#ed76e330ce)" d="M 168.078125 130.976562 L 168.078125 198.753906 L 236.027344 198.753906 L 236.027344 130.976562 Z M 168.078125 130.976562 " fill-rule="nonzero"/></g></g><path fill="#c69527" d="M 202.050781 129.488281 C 221.628906 129.488281 237.519531 145.339844 237.519531 164.867188 C 237.519531 184.390625 221.628906 200.242188 202.050781 200.242188 C 182.476562 200.242188 166.585938 184.390625 166.585938 164.867188 C 166.585938 145.339844 182.476562 129.488281 202.050781 129.488281 Z M 202.050781 132.46875 C 184.125 132.46875 169.570312 146.984375 169.570312 164.867188 C 169.570312 182.746094 184.125 197.265625 202.050781 197.265625 C 219.980469 197.265625 234.535156 182.746094 234.535156 164.867188 C 234.535156 146.984375 219.980469 132.46875 202.050781 132.46875 Z M 202.050781 132.46875 " fill-opacity="1" fill-rule="evenodd"/><g clip-path="url(#ae43857018)"><path fill="#000000" d="M 343.722656 187.5 C 343.722656 190.058594 343.660156 192.613281 343.535156 195.167969 C 343.410156 197.71875 343.222656 200.269531 342.96875 202.8125 C 342.71875 205.359375 342.40625 207.894531 342.03125 210.421875 C 341.65625 212.953125 341.21875 215.472656 340.722656 217.980469 C 340.222656 220.484375 339.660156 222.980469 339.039062 225.460938 C 338.417969 227.941406 337.738281 230.402344 336.996094 232.851562 C 336.253906 235.296875 335.453125 237.722656 334.589844 240.128906 C 333.730469 242.539062 332.808594 244.921875 331.832031 247.285156 C 330.851562 249.648438 329.816406 251.984375 328.722656 254.292969 C 327.628906 256.605469 326.480469 258.890625 325.277344 261.144531 C 324.070312 263.398438 322.8125 265.621094 321.496094 267.816406 C 320.183594 270.007812 318.816406 272.167969 317.394531 274.292969 C 315.972656 276.417969 314.503906 278.507812 312.980469 280.5625 C 311.457031 282.617188 309.882812 284.628906 308.261719 286.605469 C 306.640625 288.582031 304.96875 290.519531 303.253906 292.414062 C 301.535156 294.308594 299.773438 296.160156 297.964844 297.964844 C 296.160156 299.773438 294.308594 301.535156 292.414062 303.253906 C 290.519531 304.96875 288.582031 306.640625 286.605469 308.261719 C 284.628906 309.882812 282.617188 311.457031 280.5625 312.980469 C 278.507812 314.503906 276.417969 315.972656 274.292969 317.394531 C 272.167969 318.816406 270.007812 320.183594 267.816406 321.496094 C 265.621094 322.8125 263.398438 324.070312 261.144531 325.277344 C 258.890625 326.480469 256.605469 327.628906 254.292969 328.722656 C 251.984375 329.816406 249.648438 330.851562 247.285156 331.832031 C 244.921875 332.808594 242.539062 333.730469 240.128906 334.589844 C 237.722656 335.453125 235.296875 336.253906 232.851562 336.996094 C 230.402344 337.738281 227.941406 338.417969 225.460938 339.039062 C 222.980469 339.660156 220.484375 340.222656 217.980469 340.722656 C 215.472656 341.21875 212.953125 341.65625 210.421875 342.03125 C 207.894531 342.40625 205.359375 342.71875 202.8125 342.96875 C 200.269531 343.222656 197.71875 343.410156 195.167969 343.535156 C 192.613281 343.660156 190.058594 343.722656 187.5 343.722656 C 184.945312 343.722656 182.390625 343.660156 179.835938 343.535156 C 177.28125 343.410156 174.734375 343.222656 172.1875 342.96875 C 169.644531 342.71875 167.109375 342.40625 164.578125 342.03125 C 162.050781 341.65625 159.53125 341.21875 157.023438 340.722656 C 154.515625 340.222656 152.023438 339.660156 149.542969 339.039062 C 147.0625 338.417969 144.597656 337.738281 142.152344 336.996094 C 139.707031 336.253906 137.277344 335.453125 134.871094 334.589844 C 132.464844 333.730469 130.082031 332.808594 127.71875 331.832031 C 125.355469 330.851562 123.019531 329.816406 120.707031 328.722656 C 118.398438 327.628906 116.113281 326.480469 113.859375 325.277344 C 111.605469 324.070312 109.378906 322.8125 107.1875 321.496094 C 104.996094 320.183594 102.835938 318.816406 100.710938 317.394531 C 98.582031 315.972656 96.492188 314.503906 94.441406 312.980469 C 92.386719 311.457031 90.371094 309.882812 88.394531 308.261719 C 86.417969 306.640625 84.484375 304.96875 82.589844 303.253906 C 80.695312 301.535156 78.84375 299.773438 77.035156 297.964844 C 75.226562 296.160156 73.464844 294.308594 71.75 292.414062 C 70.03125 290.519531 68.363281 288.582031 66.742188 286.605469 C 65.117188 284.628906 63.546875 282.617188 62.023438 280.5625 C 60.5 278.507812 59.027344 276.417969 57.609375 274.292969 C 56.1875 272.167969 54.820312 270.007812 53.503906 267.816406 C 52.191406 265.621094 50.933594 263.398438 49.726562 261.144531 C 48.519531 258.890625 47.371094 256.605469 46.277344 254.292969 C 45.1875 251.984375 44.148438 249.648438 43.171875 247.285156 C 42.191406 244.921875 41.273438 242.539062 40.410156 240.128906 C 39.550781 237.722656 38.75 235.296875 38.007812 232.851562 C 37.265625 230.402344 36.582031 227.941406 35.960938 225.460938 C 35.339844 222.980469 34.78125 220.484375 34.28125 217.980469 C 33.78125 215.472656 33.347656 212.953125 32.972656 210.421875 C 32.597656 207.894531 32.28125 205.359375 32.03125 202.8125 C 31.78125 200.269531 31.59375 197.71875 31.46875 195.167969 C 31.34375 192.613281 31.28125 190.058594 31.28125 187.5 C 31.28125 184.945312 31.34375 182.390625 31.46875 179.835938 C 31.59375 177.28125 31.78125 174.734375 32.03125 172.1875 C 32.28125 169.644531 32.597656 167.109375 32.972656 164.578125 C 33.347656 162.050781 33.78125 159.53125 34.28125 157.023438 C 34.78125 154.515625 35.339844 152.023438 35.960938 149.542969 C 36.582031 147.0625 37.265625 144.597656 38.007812 142.152344 C 38.75 139.707031 39.550781 137.277344 40.410156 134.871094 C 41.273438 132.464844 42.191406 130.078125 43.171875 127.71875 C 44.148438 125.355469 45.1875 123.019531 46.277344 120.707031 C 47.371094 118.398438 48.519531 116.113281 49.726562 113.859375 C 50.933594 111.605469 52.191406 109.378906 53.503906 107.1875 C 54.820312 104.996094 56.1875 102.835938 57.609375 100.710938 C 59.027344 98.582031 60.5 96.492188 62.023438 94.441406 C 63.546875 92.386719 65.117188 90.371094 66.742188 88.394531 C 68.363281 86.417969 70.03125 84.484375 71.75 82.589844 C 73.464844 80.695312 75.226562 78.84375 77.035156 77.035156 C 78.84375 75.226562 80.695312 73.464844 82.589844 71.75 C 84.484375 70.03125 86.417969 68.363281 88.394531 66.742188 C 90.371094 65.117188 92.386719 63.546875 94.441406 62.023438 C 96.492188 60.5 98.582031 59.027344 100.710938 57.609375 C 102.835938 56.1875 104.996094 54.820312 107.1875 53.503906 C 109.378906 52.191406 111.605469 50.933594 113.859375 49.726562 C 116.113281 48.519531 118.398438 47.371094 120.707031 46.277344 C 123.019531 45.1875 125.355469 44.148438 127.71875 43.171875 C 130.082031 42.191406 132.464844 41.273438 134.871094 40.410156 C 137.277344 39.550781 139.707031 38.75 142.152344 38.007812 C 144.597656 37.265625 147.0625 36.582031 149.542969 35.960938 C 152.023438 35.339844 154.515625 34.78125 157.023438 34.28125 C 159.53125 33.78125 162.050781 33.347656 164.578125 32.972656 C 167.109375 32.597656 169.644531 32.28125 172.1875 32.03125 C 174.734375 31.78125 177.28125 31.59375 179.835938 31.46875 C 182.390625 31.34375 184.945312 31.28125 187.5 31.28125 C 190.058594 31.28125 192.613281 31.34375 195.167969 31.46875 C 197.71875 31.59375 200.269531 31.78125 202.8125 32.03125 C 205.359375 32.28125 207.894531 32.597656 210.421875 32.972656 C 212.953125 33.347656 215.472656 33.78125 217.980469 34.28125 C 220.484375 34.78125 222.980469 35.339844 225.460938 35.960938 C 227.941406 36.582031 230.402344 37.265625 232.851562 38.007812 C 235.296875 38.75 237.722656 39.550781 240.128906 40.410156 C 242.539062 41.273438 244.921875 42.191406 247.285156 43.171875 C 249.648438 44.148438 251.984375 45.1875 254.292969 46.277344 C 256.605469 47.371094 258.890625 48.519531 261.144531 49.726562 C 263.398438 50.933594 265.621094 52.191406 267.816406 53.503906 C 270.007812 54.820312 272.167969 56.1875 274.292969 57.609375 C 276.417969 59.027344 278.507812 60.5 280.5625 62.023438 C 282.617188 63.546875 284.628906 65.117188 286.605469 66.742188 C 288.582031 68.363281 290.519531 70.03125 292.414062 71.75 C 294.308594 73.464844 296.160156 75.226562 297.964844 77.035156 C 299.773438 78.84375 301.535156 80.695312 303.253906 82.589844 C 304.96875 84.484375 306.640625 86.417969 308.261719 88.394531 C 309.882812 90.371094 311.457031 92.386719 312.980469 94.441406 C 314.503906 96.492188 315.972656 98.582031 317.394531 100.710938 C 318.816406 102.835938 320.183594 104.996094 321.496094 107.1875 C 322.8125 109.378906 324.070312 111.605469 325.277344 113.859375 C 326.480469 116.113281 327.628906 118.398438 328.722656 120.707031 C 329.816406 123.019531 330.851562 125.355469 331.832031 127.71875 C 332.808594 130.078125 333.730469 132.464844 334.589844 134.871094 C 335.453125 137.277344 336.253906 139.707031 336.996094 142.152344 C 337.738281 144.597656 338.417969 147.0625 339.039062 149.542969 C 339.660156 152.023438 340.222656 154.515625 340.722656 157.023438 C 341.21875 159.53125 341.65625 162.050781 342.03125 164.578125 C 342.40625 167.109375 342.71875 169.644531 342.96875 172.1875 C 343.222656 174.734375 343.410156 177.28125 343.535156 179.835938 C 343.660156 182.390625 343.722656 184.945312 343.722656 187.5 Z M 343.722656 187.5 " fill-opacity="1" fill-rule="nonzero"/></g><path fill="#ff00de" d="M 144.6875 133.269531 C 148.328125 112.398438 153.691406 91.832031 160.703125 71.847656 C 162.238281 67.476562 164.03125 62.882812 167.75 60.121094 C 173.164062 56.097656 180.914062 57.191406 187.308594 57.550781 C 189.566406 57.675781 191.785156 58.445312 193.445312 59.984375 C 198.039062 64.234375 194.90625 70.042969 192 74.480469 C 174.433594 101.332031 161.601562 131.273438 154.277344 162.511719 C 153.363281 166.398438 152.445312 170.496094 149.796875 173.492188 C 146.863281 176.816406 142.0625 178.222656 137.699219 177.414062 C 133.339844 176.609375 129.492188 173.753906 127.066406 170.050781 C 123.742188 164.980469 123.023438 158.664062 122.871094 152.601562 C 122.574219 140.878906 124.0625 129.113281 127.269531 117.835938 C 122.371094 127.550781 117.421875 137.335938 110.695312 145.890625 C 107.753906 149.636719 103.941406 153.4375 98.148438 151.105469 C 95.847656 150.179688 93.945312 148.429688 92.667969 146.300781 C 87.421875 137.53125 87.082031 127.074219 87.828125 117.074219 C 88.492188 108.203125 90.074219 99.058594 95.101562 91.710938 C 98.191406 87.199219 102.867188 83.542969 108.015625 81.898438 C 112.457031 80.484375 115.691406 84.601562 115.347656 89.25 C 114.535156 100.371094 114.375 103.03125 115.015625 115.871094 C 119.660156 105.910156 123.855469 101.5 128.503906 91.535156 C 129.757812 88.847656 131.046875 86.101562 133.128906 83.984375 C 135.207031 81.867188 138.257812 80.460938 141.148438 81.121094 C 144.160156 81.808594 146.339844 84.585938 147.207031 87.550781 C 148.082031 90.511719 147.878906 93.671875 147.667969 96.75 C 146.808594 109.367188 145.949219 121.980469 144.6875 133.273438 Z M 144.6875 133.269531 " fill-opacity="1" fill-rule="nonzero"/><path fill="#ff00de" d="M 212.753906 152.773438 C 209.652344 148.949219 203.734375 147.292969 199.46875 149.679688 C 196.695312 151.238281 194.285156 154.359375 191.128906 153.71875 C 188.8125 153.246094 187.382812 150.738281 187.378906 148.421875 C 187.375 146.105469 188.4375 143.949219 189.078125 141.625 C 203.257812 140.679688 217.296875 135.167969 227 125.089844 C 233.917969 117.902344 238.503906 108.066406 239.144531 97.957031 C 239.777344 87.972656 236.566406 74.617188 225.90625 70.558594 C 215.171875 66.464844 202.929688 75.261719 195.863281 82.523438 C 176.367188 102.554688 166.515625 130.859375 165.65625 158.441406 C 165.230469 172.210938 171.265625 186.007812 187.574219 185.5625 C 194.433594 185.375 200.945312 182.363281 206.210938 178.109375 C 210 175.050781 213.300781 171.214844 214.820312 166.621094 C 216.339844 162.027344 215.851562 156.59375 212.746094 152.769531 Z M 208.058594 94.84375 C 210.492188 91.84375 214.265625 88.890625 217.75 90.347656 C 219.5625 91.105469 220.757812 92.964844 221.148438 94.925781 C 221.535156 96.890625 221.210938 98.945312 220.65625 100.882812 C 218.746094 107.53125 215.738281 110.203125 210.386719 114.507812 C 205.039062 118.816406 199.476562 120.453125 194.167969 122.492188 C 198.40625 110.625 202.148438 102.15625 208.0625 94.839844 Z M 208.058594 94.84375 " fill-opacity="1" fill-rule="nonzero"/><path fill="#ff00de" d="M 267.667969 106.371094 C 257.191406 125.160156 250.070312 146.433594 243.289062 166.808594 C 242.695312 168.585938 241.257812 170.945312 243.273438 171.148438 C 252.042969 172.042969 255.460938 168.394531 259.695312 172.75 C 260.695312 173.785156 261.425781 175.042969 261.847656 176.367188 C 263.371094 181.148438 259.765625 195.65625 258.285156 195.644531 C 243.015625 195.503906 233.09375 191.835938 219.523438 189.929688 C 218.128906 189.734375 216.636719 189.488281 215.601562 188.554688 C 213.625 186.769531 214.492188 183.792969 215.496094 181.523438 C 229.101562 150.59375 239.878906 118.457031 247.664062 85.558594 C 248.132812 83.589844 250.714844 82.949219 252.308594 84.425781 C 255.246094 87.144531 258.449219 89.644531 261.3125 92.445312 C 265.386719 96.433594 270.160156 101.914062 267.671875 106.371094 Z M 267.667969 106.371094 " fill-opacity="1" fill-rule="nonzero"/><path fill="#ff00de" d="M 240.0625 289.234375 C 238.824219 262.859375 243.070312 231.386719 252.546875 206.902344 C 253.367188 204.785156 251.84375 202.453125 249.507812 202.308594 L 232.40625 201.261719 C 231.097656 201.179688 229.664062 201.136719 228.640625 201.914062 C 227.566406 202.730469 227.300781 204.1875 227.105469 205.511719 C 224.84375 221.039062 221.867188 240.222656 221.578125 254.082031 C 221.371094 237.8125 218.933594 199.226562 217.867188 198.214844 C 216.84375 197.242188 215.28125 197.15625 213.875 197.125 L 199.585938 196.828125 C 197.683594 196.789062 196.132812 198.242188 196.09375 200.09375 C 196.09375 200.09375 190.304688 246.421875 172.472656 302.871094 C 171.585938 305.683594 173.433594 308.667969 176.441406 309.097656 C 182.761719 310.007812 189.148438 310.457031 195.515625 310.441406 C 196.640625 310.441406 197.867188 310.382812 198.691406 309.65625 C 199.59375 308.855469 199.554688 307.503906 199.765625 306.320312 C 202.621094 290.445312 202.683594 280.144531 203.355469 263.011719 C 204.230469 276.304688 205.636719 285.394531 210.320312 297.984375 C 211.214844 300.394531 212.28125 302.914062 214.378906 304.464844 C 218.097656 307.207031 223.289062 305.851562 227.609375 304.378906 C 232.484375 302.714844 237.925781 300.511719 239.578125 295.738281 C 240.292969 293.675781 240.15625 291.417969 240.054688 289.222656 Z M 240.0625 289.234375 " fill-opacity="1" fill-rule="nonzero"/><path fill="#ff00de" d="M 285.210938 258.488281 C 284.898438 257.824219 284.527344 257.167969 283.960938 256.707031 C 282.855469 255.820312 281.222656 255.878906 279.921875 256.453125 C 278.625 257.027344 277.570312 258.039062 276.507812 258.988281 C 274.359375 260.90625 273.230469 261.824219 270.367188 261.664062 C 263.761719 261.285156 266.667969 253.535156 266.667969 253.535156 C 286.132812 251.949219 294.222656 234.914062 296.769531 227.964844 C 298.828125 222.328125 298.738281 214.667969 295.777344 209.464844 C 292.441406 203.597656 285.257812 200.5625 278.546875 201.167969 C 271.832031 201.773438 265.675781 205.582031 261.144531 210.613281 C 256.617188 215.644531 253.554688 221.828125 251.066406 228.125 C 247.816406 236.347656 245.429688 245 245.082031 253.828125 C 244.738281 262.65625 246.523438 271.691406 251.117188 279.203125 C 252.789062 281.933594 254.933594 284.539062 257.867188 285.796875 C 260.636719 286.984375 263.800781 286.839844 266.769531 286.265625 C 273.039062 285.046875 279.085938 281.832031 282.890625 276.667969 C 286.695312 271.503906 287.925781 264.289062 285.21875 258.492188 Z M 267.089844 237.617188 C 268.167969 230.390625 269.730469 224.054688 273.621094 218.019531 C 274.722656 216.3125 275.996094 214.632812 277.769531 213.648438 C 279.542969 212.667969 281.929688 212.550781 283.464844 213.863281 C 285.542969 215.636719 285.167969 218.933594 284.332031 221.546875 C 279.546875 236.441406 266.867188 239.113281 267.09375 237.609375 Z M 267.089844 237.617188 " fill-opacity="1" fill-rule="nonzero"/><path fill="#ff00de" d="M 182.03125 250.351562 C 184.363281 241.792969 186.5 233.097656 186.902344 224.261719 C 187.308594 215.421875 185.882812 206.335938 181.507812 198.875 C 177.136719 191.414062 169.542969 186.132812 160.351562 186.210938 C 151.734375 186.28125 144.625 193.476562 139.410156 200.761719 C 125.285156 220.496094 117.34375 244.890625 117.128906 269.21875 C 117.046875 278.59375 118.429688 288.734375 124.816406 295.167969 C 130.546875 300.9375 139.503906 302.492188 147.339844 300.25 C 155.175781 298.015625 161.914062 292.417969 166.945312 285.714844 C 174.644531 275.453125 178.636719 262.8125 182.03125 250.351562 Z M 158.664062 259.894531 C 156.78125 262.832031 154.351562 265.359375 151.644531 266.511719 C 148.945312 267.667969 145.96875 267.277344 144.195312 265.035156 C 142.222656 262.535156 142.042969 258.34375 142.335938 254.433594 C 143.089844 244.289062 146.449219 233.894531 151.765625 225.269531 C 153.726562 222.085938 156.324219 218.882812 159.234375 218.609375 C 162.335938 218.316406 164.746094 220.300781 166.007812 223.289062 C 167.273438 226.273438 167.5 230.019531 167.113281 233.71875 C 166.726562 237.414062 165.765625 241.101562 164.742188 244.734375 C 163.25 250.023438 161.550781 255.40625 158.664062 259.902344 Z M 158.664062 259.894531 " fill-opacity="1" fill-rule="nonzero"/><path fill="#ff00de" d="M 127.097656 209.4375 C 136.464844 178.585938 113.074219 161.230469 100.222656 158.09375 C 92.78125 156.277344 84.238281 157.65625 78.316406 162.105469 C 77.296875 162.875 76.578125 164.003906 76.304688 165.265625 L 65.4375 216.054688 C 64.53125 220.273438 63.628906 224.648438 64.519531 228.824219 C 65.351562 232.726562 67.710938 236.121094 70.605469 238.75 C 80.265625 247.523438 95.65625 247.734375 107.191406 241.222656 C 118.726562 234.707031 123.183594 222.304688 127.089844 209.433594 Z M 102.796875 210.363281 C 99.382812 214.285156 94.730469 216.917969 89.789062 218.105469 C 87.441406 218.671875 85.351562 216.542969 85.769531 214.085938 C 87.660156 203.015625 90.125 192.03125 93.144531 181.199219 C 93.691406 179.242188 95.796875 178.171875 97.566406 178.972656 C 102.472656 181.191406 106.453125 185.765625 107.796875 191.148438 C 109.441406 197.75 107.308594 205.195312 102.796875 210.363281 Z M 102.796875 210.363281 " fill-opacity="1" fill-rule="nonzero"/><path fill="#ff00de" d="M 285.726562 115.375 C 284.957031 114.621094 283.65625 114.976562 283.375 116.015625 C 277.226562 139.007812 270.585938 163.4375 266.046875 186.804688 C 265.824219 187.945312 265.839844 189.136719 266.210938 190.242188 C 267.242188 193.273438 269.925781 193.261719 272.28125 193.136719 C 281.523438 192.675781 287.515625 191.78125 298.929688 194.734375 C 301.046875 195.28125 303.65625 194.308594 304.765625 192.429688 C 305.390625 191.371094 305.382812 190.078125 305.355469 188.851562 L 306.34375 173.398438 C 306.328125 172.707031 306.207031 172.015625 305.910156 171.390625 C 304.980469 169.449219 303.304688 169.707031 301.828125 169.992188 L 288.796875 170.71875 C 288.328125 170.808594 287.816406 170.859375 287.363281 170.882812 C 286.730469 170.917969 286.253906 170.3125 286.421875 169.695312 L 295.34375 141.164062 C 295.914062 139.070312 296.484375 136.964844 296.574219 134.800781 C 296.75 130.597656 295.070312 126.488281 292.644531 123.050781 C 290.675781 120.25 288.230469 117.832031 285.726562 115.371094 Z M 285.726562 115.375 " fill-opacity="1" fill-rule="nonzero"/></svg>