<svg xmlns="http://www.w3.org/2000/svg" xmlns:xlink="http://www.w3.org/1999/xlink" width="500" zoomAndPan="magnify" viewBox="0 0 375 374.999991" height="500" preserveAspectRatio="xMidYMid meet" version="1.0"><path fill="#000000" d="M 140.421875 64.914062 C 132.003906 41.640625 106.289062 29.582031 83.011719 38.019531 C 59.734375 46.4375 47.703125 72.132812 56.117188 95.410156 C 57.132812 98.214844 58.414062 100.855469 59.898438 103.335938 C 60.832031 105.53125 61.890625 107.6875 63.070312 109.820312 L 145.96875 259.765625 C 150.117188 267.269531 158.738281 270.621094 166.199219 267.917969 C 173.660156 265.214844 178.128906 257.125 176.523438 248.707031 L 144.304688 80.425781 C 143.835938 78.027344 143.265625 75.6875 142.597656 73.414062 C 142.148438 70.566406 141.4375 67.71875 140.421875 64.914062 Z M 140.421875 64.914062 " fill-opacity="1" fill-rule="nonzero"/><path fill="#000000" d="M 201.601562 292.378906 C 202.25 293.027344 202.867188 293.710938 203.449219 294.417969 C 204.03125 295.128906 204.578125 295.867188 205.089844 296.628906 C 205.601562 297.394531 206.070312 298.179688 206.503906 298.992188 C 206.9375 299.800781 207.332031 300.632812 207.683594 301.480469 C 208.035156 302.328125 208.34375 303.195312 208.609375 304.074219 C 208.875 304.953125 209.101562 305.84375 209.277344 306.742188 C 209.457031 307.644531 209.59375 308.550781 209.683594 309.464844 C 209.773438 310.382812 209.816406 311.296875 209.816406 312.214844 C 209.816406 313.136719 209.773438 314.050781 209.683594 314.964844 C 209.59375 315.878906 209.457031 316.789062 209.277344 317.6875 C 209.101562 318.589844 208.875 319.480469 208.609375 320.359375 C 208.34375 321.238281 208.035156 322.101562 207.683594 322.953125 C 207.332031 323.800781 206.9375 324.628906 206.503906 325.441406 C 206.074219 326.25 205.601562 327.039062 205.089844 327.800781 C 204.578125 328.566406 204.035156 329.304688 203.449219 330.011719 C 202.867188 330.722656 202.25 331.402344 201.601562 332.054688 C 200.953125 332.703125 200.273438 333.320312 199.5625 333.902344 C 198.851562 334.484375 198.113281 335.03125 197.351562 335.542969 C 196.585938 336.050781 195.800781 336.523438 194.988281 336.957031 C 194.179688 337.390625 193.347656 337.78125 192.5 338.136719 C 191.652344 338.488281 190.789062 338.796875 189.910156 339.0625 C 189.027344 339.328125 188.140625 339.550781 187.238281 339.730469 C 186.335938 339.910156 185.429688 340.046875 184.515625 340.136719 C 183.601562 340.226562 182.683594 340.269531 181.765625 340.269531 C 180.847656 340.269531 179.929688 340.226562 179.015625 340.136719 C 178.101562 340.046875 177.191406 339.910156 176.292969 339.730469 C 175.390625 339.550781 174.5 339.328125 173.621094 339.0625 C 172.742188 338.796875 171.878906 338.488281 171.027344 338.136719 C 170.179688 337.785156 169.351562 337.390625 168.539062 336.957031 C 167.730469 336.523438 166.941406 336.054688 166.179688 335.542969 C 165.414062 335.03125 164.679688 334.484375 163.96875 333.902344 C 163.257812 333.320312 162.578125 332.703125 161.929688 332.054688 C 161.277344 331.40625 160.660156 330.722656 160.078125 330.015625 C 159.496094 329.304688 158.949219 328.566406 158.4375 327.804688 C 157.929688 327.039062 157.457031 326.25 157.023438 325.441406 C 156.589844 324.632812 156.199219 323.800781 155.847656 322.953125 C 155.496094 322.105469 155.183594 321.238281 154.917969 320.359375 C 154.652344 319.480469 154.429688 318.589844 154.25 317.691406 C 154.070312 316.789062 153.9375 315.882812 153.847656 314.96875 C 153.753906 314.050781 153.710938 313.136719 153.710938 312.21875 C 153.710938 311.296875 153.753906 310.382812 153.847656 309.46875 C 153.9375 308.554688 154.070312 307.644531 154.25 306.746094 C 154.429688 305.84375 154.652344 304.953125 154.917969 304.074219 C 155.183594 303.195312 155.496094 302.332031 155.847656 301.480469 C 156.199219 300.632812 156.589844 299.804688 157.023438 298.992188 C 157.457031 298.183594 157.929688 297.394531 158.4375 296.632812 C 158.949219 295.867188 159.496094 295.128906 160.078125 294.421875 C 160.660156 293.710938 161.277344 293.03125 161.925781 292.378906 C 162.578125 291.730469 163.257812 291.113281 163.96875 290.53125 C 164.675781 289.949219 165.414062 289.402344 166.179688 288.890625 C 166.941406 288.378906 167.730469 287.910156 168.539062 287.476562 C 169.351562 287.042969 170.179688 286.648438 171.027344 286.296875 C 171.878906 285.945312 172.742188 285.636719 173.621094 285.371094 C 174.5 285.105469 175.390625 284.882812 176.289062 284.703125 C 177.191406 284.523438 178.101562 284.386719 179.015625 284.296875 C 179.929688 284.207031 180.84375 284.164062 181.765625 284.164062 C 182.683594 284.164062 183.597656 284.207031 184.511719 284.296875 C 185.429688 284.386719 186.335938 284.523438 187.238281 284.703125 C 188.136719 284.882812 189.027344 285.105469 189.90625 285.371094 C 190.785156 285.636719 191.652344 285.945312 192.5 286.296875 C 193.347656 286.648438 194.179688 287.042969 194.988281 287.476562 C 195.796875 287.910156 196.585938 288.378906 197.351562 288.890625 C 198.113281 289.402344 198.851562 289.949219 199.5625 290.53125 C 200.269531 291.113281 200.953125 291.730469 201.601562 292.378906 Z M 201.601562 292.378906 " fill-opacity="1" fill-rule="nonzero"/><path fill="#000000" d="M 270.363281 83.882812 C 272.4375 68.898438 261.964844 55.074219 246.984375 53.023438 C 232 50.949219 218.179688 61.417969 216.125 76.402344 C 215.882812 78.210938 215.820312 80 215.921875 81.746094 C 215.800781 83.191406 215.757812 84.675781 215.800781 86.160156 L 217.996094 190.789062 C 218.097656 196.015625 221.816406 200.285156 226.613281 200.957031 C 231.414062 201.625 236.148438 198.515625 237.652344 193.515625 L 268.066406 93.375 C 268.492188 91.953125 268.859375 90.53125 269.144531 89.085938 C 269.691406 87.4375 270.097656 85.691406 270.363281 83.882812 Z M 270.363281 83.882812 " fill-opacity="1" fill-rule="nonzero"/><path fill="#000000" d="M 238.960938 224.867188 C 239.105469 225.410156 239.226562 225.957031 239.320312 226.511719 C 239.410156 227.066406 239.476562 227.621094 239.515625 228.179688 C 239.554688 228.742188 239.566406 229.300781 239.546875 229.863281 C 239.53125 230.425781 239.488281 230.984375 239.414062 231.539062 C 239.34375 232.097656 239.246094 232.648438 239.117188 233.195312 C 238.992188 233.742188 238.839844 234.28125 238.660156 234.8125 C 238.484375 235.34375 238.277344 235.867188 238.046875 236.378906 C 237.816406 236.890625 237.5625 237.390625 237.285156 237.878906 C 237.003906 238.363281 236.703125 238.835938 236.375 239.292969 C 236.050781 239.75 235.703125 240.191406 235.335938 240.613281 C 234.964844 241.035156 234.578125 241.441406 234.167969 241.824219 C 233.757812 242.210938 233.332031 242.574219 232.890625 242.917969 C 232.445312 243.257812 231.984375 243.578125 231.507812 243.878906 C 231.03125 244.175781 230.542969 244.449219 230.039062 244.699219 C 229.539062 244.949219 229.023438 245.171875 228.5 245.371094 C 227.976562 245.570312 227.441406 245.742188 226.898438 245.890625 C 226.359375 246.039062 225.8125 246.15625 225.257812 246.25 C 224.703125 246.34375 224.148438 246.410156 223.585938 246.445312 C 223.027344 246.484375 222.464844 246.496094 221.90625 246.480469 C 221.34375 246.460938 220.785156 246.417969 220.230469 246.347656 C 219.671875 246.273438 219.121094 246.175781 218.574219 246.050781 C 218.027344 245.925781 217.488281 245.773438 216.957031 245.59375 C 216.421875 245.414062 215.902344 245.210938 215.390625 244.980469 C 214.878906 244.75 214.378906 244.496094 213.890625 244.214844 C 213.40625 243.9375 212.933594 243.632812 212.476562 243.308594 C 212.019531 242.980469 211.578125 242.636719 211.15625 242.265625 C 210.730469 241.898438 210.328125 241.507812 209.945312 241.101562 C 209.558594 240.691406 209.195312 240.265625 208.851562 239.820312 C 208.507812 239.375 208.1875 238.914062 207.890625 238.441406 C 207.59375 237.964844 207.320312 237.476562 207.070312 236.972656 C 206.820312 236.46875 206.597656 235.957031 206.398438 235.429688 C 206.199219 234.90625 206.023438 234.375 205.878906 233.832031 C 205.730469 233.289062 205.609375 232.742188 205.519531 232.1875 C 205.425781 231.636719 205.359375 231.078125 205.320312 230.519531 C 205.28125 229.957031 205.273438 229.398438 205.289062 228.835938 C 205.304688 228.277344 205.351562 227.71875 205.421875 227.160156 C 205.492188 226.605469 205.59375 226.050781 205.71875 225.503906 C 205.84375 224.957031 205.996094 224.417969 206.175781 223.886719 C 206.355469 223.355469 206.558594 222.832031 206.789062 222.320312 C 207.019531 221.808594 207.273438 221.308594 207.554688 220.824219 C 207.832031 220.335938 208.136719 219.863281 208.460938 219.40625 C 208.785156 218.949219 209.132812 218.507812 209.503906 218.085938 C 209.871094 217.664062 210.261719 217.261719 210.667969 216.875 C 211.078125 216.488281 211.503906 216.125 211.949219 215.785156 C 212.390625 215.441406 212.851562 215.121094 213.328125 214.824219 C 213.804688 214.523438 214.292969 214.25 214.796875 214 C 215.296875 213.75 215.8125 213.527344 216.335938 213.328125 C 216.863281 213.128906 217.394531 212.957031 217.9375 212.808594 C 218.480469 212.664062 219.027344 212.542969 219.578125 212.449219 C 220.132812 212.355469 220.691406 212.292969 221.25 212.253906 C 221.808594 212.214844 222.371094 212.203125 222.929688 212.21875 C 223.492188 212.238281 224.050781 212.28125 224.609375 212.351562 C 225.164062 212.425781 225.714844 212.523438 226.261719 212.648438 C 226.808594 212.777344 227.351562 212.929688 227.882812 213.105469 C 228.414062 213.285156 228.9375 213.492188 229.449219 213.722656 C 229.960938 213.949219 230.457031 214.207031 230.945312 214.484375 C 231.433594 214.765625 231.90625 215.066406 232.363281 215.390625 C 232.820312 215.71875 233.257812 216.066406 233.683594 216.433594 C 234.105469 216.804688 234.507812 217.191406 234.894531 217.601562 C 235.277344 218.007812 235.640625 218.433594 235.984375 218.878906 C 236.328125 219.324219 236.648438 219.785156 236.945312 220.261719 C 237.242188 220.734375 237.515625 221.226562 237.765625 221.726562 C 238.015625 222.230469 238.242188 222.742188 238.441406 223.269531 C 238.640625 223.792969 238.8125 224.328125 238.960938 224.867188 Z M 238.960938 224.867188 " fill-opacity="1" fill-rule="nonzero"/><path fill="#000000" d="M 342.425781 175.097656 C 348.628906 166.925781 347.023438 155.277344 338.828125 149.078125 C 330.65625 142.875 319.007812 144.480469 312.808594 152.675781 C 312.054688 153.671875 311.425781 154.707031 310.898438 155.765625 C 310.347656 156.578125 309.839844 157.429688 309.351562 158.324219 L 275.910156 220.957031 C 274.246094 224.089844 275.015625 227.851562 277.640625 229.820312 C 280.261719 231.8125 284.085938 231.53125 286.644531 229.089844 L 337.875 179.933594 C 338.605469 179.242188 339.296875 178.511719 339.925781 177.761719 C 340.84375 176.988281 341.675781 176.09375 342.425781 175.097656 Z M 342.425781 175.097656 " fill-opacity="1" fill-rule="nonzero"/><path fill="#000000" d="M 268.597656 233.976562 C 269.335938 234.164062 270.050781 234.421875 270.742188 234.75 C 271.429688 235.074219 272.082031 235.46875 272.695312 235.921875 C 273.308594 236.378906 273.871094 236.890625 274.382812 237.457031 C 274.894531 238.023438 275.347656 238.632812 275.738281 239.289062 C 276.128906 239.941406 276.453125 240.628906 276.710938 241.351562 C 276.964844 242.070312 277.152344 242.804688 277.261719 243.5625 C 277.371094 244.316406 277.410156 245.074219 277.371094 245.839844 C 277.332031 246.601562 277.21875 247.351562 277.035156 248.09375 C 276.847656 248.832031 276.589844 249.546875 276.261719 250.238281 C 275.9375 250.929688 275.542969 251.578125 275.089844 252.191406 C 274.632812 252.804688 274.121094 253.367188 273.554688 253.878906 C 272.988281 254.390625 272.378906 254.84375 271.722656 255.234375 C 271.070312 255.625 270.382812 255.949219 269.664062 256.207031 C 268.941406 256.464844 268.207031 256.648438 267.449219 256.757812 C 266.695312 256.871094 265.9375 256.90625 265.171875 256.867188 C 264.410156 256.828125 263.660156 256.71875 262.917969 256.53125 C 262.179688 256.34375 261.464844 256.085938 260.773438 255.761719 C 260.082031 255.433594 259.433594 255.042969 258.820312 254.585938 C 258.207031 254.128906 257.644531 253.621094 257.132812 253.054688 C 256.621094 252.488281 256.167969 251.875 255.777344 251.222656 C 255.386719 250.566406 255.0625 249.878906 254.804688 249.160156 C 254.546875 248.441406 254.363281 247.703125 254.253906 246.945312 C 254.140625 246.191406 254.105469 245.433594 254.144531 244.671875 C 254.183594 243.90625 254.292969 243.15625 254.480469 242.414062 C 254.667969 241.675781 254.925781 240.960938 255.25 240.269531 C 255.578125 239.582031 255.96875 238.929688 256.425781 238.316406 C 256.882812 237.703125 257.390625 237.140625 257.957031 236.628906 C 258.523438 236.117188 259.136719 235.664062 259.792969 235.273438 C 260.445312 234.882812 261.132812 234.558594 261.851562 234.300781 C 262.570312 234.046875 263.308594 233.863281 264.066406 233.75 C 264.820312 233.640625 265.578125 233.601562 266.339844 233.640625 C 267.105469 233.679688 267.855469 233.792969 268.597656 233.976562 Z M 268.597656 233.976562 " fill-opacity="1" fill-rule="nonzero"/><path fill="#cf0303" d="M 133.375 60.65625 C 124.671875 36.59375 98.085938 24.128906 74.023438 32.851562 C 49.957031 41.554688 37.515625 68.117188 46.21875 92.183594 C 47.269531 95.082031 48.589844 97.816406 50.125 100.378906 C 51.09375 102.648438 52.1875 104.878906 53.40625 107.082031 L 139.113281 262.105469 C 143.398438 269.859375 152.308594 273.328125 160.023438 270.53125 C 167.738281 267.738281 172.359375 259.371094 170.699219 250.671875 L 137.386719 76.695312 C 136.90625 74.214844 136.316406 71.796875 135.621094 69.441406 C 135.160156 66.5 134.425781 63.558594 133.375 60.65625 Z M 133.375 60.65625 " fill-opacity="1" fill-rule="nonzero"/><path fill="#cf0303" d="M 196.625 295.820312 C 197.296875 296.492188 197.933594 297.195312 198.535156 297.929688 C 199.140625 298.664062 199.703125 299.425781 200.230469 300.214844 C 200.757812 301.007812 201.246094 301.820312 201.695312 302.65625 C 202.144531 303.496094 202.546875 304.351562 202.914062 305.230469 C 203.277344 306.109375 203.59375 307 203.871094 307.910156 C 204.148438 308.820312 204.378906 309.738281 204.5625 310.671875 C 204.746094 311.601562 204.886719 312.542969 204.980469 313.488281 C 205.074219 314.433594 205.121094 315.378906 205.121094 316.328125 C 205.121094 317.28125 205.074219 318.226562 204.980469 319.171875 C 204.886719 320.117188 204.75 321.054688 204.5625 321.988281 C 204.378906 322.917969 204.148438 323.839844 203.871094 324.75 C 203.59375 325.65625 203.277344 326.550781 202.914062 327.429688 C 202.550781 328.304688 202.144531 329.164062 201.695312 330.003906 C 201.246094 330.839844 200.761719 331.652344 200.230469 332.441406 C 199.703125 333.234375 199.140625 333.996094 198.535156 334.730469 C 197.933594 335.464844 197.296875 336.167969 196.625 336.839844 C 195.953125 337.511719 195.25 338.148438 194.515625 338.75 C 193.78125 339.351562 193.019531 339.917969 192.230469 340.445312 C 191.441406 340.972656 190.628906 341.460938 189.789062 341.910156 C 188.953125 342.355469 188.09375 342.761719 187.214844 343.125 C 186.339844 343.488281 185.445312 343.808594 184.535156 344.085938 C 183.628906 344.359375 182.707031 344.589844 181.777344 344.777344 C 180.84375 344.960938 179.90625 345.101562 178.960938 345.195312 C 178.015625 345.285156 177.066406 345.332031 176.117188 345.332031 C 175.167969 345.332031 174.21875 345.289062 173.273438 345.195312 C 172.328125 345.101562 171.390625 344.960938 170.460938 344.777344 C 169.527344 344.589844 168.605469 344.359375 167.699219 344.085938 C 166.789062 343.808594 165.894531 343.488281 165.019531 343.125 C 164.140625 342.761719 163.28125 342.355469 162.445312 341.910156 C 161.609375 341.460938 160.792969 340.972656 160.003906 340.445312 C 159.214844 339.917969 158.453125 339.351562 157.71875 338.75 C 156.984375 338.148438 156.28125 337.511719 155.609375 336.839844 C 154.9375 336.167969 154.300781 335.464844 153.699219 334.730469 C 153.09375 333.996094 152.53125 333.234375 152 332.445312 C 151.472656 331.65625 150.984375 330.839844 150.539062 330.003906 C 150.089844 329.164062 149.683594 328.308594 149.320312 327.429688 C 148.957031 326.550781 148.636719 325.660156 148.363281 324.75 C 148.085938 323.839844 147.855469 322.921875 147.671875 321.988281 C 147.484375 321.058594 147.347656 320.117188 147.253906 319.171875 C 147.160156 318.226562 147.113281 317.28125 147.113281 316.332031 C 147.113281 315.382812 147.160156 314.433594 147.253906 313.488281 C 147.347656 312.542969 147.484375 311.605469 147.671875 310.671875 C 147.855469 309.742188 148.085938 308.820312 148.363281 307.910156 C 148.636719 307.003906 148.957031 306.109375 149.320312 305.230469 C 149.683594 304.355469 150.089844 303.496094 150.539062 302.660156 C 150.984375 301.820312 151.472656 301.007812 152 300.21875 C 152.527344 299.425781 153.09375 298.664062 153.695312 297.929688 C 154.300781 297.195312 154.9375 296.492188 155.609375 295.824219 C 156.28125 295.152344 156.984375 294.511719 157.71875 293.910156 C 158.453125 293.308594 159.214844 292.742188 160.003906 292.214844 C 160.792969 291.6875 161.605469 291.199219 162.445312 290.753906 C 163.28125 290.304688 164.140625 289.898438 165.015625 289.535156 C 165.894531 289.171875 166.789062 288.851562 167.695312 288.574219 C 168.605469 288.300781 169.527344 288.070312 170.457031 287.882812 C 171.390625 287.699219 172.328125 287.558594 173.273438 287.46875 C 174.21875 287.375 175.167969 287.328125 176.117188 287.328125 C 177.066406 287.328125 178.015625 287.375 178.960938 287.464844 C 179.90625 287.558594 180.84375 287.699219 181.773438 287.882812 C 182.707031 288.070312 183.625 288.300781 184.535156 288.574219 C 185.445312 288.851562 186.335938 289.171875 187.214844 289.535156 C 188.09375 289.898438 188.949219 290.304688 189.789062 290.75 C 190.625 291.199219 191.441406 291.6875 192.230469 292.214844 C 193.019531 292.742188 193.78125 293.308594 194.515625 293.910156 C 195.25 294.511719 195.953125 295.148438 196.625 295.820312 Z M 196.625 295.820312 " fill-opacity="1" fill-rule="nonzero"/><path fill="#cf0303" d="M 267.714844 80.265625 C 269.859375 64.777344 259.035156 50.484375 243.542969 48.363281 C 228.054688 46.21875 213.761719 57.042969 211.640625 72.53125 C 211.386719 74.402344 211.324219 76.253906 211.429688 78.058594 C 211.304688 79.550781 211.261719 81.085938 211.304688 82.621094 L 213.574219 190.792969 C 213.679688 196.195312 217.527344 200.609375 222.484375 201.300781 C 227.445312 201.996094 232.34375 198.78125 233.898438 193.609375 L 265.339844 90.082031 C 265.78125 88.609375 266.160156 87.140625 266.453125 85.648438 C 267.019531 83.945312 267.441406 82.136719 267.714844 80.265625 Z M 267.714844 80.265625 " fill-opacity="1" fill-rule="nonzero"/><path fill="#cf0303" d="M 235.246094 226.023438 C 235.398438 226.585938 235.523438 227.152344 235.621094 227.722656 C 235.714844 228.296875 235.785156 228.871094 235.824219 229.449219 C 235.863281 230.03125 235.875 230.609375 235.855469 231.1875 C 235.839844 231.769531 235.792969 232.347656 235.71875 232.921875 C 235.644531 233.496094 235.542969 234.066406 235.414062 234.632812 C 235.28125 235.199219 235.125 235.757812 234.941406 236.308594 C 234.753906 236.855469 234.542969 237.394531 234.304688 237.925781 C 234.066406 238.453125 233.804688 238.972656 233.515625 239.472656 C 233.226562 239.976562 232.914062 240.464844 232.578125 240.9375 C 232.242188 241.410156 231.882812 241.867188 231.5 242.304688 C 231.117188 242.742188 230.71875 243.15625 230.292969 243.554688 C 229.871094 243.953125 229.429688 244.328125 228.972656 244.683594 C 228.511719 245.039062 228.035156 245.371094 227.542969 245.679688 C 227.054688 245.984375 226.546875 246.269531 226.027344 246.527344 C 225.507812 246.785156 224.976562 247.015625 224.433594 247.222656 C 223.890625 247.429688 223.339844 247.609375 222.78125 247.757812 C 222.21875 247.910156 221.652344 248.035156 221.082031 248.132812 C 220.507812 248.226562 219.933594 248.296875 219.355469 248.335938 C 218.777344 248.375 218.195312 248.386719 217.617188 248.367188 C 217.035156 248.351562 216.460938 248.304688 215.882812 248.230469 C 215.308594 248.15625 214.738281 248.054688 214.171875 247.925781 C 213.605469 247.792969 213.046875 247.636719 212.5 247.453125 C 211.949219 247.265625 211.410156 247.054688 210.878906 246.816406 C 210.351562 246.578125 209.835938 246.316406 209.332031 246.027344 C 208.828125 245.738281 208.339844 245.425781 207.867188 245.089844 C 207.394531 244.753906 206.941406 244.394531 206.503906 244.011719 C 206.066406 243.628906 205.648438 243.226562 205.25 242.804688 C 204.851562 242.382812 204.476562 241.941406 204.121094 241.484375 C 203.765625 241.023438 203.433594 240.546875 203.128906 240.054688 C 202.820312 239.566406 202.535156 239.058594 202.277344 238.539062 C 202.019531 238.019531 201.789062 237.488281 201.582031 236.945312 C 201.375 236.402344 201.199219 235.851562 201.046875 235.292969 C 200.894531 234.730469 200.769531 234.164062 200.675781 233.59375 C 200.578125 233.019531 200.511719 232.445312 200.472656 231.867188 C 200.429688 231.289062 200.421875 230.707031 200.4375 230.128906 C 200.453125 229.546875 200.5 228.96875 200.574219 228.394531 C 200.648438 227.820312 200.75 227.25 200.882812 226.683594 C 201.011719 226.117188 201.167969 225.558594 201.355469 225.011719 C 201.539062 224.460938 201.75 223.921875 201.988281 223.390625 C 202.226562 222.863281 202.488281 222.347656 202.777344 221.84375 C 203.066406 221.339844 203.378906 220.851562 203.71875 220.378906 C 204.054688 219.90625 204.414062 219.453125 204.792969 219.015625 C 205.175781 218.578125 205.578125 218.160156 206 217.761719 C 206.421875 217.363281 206.863281 216.988281 207.320312 216.632812 C 207.78125 216.277344 208.257812 215.945312 208.75 215.640625 C 209.242188 215.332031 209.746094 215.046875 210.265625 214.789062 C 210.785156 214.53125 211.316406 214.300781 211.859375 214.09375 C 212.402344 213.886719 212.953125 213.710938 213.511719 213.558594 C 214.074219 213.40625 214.640625 213.28125 215.210938 213.1875 C 215.785156 213.089844 216.359375 213.023438 216.9375 212.984375 C 217.519531 212.941406 218.097656 212.933594 218.675781 212.949219 C 219.257812 212.964844 219.835938 213.011719 220.410156 213.085938 C 220.984375 213.160156 221.554688 213.261719 222.121094 213.394531 C 222.6875 213.523438 223.246094 213.679688 223.796875 213.867188 C 224.34375 214.050781 224.882812 214.261719 225.414062 214.5 C 225.941406 214.738281 226.460938 215 226.960938 215.289062 C 227.464844 215.578125 227.953125 215.890625 228.425781 216.226562 C 228.898438 216.566406 229.355469 216.925781 229.792969 217.304688 C 230.230469 217.6875 230.644531 218.089844 231.042969 218.511719 C 231.441406 218.933594 231.816406 219.375 232.171875 219.832031 C 232.527344 220.292969 232.859375 220.769531 233.167969 221.261719 C 233.472656 221.753906 233.757812 222.257812 234.015625 222.777344 C 234.273438 223.296875 234.503906 223.828125 234.710938 224.371094 C 234.917969 224.914062 235.097656 225.464844 235.246094 226.023438 Z M 235.246094 226.023438 " fill-opacity="1" fill-rule="nonzero"/><path fill="#cf0303" d="M 342.21875 174.570312 C 348.628906 166.121094 346.96875 154.078125 338.5 147.667969 C 330.050781 141.257812 318.007812 142.917969 311.597656 151.386719 C 310.820312 152.417969 310.167969 153.488281 309.621094 154.582031 C 309.054688 155.421875 308.527344 156.304688 308.023438 157.230469 L 273.453125 221.984375 C 271.726562 225.21875 272.527344 229.109375 275.238281 231.148438 C 277.949219 233.207031 281.898438 232.910156 284.546875 230.390625 L 337.511719 179.570312 C 338.265625 178.855469 338.980469 178.101562 339.632812 177.324219 C 340.578125 176.523438 341.441406 175.597656 342.21875 174.570312 Z M 342.21875 174.570312 " fill-opacity="1" fill-rule="nonzero"/><path fill="#cf0303" d="M 265.886719 235.441406 C 266.652344 235.636719 267.390625 235.902344 268.105469 236.238281 C 268.820312 236.578125 269.492188 236.984375 270.125 237.453125 C 270.757812 237.925781 271.339844 238.453125 271.871094 239.039062 C 272.398438 239.625 272.867188 240.253906 273.273438 240.933594 C 273.675781 241.609375 274.011719 242.320312 274.277344 243.066406 C 274.542969 243.808594 274.730469 244.570312 274.847656 245.351562 C 274.960938 246.132812 275 246.917969 274.960938 247.707031 C 274.917969 248.492188 274.804688 249.269531 274.609375 250.035156 C 274.417969 250.800781 274.152344 251.539062 273.816406 252.253906 C 273.476562 252.96875 273.070312 253.640625 272.601562 254.273438 C 272.128906 254.90625 271.601562 255.488281 271.015625 256.019531 C 270.429688 256.546875 269.800781 257.015625 269.121094 257.417969 C 268.445312 257.824219 267.734375 258.160156 266.988281 258.425781 C 266.246094 258.691406 265.484375 258.878906 264.703125 258.996094 C 263.921875 259.109375 263.136719 259.148438 262.347656 259.109375 C 261.5625 259.066406 260.785156 258.953125 260.019531 258.757812 C 259.253906 258.566406 258.515625 258.300781 257.800781 257.960938 C 257.085938 257.625 256.414062 257.21875 255.78125 256.75 C 255.148438 256.277344 254.566406 255.75 254.035156 255.164062 C 253.507812 254.578125 253.039062 253.945312 252.632812 253.269531 C 252.230469 252.59375 251.894531 251.882812 251.628906 251.136719 C 251.363281 250.394531 251.175781 249.632812 251.058594 248.851562 C 250.945312 248.070312 250.90625 247.285156 250.945312 246.496094 C 250.984375 245.710938 251.101562 244.933594 251.296875 244.167969 C 251.488281 243.402344 251.753906 242.660156 252.089844 241.949219 C 252.429688 241.234375 252.835938 240.5625 253.304688 239.929688 C 253.777344 239.296875 254.304688 238.714844 254.890625 238.183594 C 255.476562 237.65625 256.105469 237.1875 256.785156 236.78125 C 257.460938 236.378906 258.171875 236.042969 258.917969 235.777344 C 259.660156 235.511719 260.421875 235.324219 261.203125 235.207031 C 261.984375 235.09375 262.769531 235.054688 263.558594 235.09375 C 264.34375 235.132812 265.121094 235.25 265.886719 235.441406 Z M 265.886719 235.441406 " fill-opacity="1" fill-rule="nonzero"/></svg>