<svg xmlns="http://www.w3.org/2000/svg" xmlns:xlink="http://www.w3.org/1999/xlink" width="500" zoomAndPan="magnify" viewBox="0 0 375 374.999991" height="500" preserveAspectRatio="xMidYMid meet" version="1.0"><defs><clipPath id="9fbe72e00d"><path d="M 259.617188 259.617188 L 262.617188 259.617188 L 262.617188 262.617188 L 259.617188 262.617188 Z M 259.617188 259.617188 " clip-rule="nonzero"/></clipPath><clipPath id="8160ba915d"><path d="M 260 260 L 262.617188 260 L 262.617188 262.617188 L 260 262.617188 Z M 260 260 " clip-rule="nonzero"/></clipPath></defs><g clip-path="url(#9fbe72e00d)"><path fill="#d30d0d" d="M 262.617188 261.117188 C 262.617188 261.3125 262.578125 261.503906 262.5 261.6875 C 262.425781 261.875 262.316406 262.035156 262.175781 262.175781 C 262.035156 262.316406 261.875 262.425781 261.6875 262.5 C 261.503906 262.578125 261.3125 262.617188 261.117188 262.617188 C 260.917969 262.617188 260.726562 262.578125 260.542969 262.5 C 260.359375 262.425781 260.195312 262.316406 260.054688 262.175781 C 259.914062 262.035156 259.804688 261.875 259.730469 261.6875 C 259.652344 261.503906 259.617188 261.3125 259.617188 261.117188 C 259.617188 260.917969 259.652344 260.726562 259.730469 260.542969 C 259.804688 260.359375 259.914062 260.195312 260.054688 260.054688 C 260.195312 259.914062 260.359375 259.804688 260.542969 259.730469 C 260.726562 259.652344 260.917969 259.617188 261.117188 259.617188 C 261.3125 259.617188 261.503906 259.652344 261.6875 259.730469 C 261.875 259.804688 262.035156 259.914062 262.175781 260.054688 C 262.316406 260.195312 262.425781 260.359375 262.5 260.542969 C 262.578125 260.726562 262.617188 260.917969 262.617188 261.117188 Z M 262.617188 261.117188 " fill-opacity="1" fill-rule="nonzero"/><path fill="#ffffff" d="M 262.578125 261.117188 C 262.578125 261.308594 262.539062 261.496094 262.464844 261.675781 C 262.390625 261.855469 262.285156 262.011719 262.148438 262.148438 C 262.011719 262.285156 261.855469 262.390625 261.675781 262.464844 C 261.496094 262.539062 261.308594 262.578125 261.117188 262.578125 C 260.921875 262.578125 260.734375 262.539062 260.554688 262.464844 C 260.375 262.390625 260.21875 262.285156 260.082031 262.148438 C 259.945312 262.011719 259.839844 261.855469 259.765625 261.675781 C 259.691406 261.496094 259.652344 261.308594 259.652344 261.117188 C 259.652344 260.921875 259.691406 260.734375 259.765625 260.554688 C 259.839844 260.375 259.945312 260.21875 260.082031 260.082031 C 260.21875 259.945312 260.375 259.839844 260.554688 259.765625 C 260.734375 259.691406 260.921875 259.652344 261.117188 259.652344 C 261.308594 259.652344 261.496094 259.691406 261.675781 259.765625 C 261.855469 259.839844 262.011719 259.945312 262.148438 260.082031 C 262.285156 260.21875 262.390625 260.375 262.464844 260.554688 C 262.539062 260.734375 262.578125 260.921875 262.578125 261.117188 Z M 262.578125 261.117188 " fill-opacity="1" fill-rule="nonzero"/><path fill="#d30d0d" d="M 262.503906 261.117188 C 262.503906 261.300781 262.46875 261.476562 262.398438 261.648438 C 262.328125 261.816406 262.226562 261.96875 262.097656 262.097656 C 261.96875 262.226562 261.816406 262.328125 261.648438 262.398438 C 261.476562 262.46875 261.300781 262.503906 261.117188 262.503906 C 260.929688 262.503906 260.753906 262.46875 260.582031 262.398438 C 260.414062 262.328125 260.261719 262.226562 260.132812 262.097656 C 260.003906 261.96875 259.902344 261.816406 259.832031 261.648438 C 259.761719 261.476562 259.726562 261.300781 259.726562 261.117188 C 259.726562 260.929688 259.761719 260.753906 259.832031 260.582031 C 259.902344 260.414062 260.003906 260.261719 260.132812 260.132812 C 260.261719 260.003906 260.414062 259.902344 260.582031 259.832031 C 260.753906 259.761719 260.929688 259.726562 261.117188 259.726562 C 261.300781 259.726562 261.476562 259.761719 261.648438 259.832031 C 261.816406 259.902344 261.96875 260.003906 262.097656 260.132812 C 262.226562 260.261719 262.328125 260.414062 262.398438 260.582031 C 262.46875 260.753906 262.503906 260.929688 262.503906 261.117188 Z M 262.503906 261.117188 " fill-opacity="1" fill-rule="nonzero"/></g><g clip-path="url(#8160ba915d)"><path fill="#ffffff" d="M 262.175781 261.117188 C 262.175781 261.253906 262.148438 261.390625 262.09375 261.519531 C 262.039062 261.648438 261.964844 261.765625 261.863281 261.863281 C 261.765625 261.964844 261.648438 262.039062 261.519531 262.09375 C 261.390625 262.148438 261.253906 262.175781 261.117188 262.175781 C 260.976562 262.175781 260.839844 262.148438 260.710938 262.09375 C 260.582031 262.039062 260.464844 261.964844 260.367188 261.863281 C 260.265625 261.765625 260.191406 261.648438 260.136719 261.519531 C 260.082031 261.390625 260.054688 261.253906 260.054688 261.117188 C 260.054688 260.976562 260.082031 260.839844 260.136719 260.710938 C 260.191406 260.582031 260.265625 260.464844 260.367188 260.367188 C 260.464844 260.265625 260.582031 260.191406 260.710938 260.136719 C 260.839844 260.082031 260.976562 260.054688 261.117188 260.054688 C 261.253906 260.054688 261.390625 260.082031 261.519531 260.136719 C 261.648438 260.191406 261.765625 260.265625 261.863281 260.367188 C 261.964844 260.464844 262.039062 260.582031 262.09375 260.710938 C 262.148438 260.839844 262.175781 260.976562 262.175781 261.117188 Z M 262.175781 261.117188 " fill-opacity="1" fill-rule="nonzero"/><path fill="#d30d0d" d="M 260.433594 260.164062 L 262.066406 261.796875 L 261.796875 262.066406 L 260.164062 260.433594 Z M 260.433594 260.164062 " fill-opacity="1" fill-rule="evenodd"/></g><path fill="#ff0000" d="M 120.316406 41.105469 C 110.523438 14.027344 80.605469 0 53.523438 9.816406 C 26.441406 19.605469 12.441406 49.503906 22.234375 76.585938 C 23.414062 79.847656 24.90625 82.921875 26.632812 85.808594 C 27.71875 88.363281 28.949219 90.871094 30.320312 93.355469 L 126.773438 267.808594 C 131.597656 276.539062 141.628906 280.441406 150.308594 277.292969 C 158.988281 274.148438 164.191406 264.734375 162.324219 254.941406 L 124.835938 59.152344 C 124.289062 56.363281 123.628906 53.640625 122.847656 50.992188 C 122.328125 47.683594 121.5 44.371094 120.316406 41.105469 Z M 120.316406 41.105469 " fill-opacity="1" fill-rule="nonzero"/><path fill="#ff0000" d="M 191.5 305.753906 C 192.253906 306.511719 192.972656 307.300781 193.648438 308.128906 C 194.328125 308.953125 194.964844 309.8125 195.558594 310.699219 C 196.152344 311.589844 196.699219 312.503906 197.203125 313.449219 C 197.707031 314.390625 198.164062 315.355469 198.574219 316.34375 C 198.984375 317.332031 199.34375 318.335938 199.652344 319.359375 C 199.964844 320.382812 200.222656 321.417969 200.429688 322.464844 C 200.640625 323.515625 200.796875 324.570312 200.902344 325.632812 C 201.007812 326.699219 201.058594 327.765625 201.058594 328.832031 C 201.058594 329.902344 201.007812 330.96875 200.902344 332.03125 C 200.796875 333.097656 200.640625 334.152344 200.429688 335.203125 C 200.222656 336.25 199.964844 337.285156 199.652344 338.308594 C 199.34375 339.332031 198.984375 340.335938 198.574219 341.324219 C 198.164062 342.3125 197.707031 343.277344 197.203125 344.21875 C 196.699219 345.164062 196.152344 346.078125 195.558594 346.96875 C 194.964844 347.855469 194.328125 348.714844 193.648438 349.539062 C 192.972656 350.367188 192.253906 351.15625 191.5 351.914062 C 190.742188 352.667969 189.953125 353.386719 189.125 354.066406 C 188.300781 354.742188 187.441406 355.378906 186.554688 355.972656 C 185.664062 356.566406 184.75 357.117188 183.804688 357.621094 C 182.863281 358.125 181.898438 358.578125 180.910156 358.988281 C 179.921875 359.398438 178.917969 359.757812 177.894531 360.066406 C 176.871094 360.378906 175.835938 360.636719 174.785156 360.847656 C 173.738281 361.054688 172.683594 361.210938 171.617188 361.316406 C 170.554688 361.421875 169.488281 361.472656 168.417969 361.472656 C 167.351562 361.472656 166.285156 361.421875 165.21875 361.316406 C 164.15625 361.210938 163.101562 361.054688 162.050781 360.847656 C 161.003906 360.636719 159.96875 360.378906 158.945312 360.070312 C 157.921875 359.757812 156.917969 359.398438 155.929688 358.988281 C 154.941406 358.582031 153.976562 358.125 153.03125 357.621094 C 152.089844 357.117188 151.175781 356.566406 150.285156 355.972656 C 149.398438 355.378906 148.539062 354.742188 147.714844 354.066406 C 146.886719 353.386719 146.09375 352.671875 145.339844 351.914062 C 144.582031 351.160156 143.867188 350.367188 143.1875 349.539062 C 142.511719 348.714844 141.875 347.855469 141.28125 346.96875 C 140.6875 346.078125 140.136719 345.164062 139.632812 344.222656 C 139.128906 343.277344 138.671875 342.3125 138.265625 341.324219 C 137.855469 340.335938 137.496094 339.332031 137.183594 338.308594 C 136.875 337.285156 136.613281 336.25 136.40625 335.203125 C 136.199219 334.152344 136.042969 333.097656 135.9375 332.035156 C 135.832031 330.96875 135.777344 329.902344 135.777344 328.835938 C 135.777344 327.765625 135.832031 326.699219 135.9375 325.636719 C 136.042969 324.570312 136.199219 323.515625 136.40625 322.46875 C 136.613281 321.417969 136.875 320.382812 137.183594 319.359375 C 137.496094 318.335938 137.855469 317.332031 138.261719 316.34375 C 138.671875 315.355469 139.128906 314.390625 139.632812 313.449219 C 140.136719 312.503906 140.6875 311.589844 141.28125 310.699219 C 141.875 309.8125 142.507812 308.953125 143.1875 308.128906 C 143.867188 307.300781 144.582031 306.511719 145.339844 305.753906 C 146.09375 305 146.886719 304.28125 147.710938 303.605469 C 148.539062 302.925781 149.394531 302.289062 150.285156 301.695312 C 151.171875 301.101562 152.089844 300.554688 153.03125 300.050781 C 153.976562 299.546875 154.941406 299.089844 155.925781 298.679688 C 156.914062 298.269531 157.921875 297.910156 158.945312 297.601562 C 159.964844 297.289062 161.003906 297.03125 162.050781 296.820312 C 163.097656 296.613281 164.15625 296.457031 165.21875 296.351562 C 166.28125 296.246094 167.347656 296.195312 168.417969 296.195312 C 169.488281 296.195312 170.554688 296.246094 171.617188 296.351562 C 172.679688 296.457031 173.738281 296.613281 174.785156 296.820312 C 175.835938 297.03125 176.871094 297.289062 177.894531 297.601562 C 178.914062 297.910156 179.921875 298.269531 180.910156 298.679688 C 181.898438 299.089844 182.863281 299.542969 183.804688 300.046875 C 184.746094 300.550781 185.664062 301.101562 186.550781 301.695312 C 187.441406 302.289062 188.296875 302.925781 189.125 303.601562 C 189.949219 304.28125 190.742188 305 191.5 305.753906 Z M 191.5 305.753906 " fill-opacity="1" fill-rule="nonzero"/><path fill="#ff0000" d="M 271.5 63.175781 C 273.910156 45.742188 261.730469 29.660156 244.300781 27.269531 C 226.867188 24.859375 210.785156 37.039062 208.394531 54.46875 C 208.113281 56.574219 208.042969 58.65625 208.160156 60.691406 C 208.019531 62.371094 207.96875 64.097656 208.019531 65.824219 L 210.574219 187.558594 C 210.691406 193.636719 215.019531 198.605469 220.601562 199.386719 C 226.183594 200.164062 231.695312 196.546875 233.445312 190.726562 L 268.828125 74.21875 C 269.324219 72.5625 269.75 70.910156 270.082031 69.230469 C 270.71875 67.3125 271.191406 65.277344 271.5 63.175781 Z M 271.5 63.175781 " fill-opacity="1" fill-rule="nonzero"/><path fill="#ff0000" d="M 234.964844 227.207031 C 235.132812 227.835938 235.273438 228.476562 235.382812 229.117188 C 235.488281 229.761719 235.566406 230.410156 235.609375 231.0625 C 235.65625 231.714844 235.667969 232.367188 235.648438 233.019531 C 235.628906 233.671875 235.578125 234.320312 235.492188 234.96875 C 235.410156 235.617188 235.296875 236.257812 235.148438 236.894531 C 235.003906 237.53125 234.824219 238.160156 234.617188 238.777344 C 234.410156 239.398438 234.171875 240.003906 233.902344 240.597656 C 233.632812 241.195312 233.339844 241.777344 233.011719 242.34375 C 232.6875 242.910156 232.335938 243.457031 231.957031 243.988281 C 231.578125 244.523438 231.175781 245.035156 230.746094 245.527344 C 230.316406 246.019531 229.863281 246.488281 229.390625 246.9375 C 228.914062 247.382812 228.417969 247.808594 227.898438 248.207031 C 227.382812 248.605469 226.847656 248.976562 226.292969 249.324219 C 225.742188 249.671875 225.171875 249.988281 224.585938 250.277344 C 224.003906 250.570312 223.40625 250.832031 222.792969 251.0625 C 222.183594 251.292969 221.5625 251.496094 220.933594 251.667969 C 220.300781 251.835938 219.664062 251.976562 219.019531 252.085938 C 218.378906 252.191406 217.730469 252.269531 217.078125 252.3125 C 216.425781 252.359375 215.773438 252.371094 215.121094 252.351562 C 214.46875 252.332031 213.820312 252.28125 213.171875 252.195312 C 212.523438 252.113281 211.882812 252 211.246094 251.851562 C 210.609375 251.707031 209.980469 251.527344 209.363281 251.320312 C 208.742188 251.113281 208.136719 250.875 207.539062 250.605469 C 206.945312 250.335938 206.363281 250.042969 205.796875 249.714844 C 205.230469 249.390625 204.683594 249.039062 204.148438 248.660156 C 203.617188 248.28125 203.105469 247.878906 202.613281 247.449219 C 202.121094 247.019531 201.652344 246.566406 201.203125 246.09375 C 200.757812 245.617188 200.332031 245.121094 199.933594 244.601562 C 199.535156 244.085938 199.164062 243.550781 198.816406 242.996094 C 198.46875 242.445312 198.152344 241.875 197.859375 241.289062 C 197.570312 240.707031 197.308594 240.105469 197.078125 239.496094 C 196.847656 238.886719 196.644531 238.265625 196.472656 237.636719 C 196.304688 237.003906 196.164062 236.367188 196.054688 235.722656 C 195.945312 235.082031 195.871094 234.433594 195.828125 233.78125 C 195.78125 233.128906 195.769531 232.476562 195.789062 231.824219 C 195.808594 231.171875 195.859375 230.523438 195.941406 229.875 C 196.027344 229.226562 196.140625 228.585938 196.289062 227.949219 C 196.433594 227.3125 196.613281 226.683594 196.820312 226.066406 C 197.027344 225.445312 197.265625 224.839844 197.535156 224.242188 C 197.800781 223.648438 198.097656 223.066406 198.421875 222.5 C 198.75 221.933594 199.101562 221.386719 199.480469 220.851562 C 199.859375 220.320312 200.261719 219.808594 200.691406 219.316406 C 201.121094 218.824219 201.574219 218.355469 202.046875 217.90625 C 202.523438 217.460938 203.019531 217.035156 203.535156 216.636719 C 204.054688 216.238281 204.589844 215.867188 205.140625 215.519531 C 205.695312 215.171875 206.265625 214.855469 206.851562 214.5625 C 207.433594 214.273438 208.03125 214.011719 208.644531 213.78125 C 209.253906 213.550781 209.875 213.347656 210.503906 213.175781 C 211.132812 213.007812 211.773438 212.867188 212.414062 212.757812 C 213.058594 212.648438 213.707031 212.574219 214.359375 212.53125 C 215.011719 212.484375 215.664062 212.472656 216.316406 212.492188 C 216.96875 212.511719 217.617188 212.5625 218.265625 212.644531 C 218.914062 212.730469 219.554688 212.84375 220.191406 212.992188 C 220.828125 213.136719 221.457031 213.316406 222.074219 213.523438 C 222.695312 213.730469 223.300781 213.96875 223.894531 214.238281 C 224.492188 214.503906 225.074219 214.800781 225.640625 215.125 C 226.207031 215.453125 226.753906 215.804688 227.285156 216.183594 C 227.820312 216.5625 228.332031 216.964844 228.824219 217.394531 C 229.316406 217.824219 229.785156 218.277344 230.234375 218.75 C 230.679688 219.226562 231.105469 219.722656 231.503906 220.238281 C 231.902344 220.757812 232.273438 221.292969 232.621094 221.84375 C 232.96875 222.398438 233.285156 222.96875 233.574219 223.554688 C 233.867188 224.136719 234.128906 224.734375 234.359375 225.347656 C 234.589844 225.957031 234.792969 226.578125 234.964844 227.207031 Z M 234.964844 227.207031 " fill-opacity="1" fill-rule="nonzero"/><path fill="#ff0000" d="M 355.34375 169.300781 C 362.558594 159.792969 360.691406 146.238281 351.160156 139.027344 C 341.652344 131.8125 328.097656 133.679688 320.882812 143.210938 C 320.007812 144.371094 319.277344 145.578125 318.660156 146.808594 C 318.023438 147.753906 317.429688 148.746094 316.863281 149.789062 L 277.957031 222.660156 C 276.015625 226.300781 276.914062 230.675781 279.96875 232.96875 C 283.019531 235.289062 287.464844 234.957031 290.445312 232.121094 L 350.046875 174.929688 C 350.898438 174.125 351.703125 173.273438 352.4375 172.398438 C 353.5 171.5 354.46875 170.457031 355.34375 169.300781 Z M 355.34375 169.300781 " fill-opacity="1" fill-rule="nonzero"/><path fill="#ff0000" d="M 269.445312 237.804688 C 270.304688 238.023438 271.136719 238.320312 271.941406 238.703125 C 272.742188 239.082031 273.5 239.539062 274.214844 240.070312 C 274.925781 240.597656 275.582031 241.191406 276.175781 241.851562 C 276.773438 242.511719 277.296875 243.222656 277.753906 243.984375 C 278.210938 244.746094 278.585938 245.546875 278.886719 246.382812 C 279.183594 247.21875 279.398438 248.078125 279.527344 248.957031 C 279.65625 249.835938 279.699219 250.71875 279.652344 251.605469 C 279.609375 252.492188 279.476562 253.367188 279.261719 254.226562 C 279.042969 255.089844 278.746094 255.921875 278.363281 256.722656 C 277.984375 257.527344 277.527344 258.285156 277 258.996094 C 276.46875 259.710938 275.875 260.363281 275.214844 260.960938 C 274.558594 261.554688 273.847656 262.082031 273.082031 262.539062 C 272.320312 262.992188 271.523438 263.371094 270.683594 263.667969 C 269.847656 263.96875 268.992188 264.179688 268.113281 264.308594 C 267.234375 264.441406 266.351562 264.480469 265.460938 264.4375 C 264.574219 264.394531 263.699219 264.261719 262.839844 264.046875 C 261.976562 263.828125 261.144531 263.53125 260.34375 263.148438 C 259.539062 262.769531 258.78125 262.3125 258.070312 261.78125 C 257.355469 261.253906 256.703125 260.660156 256.105469 260 C 255.511719 259.339844 254.984375 258.628906 254.53125 257.867188 C 254.074219 257.105469 253.695312 256.304688 253.398438 255.46875 C 253.101562 254.632812 252.886719 253.773438 252.757812 252.894531 C 252.628906 252.015625 252.585938 251.132812 252.628906 250.246094 C 252.675781 249.359375 252.804688 248.484375 253.023438 247.625 C 253.238281 246.761719 253.539062 245.929688 253.917969 245.128906 C 254.300781 244.324219 254.753906 243.566406 255.285156 242.855469 C 255.816406 242.140625 256.410156 241.488281 257.066406 240.890625 C 257.726562 240.296875 258.4375 239.769531 259.199219 239.3125 C 259.960938 238.859375 260.761719 238.480469 261.597656 238.183594 C 262.4375 237.882812 263.292969 237.671875 264.171875 237.539062 C 265.050781 237.410156 265.933594 237.371094 266.820312 237.414062 C 267.707031 237.457031 268.582031 237.589844 269.445312 237.804688 Z M 269.445312 237.804688 " fill-opacity="1" fill-rule="nonzero"/></svg>